<svg xmlns="http://www.w3.org/2000/svg" xml:space="preserve" width="1241.271" height="1447.48"><path style="fill:#0068ff;stroke:#0074ff;stroke-width:2;stroke-linecap:butt;stroke-linejoin:miter;stroke-miterlimit:10;stroke-dasharray:none;stroke-opacity:1;fill-opacity:1" d="M0 0c4.342.395 4.92-6.9.15-6.376-6.435-.77-12.973-.395-19.373-1.634-8.222-.408-16.346-1.849-24.574-1.983-4.05.33-8.204 1.207-11.962 2.244-2.494 3.221 1.98 5.948 4.864 4.657 9.21-2.24 18.463.735 27.727.85C-16.6-1.449-10.077-.568-3.475-.305-2.319-.154-1.159-.092 0 0z" transform="matrix(1.33333 0 0 -1.33333 209.873 422.796)"/>
<path style="fill:#0068ff;stroke:#0074ff;stroke-width:2;stroke-linecap:butt;stroke-linejoin:miter;stroke-miterlimit:10;stroke-dasharray:none;stroke-opacity:1;fill-opacity:1" d="M0 0c4.531-2.943-1.517-8.14-5.299-7.114-13.904-1.467-28.044.998-41.911-1.289-3.29-.808-8.433 1.645-6.511 5.483 2.516 1.606 5.26-1.101 8.017.334C-31.631-.162-17.044-3.331-3.108-.46-2.182.204-1.077.402 0 0z" transform="matrix(1.33333 0 0 -1.33333 207.188 391.558)"/>
<path style="fill:#0068ff;stroke:#0074ff;stroke-width:2;stroke-linecap:butt;stroke-linejoin:miter;stroke-miterlimit:10;stroke-dasharray:none;stroke-opacity:1;fill-opacity:1" d="M0 0c4.151-1.99 1.413-9.04-3.125-7.152-7.012-1.962-14.342-2.325-21.508-.784-8.642 1.488-17.54.88-26.046-.687-3.912-3.23-6.355 4.04-2.284 5.369 5.4 1.751 11.323 2.15 17.018 2.43 10.152.418 20.426-3.598 30.334-.062C-3.588-.86-2.012.797 0 0z" transform="matrix(1.33333 0 0 -1.33333 208.015 314.288)"/>
<path style="fill:#0068ff;stroke:#0074ff;stroke-width:2;stroke-linecap:butt;stroke-linejoin:miter;stroke-miterlimit:10;stroke-dasharray:none;stroke-opacity:1;fill-opacity:1" d="M0 0c4.126-2.221.495-7.126-3.15-5.964-4.635-.937-9.346-.54-14.047-.735-10.266-1.625-20.432-3.839-30.721-5.345-3.615-.87-5.852 5.216-1.401 5.605 5.078-.118 10.1 1.904 15.152 2.638 8.553 1.5 17.096 3.97 25.883 3.177C-5.584.023-2.746.391 0 0z" transform="matrix(1.33333 0 0 -1.33333 207.43 241.953)"/>
<path style="fill:#0068ff;stroke:#0074ff;stroke-width:2;stroke-linecap:butt;stroke-linejoin:miter;stroke-miterlimit:10;stroke-dasharray:none;stroke-opacity:1;fill-opacity:1" d="M0 0c3.247-.559 9.412.46 8.888-4.325-2.117-5.332-8.018 0-11.823-2.318-7.75-2.336-15.956-2.335-23.963-2.333-4.409-.63-10.24-2.209-13.706 1.345-1.905 2.328 1.046 5.588 3.568 3.687 5.481-.962 10.712 1.847 16.225.79 6.77.015 13.368 1.546 19.834 3.161C-.651.014-.325.025 0 0z" transform="matrix(1.33333 0 0 -1.33333 195.22 216.274)"/>
<path style="fill:#0068ff;stroke:#0074ff;stroke-width:2;stroke-linecap:butt;stroke-linejoin:miter;stroke-miterlimit:10;stroke-dasharray:none;stroke-opacity:1;fill-opacity:1" d="M0 0c2.854-.58 7.9.662 7.115-3.91C5.34-8.605-.203-5.298-3.812-6.332c-6.907-.575-13.701-1.844-20.597-2.622-5.319-1.19-10.783-2.368-16.172-2.536-4.37-1.49-4.573 5.263-.668 5.609 8.833.915 17.387 3.73 26.297 4.297C-10.036-.635-5.032-.07 0 0z" transform="matrix(1.33333 0 0 -1.33333 194.14 117.907)"/>
<path style="fill:#0068ff;stroke:#0074ff;stroke-width:2;stroke-linecap:butt;stroke-linejoin:miter;stroke-miterlimit:10;stroke-dasharray:none;stroke-opacity:1;fill-opacity:1" d="M0 0c4.202.206 4.184-5.865.42-6.485-5.432-2.512-11.459 1.062-17.014-.955-7.516.383-14.907-1.013-21.995-3.39-2.485.174-3.93-1.647-6.032-2.247-4.682.842-2.21 7.12 1.52 7.343 8.254 2.4 16.644 5.131 25.419 4.434 4.52 1.535 9.18.397 13.784.211C-2.442-1.174-1.463.153 0 0z" transform="matrix(1.33333 0 0 -1.33333 203.239 75.103)"/>
<path style="fill:#0068ff;stroke:#0074ff;stroke-width:2;stroke-linecap:butt;stroke-linejoin:miter;stroke-miterlimit:10;stroke-dasharray:none;stroke-opacity:1;fill-opacity:1" d="M0 0c2.66-1.183 5.375-.276 8.011-.277 3.794-2.1.416-6.375-2.821-5.924-3.305-.412-6.549 1.786-9.713-.166-5.746-1.135-11.663-.23-17.473-1.148-2.946.524-8.074-1.582-9.13 2.382.633 3.383 5.146 2.206 7.605 2.876 5.54.644 11.126.564 16.643.952C-4.6-.761-2.413.288 0 0z" transform="matrix(1.33333 0 0 -1.33333 279.72 421.333)"/>
<path style="fill:#0068ff;stroke:#0074ff;stroke-width:2;stroke-linecap:butt;stroke-linejoin:miter;stroke-miterlimit:10;stroke-dasharray:none;stroke-opacity:1;fill-opacity:1" d="M0 0c4.116-1.55 3.186-6.793 4.574-10.198.628-3.351-1.877-6.499-4.588-8.103-6.088-1.656-12.437-2.391-18.718-2.651-8.329.787-16.66-1.698-25.05-.84-6.459-.799-10.927 5.158-11.32 11.007-1.04 2.443.1 6.068 3.136 6.064 1.291 4.545 7.383 3.043 11.069 3.389 12.932-.321 25.843.368 38.696 1.485C-1.456.162-.729.197 0 0z" transform="matrix(1.33333 0 0 -1.33333 303.583 226.416)"/>
<path style="fill:#0068ff;stroke:#0074ff;stroke-width:2;stroke-linecap:butt;stroke-linejoin:miter;stroke-miterlimit:10;stroke-dasharray:none;stroke-opacity:1;fill-opacity:1" d="M0 0c3.528-1.665.76-6.454-2.571-5.332-5.368-.341-10.74-.49-15.979-1.609-9.303.24-18.605.202-27.91-.157-2.736-.356-8.366.726-6.698 4.478 3.447 1.849 7.758.246 11.555.988 7.983.573 16.004.045 23.978.158C-12.309.128-6.589-.299-1.082.218l.768-.155z" transform="matrix(1.33333 0 0 -1.33333 303.371 207.478)"/>
<path style="fill:#0068ff;stroke:#0074ff;stroke-width:2;stroke-linecap:butt;stroke-linejoin:miter;stroke-miterlimit:10;stroke-dasharray:none;stroke-opacity:1;fill-opacity:1" d="M0 0c3.93-2.31.244-6.182-2.952-5.948-8.428-1.076-16.944-1.91-25.432-.767-7.441.23-15.4-1.948-22.522.71-3.11 1.858.39 6.812 3.01 4.201 8.775-1.084 17.563 1.471 26.331-.129C-14.409-2.334-7.276-.668-.321.065z" transform="matrix(1.33333 0 0 -1.33333 408.767 421.45)"/>
<path style="fill:#0068ff;stroke:#0074ff;stroke-width:2;stroke-linecap:butt;stroke-linejoin:miter;stroke-miterlimit:10;stroke-dasharray:none;stroke-opacity:1;fill-opacity:1" d="M0 0c-2.712.303-1.147-1.143.085-1.197C-.005-.877.567.175 0 0zm-40.527-6.345c-2.733.118.752-1.374 1.7-.266 1.75.43-1.64.186-1.7.266zm36.139-1.929c-2.722-.808-5.577-1.11-8.4-1.149 2.954.103 5.868-.582 8.4 1.149zM3.145 5.957C8.236 4.404 5.214-2.036 6.033-5.886c.389-3.976-.728-9.7-5.96-9.151-8.673-.11-17.286-1.898-25.97-.692-7.513.21-15.189-.102-22.594 1.129-4.188 1.759-2.929 6.933-3.142 10.445 1.51 2.082.172 5.508 2.624 7.388 3.585 2.956 8.82.328 13.077 1.397 7.793 1.022 15.62.076 23.437.947 5.26-.472 10.422.34 15.64.38z" transform="matrix(1.33333 0 0 -1.33333 404.004 231.005)"/>
<path style="fill:#0068ff;stroke:#0074ff;stroke-width:2;stroke-linecap:butt;stroke-linejoin:miter;stroke-miterlimit:10;stroke-dasharray:none;stroke-opacity:1;fill-opacity:1" d="M0 0c3.537-1.936.187-5.942-2.876-4.819-8.754.704-17.357-.777-26.033-1.34-6.645.52-13.397.957-19.906 2.27-2.481 1.107-.006 2.733 1.727 2.456 8.588 1.018 17.226-1.34 25.766.625C-14.265-.13-7.082.384 0 0z" transform="matrix(1.33333 0 0 -1.33333 404.35 205.54)"/>
<path style="fill:#0068ff;stroke:#0074ff;stroke-width:2;stroke-linecap:butt;stroke-linejoin:miter;stroke-miterlimit:10;stroke-dasharray:none;stroke-opacity:1;fill-opacity:1" d="M0 0c6.543-1.562 13.327-.075 19.875-.327 4.894-1.832.38-9.466-3.685-6.036-6.124-.582-12.235-.14-18.288.39-6.12-1.177-12.512-2.364-18.537-.152-2.553.095-6.719-2.114-7.201 2.036.847 3.479 5.59 4.103 8.682 3.836C-12.878-3.122-6.434.077 0 0z" transform="matrix(1.33333 0 0 -1.33333 476.727 425.503)"/>
<path style="fill:#d20078;fill-opacity:1;stroke:#d20078;stroke-width:2.66666;stroke-linecap:butt;stroke-linejoin:miter;stroke-miterlimit:10;stroke-dasharray:none;stroke-opacity:1" d="M990.612 99.78c6.441-.015 12.882.259 19.318.35 2.993.245.786 3.734-1.402 2.647-8.264.122-16.533.558-24.793.044-9.773-.067-19.55-.282-29.321.006-2.738-.041-5.505.106-8.225-.042-2.715-1.467.675-3.649 2.574-2.763 7.474-.005 14.942.287 22.416.134 6.479-.043 12.962-.025 19.433-.376z"/>
<path style="fill:#d20078;stroke:#d20078;stroke-width:2.66666;stroke-linecap:butt;stroke-linejoin:miter;stroke-miterlimit:10;stroke-dasharray:none;stroke-opacity:1;fill-opacity:1" d="M948.076 100.09c.845 9.084.05 18.404.341 27.578-.017 11.001.153 21.995.094 33 .336 11.548-.014 23.096.256 34.645.237 13.048.225 26.105.085 39.154.156 16.89-.292 33.792-.01 50.685.044 11.393-.32 22.785-.412 34.179-2.547 2.873-2.08-3.253-2.102-4.916-.183-14.878-.448-29.75-.208-44.63-.108-17.348-.21-34.684-.168-52.031-.189-16.466.53-32.927.21-49.393.304-9.703.147-19.413.236-29.113.19-12.834-.093-25.677.115-38.516.1-.797.94-1.13 1.563-.642z"/>
<path style="fill:#d20078;fill-opacity:1;stroke:#d20078;stroke-width:2.66666;stroke-linecap:butt;stroke-linejoin:miter;stroke-miterlimit:10;stroke-dasharray:none;stroke-opacity:1" d="M976.132 317.426c5.103-.065 10.2.27 15.304.202 6.582.293 13.196.172 19.766.38 2.281 2.264-2.38 2.312-3.822 2.078-5.904.052-11.804.193-17.705.315-6.014-.007-12.026.34-18.042.147-7.175-.02-14.349-.26-21.512-.59-1.507-.18-5.074 1.073-4.67-1.468 2.032-1.223 4.737-.076 7.055-.48 7.862-.563 15.749-.487 23.626-.584z"/>
<path style="fill:#d20078;stroke:#d20078;stroke-width:2.66666;stroke-linecap:butt;stroke-linejoin:miter;stroke-miterlimit:10;stroke-dasharray:none;stroke-opacity:1;fill-opacity:1" d="M1010.653 100.308c.778 5.486-.029 11.236.372 16.823-.182 24.804-.2 49.62.048 74.424.255 13.387.111 26.79.197 40.186.48 16.047-.112 32.106-.031 48.156.019 9.386-.114 18.773-.074 28.168-.298 3.822.013 7.742-.238 11.508-2.105 2.44-2.767-2.015-2.18-3.57-.245-10.09-.082-20.198-.239-30.285.152-17.307-.398-34.629-.102-51.94.317-12.239-.033-24.496.219-36.733.423-30.008.17-60.047.17-90.057.437-2.234-1.096-5.704 1.086-6.997l.413.17zm-527.069 51.906c14.718 11.704 33.958 14.993 50.805 22.75 34.803 14.79 68.73 31.622 103.388 46.817 30.45 14.728 61.723 27.729 92.35 42.106 51.592 22.786 103.8 44.326 153.908 70.294 24.328 10.917 48.317 23.109 73.748 31.18 3.691-.336 8.885 3.755 4.256 6.726-12.736-1.734-24.4-8.276-36.316-12.914-31.215-13.014-61.025-28.956-91.639-43.254-49.167-22.616-99.325-43.027-148.325-66.021-30.546-13.154-60.375-27.824-90.8-41.25-27.135-12.818-54.366-25.402-82.297-36.346-11.552-3.446-23.012-8.797-32.12-16.424-5.012-1.338.29-6.45 3.042-3.664zm687.811 186.789c2.802 1.739-.62 4.669-2.723 4.613-23.457 13.22-45.069 29.43-67.663 44.05-28.384 19.277-57.792 37.06-85.34 57.539-8.348 5.748-16.524 11.945-25.57 16.527-1.522 1.333-4.362-.472-2.75-2.23 1.071-1.948 3.452-.432 4.851-1.972 17.837-10.97 34.089-24.275 51.602-35.75 26.1-17.372 52.322-34.575 78.068-52.469 15.613-10.545 31.136-21.534 47.805-30.225.566-.188 1.12-.322 1.72-.083zm12.534 81.964c1.827.68 4.212 3.203 2.02 4.85-4.6 1.41-9.592 1.597-14.315 2.686-15.192 2.421-30.444 4.52-45.567 7.376-40.737 8.005-80.787 19.058-121.317 27.97a232.315 232.315 0 0 0-16.274 4.133c-2.171-.455-.74-2.9.861-2.871 10.796-3.475 22.046-5.405 33.051-8.152 36.958-8.62 73.627-18.61 110.95-25.58 13.513-2.404 27.091-4.427 40.601-6.808 2.603-.46 5.329-1.13 7.862-1.485-.536-1.312.816-2.664 2.128-2.119zm-195.641 49.876c9.865 1.848 19.626 4.41 29.433 6.641 21.73 4.884 43.364 10.181 65.039 15.313 18.45 3.547 36.67 8.273 54.406 14.481 10.214 3.603 20.876 5.685 31.143 9.107 5.102 1.585 10.45 2.215 15.516 3.815 2.174 1.257-.438 3.775-2.165 2.368-7.542-1.578-14.972-3.626-22.347-5.916-8.883-2.595-17.907-4.701-26.58-7.989-16.569-5.728-33.602-9.992-50.793-13.38-23.664-5.697-47.294-11.563-71.057-16.835-7.54-2.347-15.465-3.444-22.875-6.089-.852-.315-.82-1.707.28-1.516zm-.216 5.042c3.373 1.266 6.639 2.87 9.944 4.555 10.129 5.68 20.16 11.512 29.907 17.838 26.546 15.553 52.912 31.442 78.817 48.046 12.43 8.084 25.18 15.673 37.363 24.14 10.206 6.423 19.801 13.72 29.868 20.327 1.925 1.545 4.069 1.722 6.083 2.119 2.056 1 .954 4.032-1.343 3.315-8.678-2.986-15.395-9.678-23.033-14.535-15.772-10.752-31.681-21.314-47.904-31.368-24.021-15.784-48.76-30.44-73.377-45.266-11.51-6.58-22.376-14.224-33.944-20.704-4.101-2.937-9.001-4.514-13.101-7.391-.395-.522.144-1.203.72-1.076z"/>
<path style="fill:#d20078;fill-opacity:1;fill-rule:nonzero;stroke:none;stroke-width:1.33333" d="M981.894 321.342c4.55 4.499-.06 11.247 1.416 16.758.527 24.635.53 49.278.014 73.912.285 23.818.397 47.644 1.253 71.448-6.119 1.992-2.643-9.775-3.73-13.612-.623-27.3-1.05-54.61-.623-81.918-1.227-15.98-.335-32.021-.795-48.012-.506-6.102-2.432-12.972.893-18.565.447-.328 1.13-.4 1.572-.011z"/>
<path style="fill:none;stroke:#d20078;stroke-width:2.66666;stroke-linecap:butt;stroke-linejoin:miter;stroke-miterlimit:10;stroke-dasharray:none;stroke-opacity:1" d="M981.894 321.342c4.55 4.499-.06 11.247 1.416 16.758.527 24.635.53 49.278.014 73.912.285 23.818.397 47.644 1.253 71.448-6.119 1.992-2.643-9.775-3.73-13.612-.623-27.3-1.05-54.61-.623-81.918-1.227-15.98-.335-32.021-.795-48.012-.506-6.102-2.432-12.972.893-18.565.447-.328 1.13-.4 1.572-.011z"/>
<path style="fill:#d20078;fill-opacity:1;fill-rule:nonzero;stroke:none;stroke-width:1.33333" d="M978.21 320.69c1.517 6.967 1.66 14.166 2.59 21.213 1.25 26.892-.724 53.804.141 80.704-.022 15.872.74 31.724 1.358 47.573-.24 4.77 2.015 10.112.13 14.421-4.848-.575-1.427-8.533-2.978-12.356-.59-10.848-.752-21.709-1.212-32.567-.48-23.21-.62-46.425.015-69.634.052-13.633.212-27.334-1.774-40.853.325-1.938-1.711-9.328 1.73-8.501z"/>
<path style="fill:none;stroke:#d20078;stroke-width:2.66666;stroke-linecap:butt;stroke-linejoin:miter;stroke-miterlimit:10;stroke-dasharray:none;stroke-opacity:1" d="M978.21 320.69c1.517 6.967 1.66 14.166 2.59 21.213 1.25 26.892-.724 53.804.141 80.704-.022 15.872.74 31.724 1.358 47.573-.24 4.77 2.015 10.112.13 14.421-4.848-.575-1.427-8.533-2.978-12.356-.59-10.848-.752-21.709-1.212-32.567-.48-23.21-.62-46.425.015-69.634.052-13.633.212-27.334-1.774-40.853.325-1.938-1.711-9.328 1.73-8.501z"/>
<path style="fill:#d20078;fill-opacity:1;fill-rule:nonzero;stroke:none;stroke-width:1.33333" d="M981.847 321.251c-.863 4.511.675 14.197-3.077 15.243-1.238-4.827-1.102-12.208 2.303-15.569z"/>
<path style="fill:none;stroke:#d20078;stroke-width:2.66666;stroke-linecap:butt;stroke-linejoin:miter;stroke-miterlimit:10;stroke-dasharray:none;stroke-opacity:1" d="M981.847 321.251c-.863 4.511.675 14.197-3.077 15.243-1.238-4.827-1.102-12.208 2.303-15.569z"/>
<path style="fill:#d20078;fill-opacity:1;fill-rule:nonzero;stroke:none;stroke-width:1.33333" d="M979.303 322.168c-.15 21.792.467 43.58.907 65.37-.964 22.421 1.253 44.823.89 67.243.27 8.404.164 16.847.815 25.216-4.409 3.043-2.849-6.373-3.416-9.208-.467-18.183-.24-36.371-1.151-54.547-.662-11.294.018-22.596-.051-33.887-.8-17.991-.707-36.02-1.034-54.017.46-1.645-.118-7.812 3.04-6.17z"/>
<path style="fill:none;stroke:#d20078;stroke-width:2.66666;stroke-linecap:butt;stroke-linejoin:miter;stroke-miterlimit:10;stroke-dasharray:none;stroke-opacity:1" d="M979.303 322.168c-.15 21.792.467 43.58.907 65.37-.964 22.421 1.253 44.823.89 67.243.27 8.404.164 16.847.815 25.216-4.409 3.043-2.849-6.373-3.416-9.208-.467-18.183-.24-36.371-1.151-54.547-.662-11.294.018-22.596-.051-33.887-.8-17.991-.707-36.02-1.034-54.017.46-1.645-.118-7.812 3.04-6.17z"/>
<path style="fill:none;stroke:#d20078;stroke-width:2.66666;stroke-linecap:butt;stroke-linejoin:miter;stroke-miterlimit:10;stroke-dasharray:none;stroke-opacity:1" d="M984.765 321.266c.425 12.84-.379 25.694-.256 38.543.073 16.831.048 33.66-.494 50.484.115 13.984.101 27.972.476 41.953-.208 5.495 1.394 11.464-.334 16.67-4.386.793-1.472-8.172-2.263-11.344-.905-15.637-.667-31.35-.906-47.023.328-14.314.85-28.622.45-42.942.378-14.897-.237-29.838.851-44.71.069-1.294 1.121-2.582 2.476-1.631z"/>
<path style="fill:none;stroke:#d20078;stroke-width:2.66666;stroke-linecap:butt;stroke-linejoin:miter;stroke-miterlimit:10;stroke-dasharray:none;stroke-opacity:1" d="M980.283 343.529c2.202 9.306-.423 18.833-.164 28.246-.186 12.949-.332 25.91.767 38.819.82 23.17-.784 46.35-.012 69.524 1.175 2.781-1.535 8.937-3.216 3.716-.029-15.584-.186-31.204.286-46.802.358-12.956.11-25.91-.793-38.834-.413-18.066.488-36.15 1.757-54.152.18-.507.876-.99 1.375-.517z"/>
<path style="fill:#565656;fill-opacity:1;fill-rule:nonzero;stroke:none" d="M0 0c23.888-2.382 48.193-1.596 72.24-1.612 80.747 2.826 161.515-.547 242.275-.128C402.82.077 491.096-4.828 579.381-3.654c13.5-.653 27.49 3.04 40.696-.545.391-3.419-7.493 1.205-10.118-.384-78.713-2.319-157.436 2.227-236.17 1.956-57.379-.34-114.758-.757-172.129.538C144.791-1 87.942-3.392 31.082-3.284c-9.012.07-20.674.697-28.031.442 1.615-.817 6.992-5.25 2.668-2.898C3.899-3.82-1.069-3.217-.718-.268l.682.283z" transform="matrix(1.33333 0 0 -1.33333 137.45 458.537)"/>
<path style="fill:#565656;fill-opacity:1;fill-rule:nonzero;stroke:none" d="M0 0c27.786-.077 55.595-.082 83.345-1.489 29.747-.612 59.602-.283 89.218-3.071 5.431-.697 1.744-9.48-2.868-5.377-39.168 2.953-78.56 1.886-117.797 3.881-49.735.671-99.473-.005-149.18-1.112-30.649-.628-61.269-1.071-91.932-1.042-29.864-.914-59.767-.548-89.646-.161-21.902 1.334-43.931 1.913-65.88 1.671-27.31.833-54.536-1.513-81.856-1.19-6.961.376-14.53-2.386-21.105.553-3.478 2.183.328 5.652 3.326 3.778 14.55 1.07 29.195 1.35 43.829 1.387 18.683.844 37.426 1.328 56.138 1.026 25.433.369 50.86-.993 76.246-1.948 30.35-.122 60.642-.05 90.978.539 33.07-.182 66.104 1.045 99.172 1.292C-52.04-.11-26.002-.413 0 0z" transform="matrix(1.33333 0 0 -1.33333 733.75 453.153)"/>
<path style="fill:#565656;fill-opacity:1;fill-rule:nonzero;stroke:none" d="M0 0c22.144-.286 44.221-1.91 66.427-1.531 32.521-1.336 65.086-1.488 97.606-2.723 21.59.351 43.16 1.83 64.733.521 35.447-1.191 70.96.425 106.416-.853 25.628.27 51.2 2.146 76.853.964 31.306-.197 62.605-.863 93.828-2.5 9.503-.597 19.796.543 28.757-2.925 2.939-4.294-2.678-5.81-5.85-4.222-16.433 2.102-33.133 1.275-49.684 2.547-36.227 1.117-72.545 1.826-108.8 1.445-31.938-2.045-63.94.12-95.921-.454-30.543-.986-61.028 1.897-91.539.415-26.526-1.5-53.066 1.366-79.617.988-30.878 1.614-61.866.951-92.691 2.755-21.099.444-42.089-2.348-63.171-3.146-11.425-1.037-22.789-.097-34.204-.948-3.325-.48-10.943 1.297-7.225 5.611 2.945 1.03 4.231-1.526 7.858-.614 11.359 1.354 22.726.15 34.116 1.437C-34.718-2.439-17.377-.763 0 0z" transform="matrix(1.33333 0 0 -1.33333 259.76 454.132)"/>
<path style="fill:#565656;fill-opacity:1;fill-rule:nonzero;stroke:none;stroke-width:1.33333" d="M586.503 466.166c6.55 7.381 4.012 19.524 5.43 28.813.374 24.614 3.325 49.073 3.86 73.707.827 23.213.018 46.402 1.275 69.646.542 28.695 1.486 57.39.922 86.133 1.082 29.512.766 59.134 3.709 88.527.484 19.712 2.308 39.321 4.084 58.906 2.47 30.786.907 61.799 3.433 92.548.763 27.297 2.96 54.627 1.854 81.968.125 16.76.444 33.344.488 50.058-.52 20.55-.247 41.451-5.454 61.494-3.573 17.36-8.888 34.365-14.145 51.18-2.88 10.363-6.504 20.625-10.595 30.574-8.392 14.053-14.066 29.64-23.48 43.045-9.624 11.06-15.622 24.994-27.013 34.52-7.72 6.997-13.218 16.095-21.93 22.119-11.1 8.824-22.563 17.053-34.915 24.054a195.906 195.906 0 0 1-28.215 14.591c-8.584 1.863-17.445 1.141-25.937 3.581-17.024 1.57-34.108.287-50.95-2.313-20.578-2.253-39.559-10.97-59.512-15.661-18.118-5.867-36.286-12.65-51.914-23.77-12.751-7.525-24.36-16.833-36.735-25.01-13.491-11.77-28.267-22.493-39.74-36.203 1.082-10.088 9.313-2.598 12.576 1.598 12.05 11.949 25.108 22.842 38.693 33.002 12.603 8.233 24.34 17.563 37.498 24.885 9.788 6.387 21.067 10.7 32.103 14.626 14.279 4.922 28.905 8.626 43.25 13.352 15.953 5.564 32.974 6.533 49.64 8.494 13.45.9 26.53-1.153 39.664-2.798 11.436.925 20.46-6.979 30.296-11.448 12.898-7.56 25.596-15.446 37.212-24.943 7.98-5.236 13.74-12.804 20.116-19.655 8.73-7.51 15.47-16.653 21.495-26.4 10.82-12.253 18.266-26.973 25.044-41.771 7.978-12.276 11.982-26.446 16.288-40.232 5.937-19.11 11.76-38.436 15.408-58.212 4.58-22.408 3.113-45.492 3.617-68.216-.356-19.283-.521-38.77-.215-58.11-.766-33.418-3.069-66.72-3.894-100.085.498-27.855-1.771-55.52-4.56-83.163-.979-29.604-4.2-58.985-3.979-88.638-1.843-30.408.143-60.926-1.268-91.343-.716-28.97-1.541-57.909-1.328-86.857-1.059-24.07-2.805-48.094-3.985-72.152.858-11.006-2.103-22.184-2.026-32.894.626-1.376 2.395-2.114 3.835-1.547z"/>
<path style="fill:#565656;fill-opacity:1;fill-rule:nonzero;stroke:none;stroke-width:1.33333" d="M481.102 1349.229c5.937 4.753-2.977 9.553-6.72 11.921-10.468 6.594-21.548 13.2-34.156 14.311-9.023 1.516-18.22 1.503-27.301 2.584-10.824.958-20.993-4.237-31.776-3.741-6.839-.887-13.69-1.467-20.575-1.957-5.895-2.782-13.076.481-18.558-3.402-.737-4.726 7.132-2.135 9.974-3.872 5.89-.12 11.659 1.682 17.556.914 6.116.28 12.15 1.462 18.294 1.267 8.55.69 16.87 4.356 25.575 3.078 9.652-1.17 19.463-1.236 28.993-3.155 10.967-1.708 20.286-8.311 29.544-14.01 2.974-1.256 5.648-5.046 9.15-3.938z"/>
<path style="fill:#565656;fill-opacity:1;fill-rule:nonzero;stroke:none" d="M0 0c1.788-.151 3.7-.258 5.321-.952 1.232-1.484-1.04-2.711-2.282-1.876-6.866.953-13.84-.346-20.76-.018-7.598.143-15.183-.717-22.797-.401-10.26-.042-20.502-.598-30.74-1.237-10.324-.365-20.663-.658-30.95-1.596-7.286-.7-14.624-.605-21.929-.819-1.814.26-3.765.353-5.5.199-1.117 1.175 1.087 2.286 2.235 2.082 6.871-.225 13.772.224 20.656.439 8.409.855 16.844 1.378 25.292 1.706 7.808.205 15.605.647 23.395 1.2 8.424.34 16.85.52 25.282.44 5.62.167 11.2.606 16.825.421C-10.628-.487-5.321.02 0 0z" transform="matrix(1.33333 0 0 -1.33333 777.852 816.612)"/>
<path style="fill:#565656;fill-opacity:1;fill-rule:nonzero;stroke:none;stroke-width:1.33333" d="M786.73 816.425c8.514 1.95 1.722 11.785-4.732 8.466-18.799.585-37.654.61-56.398 2.34-10.796.79-21.59 1.6-32.424 1.329-10.983.868-21.983-.533-32.94.83-10.231-.08-20.439.892-30.655.873-10.228-1.08-20.399 2.712-30.57.258-6.749-6.316 4.365-8.6 9.318-7.13 6.573-.295 13.048-2.08 19.693-1.283 10.554.297 21.084-.983 31.636-.943 11.484-1.404 23.005-.124 34.514-1 12.62.33 25.176-1.136 37.745-1.889 17.706-1.46 35.502-1.442 53.257-1.85z"/>
<path style="fill:#565656;fill-opacity:1;fill-rule:nonzero;stroke:none" d="M0 0c4.667-2.928-.815-7.11-4.546-5.853-33.048-1.981-66.141-1.851-99.21-2.011-26.055-.157-52.044-1.175-78.101-1.849-26.977-1.167-54-1.948-81-2.723-19.118.13-38.247-.095-57.303-.261-44.423.792-88.9-.01-133.315 1.454-22.725.317-45.321-1.91-67.967-2.392-20.292-.294-40.639 2.335-60.807-.899-10.993-1.605-22.184-.99-33.136-3.089-2.946-.83-9.959.664-6.374 4.679 10.791.694 21.476 3.294 32.388 2.984 18.533 3.044 37.355 2.94 56.037 1.726 21.99-.17 43.828 2.061 65.826 2.443 25.298.362 50.546-1.242 75.855-.793 26.625.181 53.342-.348 79.913-.378 29.803.472 59.695-.173 89.467 1.681 24.376.484 48.658 1.884 73.011 2.343 39.766 1.523 79.581.332 119.378 1.765C-19.938-.803-9.878-.265 0 0z" transform="matrix(1.33333 0 0 -1.33333 970.809 443.367)"/>
<path style="fill:#565656;fill-opacity:1;fill-rule:nonzero;stroke:none;stroke-width:1.33333" d="M136.01 461.104c1.353-.007 2.36 1.607 1.784 2.826-.33 1.763.71 3.354 1.135 5.003.556 1.815 1.19 3.613 1.592 5.47.23 1.639-.401 3.55-1.964 4.316-1.747.916-4.24.088-4.9-1.824-.376-1.023-.123-2.144-.445-3.181a38.63 38.63 0 0 1-.679-3.712c-.304-1.665-.547-3.425.03-5.063.377-1.418.963-3.03 2.413-3.66a2.18 2.18 0 0 1 1.034-.175z"/>
<path style="fill:#565656;fill-opacity:1;fill-rule:nonzero;stroke:none;stroke-width:1.33333" d="M134.114 460.4c1.159 2.424-.103 5.251 1.037 7.732 1.106 2.03 1.143 5.632 3.814 6.14 3.463-.238 6.955-.456 10.425-.065 7.168.85 14.404.854 21.6.395 4.464-.281 8.944-.326 13.406-.4 3.11-.451 4.193 4.125.954 4.75-4.252.845-8.62.997-12.938 1.375-6.903.556-13.83.962-20.757.6-3.707-.207-7.427-.38-11.12.153-2.162.086-4.43-.09-6.474-.867-2.218-.767-2.737-3.24-2.979-5.301-.47-2.461-1.462-4.838-1.298-7.4.037-2.607.774-5.51 2.898-7.19.447-.226 1.016-.214 1.432.078z"/>
<path style="fill:#565656;fill-opacity:1;fill-rule:nonzero;stroke:none;stroke-width:1.33333" d="M247.682 460.122c6.37 5.075-3.915 9.254-8.477 8.514-15.077 2.453-30.356 3.327-45.605 3.437-14.743 1.735-28.962 8.192-44.026 6.608-6.427 1.234-13.941-.572-14.525-8.204-3.762-8.463 9.51-5.785 14.267-7.756 14.317-2.497 28.886-1.787 43.282-.512 6.865.49 14.085-.882 20.658 1.676 11.244-.652 22.421-2.391 33.527-3.968l.899.205z"/>
<path style="fill:#565656;fill-opacity:1;fill-rule:nonzero;stroke:none" d="M0 0c3.319 1.327 8.965-2.071 4.649-4.906-22.459-1.177-45.088-.47-67.425-3.522-37.139-2.469-74.425-5.17-111.644-2.681-18.272.125-36.45 1.711-54.653 3.098-2.498.512-7.26.358-8.001 2.676 9.368 1.632 19.37-.011 28.973.233 19.927-2.507 40.12-.97 60.146-2.216 35.677-.123 71.319 2.817 106.749 6.153C-27.486-.354-13.741-.49 0 0z" transform="matrix(1.33333 0 0 -1.33333 703.606 459.18)"/>
<path style="fill:#565656;fill-opacity:1;fill-rule:nonzero;stroke:none" d="M0 0c26.291.098 52.498-3.948 78.772-3.166 3.316.08 11.803.047 8.053-5.35-5.033-1.817-10.783.688-16.099-.423-32.265.743-64.575 5.784-96.804 1.898-20.636-1.594-41.389-.982-62.004-2.741-32.336-.038-64.585 3.284-96.944 2.095-13.926.218-27.853.5-41.766-.03-4.76.672-9.57 1.545-14.303 1.912.494 2.983 6.087.974 8.794 2.086 13.239.418 26.419 2.214 39.696 1.195 29.222.772 58.425-.395 87.607-1.713 22.393-.802 44.66 2.283 67.083 1.757C-25.279-1.563-12.679-.133 0 0z" transform="matrix(1.33333 0 0 -1.33333 836.36 461.847)"/>
<path style="fill:#565656;fill-opacity:1;fill-rule:nonzero;stroke:none" d="M0 0c13.515-1.904 27.218-1.42 40.799-1.873 19.166.009 38.284 2.42 57.451.625 11.996.03 23.828-2.772 35.806-1.968 4.014-1.049 9.985 2.226 12.519-1.737.628-6.124-7.116-3.39-10.809-4.18-9.593.133-19.201.498-28.733 1.923-16.536.719-33.082 1.793-49.596.197-18.634-.538-37.271-.244-55.775 2.002C-1.815-5.065-5.197-.223 0 0z" transform="matrix(1.33333 0 0 -1.33333 777.276 465.208)"/>
<path style="fill:#565656;fill-opacity:1;fill-rule:nonzero;stroke:none" d="M0 0c5.355-.473 12.422 1.1 16.508-2.514-3.275-2.922 4.555-.8 6.83-1.467 5.242-2.018.09-6.223-3.461-5.046-9.997.063-20.945 1.334-30.296 1.209 1.551-6.243-7.673-2.907-11.201-3.601-19.156-.447-38.304-.928-57.429-1.242-10.95-1.491-21.96-2.395-32.97-1.093-3.839-.865-6.7 2.778-4.906 4.678-3.195-.024-5.5 4.52-1.06 4.254 9.248-2.93 19.145.596 28.666-.622 6.2.683 13.67-.452 19.002.029-2.682 5.988 6.67 4.174 9.885 4.49 14.109.502 28.396-2.087 42.34-.699C-12.136-.44-6.052-.226 0 0z" transform="matrix(1.33333 0 0 -1.33333 335.426 456.888)"/>
<path style="fill:#565656;fill-opacity:1;fill-rule:nonzero;stroke:none" d="M0 0c5.77-1.18 12.654.219 18.467-1.222 1.687-4.426-5.91-2.49-8.154-3.006-7.883.396-16.135-2.263-23.733-1.24-2.13 5.345 6.538 3.259 9.35 4.287C-.849-1.714-1.743-.638 0 0z" transform="matrix(1.33333 0 0 -1.33333 534.474 462.908)"/>
<path style="fill:#565656;fill-opacity:1;fill-rule:nonzero;stroke:none" d="M0 0c5.53-.603 11.357-1.1 16.509-2.904 2.857-3.01-1.752-5.3-1.556-8.454C9.89-16.648.872-16.437-5.789-14.893c-2.654 2.016.033 5.507-5.362 4.147-14.651-1.643-29.516 1.785-44.308 1.604-11.725 1.403-23.676-1.17-35.259 1.099-4.98 4.005 2.383 6.814 5.803 5.715 14.53-1.413 29.043.174 43.582.271C-27.498-3.051-13.823-.275 0 0z" transform="matrix(1.33333 0 0 -1.33333 943.843 447.634)"/>
<path style="fill:#565656;fill-opacity:1;fill-rule:nonzero;stroke:none" d="M0 0c11.891-1.319 23.713-3.532 35.773-3.458 18.736-.684 37.468-1.778 56.209-1.408 14.827-.465 29.602-1.116 44.438-.851 26.675.243 53.346-.822 79.976-1.47 18.732.056 37.446 1.41 56.208 1.383 20.812 1.703 41.691.748 62.523 1.574 5.399-.588 12.776 2.828 16.899-.983-4.267-4.211-12.042-1.662-17.782-2.946-22.924-.398-45.864-.31-68.765-1.501-17.925.228-35.767-1.803-53.666-.888-32.788 1.308-65.622.825-98.432 1.266-21.773 1.323-43.638.695-65.425 1.984-16.772.266-33.671 2.214-50.009 5.218C-5.133-1.728-1.041.239 0 0z" transform="matrix(1.33333 0 0 -1.33333 204.485 461.914)"/>
<path style="fill:#565656;fill-opacity:1;fill-rule:nonzero;stroke:none" d="M0 0c3.947-3.26 1.519-9.545 2.274-14.007-.749-14.848.283-29.696.259-44.534C3.93-74.771 2.5-91.03.903-107.2c-1.46-19.16.545-38.438-.641-57.576-2.183-3.615-5.891.285-4.798 3.333.136 24.2-1.695 48.486 1.155 72.601 1.436 16.486-.502 33-.126 49.487-3.256 8.106-.331 17.408-1.489 25.951C-5.547-8.719-7.384-2.224-1.832.112-1.212.379-.609.107 0 0z" transform="matrix(1.33333 0 0 -1.33333 600.455 470.949)"/>
<path style="fill:#565656;fill-opacity:1;fill-rule:nonzero;stroke:none" d="M0 0c3.097-4.13 1.526-10.382 2.147-15.47 1.034-17.907 1.722-35.822 1.628-53.77-1.673-19.859-.67-39.878-1.904-59.768.606-17.87-.577-35.77-.53-53.661-.077-10.18-1.13-20.299-1.737-30.436.436-9.391-.051-19.084-2.766-28.106 2.961 1.247.455-2.464-1.349-2.544-4.31-.942-4.022 4.7-2.685 7.266 1.612 9.61 1.419 19.322 1.497 29.021 2.17 20.024 1.207 40.238 1.928 60.343.004 12.484-.104 24.919.54 37.39.038 15.118.433 30.224 1.254 45.297-.105 17.413-.864 34.785-1.434 52.185.592 4.056-1.244 9.148 1.7 12.253l.856.163z" transform="matrix(1.33333 0 0 -1.33333 605.465 512.487)"/>
<path style="fill:#565656;fill-opacity:1;fill-rule:nonzero;stroke:none" d="M0 0c3.148-3.392.668-9.015 1.776-13.25.183-11.569-1.378-23.099-.607-34.685-.425-6.35.732-13.222-.882-19.296-4.474-2.604-4.56 4.135-4.308 6.899-.288 14.183-.336 28.36.81 42.494.135 5.857-.274 12.34 2.301 17.636.3.036.603.428.91.202z" transform="matrix(1.33333 0 0 -1.33333 597.062 528.005)"/>
<path style="fill:#565656;fill-opacity:1;fill-rule:nonzero;stroke:none" d="M0 0c.04-2.826-2.928-5.595-1.808-8.944-.411-11.458.9-22.93.042-34.407.141-14.061 1.58-28.111 1.08-42.161-1.106-11.737-1.066-24.213-.136-35.52 3.204-2.831 1.09-7.948 2.503-11.73 2.621-20.683 2.605-41.568 1.879-62.383.965-4.787-6.542-3.864-5.434.519-.093 6.521.557 13.827.327 19.888-4.724-1.203-3.96 4.98-4.082 7.869-1.68 17.055-1.016 34.284-1.009 51.401-1.201 13.058.685 26.07.749 39.104-.939 16.744-1.386 33.52-.899 50.29-.27 8.913-.108 18.958 5.482 26.28l.512.123z" transform="matrix(1.33333 0 0 -1.33333 603.135 562.155)"/>
<path style="fill:#565656;fill-opacity:1;fill-rule:nonzero;stroke:none" d="M0 0c3.914-2.698 1.732-8.647 3.034-12.632 1.128-12.38 2.048-24.912 1.624-37.312-2.228-3.897-6.256-.228-5.556 3.021-.428 13.088-.834 26.225-2.21 39.258C-2.681-5.202-4.267.542 0 0z" transform="matrix(1.33333 0 0 -1.33333 605.597 823.846)"/>
<path style="fill:#565656;fill-opacity:1;fill-rule:nonzero;stroke:none" d="M0 0c3.318-2.454 1.85-7.697 2.714-11.36.749-12.873-1.28-25.773-.021-38.622.403-22.554 2.062-45.072.976-67.645-.326-4.3.898-9.298-1.374-13.141-4.251-2.246-3.842 3.901-3.737 6.451-.389 15.794.46 31.61-.798 47.37-.27 14.201-1.146 28.34-1.29 42.526.972 10.892.58 21.875.054 32.734C-3.083-.262-1.356.503 0 0z" transform="matrix(1.33333 0 0 -1.33333 610.94 849.004)"/>
<path style="fill:#565656;fill-opacity:1;fill-rule:nonzero;stroke:none" d="M0 0c3.277-3.055-.364-8.064 1.154-11.988 1.422-13.453 3.102-27.058 2.599-40.759.92-11.317.848-22.683 1.372-34.016 1.522-13.45-.473-26.994 1.284-40.426.821-14.423.248-28.905.185-43.348.284-2.996-1.484-6.106-.191-8.894-1.653-2.46-2.926 1.615-3.787 2.953-.826 8.17-.675 16.487-1.121 24.719.496 12.603-.511 25.14-1.433 37.667.814 11.698-.14 23.343-.825 35.01-.086 14.297-1.373 28.534-1.292 42.847-.383 9.614-2.193 18.983-2.439 28.553C-3.956-4.898-3.793.468 0 0z" transform="matrix(1.33333 0 0 -1.33333 600.871 818.382)"/>
<path style="fill:#565656;fill-opacity:1;fill-rule:nonzero;stroke:none" d="M0 0c3.33-3.782 3.663-9.668 4.906-14.597C6.204-29.74 6.8-44.931 7.9-60.103c0-17.223 2.272-34.483.585-51.7.589-11.982-1.359-23.81-1.899-35.736-.7-3.09-.47-9.016-4.74-8.979-2.439 4.245-.166 10.084-.474 15.02.224 8.385 1.893 16.658 1.368 25.1-.046 10.487 1.062 21.004.07 31.511-.976 11.91-.226 23.857-1.596 35.731C.53-37.304-.016-25.428-1.218-13.623-1.756-9.34-4.474-4.746-2.76-.632-2.054.08-.939.32 0 0z" transform="matrix(1.33333 0 0 -1.33333 610.82 946.599)"/>
<path style="fill:#565656;fill-opacity:1;fill-rule:nonzero;stroke:none" d="M0 0c3.763-2.302 2.418-7.66 3.469-11.421.705-27.8 1.91-55.626 1.853-83.409-.543-7.42.672-14.94-1.147-22.271-1.006-5.378 1.474-12.189-2.767-16.41-4.106-.136-1.55 5.422-1.954 7.853-1.418 7.91 1.826 15.68.501 23.587.034 7.712.173 15.394-.166 23.124-.494 23.032-.97 46.086-2.066 69.08-.04 3.25-1.983 7.42.543 9.808C-1.156-.061-.585.389 0 0z" transform="matrix(1.33333 0 0 -1.33333 610.38 830.308)"/>
<path style="fill:#565656;fill-opacity:1;fill-rule:nonzero;stroke:none" d="M0 0c3.182-2.75 1.474-7.84 2.591-11.68-.092-8.648-3.252-16.78-4.71-25.224-2.496-8.853-6.565-17.142-9.241-25.947-3.314-8.595-7.18-16.987-10.492-25.61a117.49 117.49 0 0 0-8.299-14.682c-7.332-1.144-2.564 9.04.117 11.926 3.974 8.506 6.832 17.463 10.778 25.952 3.167 8.354 6.036 16.842 9.318 25.142 2.479 7.842 3.79 16.03 5.644 24.01C-2.959-10.826-6.712-4.025-2.21.032-1.467.383-.74.162 0 0z" transform="matrix(1.33333 0 0 -1.33333 615.239 1129.044)"/>
<path style="fill:#565656;fill-opacity:1;fill-rule:nonzero;stroke:none;stroke-width:1.33333" d="M611.267 1129.614c5.285 10.969-.189 62.475-13.2 46.499 9.292-13.696 3.577-32.006 10.539-46.079z"/>
<path style="fill:#565656;fill-opacity:1;fill-rule:nonzero;stroke:none" d="M0 0c4.516-4.574-3.276-6.52-5.717-9.637-5.885-3.865-12.307-6.664-18.138-10.554-4.329-1.014-3.802 4.838-.651 5.85 3.616 2.95 7.841 4.747 11.794 7.153C-8.495-5.197-5.651-1.036-1.058.214l.892-.18z" transform="matrix(1.33333 0 0 -1.33333 506.766 1333.78)"/>
<path style="fill:#565656;fill-opacity:1;fill-rule:nonzero;stroke:none;stroke-width:1.33333" d="M543.757 1298.078c5.438 9.332-9.766 16.054-14.61 23.256-9.388 9.282-20.089 17.088-30.662 24.933-6.825 2.752-16.15 13.989-22.052 7.416 5.938-9.32 19.342-12.271 26.928-20.884 13.521-9.642 24.848-21.848 36.187-33.85 1.144-.95 2.772-1.369 4.209-.871z"/>
<path style="fill:#565656;fill-opacity:1;fill-rule:nonzero;stroke:none;stroke-width:1.33333" d="M574.151 1262.924c5.54 4.612-.96 11.655-2.91 16.599-5.057 7.465-11.01 14.28-16.536 21.39-9.217 10.512-18.665 20.87-28.65 30.647-8.917 8.085-18.123 15.878-28.31 22.33-8.375 5.56-17.002 10.773-25.674 15.835-4.293 4.182-13.918-1.11-7.046-5.253 5.257-2.306 10.08-5.284 14.775-8.57 12.23-7.822 24.307-15.984 34.952-25.91 10.577-9.359 19.75-20.14 29.48-30.342 6.036-6.536 11.011-13.91 16.76-20.675 3.366-4.141 5.37-9.109 7.65-13.85 1.115-1.817 3.376-3.242 5.509-2.201z"/>
<path style="fill:#565656;fill-opacity:1;fill-rule:nonzero;stroke:none;stroke-width:1.33333" d="M609.035 1174.164c3.448 4.72 1.344 10.898.606 16.152-1.687 8.84-3.85 17.597-7.224 25.96-2.357 6.56-4.756 13.093-7.895 19.327-3.458 7.728-6.585 15.601-10.79 22.972-3.2 6.204-6.934 12.101-11.347 17.51-2.111 2.835-4.182 5.7-6.337 8.503-4.928 3.205-7.686-4.13-4.783-7.581 3.6-4.712 6.858-9.76 10.261-14.651 5.786-9.226 10.412-19.105 14.588-29.152 2.885-5.752 5.775-11.545 7.617-17.727 4.303-10.005 7.026-20.6 9.342-31.198.738-3.593.659-10.621 5.962-10.115z"/>
<path style="fill:#565656;fill-opacity:1;fill-rule:nonzero;stroke:none" d="M0 0c3.849-2.687-.58-7.879-2.192-10.7-2.95-4.089-5.265-8.779-8.145-12.778-4.115-2.03-5.356 3.744-2.925 6.099C-9.722-11.719-5.848-6.184-2.44-.51-1.782.039-.832.325 0 0z" transform="matrix(1.33333 0 0 -1.33333 574.22 1255.169)"/>
<path style="fill:#565656;fill-opacity:1;fill-rule:nonzero;stroke:none" d="M0 0c4.35-3.212-1.452-7.311-3.293-10.344-6.106-6.25-12.856-11.736-19.686-17.118-7.294-5.99-15.497-10.68-23.441-15.735-4.762-2.39-9.659-4.51-14.505-6.689-1.658-1.801-6.016-3.694-7.198-.613 2.06 6.126 9.323 7.344 14.379 10.146 6.373 2.995 12.014 7.37 17.973 11.018 6.438 4.271 12.42 9.155 18.332 14.089 5.122 4.25 10.036 8.857 13.938 14.328C-2.629.065-1.254.519 0 0z" transform="matrix(1.33333 0 0 -1.33333 541.32 1298.207)"/>
<path style="fill:#565656;fill-opacity:1;fill-rule:nonzero;stroke:none;stroke-width:1.33333" d="M480.267 1355.974c3.563 1.267 3.07 6.925-.207 8.238-3.916 2.995-8.026 5.767-12.228 8.326-5.646 2.299-11.552 3.895-17.161 6.296-6.776 2.461-13.66 4.628-20.568 6.68-5.407 1.437-11.212 2.288-16.709.876-4.048-1.583-2.4-7.423 1.832-6.973 3.214-.13 6.473.097 9.586-.902 7.44-1.89 14.63-4.637 21.813-7.31 5.424-2.224 10.974-4.124 16.428-6.254 5.332-2.38 9.265-7.175 14.805-9.154.797-.172 1.65-.135 2.409.177z"/>
<path style="fill:#565656;fill-opacity:1;fill-rule:nonzero;stroke:none;stroke-width:1.33333" d="M469.784 1357.625c2.067.337 7.928-.21 5.094 3.28-3.733 1.676-7.075 4.507-11.242 5.407-5.448 1.387-10.165 4.814-15.78 5.67-3.88.88-7.636 2.227-11.615 2.635-4.864.909-9.652 2.467-14.615 2.694-3.323-.3-4.728-5.228-1.783-7.016 3.292-1.692 7.113-1.972 10.629-3.044 4.23-1.224 8.703-1.31 12.862-2.79 4.726-.73 9.202-2.404 13.64-4.106 4.256-.907 8.43-2.59 12.81-2.73z"/>
<path style="fill:#565656;fill-opacity:1;fill-rule:nonzero;stroke:none;stroke-width:1.33333" d="M470.002 1354.509c5.921-1.485 8.01 8.096 1.45 8.232-8.933 1.999-16.777 7.352-26.16 7.79-9.291 2.685-19.078 3.665-28.685 4.93-12.84.967-25.875 1.763-38.666-.201-5.08-2.202-.92-8.596 3.592-6.846 12.939.631 25.896-.494 38.714-1.928 9.063-1.497 18.032-2.872 26.967-4.941 8.115-.64 14.764-6.079 22.788-7.036z"/>
<path style="fill:#565656;fill-opacity:1;fill-rule:nonzero;stroke:none;stroke-width:1.33333" d="M469.39 1361.398c7.535 6.485-5.655 10.248-9.991 13.305-6.738 4.061-14.293 6.363-21.6 9.136-7.125 3.076-14.538 5.32-22.335 6.17-11.058 1.953-22.763 2.926-33.474-1.188-5.662-1.497-11.511-2.247-16.687-5.239-5.926.675-9.003-8.338-1.673-7.697 6.417.959 12.177 4.494 18.703 4.996 3.888 1.385 5.335-5.012 10.178-3.094 10.75.617 21.785.504 32.076-3.01 8.762-2.137 17.207-5.363 26.01-7.379 5.169-1.394 10.155-3.252 14.908-5.7 1.238-.432 2.595-.604 3.885-.3z"/>
<path style="fill:#565656;fill-opacity:1;fill-rule:nonzero;stroke:none;stroke-width:1.33333" d="M246.084 1334.755c12.197 4.288 21.475 14.47 33.904 18.52 14.914 9.387 32.278 13.09 49.046 17.68 13.345 3.358 27.227 3.006 40.665 5.836 5.366-1.245 19.875-.736 12.459 7.552-12.616 4.292-25.51-1.857-38.313-1.663-18.496-2.53-36.552-7.826-53.947-14.425-10.163-5.574-20.937-10.13-30.442-16.85-4.177-4.912-20.836-9.317-13.819-16.639l.29-.016zm274.426 1.932c6.06 9.092-11.127 13.641-15.848 20.08-12.337 9.131-26.644 15.22-40.255 22.19-13.707 5.706-28.447 9.736-43.331 10.24-5.935 2.567-14.585-6.124-5.721-8.1 11.811 2.341 23.616-2.986 35.105-5.468 15.427-5.604 29.886-13.75 44.112-21.866 8.732-5.1 15.921-15.586 25.938-17.076z"/>
<path style="fill:#565656;fill-opacity:1;fill-rule:nonzero;stroke:none" d="M0 0c1.764-16.513-18.326-30.975-28.53-43.532-7.757-7.15-21.772-21.109-31.33-16.296 14.094 9.884 29.757 20.91 40.365 35.875C-12.038-17.54-9.231-2.623 0 0z" transform="matrix(1.33333 0 0 -1.33333 573.455 1272.291)"/>
<path style="fill:#565656;fill-opacity:1;fill-rule:nonzero;stroke:none" d="M0 0c2.856-12.724-5.48-26.496-9.837-38.733-5.57-14.452-12.793-30.565-27.186-37.77 3.748 13.515 17.656 23.982 20.859 39.005C-8.631-26.418-9.797-6.98 0 0z" transform="matrix(1.33333 0 0 -1.33333 605.045 1192.817)"/>
<path style="fill:#565656;fill-opacity:1;fill-rule:nonzero;stroke:none;stroke-width:1.33333" d="M539.986 458.756c4.942 1.02 2.354 6.954-1.648 6.632-15.5 2.01-31.147 2.206-46.735 3.23-9.709-.182-19.389.316-29.095.354-16.46.543-32.903-.3-49.347.397-11.535.018-23.052.429-34.576.471-7.628.99-15.302-.095-22.963.71-14.508.348-29.051.484-43.491 2.223-14.592.964-29.214 1.553-43.676 3.668-11.169.626-22.28 1.563-33.42 2.292-10.857.437-21.685 1.72-32.543 1.67-7.17.553-14.368-.21-21.468 1.182-10.399.421-20.795.073-31.176.818-3.338-.162-9.572 1.508-10.344-3.186 1.576-3.18 6.4-2.582 9.575-3.176 10.796-.664 21.642.06 32.408-.73 7.683-2.207 15.63-.876 23.453-1.918 11.313.21 22.536-1.77 33.859-1.705 14.214-1.738 28.631-1.618 42.765-4.057 16.56-.914 33.09-2.2 49.625-3.467 11.697-.316 23.425-.164 35.107-.796 8.108.526 16.167-1.016 24.304-.581 12.257-.505 24.56-.477 36.828-.763 14.523.046 29.041.277 43.568-.304 13.722-.28 27.51-.104 41.186-1.465 9.287-.057 18.546-1.396 27.804-1.499z"/>
<path style="fill:#565656;fill-opacity:1;fill-rule:nonzero;stroke:none;stroke-width:1.33333" d="M526.392 460.73c3.32-.745 7.948 2.148 5.348 5.755-3.294 2.437-7.868 1.299-11.72 2.201-13.385.146-26.774.488-40.145.698-12.89.516-25.735 1.61-38.632 2.385-12.998.232-25.94 1.465-38.932 1.722-13.111.194-26.203 1.11-39.322.872-13.036.734-26.108.881-39.139 1.592-8.539.457-17.097.87-25.59 1.687-6.948.582-13.864 1.072-20.835.753-7.524.406-15.062 0-22.588.236-6.974-1.244-14.11.533-21.02-1.42-5.043-1.305-10.573 2.048-15.215-.648-2.346-2.591 2.31-4.042 4.281-4.569 8.334-2.91 16.9 1.368 25.34-.085 5.671.612 11.341.598 17.034.157 7.318.066 14.646-.354 21.929-.365 9.538-.69 19.005-1.79 28.576-2.214 10.394-.742 20.822-1.068 31.245-1.426 16.051-1.232 32.17-.55 48.234-1.675 13.755.204 27.407-1.392 41.14-1.712 14.258-.498 28.436-2.073 42.676-2.505 8.02-.396 16.06-.19 24.092-.482 7.763-.257 15.549.162 23.243-.957zm267.103 363.195c10.377 3.257-1.664 12.88-7.872 9.3-10.134.918-20.31-1.129-30.43.006-17.63-.39-35.267.281-52.9-.077-8.778.226-17.527.77-26.313.719-20.91 2.163-41.975 3.002-62.926 4.812-6.371 2.596-17.54-8.46-7.49-10.568 4.548 4.179 10.807 1.69 16.92 1.484 19.39-1.837 38.86-3.019 58.254-4.64 11.248.408 22.492-1.104 33.733-.328 11.584-.019 23.193-.196 34.757-.226 9.521.323 19.086-.844 28.57.332 5.237-.176 10.449-.953 15.697-.814z"/>
<path style="fill:#565656;fill-opacity:1;fill-rule:nonzero;stroke:none;stroke-width:1.33333" d="M798.227 815.957c10.222 22.961-68.838 2.805-95.988 11.907-20.585-5.143-101.65 7.75-87.68-7.976 61.251-2.286 122.47 1.666 183.668-3.931z"/>
<path style="fill:#565656;fill-opacity:1;fill-rule:nonzero;stroke:none" d="M0 0c5.033-1.17 2.898-7.916 3.865-11.689-.144-25.812 1.001-51.764-1.371-77.489-1.785-19.73.13-39.6-.424-59.393.419-16.662 2.484-33.207 2.111-49.918.37-16.006 1.881-31.992 1.379-48.022-.06-8.029-.522-16.095.934-24.045.035-3.718.962-9.017-1.811-11.553-4.427 2.227-2.426 8.55-3.673 12.544-2.014 9.571-.766 19.392-1.114 29.076.03 18.938-2.07 37.778-1.713 56.732-.896 17.045-2.505 34.068-1.989 51.183-.23 17.085-1.233 34.245 1.11 51.224.975 24.01.683 48.101.336 72.114.805 3.171-3.168 7.41.948 9.053C-.978-.016-.46.067 0 0z" transform="matrix(1.33333 0 0 -1.33333 603.769 469.52)"/>
<path style="fill:#565656;fill-opacity:1;fill-rule:nonzero;stroke:none" d="M0 0c3.576-2.36 1.703-7.668 3.27-11.243 2.293-12.717 1.387-25.683.588-38.525-.293-23.906-.198-47.854 1.729-71.684.064-7.998 1.041-16.188.6-24.073-2.08-4.71-6.295.785-5.373 3.936-.882 22.765-3.154 45.414-2.799 68.21-.792 16.651 1.023 33.23.989 49.864-.424 7.107-2.257 14.07-2.151 21.189C-3.094-.777-1.532.497 0 0z" transform="matrix(1.33333 0 0 -1.33333 591.016 467.668)"/>
<path style="fill:#565656;fill-opacity:1;fill-rule:nonzero;stroke:none;stroke-width:1.33333" d="M613.464 978.99c4.898 5.704.479 13.657 2.677 20.237.762 13.566.675 27.15.631 40.725.964 19.36-1.395 38.69-.566 58.054.167 10.148.13 20.307.773 30.443.077 5.978-9.13 6.387-7.26-.43-.95-15.844-1.015-31.733-1.2-47.597.443-15.5 1.195-31.028.089-46.516.337-7.153.55-14.3.009-21.45.08-9.189-1.119-18.327-.973-27.501.012-3.014 2.117-7.453 5.82-5.965z"/>
<path style="fill:#565656;fill-opacity:1;fill-rule:nonzero;stroke:none" d="M0 0c-2.51-14.363 18.54-19.559 24.662-31.565C15.566-36.753 2.51-18.672-5.174-11.617-9.626-8.03-4.403.227 0 0z" transform="matrix(1.33333 0 0 -1.33333 185.252 1272.389)"/>
<path style="fill:#565656;fill-opacity:1;fill-rule:nonzero;stroke:none" d="M0 0c-7.353-17.306 19.444-26.485 31.64-37.416 5.464-2.96 26.958-17.284 10.005-14.889C23.316-41.591 5.41-29.125-8.445-12.888-12.232-7.706-4.63-.507 0 0z" transform="matrix(1.33333 0 0 -1.33333 184.949 1273.82)"/>
<path style="fill:#565656;fill-opacity:1;fill-rule:nonzero;stroke:none" d="M0 0c10.397-6.924 19.639-15.904 29.559-23.129C20.414-30.857 3.864-9.726-3.278-1.817-3.055-.361-1.351.519 0 0z" transform="matrix(1.33333 0 0 -1.33333 213.423 1305.39)"/>
<path style="fill:#565656;fill-opacity:1;fill-rule:nonzero;stroke:none" d="M0 0c6.047-5.41 13.486-9.116 19.981-13.938 4.051-2.433 8.714-3.281 13.078-5.048 3.503-.57 5.622-5.99 1.258-7.078-4.022.295-7.712 2.418-11.635 3.312-6.322 2.436-11.09 7.353-16.873 10.798-3.113 2.901-7.774 4.855-9.462 8.865C-3.998-1.118-2.021.891 0 0z" transform="matrix(1.33333 0 0 -1.33333 225.203 1320.273)"/>
<path style="fill:#565656;fill-opacity:1;fill-rule:nonzero;stroke:none;stroke-width:1.33333" d="M230.579 1325.135c5.012 1.786 7.495 7.307 12.613 9.062 5.223 3.622 10.346 7.484 16.17 10.086 9.657 5.724 20.835 7.855 30.933 12.617 8.284 3.448 17.106 5.371 25.324 9.02 8.683 3.456 17.446 7.043 26.754 8.393 4.084 2.201 12.188.44 12.636 6.705-.893 5.065-7.694 4.178-11.403 2.867-5.752-1.59-11.723-2.273-17.334-4.428-12.035-4.083-23.614-9.49-35.87-12.9-14.453-6.078-30.056-9.894-42.974-19.16-5.56-3.994-10.907-8.305-16.342-12.449-2.22-2.252-5.98-8.995-.507-9.813z"/>
<path style="fill:#565656;fill-opacity:1;fill-rule:nonzero;stroke:none" d="M0 0c7.899-3.07 16.142-6.219 23.254-10.746 2.413-3.725-2.864-6.05-5.626-3.783-6.826 3.518-14.749 5.59-20.574 10.647C-4.144-1.917-2.51 1.006 0 0z" transform="matrix(1.33333 0 0 -1.33333 260.881 1337.421)"/>
<path style="fill:#565656;fill-opacity:1;fill-rule:nonzero;stroke:none" d="M0 0c6.362-3.197 32.154-11.338 22.668-17.937C18.986-14.792-12.73-4.524 0 0z" transform="matrix(1.33333 0 0 -1.33333 253.145 1333.846)"/>
<path style="fill:#565656;fill-opacity:1;fill-rule:nonzero;stroke:none;stroke-width:1.33333" d="M258.618 1341.593c8.115 1.143 13.692 8.08 21.39 10.319 6.565 4.937 14.431 7.366 22.19 9.662 12.868 4.623 25.145 11.307 38.892 13.058 19.133 2.587 38.096 6.95 57.45 7.556 8.237-.909 5.91 12.216-1.579 9-18.23.028-36.022-4.458-53.982-6.981-17.426-1.39-32.363-11.231-48.717-16.338-9.523-2.245-17.263-8.532-25.782-12.98-3.81-4.275-15.357-5.981-13.128-12.953 1.064-.332 2.198 0 3.266-.343z"/>
<path style="fill:#565656;fill-opacity:1;fill-rule:nonzero;stroke:none" d="M0 0c7.369-.696 14.472-2.968 21.799-4.124 3.005-.68 9.427-2.027 6.394-6.405-5.572-2.582-12.333-.21-18.153 1.719C5.857-7.9.476-9.92-2.866-5.979-5.712-3.601-3.406.449 0 0z" transform="matrix(1.33333 0 0 -1.33333 314.184 1362.195)"/>
<path style="fill:#565656;fill-opacity:1;fill-rule:nonzero;stroke:none" d="M0 0c10.141-.89 20.576-.943 30.454-3.44 4.835-1.161 1.555-8.38-2.587-5.344C16.816-6.245 4.298-7.75-5.66-1.853-6.132-.025-1.296-.168 0 0z" transform="matrix(1.33333 0 0 -1.33333 331.243 1368.114)"/>
<path style="fill:#565656;fill-opacity:1;fill-rule:nonzero;stroke:none" d="M0 0c5.983-4.41-.075-12.138 2.118-17.886.636-4.194-4.916-8.606-7.648-3.552.081 4.01-.986 8.221.65 12.143C-3.472-5.555-7.37 1.325 0 0z" transform="matrix(1.33333 0 0 -1.33333 972.209 443.336)"/>
<path style="fill:#565656;fill-opacity:1;fill-rule:nonzero;stroke:none" d="M0 0c3.119-2.684 2.763-7.793 3.041-11.685-.486-3.775.531-7.475.379-11.118-3.79-5.544-8.687.86-7.276 5.437.836 5.079-.397 10.15-.064 15.175C-3.538-.495-1.747.746 0 0z" transform="matrix(1.33333 0 0 -1.33333 970.655 443.575)"/>
<path style="fill:#565656;fill-opacity:1;fill-rule:nonzero;stroke:none" d="M0 0c2.68-1.874 1.841-6.223 1.128-8.587-2.403-9.877-5.153-19.96-10.616-28.553-3.952-2.507-5.907 3.192-3.636 5.852 4.823 9.453 8.06 19.833 10.028 30.208C-2.454-.088-1.169.504 0 0z" transform="matrix(1.33333 0 0 -1.33333 604.2 1173.11)"/>
<path style="fill:none;stroke:#ffc114;stroke-width:2.66666;stroke-linecap:butt;stroke-linejoin:miter;stroke-miterlimit:10;stroke-dasharray:none;stroke-opacity:1" d="M759.857 564.8c1.539 2.166-1.94.476-3.275 1.063-7.533.85-15.227.694-22.76.472-.713-1.4 1.945-.738 2.803-.943 7.264.15 14.554.057 21.776-.653.481.043.992-.1 1.456.061zm-26.913-16.21c1.22.834 2.797.452 4.18.529 1.362.053 2.718.07 4.079-.015 3.054.036 6.113.074 9.154-.265 2.184-.27 4.38-.02 6.57-.079 1.074.374 3.084-.588 3.52.67-.883 1.002-2.425.158-3.593.378-2.349-.002-4.701-.171-7.041.107-3.61.438-7.249.092-10.869.332-2.049-.342-4.336.345-6.184-.872-.351-.242-.457-.95.184-.785zm24.994-14.73c3.083.62-.674 1.528-2.119 1.034-6.775.615-13.574 1.282-20.406 1.18-1.178-.186-3.008.658-3.808-.32 1.176-1.01 3.352-.433 4.913-.743 6.616.21 13.165-.735 19.73-1.151.564.004 1.127-.011 1.69 0zm.857-13.663c.544 1.87-1.587 1.1-2.656 1.63-6.513.823-13.155.319-19.55 2.047-1.207.01-3.087 1.353-3.895.13 1.238-1.131 3.633-.817 5.262-1.53 5.921-1.357 12.01-.902 18-1.674.958-.199 1.986-.681 2.839-.603zm-92.14 45.615c1.071 1.423-1.785 1.825-2.893 1.739-7.982-.402-16.02 1.38-24.026.977-2.113-.07-1.052-2.15.276-.97 8.257.16 16.557-1.384 24.755-1.09.803-.009 1.195-.985 1.888-.656zm2.451-14.707c.138 1.682-2.646.612-3.845 1.07-5.768.411-11.564 1.177-17.444.997-2.67-.01-5.391.617-8.016.373-1.761-1.254 1.219-.745 2.141-1.001 6.78-.58 13.627-.25 20.327-1.155 2.196-.142 4.627-.644 6.837-.284zm-2.232-12.32c.164 1.451-2.268.794-3.307 1.317-4.46-.574-9.036-.352-13.54.107-4.07.008-8.2 1.183-12.182.684-.28-1.77 2.547-.536 3.538-.984 6.818-.521 13.662-1.56 20.499-1.025 1.63.714 3.355-.69 4.992-.099zM637.45 524.42c.164 1.341 2.735.948 3.822 1.257 8.15.046 16.271-1.13 24.4-1.078 1.27-.665 2.87.894.855.992-7.648.048-15.317.824-22.988 1.131-2.312-.204-5.608.382-7.113-1.713-.178-.496.741-1.432 1.024-.589zm129.047-49.965c.502 1.912.043 3.947.525 5.917-.661 5.228-1.687 10.465-.549 15.726-.148 3.11 1.361 6.055 1.37 9.118-1.588 2.2-4.421-.968-6.483.272-7.012 1.46-14.208 1.675-21.372 1.616-2.487-.29-5.431 1.68-7.423-.47.079-1.691 2.323 1.023 3.477-.204 7.288-.986 14.796.121 22.026-1.518 2.515-.153 5.07-1.39 7.485-.122 2.181.818.68-1.818.648-2.859-.921-3.578-1.132-7.288-1.35-10.968-.476-4.54 1.675-9.112.647-13.64.336-.697-.688-3.66.999-2.868zm-136.848 5.615c-1.01 1.468.614 3.368.743 5.015 1.894 5.198 1.68 10.841 2.469 16.281.492 2.817.36 5.767.61 8.56 1.187 1.311 3.587.573 5.226.652 7.877-.606 15.677-1.924 23.45-3.215 1.132-.685 3.962.525 1.673 1.055-7.502.88-14.955 2.577-22.538 3.115-2.724.245-5.827.907-8.336-.294-1.66-2.094-.29-5.099-.984-7.55-.768-5.503-.742-11.165-2.013-16.574-.485-2.243-1.858-4.607-1.33-6.893.412.1.731-.733 1.03-.152zm80.979-7.604c.02 2.207-2.209 3.278-3.474 4.744-3.71 3.508-5.554 8.39-8.236 12.63-.92 1.627-2.106 3.087-3.006 4.726-2.215.739-3.087-2.251-4.328-3.518-1.765-2.62-3.05-5.648-5.573-7.673-3.268-3.094-6.359-6.367-9.556-9.532 1.8-1.27 2.679 1.921 4.115 2.544 3.243 3.193 6.592 6.294 9.543 9.767 1.429 2.476 2.692 5.149 4.873 7.072 1.491-1.833 2.558-3.963 3.898-5.903 2.052-3.513 3.682-7.372 6.666-10.238 1.163-1.246 2.38-2.442 3.541-3.69-.692-.934.969-1.373 1.537-.929z"/>
<path style="fill:#ffc114;stroke:#ffc114;stroke-width:2.66666;stroke-linecap:butt;stroke-linejoin:miter;stroke-miterlimit:10;stroke-dasharray:none;stroke-opacity:1;fill-opacity:1" d="M653.495 602.45c-1.38-.03-.475 1.948.013.192l.047-.237zm.821-3.741c3.834 1.457 2.525 8.71-1.86 8.082-2.934-.372-4.547-5.153-1.59-6.59.608-1.172 2.177-1.961 3.45-1.492zm-.372 21.227c2.29.879 1.012 3.6.888 5.39-.476 2.722-5.154 3.767-5.773.658-.843-2.614 1.912-6.757 4.885-6.048zm84.391-21.966c3.076.087 4.932 4.567 1.98 6.243-2.144.682-5.506 1.434-6.503-1.267-.857-1.678.644-4.082 2.512-4 .74-.12 1.109-1.058 2.011-.976zm.684 24.286c3.86.213 3.216 5.764.585 7.301-2.015 2.057-6.024.324-5.158-2.654.753-2.073 2.416-4.04 4.573-4.647zm-28.791 35.592c-7.064-.14-14.126-.07-21.18.269-5.567.026-11.115.343-16.647.946-8.926.606-17.848 1.685-26.606 3.486-2.496.772-5.308 1.207-7.43 2.75.833 1.659 3.377 2.276 5.18 2.864 5.542 1.756 11.362 2.327 17.103 3.053 10.677.87 21.365 2.004 32.096 1.694 6.178.144 12.354-.255 18.531-.326 5.203-.228 10.403-.399 15.594-.828 7.292-.813 14.682-.91 21.881-2.467 4.8-.664 9.696-1.51 14.077-3.642 2.058-.807-1.051-1.73-1.918-2.203-4.153-1.816-8.739-2.23-13.147-3.155-7.4-1.021-14.818-1.85-22.29-2.017-5.078-.256-10.157-.663-15.244-.424zm-18.32-2.75c8.177.254 16.368-.097 24.53.58 6.768.13 13.523.633 20.246 1.347 5.978.41 11.953 1.175 17.845 2.229 3.884 1.014 8.177 1.38 11.438 3.882 2.175 1.841.667 5.12-1.613 6.052-4.699 2.359-10.013 2.925-15.113 3.959-6.61.595-13.201 1.564-19.833 1.846-7.252.252-14.506.578-21.767.53-6.135.094-12.268-.267-18.4-.423-10.746-.675-21.555-.666-32.214-2.368-5.125-.547-10.22-1.527-15.216-2.774-2.516-.89-6.358-1.362-6.723-4.611-.077-2.624 2.94-3.744 4.905-4.717 7.407-2.444 15.233-3.447 22.996-4.098 6.195-.656 12.413-.96 18.64-1.007 3.42-.269 6.851-.32 10.279-.426z"/>
<path style="fill:#ffc114;stroke:#ffc114;stroke-width:2.66666;stroke-linecap:butt;stroke-linejoin:miter;stroke-miterlimit:10;stroke-dasharray:none;stroke-opacity:1;fill-opacity:1" d="M706.555 657.736c-10.85.11-21.701.299-32.514 1.273-6.102.183-12.163.992-18.207 1.759-4.66.711-9.268 1.776-13.826 2.946-1.202.72-2.891.772-3.778 1.905 4.242 2.952 9.572 3.413 14.533 4.326 13.41 1.978 26.991 2.68 40.533 2.994 8.386-.22 16.78-.34 25.159-.702 8.295-.499 16.588-1.115 24.833-2.183 5.448-.543 10.895-1.47 16.179-2.86 1.438-.631 3.135-.838 4.313-1.94-1.67-1.916-4.372-2.246-6.678-3.032-4.997-1.14-10.013-2.288-15.148-2.569-6.958-1.112-14.024-1.169-21.042-1.692-4.79.147-9.566-.41-14.357-.225zm-11.03-2.623c7.802.094 15.608.292 23.4.596 6.278.404 12.568.61 18.82 1.379 5.058.063 9.993 1.305 15.013 1.773 4.44.893 9.054 1.636 12.953 4 1.733 1.435 1.57 4.457-.54 5.51-3.295 2.31-7.391 2.932-11.226 3.904-7.198 1.325-14.479 2.17-21.786 2.598-9.965.557-19.947.78-29.929.748-12.842-.626-25.723-.506-38.523-1.868-7.985-.808-15.993-1.851-23.681-4.212-2.354-.635-5.53-2.527-4.89-5.386 2.31-3.756 7.093-4.278 10.984-5.437 5.385-1.037 10.887-1.472 16.323-2.19 7.253-.52 14.49-1.24 21.77-1.228 3.773-.19 7.542.048 11.313-.187zm11.06 24.064c-8.479-.07-16.955.157-25.413.67-7.428.045-14.772 1.202-22.142 1.946-4.91.367-9.716 1.549-14.514 2.505-2.109.774-4.578 1.04-6.268 2.606 3.267 2.504 7.59 2.957 11.48 3.99 7.008 1.494 14.158 2.165 21.296 2.656 9.56.62 19.144.809 28.721.76 7.6-.191 15.201-.573 22.797-.915 7.395-.461 14.796-.946 22.147-1.89 5.203-1.017 10.575-1.474 15.606-3.16 1.093-.472 3.331-.934 3.217-2.083-1.772-1.698-4.423-1.91-6.671-2.738-12.034-2.97-24.46-3.579-36.788-4.198-4.493.048-8.977-.443-13.468-.149zm-7.377-2.572c6.57.047 13.133.338 19.697.582 11.809.536 23.613 1.529 35.287 3.382 3.273.642 6.542 1.357 9.581 2.739 2.05.622 4.325 2.902 2.887 5.144-1.76 2.356-4.902 3.108-7.612 3.857-7.281 2.41-15.052 2.56-22.61 3.555-9.956.764-19.951 1.308-29.942 1.109-10.015-.275-20.04-.27-30.033-1.038-9.176-.6-18.328-1.455-27.426-2.79-4.35-.787-8.991-1.459-12.69-4.008-1.914-1.48-1.442-4.733.83-5.628 3.414-2.279 7.612-2.798 11.513-3.805 7.855-1.026 15.693-2.322 23.636-2.34 5.96-.378 11.915-.79 17.887-.686 2.996-.117 5.997.012 8.995-.073zm-21.913 31.855c.905-.025 1.652.572 2.354 1.056.48.566 1.034 1.09 1.29 1.808.37.65.316 1.457-.124 2.06-.56.599-.87 1.375-1.564 1.892-.746.703-1.912.81-2.841.432-.611-.462-1.32-.14-2.018-.26-.997-.134-1.948-.862-2.104-1.897-.151-.976.367-2.038 1.205-2.558.698-.572.933-1.713 1.929-2.002.57-.324 1.205-.575 1.873-.531zm41.297.53c-.528-.016 1.06.197 1.484.533.472.29.625.874.915 1.319.223.509.335 1.063.27 1.619-.014.515-.267.983-.392 1.475-.27.7-.638 1.407-1.297 1.811-.742.521-1.72.612-2.581.37-.634-.1-1.359-.08-1.842-.572-.484-.35-.863-.807-1.174-1.307-.427-.889-.58-2.001-.094-2.902.165-.38.45-.716.78-.967.487-.386 1.338-.439 1.94-.624.554-.015 1.075-.194 1.597-.363.29-.054 1.352-.363.799-.38zm-39.697 23.81c1.377.03 2.53 1.389 1.556 2.639-.93.764-1.868-.05-2.872.346-3.313.384-6.684.016-10.008.511-6.4.31-12.77 1.17-19.185.839-3.272.018-6.538.01-9.794.064-1.14-.012-2.772.703-3.605-.265-.116-1.378 1.963-1.346 2.909-1.863 5.341-.563 10.752-.415 16.13-.48 6.455-.404 12.912-1.067 19.368-1.323 1.857.126 3.69-.185 5.501-.468zm86.965-2.563c1.048 1.223-.239 2.904-1.68 2.543-3.337.211-6.691.734-10.063.399-8.07-.408-16.117.777-24.188.473-3.304-.108-6.687.76-9.938-.003-1.645-.333-2.135-3.042-.234-3.324.974.054 1.084 1.17 2.228.837 4.675-.196 9.352-.441 14.037-.258 7.351-.443 14.722-.81 22.077-.397 2.415.033 4.866-.904 7.204-.5l.557.23zm-98.112 21.398c1.347.082 1.642 1.513 1.923 2.588.269 1.99-1.419 4.09-3.512 3.785-1.978-.097-3.748-2.54-2.46-4.309.616-1.287 2.028-2.288 3.501-1.948.186-.074.339-.19.548-.116zm-1.18 20.874c1.136-.113 3.028 1.585 1.979 2.06 1.075 2.697-2.485 6.36-4.88 4.01-2.013-2.23.47-5.73 2.901-6.07zm68.344-22.645c1.623-.172 2.576 1.5 2.713 2.895-.023 2.046-2.137 4.185-4.237 3.233-1.225-.394-1.48-1.852-1.521-2.965-1.498-.438-1.163-2.847.307-3.069.806.126 1.356.157 2.172-.278.187-.052.381.152.566.184zm1.968 20.486c.89-.015 1.489.572 2.116 1.037.775 1.233-1.42.796-.8 1.57.363 1.5-.796 2.689-1.673 3.701-1.019.975-2.892.99-3.611-.317-1.18-1.337.057-2.955.97-3.999.854-.53 1.204-1.64 2.311-1.85.23-.037.452-.163.687-.142zm13.538 20.092c11.09.237 22.178.312 33.267.345 1.457.147 5.316-.533 4.184 2.019-3.991.882-8.29.39-12.402.512-11.684-.065-23.37.42-35.057.201-11.622.128-23.235-.318-34.858-.292-8.488.172-16.976-.087-25.458-.26-11.856.147-23.712.351-35.566.069-3.36-.004-6.898.512-10.152-.263-1.07-2.603 2.924-1.686 4.377-1.875 10.123.29 20.253-.303 30.378.082 8.366.14 16.721.074 25.083-.206 13.078.13 26.16-.076 39.233-.27 5.657.002 11.315.121 16.971-.062z"/>
<path style="fill:#ffc114;stroke:#ffc114;stroke-width:2.66666;stroke-linecap:butt;stroke-linejoin:miter;stroke-miterlimit:10;stroke-dasharray:none;stroke-opacity:1;fill-opacity:1" d="M637.654 790.45c.95 2.268-2.565 3.222-3.733 4.732-5.865 5.698-11.383 11.863-18.043 16.625-2.826.016-.258-3 .938-3.765 5.82-6.482 13.303-11.157 19.175-17.581.626-.396 1.028-.393 1.663-.011z"/>
<path style="fill:#ffc114;stroke:#ffc114;stroke-width:2.66666;stroke-linecap:butt;stroke-linejoin:miter;stroke-miterlimit:10;stroke-dasharray:none;stroke-opacity:1;fill-opacity:1" d="M678.224 809.126c12.664.131 25.328.052 37.99.293 13.573-.128 27.144.061 40.717.039 3.45.238 6.982-.085 10.386.205 2.348 1.675-1.363 2.807-2.894 2.174-13.926.193-27.86.078-41.786.201-12.907-.185-25.813.309-38.72.15-9.844.03-19.689-.084-29.534-.105-6.726.037-13.432-.386-20.154-.16-6.234-.236-12.466-.2-18.704-.238-2.605-1.353 1.076-2.639 2.548-2.012 8.221.13 16.437-.402 24.655-.128 11.82-.557 23.67-.05 35.496-.419z"/>
<path style="fill:#ffc114;stroke:#ffc114;stroke-width:2.66666;stroke-linecap:butt;stroke-linejoin:miter;stroke-miterlimit:10;stroke-dasharray:none;stroke-opacity:1;fill-opacity:1" d="M787.42 790.962c.991 2.277-2.51 3.278-3.676 4.803-5.94 5.41-11.062 11.842-17.716 16.372-2.974.136-.64-3.154.702-4.008 5.934-6.135 13.142-10.917 18.982-17.166 1.122.293 1.117-.364 1.708-.001zm-85.327 44.769c-6.71-.082-13.42.13-20.117.369-6.67.116-13.32.784-19.941 1.552a110.81 110.81 0 0 0-21.727 3.673c-2.11.653-4.33 1.164-6.044 2.633 2.627 2.994 7.028 3.165 10.648 4.22 7.143 1.935 14.601 2.108 21.924 2.902 8.517.887 17.093.767 25.64.904 10.376-.236 20.797.209 31.12-1.12a271.498 271.498 0 0 0 25.54-3.29c3.328-.861 6.75-1.82 9.702-3.58.415-1.096-1.763-1.45-2.485-2.095-5.305-1.822-10.804-3.17-16.398-3.772-5.836-1.026-11.75-1.311-17.64-1.862-6.745-.154-13.47-.758-20.222-.534zm-10.97-2.413c9.088-.018 18.175.333 27.247.755 5.544.515 11.114.623 16.634 1.355 5.482.408 10.9 1.393 16.3 2.343 3.463.875 7.217 1.652 9.928 4.115 1.927 1.939.347 4.836-1.742 5.873-4.107 2.577-9.203 2.692-13.802 3.943-8.396 1.435-16.934 2.098-25.451 2.348-9.987.128-19.979 1.005-29.968.427-8.255-.017-16.485-.825-24.725-1.233-7.583-.468-15.067-1.82-22.57-2.908-3.503-.885-7.174-1.704-10.285-3.582-2.659-1.411-1.798-5.347.658-6.443 3.811-2.244 8.278-3.086 12.59-3.874 6.376-.875 12.764-1.817 19.184-2.253 6.994-.186 13.98-.732 20.97-.797 1.678.071 3.355-.039 5.033-.07zm-16.444 39.447c.476 1.821.831 3.068 1.632 4.824 1.023 3.105-3.029 6.502-5.355 3.584-.749-1.708-2.156-3.179-1.489-4.993 1.361-1.315 2.641-2.948 4.31-3.788l.56.232zm40.547 3.778c4.266.61 2.768 6.895-.427 8.087-3.194 2.144-5.228-3.381-3.28-5.476.52-1.575 2.027-2.677 3.707-2.611zm-39.18 23.614c1.36 3.57-3.356 2.168-5.408 2.857-8.093.64-16.355 1.563-24.437 1.032-2.882-.893-.18-3.475 1.83-2.498 8.718-.286 17.48-.75 26.09-1.792.712-.103 1.29.064 1.925.401zm66.473-1.697c2.504 1.664-.365 4.286-2.359 3.012-9-.104-18.095 1.486-27.029.443-2.446-1.35.389-3.27 2.228-2.847 8.998.573 18.155-.877 27.16-.608zm-73.859 21.464c3.71.517 3.208 6.594-.415 7.11-3.92.897-4.598-4.954-1.358-6.313.552-.342 1.101-.735 1.773-.797zm-.243 24.337c1.97.223 1.85 2.727 2.173 3.972-.127 2.943-5.004 4.363-5.818 1.101-.393-2.102 1.194-5.322 3.645-5.073zm50.626-20.931c.176.82 1.01-.662 0 0zm-.685-3.252c3.403-.52 5.948 4.007 2.576 5.879-2.292 1.352-4.537-.827-6.088-2.03-1.536-2.313 1.45-4.2 3.512-3.849zm-1.579 23.626c2.788-.708 4.948 2.905 2.44 4.692-.521 3.783-6.674 1.905-5.49-1.655.202-1.562 1.569-2.708 3.05-3.037zm-18.342 29.251c-19.516.491-39.25 1.162-58.293 5.696-2.052.561-4.425 1.405-5.923 2.73 3.892 3.683 9.857 3.792 14.82 5.155 14.903 2.295 30.041 2.989 45.116 2.991 17.262-.416 34.674-.701 51.613-4.376 4.36-.925 9.087-1.669 12.846-4.11-4.36-3.71-10.705-4.213-16.188-5.274-14.534-2.12-29.3-2.668-43.991-2.812zm-7.29-2.205c21.91.4 44.154.426 65.478 5.895 2.88.846 7.482 2.963 5.343 6.674-4.606 5.081-12.29 5.197-18.643 6.453-17.747 1.738-35.6 2.591-53.437 1.939-16.75-.36-33.59-1.338-50.003-4.766-3.107-1.354-8.895-1.67-8.773-6.133 1.694-5.005 8.154-5.047 12.41-6.501 15.626-3.112 31.73-3.33 47.626-3.561zm10.935 46.153c-20.511.463-41.294.8-61.324 5.5-2.256.78-4.836 1.126-6.56 2.937 5.826 4.436 13.64 4.601 20.6 6.03 15.868 1.778 31.87 2.31 47.824 1.915 17.72-.97 35.815-1.154 52.916-6.332 1.936-.585 5.043-1.939 1.652-3.282-11.093-4.559-23.446-4.998-35.29-6.174-6.608-.127-13.198-.77-19.818-.594zm-10.907-2.339c20.542.632 41.292.615 61.47 4.836 3.435 1.209 9.188 1.63 9.505 6.183-1.546 4.816-7.748 5.443-11.964 6.572-14.834 2.876-30.033 3.521-45.12 3.71-12.728-.187-25.452-.176-38.144-1.327-11.042-1.183-22.459-1.672-32.887-5.662-3.754-1.03-3.79-6.563.016-7.557 8.746-4.058 18.68-4.615 28.172-5.571a365.537 365.537 0 0 1 28.952-1.184zm3.639-19.528c-18.116.53-36.425 1.157-54.104 5.44-1.84.878-5.972 1.303-6.19 3.197 4.831 3.397 11.152 4.112 16.879 5.134 23.898 3.473 48.22 3.37 72.271 1.503 11.254-1.174 22.812-1.954 33.488-5.865 3.647-.96-.148-3.212-2.001-3.733-16.159-4.799-33.283-5.274-50.053-5.727-3.434.133-6.858-.213-10.29.051zm-3.664-2.39c19.42.366 38.993.768 58.153 4.116 4.158 1.177 9.181 1.558 12.334 4.766 2.052 3.904-3.023 6.35-6.07 7.131-10.388 3.324-21.483 3.83-32.313 4.546-24.033 1.028-48.2.65-72.082-2.256-6.484-1.393-14.06-1.308-19.323-5.718-2.802-3.644 2.33-6.49 5.341-7.395 14.82-4.049 30.308-4.537 45.578-5.022 2.797.058 5.59.004 8.382-.167zm-24.057 56.678c1.334.657 3.306 1.354 2.716 3.381 1.078 3.144-5.18 4.952-5.457 1.316-.41-1.782.434-5.078 2.741-4.697zm59.689.923c3.005 1.404 1.05 6.004-2.025 4.919-4.567-.071-1.43-7.029 2.025-4.919zm-45.483 17.331c1.402 3.358-3.052 2.424-5.003 2.701-13.65-.536-27.36 2.37-41.013.744-2.826-.396-1.583-4.41 1.008-3.68 1.112 1.131 2.699 1.454 5.177 1.24 11.885.397 23.674-1.5 35.53-1.268 1.381-.134 3.026-.46 4.301.263zm88.326-4.298c2.222 1.206.138 3.433-1.724 3.17-1.773.56-3.462 1.272-5.313.469-9.592.798-19.285.41-28.842 1.809-5.574.521-11.595-.822-16.864.237-1.9-2.604 2.423-3.322 4.326-3.262 6.873.47 13.728.327 20.545-.711 7.164-.3 14.324-.587 21.465-.936 2.206.86 4.255-1.094 6.407-.776zm-119.369 28.22c3.965-.38 5.042 5.19 2.108 7.204-3.329 2.42-7.146-2.621-4.523-5.525.709-.687 1.367-1.623 2.415-1.679zm83.474 181.088c8.913.088 17.825.39 26.736.115 7.812.37 15.716-.3 23.47.484 2.195 1.871-1.747 2.493-3.192 2.18-7.98.178-15.968.135-23.947.182-10.546-.273-21.09.34-31.642.113-17.325-.212-34.647-.527-51.972-.54-18.501-.354-37.007.519-55.507.121-1.51-.06-5.38.89-4.478-1.761 1.943-1.235 4.72-.032 6.987-.423 19.578-.403 39.161.559 58.737.06 18.27.032 36.537-.493 54.808-.531zm11.785-183.706c3.226-.582 5.35 5.657 1.463 5.723-2.244.74-5.002-.353-4.98-3.076.306-1.644 2.06-2.333 3.517-2.647z"/>
<path style="fill:#ffc114;stroke:#ffc114;stroke-width:2.66666;stroke-linecap:butt;stroke-linejoin:miter;stroke-miterlimit:10;stroke-dasharray:none;stroke-opacity:1;fill-opacity:1" d="M615.135 1272.582c.913 4.383-.015 9.043.657 13.516-.003 6.25.443 12.614-.556 18.785-2.439 1.652-1.746-3.13-2.077-4.612-.46-8.6.287-17.185.276-25.783-.182-1.057.303-2.848 1.7-1.906z"/>
<path style="fill:#ffc114;stroke:#ffc114;stroke-width:2.66666;stroke-linecap:butt;stroke-linejoin:miter;stroke-miterlimit:10;stroke-dasharray:none;stroke-opacity:1;fill-opacity:1" d="M695.948 1301.845c19.023.475 38.052.131 57.076.322 10.25.197 20.576-.18 30.777.41 2.172 1.866-1.787 2.395-3.196 2.05-12.384.209-24.767.182-37.152.266-16.46 0-32.923-.02-49.38.225-11.335.038-22.674.02-34.009-.196-9.855.266-19.687-.494-29.54-.26-5.869-.22-11.806.081-17.63-.157-2.283-1.65 1.365-2.718 2.85-2.117 9.352.077 18.71-.029 28.06-.102 9.851-.5 19.726 0 29.583-.395 7.521-.127 15.043.147 22.561-.046z"/>
<path style="fill:#ffc114;stroke:#ffc114;stroke-width:2.66666;stroke-linecap:butt;stroke-linejoin:miter;stroke-miterlimit:10;stroke-dasharray:none;stroke-opacity:1;fill-opacity:1" d="M783.929 1272.255c.809 2.93-.03 6.166.177 9.214-.162 6.743.826 13.458.175 20.191.739 1.708-1.202 4.902-2.353 2.223-.233-5.268-.48-10.518.012-15.78.327-5.096-.183-10.27.057-15.322.17-.916 1.286-1.014 1.932-.526z"/>
<path style="fill:#ffc114;fill-opacity:1;fill-rule:nonzero;stroke:none;stroke-width:1.33333" d="M694.917 498.175c.464 2.771-.313 5.764.159 8.597-.121 5.482.498 10.877.276 16.33.304 7.513-.738 14.973-.976 22.474-.518 7.638-.83 15.282-1.383 22.88-.288 7.348-.72 14.701-1.035 22.052-.138 2.23-.04 4.633-.497 6.804-1.674.329-.484-2.302-.739-3.265.473-9.68.848-19.486 1.391-29.199.659-9.333.958-18.74 1.668-28.12.387-5.484.716-10.993.404-16.497.315-4.853-.472-9.708-.184-14.612-.396-2.356.057-4.779.13-7.15.063-.345.487-.57.786-.294z"/>
<path style="fill:none;stroke:#ffc114;stroke-width:2.66666;stroke-linecap:butt;stroke-linejoin:miter;stroke-miterlimit:10;stroke-dasharray:none;stroke-opacity:1" d="M694.917 498.175c.464 2.771-.313 5.764.159 8.597-.121 5.482.498 10.877.276 16.33.304 7.513-.738 14.973-.976 22.474-.518 7.638-.83 15.282-1.383 22.88-.288 7.348-.72 14.701-1.035 22.052-.138 2.23-.04 4.633-.497 6.804-1.674.329-.484-2.302-.739-3.265.473-9.68.848-19.486 1.391-29.199.659-9.333.958-18.74 1.668-28.12.387-5.484.716-10.993.404-16.497.315-4.853-.472-9.708-.184-14.612-.396-2.356.057-4.779.13-7.15.063-.345.487-.57.786-.294z"/>
<path style="fill:#ffc114;fill-opacity:1;fill-rule:nonzero;stroke:none;stroke-width:1.33333" d="M695.434 498.297c1.063 4.183 2.49 8.323 2.484 12.75 1.611 12.948 2.492 26.043 3.58 39.054.871 9.345.908 18.746 1.78 28.09.361 6.278 1.913 12.486 1.532 18.778-1.616.866-.814-2.049-1.001-2.904-.594-7.773-1.936-15.474-2.14-23.322-.572-8.057-.701-16.127-1.59-24.171-.9-12.292-1.986-24.648-3.333-36.875.05-3.59-1.51-6.872-1.633-10.396.223-.298-.409-1.483.321-1.004z"/>
<path style="fill:none;stroke:#ffc114;stroke-width:2.66666;stroke-linecap:butt;stroke-linejoin:miter;stroke-miterlimit:10;stroke-dasharray:none;stroke-opacity:1" d="M695.434 498.297c3.082 9.639 3.046 19.843 4.258 29.81 1.552 16.376 2.528 32.792 3.507 49.208-.16 6.278 3.148 14.756.8 19.686-.806-10.983-2.466-21.993-2.734-33.058-1.069-19.435-2.813-38.854-4.981-58.184-.218-2.052-1.947-6.137-.85-7.462zm-4.5 99.261c.3 7.455-1.597 14.85-1.106 22.329-.554 13.57-.256 27.181-1.094 40.745 1.15 3.068-1.76 7.204-1.33 1.992.545-11.412.734-22.837 1-34.263.26-8.972.171-17.959 1.448-26.876.31-1.039-.416-4.137 1.082-3.927zm13.606-.415c.76 5.378-.437 10.775-.26 16.172-.21 7.797-.137 15.597-.336 23.394-.154 5.813.444 11.599.734 17.394.117 2.742.176 5.495-.09 8.23-2.486.275-.754-3.728-1.146-5.274-.106-6.838-1.054-13.648-.784-20.495.104-6.231.243-12.461.255-18.694.09-6.563.571-13.103.94-19.652.112-.55-.178-1.18.687-1.075z"/>
<path style="fill:none;stroke:#ffc114;stroke-width:2.66666;stroke-linecap:butt;stroke-linejoin:miter;stroke-miterlimit:10;stroke-dasharray:none;stroke-opacity:1" d="M688.19 665.257c-.761 1.158.873 2.175 1.472 3.047 2.747 2.376 3.655 6.046 5.78 8.905 1.915 2.572 3.793 5.293 6.247 7.344.402.882 1.112 2.018.698 3.036-1.442.52-.902-1.92-1.8-2.472-2.422-2.097-4.221-4.806-6.153-7.363-1.984-2.872-2.938-6.428-5.53-8.84-.886-.966-2.053-2.496-1.14-3.777.142-.078.371-.188.426.12z"/>
<path style="fill:none;stroke:#ffc114;stroke-width:2.66666;stroke-linecap:butt;stroke-linejoin:miter;stroke-miterlimit:10;stroke-dasharray:none;stroke-opacity:1" d="M704.308 664.808c.415 1.17-1.275 1.473-1.556 2.5-1.798 2.368-2.665 5.412-4.844 7.59-2.198 2.51-3.7 5.44-5.48 8.246-.805 1.483-1.745 2.96-2.968 4.053-1.218-.859.677-1.844.965-2.71 2.141-3.346 3.853-6.99 6.471-9.991 1.53-1.63 2.568-3.539 3.52-5.52 1.054-1.534 1.805-3.402 3.523-4.321l.262.109zm-2.266 24.035c-.314 1.213.295 2.653.005 3.955-.265 5.082-.613 10.184-.985 15.274-.625 8.168-2.091 16.287-2.019 24.522-.344 12.001-.33 24.023-.997 36.002-.156 8.313-.702 16.571-1.42 24.837-.478 8.498-1.429 16.958-1.958 25.444-.384 5.734-.996 11.464-1.54 17.154-.372 1.85-.2 3.835-.726 5.609-1.499.415-.58-1.8-.615-2.648.504-5.11 1.05-10.228 1.47-15.367.572-6.217.787-12.458 1.546-18.664.564-10.276 1.718-20.493 2.027-30.776.457-11.25.896-22.508.989-33.782.114-7.368.176-14.76 1.117-22.06.89-6.975 1.324-13.974 1.823-20.987a99.75 99.75 0 0 1 .581-7.933c.055-.31.288-1.223.702-.58z"/>
<path style="fill:none;stroke:#ffc114;stroke-width:2.66666;stroke-linecap:butt;stroke-linejoin:miter;stroke-miterlimit:10;stroke-dasharray:none;stroke-opacity:1" d="M689.401 687.172c1.195 5.811 2.48 11.938 2.575 18.046.925 12.394.927 24.821 1.23 37.234 1.043 20.431 1.662 40.945 5.225 61.14 2.16 12.673 2.669 25.574 5.163 38.194-2.2 1.207-1.806-7.012-2.546-9.48-1.576-11.712-2.54-23.498-4.61-35.146-3.051-20.121-3.488-40.512-4.432-60.806-.066-14.036-.46-28.12-2.137-42.064.172-2.169-2.283-5.414-.468-7.118zm2.227 154.487c-.163 8.762.912 17.665 1.363 26.352.126 1.14-.576 4.396-1.28 1.903.573-4.98-.678-10.198-.678-15.31-.232-4.256-1.021-8.871.238-12.973.105-.084.281-.226.357.028z"/>
<path style="fill:none;stroke:#ffc114;stroke-width:2.66666;stroke-linecap:butt;stroke-linejoin:miter;stroke-miterlimit:10;stroke-dasharray:none;stroke-opacity:1" d="M703.19 841.265c.551 9.914 1.372 19.89 2.564 29.687.364 1.127-.928 3.403-1.219 1.277.215-3.866-.9-7.704-.932-11.61-.525-6.28-1.566-12.683-.842-19.003.106-.173.104-.846.429-.351zm.963 32.429c.722 1.913-1.1 4.312-.75 6.499-1.74 9.885-3.301 19.825-5.09 29.665-.732 3.448-1.314 6.942-2.34 10.325-1.974-.197-.087-2.92.016-4.333 1.334-6.408 2.408-12.811 3.541-19.285 1.202-6.75 2.23-13.526 3.458-20.258.4-.82.368-2.149 1.165-2.613zm-11.35-2.226c-.221 3.936-1.947 7.686-2.41 11.65-2.5 10.73-4.943 21.432-7.663 32.042-.76 2.208-1.44 4.348-1.9 6.65-1.799-.013-.387-2.84-.108-4.08 2.738-8.396 4.297-17.211 6.53-25.774 1.776-6.835 2.837-13.888 5.03-20.577l.253-.179zm3.079 50.25c2.272 5.71 4.347 11.673 6.007 17.639.09 2.05 1.495 4.566.353 6.22-1.318-2.32-.956-5.796-2.125-8.43-1.31-5.101-3.623-9.898-4.832-14.968-.083-.338.19-.958.597-.461zm-16.639 2.93c2.55 3.99 4.042 8.63 5.944 13.01 1.006 3.22 2.885 6.341 2.824 9.694-1.826-.32-1.14-3.44-2.183-4.976-2.04-5.717-4.642-11.28-6.752-16.905.03-.254-.335-1 .167-.823zm8.183 22.784c.821 9.437-2.055 18.78-1.764 28.28.054 1.685-.291 3.352-.413 4.995-2.081.14-.25-3.31-.654-4.571-.144-9.286 1.916-18.298 2.252-27.533.113-.336.048-1.624.579-1.171z"/>
<path style="fill:none;stroke:#ffc114;stroke-width:2.66666;stroke-linecap:butt;stroke-linejoin:miter;stroke-miterlimit:10;stroke-dasharray:none;stroke-opacity:1" d="M702.329 945.4c.37 7.153.674 14.46-.365 21.547-.295 3.548-.006 7.215-.472 10.709-1.862-.013-.414-3.307-.883-4.712.27-8.127 1.556-16.207.823-24.399.146-.954-.235-3.457.897-3.145zm-17.894 36.23c-.663 2.219-2.078 4.684-2.972 7.08-2.331 4.429-5.138 8.576-7.21 13.076-.47 1.677-2.053.271-.886-.845 2.05-4.225 4.73-8.18 6.885-12.415 1.53-2.207 1.73-5.416 3.856-7.032zm15.955-3.845c3.637 6.574 6.986 13.592 9.61 20.713.478.906 1.577 3.422-.243 2.374-2.722-7.084-5.677-14.15-9.284-20.862-.222-.611-.665-1.89-.083-2.225zm9.367 23.087c-3.58 4.937-6.181 9.644-10.143 14.287-3.186 3.897-6.721 7.552-9.914 11.314-2.316.12.368-1.945.974-2.886 5.457-5.929 10.551-12.091 15.784-18.227 1.292-1.493 1.219-4.503 3.299-4.488z"/>
<path style="fill:none;stroke:#ffc114;stroke-width:2.66666;stroke-linecap:butt;stroke-linejoin:miter;stroke-miterlimit:10;stroke-dasharray:none;stroke-opacity:1" d="M674.649 1002.793c10.002 7.268 21.452 12.898 29.72 22.371 1.026 4.367-7.36-6.898-10.344-7.735-5.693-5.942-14.639-8.133-19.76-14.426zm30.827 38.352c-3.416 25.489-8.036 50.881-16.214 75.326-10.434 31.319-16.994 63.709-24.282 95.855-4.92 23.88-10.426 47.69-14.211 71.763-1.558-6.918 3.555-23.56 5.15-33.987 8.245-39.582 16.404-79.255 27.328-118.202 7.16-21.826 13.505-43.96 17.61-66.56 1.973-7.979 2.956-16.162 4.619-24.195z"/>
<path style="fill:none;stroke:#ffc114;stroke-width:2.66666;stroke-linecap:butt;stroke-linejoin:miter;stroke-miterlimit:10;stroke-dasharray:none;stroke-opacity:1" d="M688.303 1040.819c5.816 16.382 8.527 33.573 10.084 50.827 4.359 26.806 9.783 53.428 14.362 80.195 5.307 29.349 13.666 58.022 23.117 86.27 2.085 9.71 8.542 20.444 7.94 29.494.3.177-14.947-44.998-20.997-67.914-10.896-36.936-15.506-75.297-23.083-112.969-3.858-18.466-3.632-37.626-9.437-55.698.037-2.946-3.899-8.684-1.986-10.205z"/>
<path style="fill:#00d1b8;stroke:#00d1b8;stroke-width:2.000255;stroke-linecap:butt;stroke-linejoin:miter;stroke-miterlimit:10;stroke-dasharray:none;stroke-opacity:1;fill-opacity:1" d="M0 0c-42.38-.712-83.854-22.428-108.043-57.275-25.581-35.736-31.051-84.69-13.82-125.147 18.09-44.846 62.295-77.281 110.248-82.282 44.189-5.5 90.502 12.132 119.423 46.076 28.97 33.051 39.432 81.242 26.267 123.249-12.581 42.625-48.082 77.338-90.783 89.496C29.276-1.486 14.654.182 0 0zm9.443 2.166C41.793.846 73.589-11.846 97.37-33.902c33.529-29.77 49.876-77.386 41.738-121.513-7.858-46.934-42.814-87.941-87.68-103.588-47.959-18.402-105.878-6.718-142.84 29.02-33.485 30.94-48.913 79.866-39.022 124.425 9.077 44.085 41.874 81.94 83.829 97.97C-28.822-.559-9.662 2.608 9.443 2.166z" transform="matrix(1.33333 0 0 -1.33333 362.44 948.652)"/>
<path style="fill:#00d1b8;stroke:#00d1b8;stroke-width:2.000255;stroke-linecap:butt;stroke-linejoin:miter;stroke-miterlimit:10;stroke-dasharray:none;stroke-opacity:1;fill-opacity:1" d="M0 0c1.696-6.606 5.336-13.146 7.684-19.778 9.43-18.45 16.835-37.939 26.652-56.127.328-2.013 3.695-4.982 1.217-6.41-2.746 2.49-3.145 7.176-5.524 10.243C21.187-54.859 14.2-36.718 5.49-19.413 3.581-13.029-.89-6.753-.69-.087c.055.28.544.282.69.087z" transform="matrix(1.33333 0 0 -1.33333 198.422 1194.095)"/>
<path style="fill:none;stroke:#00d1b8;stroke-width:2;stroke-linecap:butt;stroke-linejoin:miter;stroke-miterlimit:10;stroke-dasharray:none;stroke-opacity:1" d="M0 0c13.72-11.015 28.363-21.225 41.636-32.901 7.331-7.384 16.153-13.047 23.26-20.517-1.051-3.023-3.918 1.758-5.694 2.65-7.853 6.718-15.663 13.584-23.139 20.82C24.233-19.622 10.99-10.682-.639-.339-.66-.016-.245.184 0 0z" transform="matrix(1.33333 0 0 -1.33333 271.296 1276.04)"/>
<path style="fill:#00d1b8;stroke:#00d1b8;stroke-width:2;stroke-linecap:butt;stroke-linejoin:miter;stroke-miterlimit:10;stroke-dasharray:none;stroke-opacity:1;fill-opacity:1" d="M0 0c17.729-1.717 35.145-6.347 52.957-7.76 12.174-1.015 24.12-3.515 36.057-5.828 1.948-1.02 7.047 1.094 6.563-2.1-7.493-1.33-15.139 2.027-22.509 3.249C54.931-9.653 36.614-8.005 18.75-3.647 12.43-2.48 5.862-1.171-.315-.232l.242.243z" transform="matrix(1.33333 0 0 -1.33333 348.43 1303.566)"/>
<path style="fill:#00d1b8;stroke:#00d1b8;stroke-width:2.000255;stroke-linecap:butt;stroke-linejoin:miter;stroke-miterlimit:10;stroke-dasharray:none;stroke-opacity:1;fill-opacity:1" d="M0 0c-1.401-6.02-5.588-12.15-9.055-17.288-.95 3.31 3.283 7.936 4.589 11.587C-3.083-4.224-2.391.59 0 0z" transform="matrix(1.33333 0 0 -1.33333 253.17 1293.597)"/>
<path style="fill:#00d1b8;stroke:#00d1b8;stroke-width:2.000255;stroke-linecap:butt;stroke-linejoin:miter;stroke-miterlimit:10;stroke-dasharray:none;stroke-opacity:1;fill-opacity:1" d="M0 0c8.3-5.096 18.196-8.13 25.745-14.053-3.056-1.838-7.435 3.176-10.9 4.041C9.737-6.564 3.581-4.296-1.176-.718-1.216-.12-.484.275 0 0z" transform="matrix(1.33333 0 0 -1.33333 241.7 1313.629)"/>
<path style="fill:#00d1b8;stroke:#00d1b8;stroke-width:2.000255;stroke-linecap:butt;stroke-linejoin:miter;stroke-miterlimit:10;stroke-dasharray:none;stroke-opacity:1;fill-opacity:1" d="M0 0c-1.278-6.294-5.878-12.045-8.975-17.808-2.388 2.18 3.223 7.572 3.754 11.008C-3.389-5.18-2.759.38 0 0z" transform="matrix(1.33333 0 0 -1.33333 286.537 1310.011)"/>
<path style="fill:#00d1b8;stroke:#00d1b8;stroke-width:2.000255;stroke-linecap:butt;stroke-linejoin:miter;stroke-miterlimit:10;stroke-dasharray:none;stroke-opacity:1;fill-opacity:1" d="M0 0c8.623-4.875 18.413-8.283 26.162-14.299-3.046-1.315-7.507 3.006-10.987 4.086C9.825-6.98 3.815-4.177-1.131-.674-1.167-.102-.46.279 0 0z" transform="matrix(1.33333 0 0 -1.33333 252.414 1293.3)"/>
<path style="fill:#00d1b8;stroke:#00d1b8;stroke-width:2.000255;stroke-linecap:butt;stroke-linejoin:miter;stroke-miterlimit:10;stroke-dasharray:none;stroke-opacity:1;fill-opacity:1" d="M0 0c.917-7.023.852-14.423.075-21.45-3.094.906-1.136 7.535-1.866 10.804C-.815-7.811-3.042-.774 0 0z" transform="matrix(1.33333 0 0 -1.33333 360.252 1335.563)"/>
<path style="fill:#00d1b8;stroke:#00d1b8;stroke-width:2.000255;stroke-linecap:butt;stroke-linejoin:miter;stroke-miterlimit:10;stroke-dasharray:none;stroke-opacity:1;fill-opacity:1" d="M0 0c7.974-.115 16.067-.141 23.958-.445-1.335-3.316-8.663-.204-12.23-1.507-6.707.062-13.564-.451-20.182.263C-9.397 1.523-1.69-.899 0 0z" transform="matrix(1.33333 0 0 -1.33333 369.192 1360.974)"/>
<path style="fill:#00d1b8;stroke:#00d1b8;stroke-width:2.000255;stroke-linecap:butt;stroke-linejoin:miter;stroke-miterlimit:10;stroke-dasharray:none;stroke-opacity:1;fill-opacity:1" d="M0 0c1.157-7.244.06-14.86.029-22.11-3.299 1.121-.457 8.394-1.707 11.924C-1.262-7.381-3.034-.306 0 0z" transform="matrix(1.33333 0 0 -1.33333 400.813 1334.825)"/>
<path style="fill:#00d1b8;stroke:#00d1b8;stroke-width:2.000255;stroke-linecap:butt;stroke-linejoin:miter;stroke-miterlimit:10;stroke-dasharray:none;stroke-opacity:1;fill-opacity:1" d="M0 0c5.235-.375 11.425.47 16.056-1.167-6.292-1.631-14.023-1.042-20.9-1.074-2.354.701-13.652-.604-9.663 1.766C-9.659-.564-4.845.104 0 0z" transform="matrix(1.33333 0 0 -1.33333 379.667 1335.125)"/>
<path style="fill:#00d1b8;stroke:#00d1b8;stroke-width:2;stroke-linecap:butt;stroke-linejoin:miter;stroke-miterlimit:10;stroke-dasharray:none;stroke-opacity:1;fill-opacity:1" d="M0 0c-1.245-3.316-6.91-4.583-9.725-7.221-6.95-3.804-13.863-8.964-21.086-11.519 1.1 3.095 6.216 4.414 8.987 6.676C-14.914-7.668-7.745-3.636-.543.225z" transform="matrix(1.33333 0 0 -1.33333 512.203 1290.868)"/>
<path style="fill:#00d1b8;stroke:#00d1b8;stroke-width:2;stroke-linecap:butt;stroke-linejoin:miter;stroke-miterlimit:10;stroke-dasharray:none;stroke-opacity:1;fill-opacity:1" d="M0 0c4.19-6.002 8.664-12.768 10.92-19.396-3.32.642-4.488 6.422-7.031 9.025C2.672-7.095-1.991-2.846-.414.104z" transform="matrix(1.33333 0 0 -1.33333 472.385 1313.783)"/>
<path style="fill:#00d1b8;stroke:#00d1b8;stroke-width:2;stroke-linecap:butt;stroke-linejoin:miter;stroke-miterlimit:10;stroke-dasharray:none;stroke-opacity:1;fill-opacity:1" d="M0 0c-.312-3.273-5.721-4.346-8.277-6.457-7.308-4.201-14.766-8.242-21.854-12.755-2.086 3.43 7.063 4.805 9.396 7.53C-14.108-7.622-7.667-3.143-.703.291z" transform="matrix(1.33333 0 0 -1.33333 525.224 1314.136)"/>
<path style="fill:#00d1b8;stroke:#00d1b8;stroke-width:2;stroke-linecap:butt;stroke-linejoin:miter;stroke-miterlimit:10;stroke-dasharray:none;stroke-opacity:1;fill-opacity:1" d="M0 0c4.212-6.166 8.574-12.973 11.088-19.747-3.036 1.213-4.533 6.434-6.934 9.184C3.317-7.827-3.116-1.294 0 0z" transform="matrix(1.33333 0 0 -1.33333 510.5 1290.442)"/>
<path style="fill:#00d1b8;stroke:#00d1b8;stroke-width:2;stroke-linecap:butt;stroke-linejoin:miter;stroke-miterlimit:10;stroke-dasharray:none;stroke-opacity:1;fill-opacity:1" d="M0 0c3.665.884 11.265-1.913 3.287-2.324-4.585-.144-9.268.46-13.766.533C-10.512 1.289-2.498-1.363 0 0z" transform="matrix(1.33333 0 0 -1.33333 592.185 1071.59)"/>
<path style="fill:#00d1b8;stroke:#00d1b8;stroke-width:2;stroke-linecap:butt;stroke-linejoin:miter;stroke-miterlimit:10;stroke-dasharray:none;stroke-opacity:1;fill-opacity:1" d="M0 0c-.085-13.971 1.556-28.34-.079-42.294-2.874 1.282-1.183 7.505-1.769 10.788-.066 10.492.462 21.104.587 31.506l.63.261z" transform="matrix(1.33333 0 0 -1.33333 580.383 1071.613)"/>
<path style="fill:#00d1b8;stroke:#00d1b8;stroke-width:2;stroke-linecap:butt;stroke-linejoin:miter;stroke-miterlimit:10;stroke-dasharray:none;stroke-opacity:1;fill-opacity:1" d="M0 0c3.275-.634 9.622 1.248 10.825-1.769-5.968-1.073-12.32-.596-18.292-.076C-8.317 1.259-1.647-1.152 0 0z" transform="matrix(1.33333 0 0 -1.33333 587.535 1124.398)"/>
<path style="fill:#00d1b8;stroke:#00d1b8;stroke-width:2;stroke-linecap:butt;stroke-linejoin:miter;stroke-miterlimit:10;stroke-dasharray:none;stroke-opacity:1;fill-opacity:1" d="M0 0c.581-13.825.967-27.96.11-41.774-3.033 1.356-.63 8.192-1.664 11.683.141 10.017-.01 20.147.617 30.091l.469.19z" transform="matrix(1.33333 0 0 -1.33333 601.2 1071.265)"/>
<path style="fill:#00d1b8;stroke:#00d1b8;stroke-width:2;stroke-linecap:butt;stroke-linejoin:miter;stroke-miterlimit:10;stroke-dasharray:none;stroke-opacity:1;fill-opacity:1" d="M0 0c-2.761-9.907-5.411-20.152-9.75-29.524-1.911 2.385 1.546 8.001 2.09 11.591C-5.655-11.78-3.228-5.677-.931.308l.53.039z" transform="matrix(1.33333 0 0 -1.33333 563.823 1183.17)"/>
<path style="fill:#00d1b8;stroke:#00d1b8;stroke-width:2;stroke-linecap:butt;stroke-linejoin:miter;stroke-miterlimit:10;stroke-dasharray:none;stroke-opacity:1;fill-opacity:1" d="M0 0c4.002-.493 11.884-5.636 3.23-3.178-5.145 1.66-10.579 2.93-15.33 5.454C-9.639 4.81-3.881.472-.235.077-.143.09-.08.021 0 0z" transform="matrix(1.33333 0 0 -1.33333 565.24 1225.027)"/>
<path style="fill:#00d1b8;stroke:#00d1b8;stroke-width:2;stroke-linecap:butt;stroke-linejoin:miter;stroke-miterlimit:10;stroke-dasharray:none;stroke-opacity:1;fill-opacity:1" d="M0 0c-3.016-9.76-5.644-20.057-9.7-29.449-2.87 2.22 1.724 8.108 2.09 11.686C-5.292-11.792-3.684-5.43-1.161.384L-.5.433z" transform="matrix(1.33333 0 0 -1.33333 587.049 1191.89)"/>
<path style="fill:#00d1b8;stroke:#00d1b8;stroke-width:2.66666;stroke-linecap:butt;stroke-linejoin:miter;stroke-miterlimit:10;stroke-dasharray:none;stroke-opacity:1;fill-opacity:1" d="M567.366 1184.704c6.952 2.344 13.939 5.101 20.704 7.635-3.047 3.613-11.37-3.166-16.553-2.959-4.416-.193-16.743-7.216-5.854-5.119.558.18 1.139.276 1.703.443z"/>
<path style="fill:#00d1b8;stroke:#00d1b8;stroke-width:2;stroke-linecap:butt;stroke-linejoin:miter;stroke-miterlimit:10;stroke-dasharray:none;stroke-opacity:1;fill-opacity:1" d="M0 0c2.734-2.166-2.935-3.598-4.796-4.402-14.312-7.414-29.33-13.7-43.467-21.636-12.218-6.16-23.91-13.705-36.56-18.725.05 1.385 3.336 1.978 4.669 2.985 14.096 7.087 27.669 15.371 41.741 22.591C-26.82-13.223-15.044-7.444-3.386-1.793-2.035-1.557-1.212-.368 0 0z" transform="matrix(1.33333 0 0 -1.33333 562.584 1225.62)"/>
<path style="fill:#00d1b8;stroke:#00d1b8;stroke-width:2;stroke-linecap:butt;stroke-linejoin:miter;stroke-miterlimit:10;stroke-dasharray:none;stroke-opacity:1;fill-opacity:1" d="M0 0c.69-2.794-2.971-4.56-4.218-6.808-9.778-12.102-19.901-23.964-28.747-36.778-5.178-7.035-10.739-13.778-15.608-20.952-1.556-.819-2.666-3.575-4.101-3.617 1.986 3.983 5.393 7.189 7.359 11.315 8.682 11.06 16.358 22.876 25.144 33.812C-13.905-15.281-7.524-7.394-1.294.203-.837.245-.426.692 0 0z" transform="matrix(1.33333 0 0 -1.33333 593.414 1127.632)"/>
<text xml:space="preserve" style="font-style:normal;font-variant:normal;font-weight:400;font-stretch:normal;font-size:35.2218px;line-height:1.25;font-family:'Liberation Mono';-inkscape-font-specification:'Liberation Mono, Normal';font-variant-ligatures:normal;font-variant-caps:normal;font-variant-numeric:normal;font-variant-east-asian:normal;fill:#000;fill-opacity:1;stroke:none;stroke-width:1" x="41.359" y="562.549"><tspan style="font-style:normal;font-variant:normal;font-weight:400;font-stretch:normal;font-family:'Courier Prime Code';-inkscape-font-specification:'Courier Prime Code'" x="41.359" y="562.549">from fraserlab.values\</tspan><tspan style="font-style:normal;font-variant:normal;font-weight:400;font-stretch:normal;font-family:'Courier Prime Code';-inkscape-font-specification:'Courier Prime Code'" x="41.359" y="609.264">import collaboration,\</tspan><tspan style="font-style:normal;font-variant:normal;font-weight:400;font-stretch:normal;font-family:'Courier Prime Code';-inkscape-font-specification:'Courier Prime Code'" x="41.359" y="655.979">       integrity,\</tspan><tspan style="font-style:normal;font-variant:normal;font-weight:400;font-stretch:normal;font-family:'Courier Prime Code';-inkscape-font-specification:'Courier Prime Code'" x="41.359" y="702.694">       scientific_rigor,\</tspan><tspan style="font-style:normal;font-variant:normal;font-weight:400;font-stretch:normal;font-family:'Courier Prime Code';-inkscape-font-specification:'Courier Prime Code'" x="41.359" y="749.409">       transparency,\</tspan><tspan style="font-style:normal;font-variant:normal;font-weight:400;font-stretch:normal;font-family:'Courier Prime Code';-inkscape-font-specification:'Courier Prime Code'" x="41.359" y="796.123">       equity,\</tspan><tspan style="font-style:normal;font-variant:normal;font-weight:400;font-stretch:normal;font-family:'Courier Prime Code';-inkscape-font-specification:'Courier Prime Code'" x="41.359" y="842.838">       mentorship</tspan></text></svg>
