<?xml version="1.0" encoding="utf-8"?>
<!-- Generator: Adobe Illustrator 24.0.0, SVG Export Plug-In . SVG Version: 6.00 Build 0)  -->
<svg version="1.1" id="Logo_FIXED" xmlns="http://www.w3.org/2000/svg" xmlns:xlink="http://www.w3.org/1999/xlink" x="0px" y="0px"
	 viewBox="0 0 16 16" style="enable-background:new 0 0 16 16;" xml:space="preserve">
<style type="text/css">
	.st0{fill:none;}
	.st1{fill:#1DA1F2;}
</style>
<title>Twitter_Logo_Blue</title>
<rect x="-192" y="-192" class="st0" width="400" height="400"/>
<path class="st1" d="M5.1,14.5c5.9,0,9.2-4.9,9.2-9.2c0-0.1,0-0.3,0-0.4c0.6-0.5,1.2-1,1.6-1.7c-0.6,0.3-1.2,0.4-1.9,0.5
	c0.7-0.4,1.2-1,1.4-1.8c-0.6,0.4-1.3,0.6-2,0.8c-1.2-1.3-3.3-1.4-4.6-0.1C8,3.4,7.6,4.6,7.9,5.7c-2.6-0.1-5-1.4-6.6-3.4
	c-0.9,1.5-0.4,3.4,1,4.3c-0.5,0-1-0.2-1.5-0.4c0,0,0,0,0,0c0,1.5,1.1,2.9,2.6,3.2c-0.5,0.1-1,0.1-1.5,0.1c0.4,1.3,1.6,2.2,3,2.2
	c-1.1,0.9-2.6,1.4-4,1.4c-0.3,0-0.5,0-0.8,0C1.6,14,3.3,14.5,5.1,14.5"/>
</svg>
