<?xml version="1.0" encoding="utf-8"?>
<!-- Generator: Adobe Illustrator 24.0.0, SVG Export Plug-In . SVG Version: 6.00 Build 0)  -->
<svg version="1.1" id="Layer_1" xmlns="http://www.w3.org/2000/svg" xmlns:xlink="http://www.w3.org/1999/xlink" x="0px" y="0px"
	 viewBox="0 0 62.5 30" style="enable-background:new 0 0 62.5 30;" xml:space="preserve">
<style type="text/css">
	.st0{fill:#FFFFFF;}
</style>
<title>UCSF_logo_white_RGB</title>
<path class="st0" d="M57.1,13.4v-3.2h-12v11.7c-0.1-1.4-0.6-2.4-1.5-3.2c-0.7-0.5-1.6-0.9-2.9-1.2l-3-0.7c-1.2-0.3-1.9-0.5-2.3-0.7
	c-0.3-0.1-0.5-0.4-0.7-0.7l0,0l0,0l0,0c-0.1-0.2-0.1-0.4-0.1-0.7c0-0.5,0.2-1,0.6-1.3l0,0l0,0l0,0c0.1-0.1,0.2-0.1,0.3-0.2
	c0.6-0.4,1.3-0.6,2.2-0.6c0.8,0,1.6,0.1,2.1,0.4c0.9,0.4,1.3,1.2,1.4,2.2h3.4c-0.1-1.8-0.7-3.2-2-4.1c-1.3-1-2.8-1.4-4.6-1.4
	c-2.2,0-3.8,0.5-4.9,1.5c-0.7,0.6-1.2,1.3-1.4,2.2l0,0c-0.1,0.2-0.1,0.4-0.1,0.5l0,0c-0.4,2-1.7,3.3-3.8,3.3c-3.4,0-4.7-2.9-4.7-5.7
	c0-3,1.3-5.9,4.7-5.9c1.9,0,3.5,1.3,3.7,3h3.6c-0.5-4-3.6-6.2-7.4-6.2c-5.1,0-8.1,3.6-8.4,8.3V2.8h-3.8v10.7c0,2.5-0.9,3.7-3.6,3.7
	c-3,0-3.5-1.8-3.5-3.7V2.8H4.5v10.7c0,4.7,2.7,6.9,7.3,6.9c4.6,0,7.3-2.3,7.3-6.9v-1.3c0.3,4.6,3.3,8.2,8.4,8.2
	c2.1,0,3.8-0.7,5.2-1.9c0.1,0.1,0.2,0.1,0.3,0.2c0.7,0.5,1.9,0.9,3.7,1.3l1.8,0.4c1.1,0.2,1.9,0.5,2.4,0.8c0.5,0.3,0.8,0.8,0.7,1.3
	c0,1-0.5,1.6-1.5,2c-0.5,0.2-1.2,0.3-2.1,0.3c-1.4,0-2.4-0.4-3-1.1c-0.3-0.4-0.5-1-0.6-1.7H31c0,1.8,0.6,3.2,1.9,4.2
	c1.3,1,3,1.5,5.3,1.5c2.2,0,3.9-0.5,5.1-1.5c1.1-0.9,1.7-2.1,1.8-3.5v4.8h3.8v-7.1H56v-2.9h-7.2v-4H57.1z"/>
</svg>
