<svg height="44.932pt" viewBox="0 0 344.711 44.932" width="344.711pt" xmlns="http://www.w3.org/2000/svg" xmlns:xlink="http://www.w3.org/1999/xlink"><clipPath id="a"><path d="m119 26h10v18.933594h-10zm0 0"/></clipPath><symbol id="b" overflow="visible"><path d="m7.171875-6.5625c.015625-.046875.03125-.09375.03125-.15625 0-.09375-.046875-.09375-.25-.09375h-4.203125c-.234375 0-.25.015625-.3125.203125l-.546875 1.796875c-.015625.046875-.03125.125-.03125.140625 0 0 0 .109375.125.109375.09375 0 .109375-.078125.125-.109375.390625-1.171875.90625-1.828125 2.453125-1.828125h1.625l-5.5625 6.234375s-.046875.140625-.046875.171875c0 .09375.0625.09375.25.09375h4.328125c.25 0 .25-.015625.3125-.203125l.71875-2.203125c0-.03125.03125-.109375.03125-.140625 0-.0625-.03125-.109375-.125-.109375s-.109375.03125-.171875.25c-.4375 1.34375-.921875 2.0625-2.609375 2.0625h-1.703125zm0 0"/></symbol><symbol id="c" overflow="visible"><path d="m3.890625-3.734375c-.265625.015625-.46875.234375-.46875.453125 0 .140625.09375.296875.3125.296875s.453125-.171875.453125-.5625c0-.453125-.421875-.859375-1.1875-.859375-1.3125 0-1.6875 1.015625-1.6875 1.453125 0 .78125.734375.921875 1.03125.984375.515625.109375 1.03125.21875 1.03125.765625 0 .25-.21875 1.09375-1.421875 1.09375-.140625 0-.90625 0-1.140625-.53125.390625.046875.640625-.25.640625-.53125 0-.21875-.171875-.34375-.375-.34375-.265625 0-.5625.203125-.5625.65625 0 .5625.578125.96875 1.421875.96875 1.625 0 2.015625-1.203125 2.015625-1.65625 0-.359375-.1875-.609375-.3125-.71875-.265625-.28125-.5625-.34375-1-.421875-.359375-.078125-.75-.15625-.75-.609375 0-.28125.234375-.890625 1.109375-.890625.25 0 .75.078125.890625.453125zm0 0"/></symbol><symbol id="d" overflow="visible"><path d="m3.953125-3.78125c-.171875 0-.296875 0-.4375.125-.171875.15625-.1875.328125-.1875.390625 0 .25.1875.359375.375.359375.28125 0 .546875-.25.546875-.640625 0-.484375-.46875-.859375-1.171875-.859375-1.34375 0-2.671875 1.421875-2.671875 2.828125 0 .90625.578125 1.6875 1.625 1.6875 1.421875 0 2.25-1.0625 2.25-1.171875 0-.0625-.046875-.140625-.109375-.140625s-.078125.03125-.140625.109375c-.78125.984375-1.875.984375-1.984375.984375-.625 0-.90625-.484375-.90625-1.09375 0-.40625.203125-1.375.546875-1.984375.3125-.578125.859375-1 1.40625-1 .328125 0 .71875.125.859375.40625zm0 0"/></symbol><symbol id="e" overflow="visible"><path d="m4.671875-2.71875c0-1.046875-.6875-1.6875-1.59375-1.6875-1.328125 0-2.671875 1.421875-2.671875 2.828125 0 .984375.671875 1.6875 1.59375 1.6875 1.328125 0 2.671875-1.375 2.671875-2.828125zm-2.65625 2.609375c-.4375 0-.875-.3125-.875-1.09375 0-.484375.265625-1.5625.578125-2.0625.5-.765625 1.078125-.921875 1.359375-.921875.578125 0 .875.484375.875 1.078125 0 .390625-.203125 1.4375-.578125 2.078125-.359375.578125-.90625.921875-1.359375.921875zm0 0"/></symbol><symbol id="f" overflow="visible"><path d="m.875-.59375c-.03125.15625-.09375.390625-.09375.4375 0 .171875.140625.265625.296875.265625.125 0 .296875-.078125.375-.28125.015625-.03125.34375-1.390625.390625-1.578125.078125-.328125.265625-1.015625.3125-1.296875.046875-.125.328125-.59375.5625-.8125.078125-.0625.375-.328125.796875-.328125.265625 0 .40625.125.421875.125-.296875.046875-.515625.28125-.515625.546875 0 .15625.109375.34375.375.34375s.546875-.234375.546875-.59375c0-.34375-.3125-.640625-.828125-.640625-.640625 0-1.078125.484375-1.265625.765625-.09375-.453125-.453125-.765625-.921875-.765625-.453125 0-.640625.390625-.734375.5625-.171875.34375-.296875.9375-.296875.96875 0 .109375.09375.109375.109375.109375.109375 0 .109375-.015625.171875-.234375.171875-.703125.375-1.1875.734375-1.1875.15625 0 .296875.078125.296875.453125 0 .21875-.03125.328125-.15625.84375zm0 0"/></symbol><symbol id="g" overflow="visible"><path d="m1.859375-2.296875c.296875 0 1.03125-.03125 1.53125-.234375.703125-.296875.75-.890625.75-1.03125 0-.4375-.375-.84375-1.0625-.84375-1.109375 0-2.625.96875-2.625 2.71875 0 1.015625.59375 1.796875 1.578125 1.796875 1.421875 0 2.25-1.0625 2.25-1.171875 0-.0625-.046875-.140625-.109375-.140625s-.078125.03125-.140625.109375c-.78125.984375-1.875.984375-1.984375.984375-.78125 0-.875-.84375-.875-1.15625 0-.125.015625-.421875.15625-1.03125zm-.46875-.21875c.390625-1.515625 1.421875-1.671875 1.6875-1.671875.453125 0 .734375.296875.734375.625 0 1.046875-1.59375 1.046875-2.015625 1.046875zm0 0"/></symbol><symbol id="h" overflow="visible"><path d="m7.53125-5.765625c.109375-.390625.28125-.703125 1.078125-.734375.046875 0 .171875-.015625.171875-.203125 0 0 0-.109375-.125-.109375-.328125 0-.6875.03125-1.015625.03125s-.6875-.03125-1.015625-.03125c-.0625 0-.171875 0-.171875.203125 0 .109375.09375.109375.171875.109375.578125.015625.6875.21875.6875.4375 0 .03125-.03125.1875-.03125.203125l-1.125 4.4375-2.203125-5.203125c-.078125-.171875-.078125-.1875-.3125-.1875h-1.34375c-.1875 0-.28125 0-.28125.203125 0 .109375.09375.109375.28125.109375.046875 0 .671875 0 .671875.09375l-1.328125 5.34375c-.109375.40625-.28125.71875-1.078125.75-.0625 0-.171875.015625-.171875.203125 0 .0625.046875.109375.125.109375.328125 0 .671875-.03125 1-.03125.34375 0 .703125.03125 1.03125.03125.046875 0 .171875 0 .171875-.203125 0-.09375-.09375-.109375-.203125-.109375-.578125-.015625-.65625-.234375-.65625-.4375 0-.0625.015625-.125.046875-.234375l1.3125-5.25c.046875.046875.046875.078125.09375.171875l2.484375 5.875c.0625.171875.09375.1875.1875.1875.109375 0 .109375-.03125.15625-.203125zm0 0"/></symbol><symbol id="i" overflow="visible"><path d="m3.484375-.5625c.109375.40625.46875.671875.890625.671875.34375 0 .578125-.234375.734375-.546875.171875-.359375.296875-.96875.296875-.984375 0-.109375-.078125-.109375-.109375-.109375-.109375 0-.109375.046875-.140625.1875-.140625.5625-.328125 1.234375-.75 1.234375-.203125 0-.3125-.125-.3125-.453125 0-.21875.125-.6875.203125-1.046875l.28125-1.078125c.03125-.140625.125-.515625.171875-.671875.046875-.234375.140625-.609375.140625-.671875 0-.171875-.140625-.265625-.28125-.265625-.046875 0-.3125.015625-.390625.34375-.1875.734375-.625 2.484375-.75 3-.015625.046875-.40625.84375-1.140625.84375-.515625 0-.609375-.453125-.609375-.8125 0-.5625.28125-1.34375.53125-2.03125.125-.3125.171875-.453125.171875-.640625 0-.4375-.3125-.8125-.8125-.8125-.953125 0-1.3125 1.453125-1.3125 1.53125 0 .109375.09375.109375.109375.109375.109375 0 .109375-.03125.15625-.1875.25-.859375.640625-1.234375 1.015625-1.234375.09375 0 .25.015625.25.328125 0 .234375-.109375.53125-.171875.671875-.375 1-.578125 1.609375-.578125 2.09375 0 .953125.6875 1.203125 1.21875 1.203125.65625 0 1.015625-.453125 1.1875-.671875zm0 0"/></symbol><symbol id="j" overflow="visible"><path d="m.875-.59375c-.03125.15625-.09375.390625-.09375.4375 0 .171875.140625.265625.296875.265625.125 0 .296875-.078125.375-.28125 0-.015625.125-.484375.1875-.734375l.21875-.890625c.046875-.234375.109375-.453125.171875-.671875.03125-.171875.109375-.46875.125-.5.140625-.3125.671875-1.21875 1.625-1.21875.453125 0 .53125.375.53125.703125 0 .25-.0625.53125-.140625.828125l-.28125 1.15625-.203125.75c-.03125.203125-.125.546875-.125.59375 0 .171875.140625.265625.28125.265625.3125 0 .375-.25.453125-.5625.140625-.5625.515625-2.015625.59375-2.40625.03125-.125.5625-1.328125 1.65625-1.328125.421875 0 .53125.34375.53125.703125 0 .5625-.421875 1.703125-.625 2.234375-.078125.234375-.125.34375-.125.546875 0 .46875.34375.8125.8125.8125.9375 0 1.3125-1.453125 1.3125-1.53125 0-.109375-.09375-.109375-.125-.109375-.09375 0-.09375.03125-.140625.1875-.15625.53125-.46875 1.234375-1.015625 1.234375-.171875 0-.25-.09375-.25-.328125 0-.25.09375-.484375.1875-.703125.1875-.53125.609375-1.625.609375-2.203125 0-.640625-.40625-1.0625-1.15625-1.0625-.734375 0-1.25.4375-1.625.96875 0-.125-.03125-.46875-.3125-.703125-.25-.21875-.5625-.265625-.8125-.265625-.90625 0-1.390625.640625-1.5625.875-.046875-.578125-.46875-.875-.921875-.875s-.640625.390625-.734375.5625c-.171875.359375-.296875.9375-.296875.96875 0 .109375.09375.109375.109375.109375.109375 0 .109375-.015625.171875-.234375.171875-.703125.375-1.1875.734375-1.1875.15625 0 .296875.078125.296875.453125 0 .21875-.03125.328125-.15625.84375zm0 0"/></symbol><symbol id="k" overflow="visible"><path d="m2.375-6.8125s0-.109375-.125-.109375c-.21875 0-.953125.078125-1.21875.109375-.078125 0-.1875.015625-.1875.1875 0 .125.09375.125.25.125.46875 0 .484375.0625.484375.171875 0 .0625-.078125.40625-.125.609375l-.828125 3.25c-.109375.5-.15625.671875-.15625 1.015625 0 .9375.53125 1.5625 1.265625 1.5625 1.171875 0 2.40625-1.484375 2.40625-2.921875 0-.90625-.53125-1.59375-1.328125-1.59375-.453125 0-.875.296875-1.171875.59375zm-.921875 3.765625c.046875-.21875.046875-.234375.140625-.34375.484375-.640625.9375-.796875 1.203125-.796875.359375 0 .625.296875.625.9375 0 .59375-.328125 1.734375-.515625 2.109375-.328125.671875-.78125 1.03125-1.171875 1.03125-.34375 0-.671875-.265625-.671875-1 0-.203125 0-.390625.15625-1.015625zm0 0"/></symbol><symbol id="l" overflow="visible"><path d="m3.734375-6.125c.0625-.234375.09375-.328125.28125-.359375.09375-.015625.40625-.015625.609375-.015625.703125 0 1.8125 0 1.8125.984375 0 .34375-.15625 1.03125-.546875 1.421875-.265625.25-.78125.578125-1.6875.578125h-1.109375zm1.4375 2.734375c1.015625-.21875 2.1875-.921875 2.1875-1.921875 0-.859375-.890625-1.5-2.203125-1.5h-2.828125c-.203125 0-.296875 0-.296875.203125 0 .109375.09375.109375.28125.109375.015625 0 .203125 0 .375.015625.1875.03125.265625.03125.265625.171875 0 .03125 0 .0625-.03125.1875l-1.34375 5.34375c-.09375.390625-.109375.46875-.90625.46875-.171875 0-.265625 0-.265625.203125 0 .109375.125.109375.140625.109375.28125 0 .984375-.03125 1.25-.03125.28125 0 1 .03125 1.28125.03125.078125 0 .1875 0 .1875-.203125 0-.109375-.078125-.109375-.28125-.109375-.359375 0-.640625 0-.640625-.171875 0-.0625.015625-.109375.03125-.171875l.65625-2.640625h1.1875c.90625 0 1.078125.5625 1.078125.90625 0 .140625-.078125.453125-.140625.6875-.0625.28125-.15625.640625-.15625.84375 0 1.078125 1.203125 1.078125 1.328125 1.078125.84375 0 1.203125-1 1.203125-1.140625 0-.125-.109375-.125-.125-.125-.09375 0-.109375.0625-.125.140625-.25.734375-.6875.90625-.90625.90625-.328125 0-.40625-.21875-.40625-.609375 0-.3125.0625-.8125.109375-1.140625.015625-.140625.03125-.328125.03125-.46875 0-.765625-.671875-1.078125-.9375-1.171875zm0 0"/></symbol><symbol id="m" overflow="visible"><path d="m2.046875-3.984375h.9375c.203125 0 .3125 0 .3125-.203125 0-.109375-.109375-.109375-.28125-.109375h-.875c.359375-1.421875.40625-1.609375.40625-1.671875 0-.171875-.125-.265625-.296875-.265625-.03125 0-.3125 0-.390625.359375l-.390625 1.578125h-.9375c-.203125 0-.296875 0-.296875.1875 0 .125.078125.125.28125.125h.875c-.71875 2.828125-.765625 3-.765625 3.171875 0 .546875.375.921875.921875.921875 1.015625 0 1.578125-1.453125 1.578125-1.53125 0-.109375-.078125-.109375-.109375-.109375-.09375 0-.109375.03125-.15625.140625-.421875 1.046875-.953125 1.28125-1.296875 1.28125-.203125 0-.3125-.125-.3125-.453125 0-.25.03125-.3125.0625-.484375zm0 0"/></symbol><symbol id="n" overflow="visible"><path d="m3.71875-3.765625c-.1875-.375-.46875-.640625-.921875-.640625-1.15625 0-2.390625 1.46875-2.390625 2.921875 0 .9375.546875 1.59375 1.3125 1.59375.203125 0 .703125-.046875 1.296875-.75.078125.421875.4375.75.90625.75.359375 0 .578125-.234375.75-.546875.15625-.359375.296875-.96875.296875-.984375 0-.109375-.09375-.109375-.125-.109375-.09375 0-.109375.046875-.140625.1875-.171875.640625-.34375 1.234375-.75 1.234375-.28125 0-.296875-.265625-.296875-.453125 0-.21875.015625-.3125.125-.75.109375-.40625.125-.515625.21875-.890625l.359375-1.390625c.0625-.28125.0625-.296875.0625-.34375 0-.171875-.109375-.265625-.28125-.265625-.25 0-.390625.21875-.421875.4375zm-.640625 2.578125c-.0625.1875-.0625.203125-.203125.375-.4375.546875-.84375.703125-1.125.703125-.5 0-.640625-.546875-.640625-.9375 0-.5.3125-1.71875.546875-2.1875.3125-.578125.75-.953125 1.15625-.953125.640625 0 .78125.8125.78125.875s-.015625.125-.03125.171875zm0 0"/></symbol><symbol id="o" overflow="visible"><path d="m2.828125-6.234375c0-.203125-.140625-.359375-.359375-.359375-.28125 0-.546875.265625-.546875.53125 0 .1875.140625.359375.375.359375s.53125-.234375.53125-.53125zm-.75 3.75c.109375-.28125.109375-.3125.21875-.578125.078125-.203125.125-.34375.125-.53125 0-.4375-.3125-.8125-.8125-.8125-.9375 0-1.3125 1.453125-1.3125 1.53125 0 .109375.09375.109375.109375.109375.109375 0 .109375-.03125.15625-.1875.28125-.9375.671875-1.234375 1.015625-1.234375.078125 0 .25 0 .25.3125 0 .21875-.078125.421875-.109375.53125-.078125.25-.53125 1.40625-.6875 1.84375-.109375.25-.234375.578125-.234375.796875 0 .46875.34375.8125.8125.8125.9375 0 1.3125-1.4375 1.3125-1.53125 0-.109375-.09375-.109375-.125-.109375-.09375 0-.09375.03125-.140625.1875-.1875.625-.515625 1.234375-1.015625 1.234375-.171875 0-.25-.09375-.25-.328125 0-.25.0625-.390625.296875-1zm0 0"/></symbol><symbol id="p" overflow="visible"><path d="m6.4375-6.921875c0-.03125-.03125-.109375-.125-.109375-.046875 0-.046875.015625-.171875.15625l-.484375.5625c-.25-.46875-.765625-.71875-1.421875-.71875-1.265625 0-2.453125 1.15625-2.453125 2.359375 0 .796875.515625 1.265625 1.03125 1.40625l1.0625.28125c.375.09375.921875.25.921875 1.0625 0 .890625-.8125 1.828125-1.796875 1.828125-.640625 0-1.75-.21875-1.75-1.453125 0-.234375.0625-.484375.0625-.53125.015625-.046875.015625-.0625.015625-.078125 0-.09375-.0625-.109375-.109375-.109375s-.078125.015625-.109375.046875-.59375 2.3125-.59375 2.34375c0 .046875.046875.09375.109375.09375.046875 0 .0625-.015625.1875-.15625l.484375-.5625c.421875.578125 1.109375.71875 1.6875.71875 1.359375 0 2.53125-1.328125 2.53125-2.5625 0-.6875-.34375-1.03125-.484375-1.171875-.234375-.21875-.390625-.265625-1.265625-.484375-.234375-.0625-.578125-.171875-.671875-.1875-.265625-.09375-.609375-.375-.609375-.90625 0-.8125.796875-1.65625 1.75-1.65625.8125 0 1.421875.4375 1.421875 1.546875 0 .3125-.03125.5-.03125.5625 0 0 0 .09375.109375.09375s.125-.03125.15625-.203125zm0 0"/></symbol><symbol id="q" overflow="visible"><path d="m.453125 1.21875c-.078125.34375-.109375.40625-.546875.40625-.109375 0-.21875 0-.21875.1875 0 .078125.046875.125.125.125.265625 0 .5625-.03125.828125-.03125.34375 0 .671875.03125 1 .03125.046875 0 .171875 0 .171875-.203125 0-.109375-.09375-.109375-.234375-.109375-.5 0-.5-.0625-.5-.15625 0-.125.421875-1.75.484375-2 .125.296875.40625.640625.921875.640625 1.15625 0 2.40625-1.453125 2.40625-2.921875 0-.9375-.578125-1.59375-1.328125-1.59375-.5 0-.984375.359375-1.3125.75-.09375-.546875-.53125-.75-.890625-.75-.46875 0-.65625.390625-.734375.5625-.1875.34375-.3125.9375-.3125.96875 0 .109375.09375.109375.109375.109375.109375 0 .109375-.015625.171875-.234375.171875-.703125.375-1.1875.734375-1.1875.171875 0 .3125.078125.3125.453125 0 .234375-.03125.34375-.078125.515625zm1.75-4.328125c.0625-.265625.34375-.546875.515625-.703125.359375-.296875.640625-.375.8125-.375.390625 0 .640625.34375.640625.9375s-.328125 1.734375-.515625 2.109375c-.34375.703125-.8125 1.03125-1.1875 1.03125-.65625 0-.78125-.828125-.78125-.890625 0-.015625 0-.03125.03125-.15625zm0 0"/></symbol><symbol id="r" overflow="visible"><path d="m2.578125-6.8125s0-.109375-.140625-.109375c-.21875 0-.953125.078125-1.21875.109375-.078125 0-.1875.015625-.1875.203125 0 .109375.109375.109375.25.109375.484375 0 .5.09375.5.171875l-.03125.203125-1.265625 4.984375c-.03125.109375-.046875.171875-.046875.328125 0 .578125.4375.921875.90625.921875.328125 0 .578125-.203125.75-.5625.171875-.375.296875-.953125.296875-.96875 0-.109375-.09375-.109375-.125-.109375-.09375 0-.109375.046875-.125.1875-.171875.640625-.359375 1.234375-.765625 1.234375-.296875 0-.296875-.3125-.296875-.453125 0-.25.015625-.296875.0625-.484375zm0 0"/></symbol><symbol id="s" overflow="visible"><path d="m1.328125-.828125c.53125-.578125.828125-.828125 1.1875-1.140625 0 0 .609375-.53125.96875-.890625.953125-.921875 1.171875-1.40625 1.171875-1.453125 0-.09375-.09375-.09375-.109375-.09375-.078125 0-.09375.015625-.15625.109375-.296875.484375-.5.640625-.734375.640625-.25 0-.359375-.15625-.515625-.328125-.1875-.21875-.359375-.421875-.6875-.421875-.75 0-1.203125.921875-1.203125 1.140625 0 .046875.03125.109375.109375.109375.09375 0 .109375-.046875.140625-.109375.1875-.46875.765625-.46875.84375-.46875.203125 0 .390625.0625.625.140625.40625.15625.515625.15625.765625.15625-.359375.421875-1.1875 1.140625-1.375 1.296875l-.90625.84375c-.671875.671875-1.03125 1.234375-1.03125 1.3125 0 .09375.109375.09375.125.09375.078125 0 .09375-.015625.15625-.125.234375-.359375.53125-.625.859375-.625.21875 0 .328125.09375.578125.375.15625.21875.34375.375.625.375 1 0 1.578125-1.265625 1.578125-1.53125 0-.046875-.046875-.109375-.125-.109375-.09375 0-.109375.0625-.140625.140625-.234375.640625-.875.828125-1.203125.828125-.1875 0-.375-.0625-.578125-.125-.34375-.125-.5-.171875-.703125-.171875-.015625 0-.171875 0-.265625.03125zm0 0"/></symbol><symbol id="t" overflow="visible"><path d="m1.78125-1.140625c-.390625.65625-.78125.796875-1.21875.828125-.125.015625-.21875.015625-.21875.203125 0 .0625.0625.109375.140625.109375.265625 0 .578125-.03125.84375-.03125.34375 0 .6875.03125 1 .03125.0625 0 .1875 0 .1875-.1875 0-.109375-.078125-.125-.15625-.125-.21875-.015625-.46875-.09375-.46875-.34375 0-.125.0625-.234375.140625-.375l.765625-1.265625h2.5c.015625.203125.15625 1.5625.15625 1.65625 0 .296875-.515625.328125-.71875.328125-.140625 0-.234375 0-.234375.203125 0 .109375.109375.109375.140625.109375.40625 0 .828125-.03125 1.234375-.03125.25 0 .890625.03125 1.140625.03125.046875 0 .171875 0 .171875-.203125 0-.109375-.09375-.109375-.234375-.109375-.609375 0-.609375-.0625-.640625-.359375l-.609375-6.21875c-.015625-.203125-.015625-.25-.1875-.25-.15625 0-.203125.078125-.265625.171875zm1.203125-1.46875 1.953125-3.296875.328125 3.296875zm0 0"/></symbol><symbol id="u" overflow="visible"><path d="m4.671875-3.703125c0-.546875-.265625-.703125-.4375-.703125-.25 0-.5.265625-.5.484375 0 .125.046875.1875.15625.296875.21875.203125.34375.453125.34375.8125 0 .421875-.609375 2.703125-1.765625 2.703125-.515625 0-.75-.34375-.75-.875 0-.546875.28125-1.28125.578125-2.109375.078125-.171875.125-.3125.125-.5 0-.4375-.3125-.8125-.8125-.8125-.9375 0-1.3125 1.453125-1.3125 1.53125 0 .109375.09375.109375.109375.109375.109375 0 .109375-.03125.15625-.1875.296875-1 .71875-1.234375 1.015625-1.234375.078125 0 .25 0 .25.3125 0 .25-.109375.53125-.171875.703125-.4375 1.15625-.5625 1.609375-.5625 2.046875 0 1.078125.875 1.234375 1.328125 1.234375 1.671875 0 2.25-3.296875 2.25-3.8125zm0 0"/></symbol><symbol id="v" overflow="visible"><path d="m4.25-6.046875c.078125-.28125.109375-.34375.234375-.375.09375-.015625.421875-.015625.625-.015625 1.015625 0 1.453125.03125 1.453125.8125 0 .15625-.03125.546875-.078125.796875 0 .046875-.03125.15625-.03125.1875 0 .0625.03125.140625.125.140625.109375 0 .125-.078125.15625-.234375l.265625-1.734375c.015625-.046875.015625-.140625.015625-.171875 0-.109375-.09375-.109375-.265625-.109375h-5.53125c-.234375 0-.25.015625-.328125.203125l-.59375 1.75c0 .015625-.0625.15625-.0625.1875 0 .046875.0625.109375.125.109375.09375 0 .109375-.0625.171875-.21875.53125-1.546875.796875-1.71875 2.265625-1.71875h.390625c.28125 0 .28125.03125.28125.125 0 .046875-.03125.171875-.046875.203125l-1.328125 5.328125c-.09375.359375-.125.46875-1.1875.46875-.359375 0-.421875 0-.421875.1875 0 .125.109375.125.171875.125.265625 0 .546875-.015625.8125-.015625.28125 0 .578125-.015625.859375-.015625s.546875.015625.828125.015625.578125.015625.859375.015625c.09375 0 .21875 0 .21875-.203125 0-.109375-.078125-.109375-.34375-.109375-.234375 0-.375 0-.625-.015625-.296875-.03125-.375-.0625-.375-.21875 0-.015625 0-.0625.046875-.203125zm0 0"/></symbol><symbol id="w" overflow="visible"><path d="m2.859375-6.8125s0-.109375-.125-.109375c-.234375 0-.953125.078125-1.21875.109375-.078125 0-.1875.015625-.1875.1875 0 .125.09375.125.234375.125.484375 0 .5.0625.5.171875l-.03125.203125-1.4375 5.734375c-.046875.140625-.046875.15625-.046875.21875 0 .234375.203125.28125.296875.28125.15625 0 .3125-.125.359375-.265625l.1875-.75.21875-.890625c.0625-.234375.125-.453125.171875-.671875.015625-.0625.109375-.390625.109375-.453125.03125-.09375.34375-.640625.6875-.921875.21875-.15625.515625-.34375.953125-.34375.421875 0 .53125.34375.53125.703125 0 .53125-.375 1.625-.609375 2.234375-.078125.21875-.140625.34375-.140625.546875 0 .46875.359375.8125.828125.8125.9375 0 1.296875-1.453125 1.296875-1.53125 0-.109375-.078125-.109375-.109375-.109375-.109375 0-.109375.03125-.15625.1875-.140625.53125-.46875 1.234375-1.015625 1.234375-.171875 0-.234375-.09375-.234375-.328125 0-.25.078125-.484375.171875-.703125.15625-.4375.609375-1.625.609375-2.203125 0-.640625-.390625-1.0625-1.140625-1.0625-.625 0-1.109375.3125-1.484375.765625zm0 0"/></symbol><symbol id="x" overflow="visible"><path d="m5.140625-6.8125s0-.109375-.125-.109375c-.15625 0-1.09375.09375-1.265625.109375-.078125.015625-.140625.0625-.140625.1875s.09375.125.234375.125c.484375 0 .5.0625.5.171875l-.03125.203125-.59375 2.359375c-.1875-.375-.46875-.640625-.921875-.640625-1.15625 0-2.390625 1.46875-2.390625 2.921875 0 .9375.546875 1.59375 1.3125 1.59375.203125 0 .703125-.046875 1.296875-.75.078125.421875.4375.75.90625.75.359375 0 .578125-.234375.75-.546875.15625-.359375.296875-.96875.296875-.984375 0-.109375-.09375-.109375-.125-.109375-.09375 0-.109375.046875-.140625.1875-.171875.640625-.34375 1.234375-.75 1.234375-.28125 0-.296875-.265625-.296875-.453125 0-.25.015625-.3125.046875-.484375zm-2.0625 5.625c-.0625.1875-.0625.203125-.203125.375-.4375.546875-.84375.703125-1.125.703125-.5 0-.640625-.546875-.640625-.9375 0-.5.3125-1.71875.546875-2.1875.3125-.578125.75-.953125 1.15625-.953125.640625 0 .78125.8125.78125.875s-.015625.125-.03125.171875zm0 0"/></symbol><symbol id="y" overflow="visible"><path d="m1.71875-2.75h.703125c.140625 0 .21875 0 .21875-.15625 0-.09375-.078125-.09375-.203125-.09375h-.65625l.25-1.03125c.015625-.03125.03125-.078125.03125-.09375 0-.140625-.109375-.234375-.25-.234375-.171875 0-.265625.125-.328125.296875-.046875.1875.046875-.15625-.265625 1.0625h-.703125c-.125 0-.21875 0-.21875.15625 0 .09375.078125.09375.203125.09375h.65625l-.40625 1.640625c-.046875.171875-.109375.421875-.109375.515625 0 .40625.359375.65625.75.65625.78125 0 1.21875-.96875 1.21875-1.0625s-.09375-.09375-.109375-.09375c-.09375 0-.09375.015625-.15625.140625-.1875.4375-.546875.828125-.921875.828125-.15625 0-.25-.09375-.25-.34375 0-.0625.03125-.21875.046875-.28125zm0 0"/></symbol><symbol id="z" overflow="visible"><path d="m2.1875-4.625c0-.015625.015625-.109375.015625-.109375 0-.046875-.015625-.109375-.109375-.109375-.140625 0-.71875.0625-.890625.078125-.046875 0-.15625.015625-.15625.15625 0 .09375.109375.09375.1875.09375.328125 0 .328125.0625.328125.109375s-.015625.09375-.015625.15625l-.984375 3.9375c-.046875.125-.046875.140625-.046875.15625 0 .109375.09375.21875.25.21875.078125 0 .203125-.03125.28125-.171875.015625-.046875.078125-.296875.109375-.4375l.171875-.625c.015625-.109375.09375-.375.109375-.46875.0625-.265625.0625-.28125.203125-.5.234375-.34375.578125-.734375 1.125-.734375.390625 0 .40625.3125.40625.484375 0 .421875-.296875 1.1875-.40625 1.484375-.078125.203125-.109375.265625-.109375.375 0 .375.3125.59375.65625.59375.703125 0 1.015625-.953125 1.015625-1.0625 0-.09375-.09375-.09375-.125-.09375-.09375 0-.09375.046875-.125.125-.15625.5625-.46875.84375-.734375.84375-.15625 0-.1875-.09375-.1875-.25s.046875-.25.171875-.5625c.078125-.21875.359375-.953125.359375-1.34375 0-.109375 0-.40625-.25-.609375-.125-.078125-.328125-.1875-.65625-.1875-.5 0-.875.28125-1.125.578125zm0 0"/></symbol><symbol id="A" overflow="visible"><path d="m1.640625-1.40625c0-.046875.171875-.671875.171875-.703125.015625-.0625.21875-.40625.453125-.578125.0625-.046875.25-.1875.5625-.1875.0625 0 .234375 0 .375.09375-.21875.0625-.296875.265625-.296875.390625 0 .140625.109375.25.265625.25.171875 0 .390625-.125.390625-.421875 0-.359375-.375-.515625-.734375-.515625s-.671875.15625-.984375.5c-.125-.421875-.546875-.5-.71875-.5-.25 0-.421875.171875-.546875.359375-.15625.265625-.25.671875-.25.71875 0 .078125.09375.078125.125.078125.09375 0 .09375-.015625.140625-.203125.109375-.421875.25-.75.515625-.75.1875 0 .234375.15625.234375.34375 0 .125-.0625.390625-.125.578125-.046875.1875-.109375.46875-.140625.625l-.234375.890625c-.015625.09375-.0625.265625-.0625.28125 0 .15625.125.21875.234375.21875s.25-.0625.296875-.1875c.015625-.046875.09375-.359375.140625-.53125zm0 0"/></symbol><symbol id="B" overflow="visible"><path d="m1.5625-1.59375c.1875 0 .75-.015625 1.125-.140625.515625-.1875.609375-.515625.609375-.71875 0-.390625-.390625-.625-.859375-.625-.84375 0-1.96875.640625-1.96875 1.84375 0 .703125.4375 1.296875 1.25 1.296875 1.1875 0 1.734375-.6875 1.734375-.78125 0-.046875-.0625-.125-.125-.125-.03125 0-.046875.015625-.109375.078125-.546875.640625-1.359375.640625-1.484375.640625-.421875 0-.703125-.28125-.703125-.84375 0-.09375 0-.234375.09375-.625zm-.390625-.1875c.296875-1.015625 1.0625-1.09375 1.265625-1.09375.296875 0 .5625.15625.5625.421875 0 .671875-1.1875.671875-1.484375.671875zm0 0"/></symbol><symbol id="C" overflow="visible"><path d="m3-2.625c-.171875.046875-.296875.1875-.296875.328125 0 .171875.140625.234375.234375.234375.078125 0 .34375-.046875.34375-.40625 0-.453125-.5-.609375-.9375-.609375-1.078125 0-1.28125.8125-1.28125 1.015625 0 .265625.15625.4375.25.515625.171875.140625.296875.171875.78125.25.15625.03125.59375.109375.59375.453125 0 .125-.078125.390625-.359375.5625-.28125.15625-.625.15625-.703125.15625-.28125 0-.671875-.0625-.84375-.296875.234375-.03125.390625-.203125.390625-.390625 0-.171875-.125-.265625-.265625-.265625-.203125 0-.40625.171875-.40625.46875 0 .421875.4375.671875 1.109375.671875 1.296875 0 1.53125-.875 1.53125-1.140625 0-.640625-.703125-.765625-.96875-.8125-.0625-.015625-.234375-.046875-.28125-.0625-.25-.046875-.375-.1875-.375-.34375s.125-.34375.28125-.453125c.1875-.109375.421875-.125.546875-.125.140625 0 .5.015625.65625.25zm0 0"/></symbol><symbol id="D" overflow="visible"><path d="m3.703125-1.859375c0-.765625-.578125-1.21875-1.265625-1.21875-1.03125 0-2 .96875-2 1.921875 0 .703125.5 1.21875 1.265625 1.21875 1 0 2-.90625 2-1.921875zm-2 1.734375c-.34375 0-.6875-.21875-.6875-.78125 0-.28125.125-.96875.40625-1.359375.296875-.4375.703125-.609375 1.015625-.609375.375 0 .6875.25.6875.765625 0 .171875-.078125.859375-.390625 1.34375-.265625.421875-.671875.640625-1.03125.640625zm0 0"/></symbol><symbol id="E" overflow="visible"><path d="m1.96875-4.625c0-.015625.03125-.109375.03125-.109375 0-.046875-.03125-.109375-.125-.109375-.140625 0-.71875.0625-.890625.078125-.046875 0-.140625.015625-.140625.15625 0 .09375.09375.09375.171875.09375.34375 0 .34375.0625.34375.109375s-.015625.09375-.03125.15625l-.875 3.4375c-.015625.078125-.015625.15625-.015625.21875 0 .453125.390625.65625.71875.65625.171875 0 .390625-.046875.5625-.359375.15625-.265625.25-.671875.25-.703125 0-.09375-.09375-.09375-.109375-.09375-.109375 0-.125.046875-.140625.171875-.09375.34375-.234375.796875-.53125.796875-.1875 0-.234375-.171875-.234375-.34375 0-.078125.015625-.203125.046875-.28125zm0 0"/></symbol><symbol id="F" overflow="visible"><path d="m3.984375-4.625c0-.015625.015625-.109375.015625-.109375 0-.046875-.015625-.109375-.109375-.109375-.140625 0-.71875.0625-.890625.078125-.046875 0-.15625.015625-.15625.15625 0 .09375.109375.09375.1875.09375.328125 0 .328125.0625.328125.109375s0 .09375-.015625.15625l-.40625 1.59375c-.140625-.234375-.375-.421875-.71875-.421875-.890625 0-1.796875.984375-1.796875 1.984375 0 .6875.453125 1.15625 1.0625 1.15625.375 0 .703125-.203125.984375-.484375.125.421875.53125.484375.71875.484375.25 0 .421875-.140625.546875-.359375.15625-.28125.25-.671875.25-.703125 0-.09375-.09375-.09375-.109375-.09375-.109375 0-.109375.03125-.15625.21875-.09375.34375-.21875.75-.515625.75-.171875 0-.234375-.15625-.234375-.34375 0-.125.015625-.1875.046875-.28125zm-1.484375 3.75c-.046875.203125-.203125.34375-.359375.46875-.0625.0625-.34375.28125-.640625.28125-.265625 0-.515625-.1875-.515625-.671875 0-.375.203125-1.140625.375-1.421875.3125-.5625.671875-.65625.859375-.65625.484375 0 .625.53125.625.609375 0 .015625-.015625.078125-.015625.09375zm0 0"/></symbol><symbol id="G" overflow="visible"><path d="m6.84375-3.265625c.15625 0 .34375 0 .34375-.1875 0-.203125-.1875-.203125-.328125-.203125h-5.96875c-.140625 0-.328125 0-.328125.203125 0 .1875.1875.1875.328125.1875zm.015625 1.9375c.140625 0 .328125 0 .328125-.203125 0-.1875-.1875-.1875-.34375-.1875h-5.953125c-.140625 0-.328125 0-.328125.1875 0 .203125.1875.203125.328125.203125zm0 0"/></symbol><symbol id="H" overflow="visible"><path d="m3.296875 2.390625c0-.03125 0-.046875-.171875-.21875-1.234375-1.25-1.5625-3.140625-1.5625-4.671875 0-1.734375.375-3.46875 1.609375-4.703125.125-.125.125-.140625.125-.171875 0-.078125-.03125-.109375-.09375-.109375-.109375 0-1 .6875-1.59375 1.953125-.5 1.09375-.625 2.203125-.625 3.03125 0 .78125.109375 1.984375.65625 3.125.609375 1.21875 1.453125 1.875 1.5625 1.875.0625 0 .09375-.03125.09375-.109375zm0 0"/></symbol><symbol id="I" overflow="visible"><path d="m2.9375-6.375c0-.25 0-.265625-.234375-.265625-.625.640625-1.5.640625-1.8125.640625v.3125c.203125 0 .78125 0 1.296875-.265625v5.171875c0 .359375-.03125.46875-.921875.46875h-.3125v.3125c.34375-.03125 1.203125-.03125 1.609375-.03125.390625 0 1.265625 0 1.609375.03125v-.3125h-.3125c-.90625 0-.921875-.109375-.921875-.46875zm0 0"/></symbol><symbol id="J" overflow="visible"><path d="m2.875-2.5c0-.765625-.109375-1.96875-.65625-3.109375-.59375-1.21875-1.453125-1.875-1.546875-1.875-.0625 0-.109375.046875-.109375.109375 0 .03125 0 .046875.1875.234375.984375.984375 1.546875 2.5625 1.546875 4.640625 0 1.71875-.359375 3.46875-1.59375 4.71875-.140625.125-.140625.140625-.140625.171875 0 .0625.046875.109375.109375.109375.09375 0 1-.6875 1.578125-1.953125.515625-1.09375.625-2.203125.625-3.046875zm0 0"/></symbol><symbol id="K" overflow="visible"><path d="m6.5625-2.296875c.171875 0 .359375 0 .359375-.203125 0-.1875-.1875-.1875-.359375-.1875h-5.390625c-.171875 0-.34375 0-.34375.1875 0 .203125.171875.203125.34375.203125zm0 0"/></symbol><symbol id="L" overflow="visible"><path d="m1.90625-2.5c0-.28125-.234375-.515625-.515625-.515625-.296875 0-.53125.234375-.53125.515625 0 .296875.234375.53125.53125.53125.28125 0 .515625-.234375.515625-.53125zm0 0"/></symbol><symbol id="M" overflow="visible"><path d="m1.90625-2.328125c.546875 0 .9375.375.9375 1.125 0 .859375-.515625 1.125-.90625 1.125-.28125 0-.90625-.078125-1.1875-.5.328125 0 .40625-.234375.40625-.390625 0-.21875-.171875-.375-.390625-.375-.1875 0-.390625.125-.390625.40625 0 .65625.71875 1.078125 1.5625 1.078125.96875 0 1.640625-.65625 1.640625-1.34375 0-.546875-.4375-1.09375-1.203125-1.25.71875-.265625.984375-.78125.984375-1.21875 0-.546875-.625-.953125-1.40625-.953125-.765625 0-1.359375.375-1.359375.9375 0 .234375.15625.359375.359375.359375.21875 0 .359375-.15625.359375-.34375 0-.203125-.140625-.359375-.359375-.375.25-.296875.71875-.375.984375-.375.3125 0 .75.15625.75.75 0 .296875-.09375.625-.28125.828125-.21875.265625-.421875.28125-.765625.3125-.171875.015625-.1875.015625-.21875.015625-.015625 0-.078125.015625-.078125.09375 0 .09375.0625.09375.1875.09375zm0 0"/></symbol><symbol id="N" overflow="visible"><path d="m2.90625-2.078125c0 1.734375-.84375 2-1.265625 2-.15625 0-.53125-.015625-.71875-.234375.296875-.03125.3125-.265625.3125-.328125 0-.171875-.125-.328125-.328125-.328125s-.328125.140625-.328125.34375c0 .46875.390625.765625 1.0625.765625 1 0 1.9375-.9375 1.9375-2.4375 0-1.71875-.765625-2.328125-1.578125-2.328125-.234375 0-.703125.03125-1.109375.421875-.234375.234375-.515625.5-.515625 1.125 0 .890625.703125 1.546875 1.515625 1.546875.5625 0 .859375-.375 1.015625-.6875zm-.96875.34375c-.28125 0-.53125-.078125-.734375-.40625-.15625-.25-.15625-.546875-.15625-.9375 0-.40625 0-.671875.203125-.953125.171875-.25.390625-.390625.75-.390625s.578125.21875.6875.40625c.1875.28125.203125.78125.203125 1.015625 0 .90625-.515625 1.265625-.953125 1.265625zm0 0"/></symbol><symbol id="O" overflow="visible"><path d="m3.734375-4.203125c.0625-.09375.0625-.109375.0625-.28125h-1.828125c-.28125 0-.359375-.015625-.609375-.03125-.359375-.03125-.375-.078125-.390625-.1875h-.234375l-.25 1.484375h.234375c.015625-.109375.09375-.5625.203125-.640625.046875-.03125.625-.03125.71875-.03125h1.515625c-.21875.28125-.578125.71875-.71875.921875-.90625 1.1875-1 2.296875-1 2.703125 0 .078125 0 .40625.328125.40625.34375 0 .34375-.3125.34375-.40625v-.28125c0-1.34375.28125-1.96875.578125-2.34375zm0 0"/></symbol><symbol id="P" overflow="visible"><path d="m3.515625-1.265625h-.234375c-.015625.15625-.09375.5625-.1875.625-.046875.046875-.578125.046875-.6875.046875h-1.28125c.734375-.640625.984375-.84375 1.390625-1.171875.515625-.40625 1-.84375 1-1.5 0-.84375-.734375-1.359375-1.625-1.359375-.859375 0-1.453125.609375-1.453125 1.25 0 .34375.296875.390625.375.390625.15625 0 .359375-.125.359375-.375 0-.125-.046875-.375-.40625-.375.21875-.484375.6875-.640625 1.015625-.640625.703125 0 1.0625.546875 1.0625 1.109375 0 .609375-.4375 1.078125-.65625 1.328125l-1.671875 1.671875c-.078125.0625-.078125.078125-.078125.265625h2.875zm0 0"/></symbol><symbol id="Q" overflow="visible"><path d="m4.625 16.046875-2.140625-7.46875-1.390625 1.625.15625.140625.6875-.796875 2.296875 8c.328125 0 .328125 0 .40625-.234375l5.484375-17.3125c.046875-.15625.046875-.1875.046875-.203125 0-.109375-.078125-.203125-.203125-.203125-.15625 0-.1875.140625-.234375.265625zm0 0"/></symbol><use x="9.681" xlink:href="#b" y="27.197"/><use x="17.198778" xlink:href="#c" y="27.197"/><g><use x="21.859282" xlink:href="#d" y="27.197"/><use x="26.171096" xlink:href="#e" y="27.197"/><use x="30.999968" xlink:href="#f" y="27.197"/></g><use x="35.774046" xlink:href="#g" y="27.197"/><g><use x="40.415" xlink:href="#y" y="28.691"/><use x="43.424892" xlink:href="#z" y="28.691"/><use x="48.08897" xlink:href="#A" y="28.691"/></g><g><use x="52.004061" xlink:href="#B" y="28.691"/><use x="55.78386" xlink:href="#C" y="28.691"/><use x="59.544133" xlink:href="#z" y="28.691"/><use x="64.208211" xlink:href="#D" y="28.691"/><use x="68.140737" xlink:href="#E" y="28.691"/></g><use x="70.702213" xlink:href="#F" y="28.691"/><use x="78.112" xlink:href="#G" y="27.197"/><use x="89.823" xlink:href="#h" y="19.876"/><g><use x="98.913872" xlink:href="#i" y="19.876"/><use x="104.617461" xlink:href="#j" y="19.876"/><use x="113.364624" xlink:href="#k" y="19.876"/><use x="117.640572" xlink:href="#g" y="19.876"/><use x="122.279158" xlink:href="#f" y="19.876"/></g><use x="130.370782" xlink:href="#l" y="19.876"/><g><use x="138.015085" xlink:href="#e" y="19.876"/><use x="142.843957" xlink:href="#m" y="19.876"/><use x="146.441452" xlink:href="#n" y="19.876"/><use x="151.707682" xlink:href="#j" y="19.876"/><use x="160.454845" xlink:href="#g" y="19.876"/><use x="165.093432" xlink:href="#f" y="19.876"/></g><g><use x="169.86751" xlink:href="#o" y="19.876"/><use x="173.299625" xlink:href="#d" y="19.876"/></g><g><use x="177.607" xlink:href="#y" y="21.37"/><use x="180.616892" xlink:href="#z" y="21.37"/><use x="185.28097" xlink:href="#A" y="21.37"/></g><g><use x="189.196061" xlink:href="#B" y="21.37"/><use x="192.97586" xlink:href="#C" y="21.37"/><use x="196.736133" xlink:href="#z" y="21.37"/><use x="201.400211" xlink:href="#D" y="21.37"/><use x="205.332737" xlink:href="#E" y="21.37"/></g><use x="207.894213" xlink:href="#F" y="21.37"/><use x="214.751" xlink:href="#K" y="19.876"/><g><use x="225.909" xlink:href="#M" y="15.953"/><use x="229.880579" xlink:href="#N" y="15.953"/></g><path d="m.00115625-.00171875h7.94140675" fill="none" stroke="#000" stroke-miterlimit="10" stroke-width=".398" transform="matrix(1 0 0 -1 225.909 17.385)"/><g><use x="225.909" xlink:href="#O" y="23.311"/><use x="229.880579" xlink:href="#P" y="23.311"/></g><use x="237.261" xlink:href="#L" y="19.876"/><use x="242.242" xlink:href="#p" y="19.876"/><g><use x="248.928897" xlink:href="#n" y="19.876"/><use x="254.195127" xlink:href="#j" y="19.876"/><use x="262.94229" xlink:href="#q" y="19.876"/><use x="267.954474" xlink:href="#r" y="19.876"/></g><use x="271.116604" xlink:href="#g" y="19.876"/><use x="279.082699" xlink:href="#p" y="19.876"/><g><use x="285.759633" xlink:href="#o" y="19.876"/><use x="289.191749" xlink:href="#s" y="19.876"/></g><use x="294.263708" xlink:href="#g" y="19.876"/><g><use x="298.905" xlink:href="#y" y="21.37"/><use x="301.914892" xlink:href="#z" y="21.37"/><use x="306.57897" xlink:href="#A" y="21.37"/></g><g><use x="310.494061" xlink:href="#B" y="21.37"/><use x="314.27386" xlink:href="#C" y="21.37"/><use x="318.034133" xlink:href="#z" y="21.37"/><use x="322.698211" xlink:href="#D" y="21.37"/><use x="326.630737" xlink:href="#E" y="21.37"/></g><use x="329.192213" xlink:href="#F" y="21.37"/><path d="m.00121875-.00103125h244.01171925" fill="none" stroke="#000" stroke-miterlimit="10" stroke-width=".398" transform="matrix(1 0 0 -1 89.823 24.706)"/><g clip-path="url(#a)"><use x="118.756" xlink:href="#Q" y="26.898"/></g><path d="m.00075-.00121875h176.183594" fill="none" stroke="#000" stroke-miterlimit="10" stroke-width=".398" transform="matrix(1 0 0 -1 128.718 26.698)"/><g><use x="129.914" xlink:href="#M" y="34.482"/><use x="133.885579" xlink:href="#N" y="34.482"/></g><path d="m.0000625-.0000625h7.9414065" fill="none" stroke="#000" stroke-miterlimit="10" stroke-width=".398" transform="matrix(1 0 0 -1 129.914 35.914)"/><g><use x="129.914" xlink:href="#O" y="41.84"/><use x="133.885579" xlink:href="#P" y="41.84"/></g><use x="141.266" xlink:href="#L" y="38.404"/><g><use x="146.247" xlink:href="#H" y="38.404"/><use x="150.121455" xlink:href="#I" y="38.404"/></g><use x="157.317" xlink:href="#K" y="38.404"/><g><use x="168.475" xlink:href="#M" y="34.482"/><use x="172.446579" xlink:href="#N" y="34.482"/></g><path d="m.0015625-.0000625h7.9414065" fill="none" stroke="#000" stroke-miterlimit="10" stroke-width=".398" transform="matrix(1 0 0 -1 168.475 35.914)"/><g><use x="168.475" xlink:href="#O" y="41.84"/><use x="172.446579" xlink:href="#P" y="41.84"/></g><use x="177.613" xlink:href="#J" y="38.404"/><use x="183.701" xlink:href="#L" y="38.404"/><use x="188.682" xlink:href="#h" y="38.404"/><g><use x="197.772873" xlink:href="#i" y="38.404"/><use x="203.476461" xlink:href="#j" y="38.404"/><use x="212.223624" xlink:href="#k" y="38.404"/><use x="216.499572" xlink:href="#g" y="38.404"/><use x="221.138158" xlink:href="#f" y="38.404"/></g><g><use x="229.229782" xlink:href="#t" y="38.404"/><use x="236.701732" xlink:href="#k" y="38.404"/><use x="240.97768" xlink:href="#e" y="38.404"/><use x="245.806552" xlink:href="#u" y="38.404"/></g><use x="250.994078" xlink:href="#g" y="38.404"/><use x="258.95021" xlink:href="#v" y="38.404"/><g><use x="266.157155" xlink:href="#w" y="38.404"/><use x="271.897605" xlink:href="#f" y="38.404"/></g><g><use x="276.671683" xlink:href="#g" y="38.404"/><use x="281.31027" xlink:href="#c" y="38.404"/><use x="285.980737" xlink:href="#w" y="38.404"/><use x="291.721187" xlink:href="#e" y="38.404"/><use x="296.550059" xlink:href="#r" y="38.404"/></g><use x="299.722151" xlink:href="#x" y="38.404"/></svg>