<svg height="24.809pt" viewBox="0 0 344.711 24.809" width="344.711pt" xmlns="http://www.w3.org/2000/svg" xmlns:xlink="http://www.w3.org/1999/xlink"><clipPath id="a"><path d="m177 14h9v10.808594h-9zm0 0"/></clipPath><symbol id="b" overflow="visible"><path d="m7.0625-2.328125c.015625-.046875.046875-.109375.046875-.140625 0 0 0-.109375-.125-.109375-.09375 0-.109375.0625-.125.125-.65625 1.46875-1.015625 2.140625-2.71875 2.140625h-1.453125c-.140625 0-.171875 0-.21875 0-.109375-.015625-.140625-.03125-.140625-.109375 0-.03125 0-.046875.046875-.21875l.6875-2.734375h.984375c.84375 0 .84375.21875.84375.46875 0 .0625 0 .1875-.0625.484375-.015625.046875-.03125.078125-.03125.109375 0 .046875.03125.109375.125.109375.078125 0 .109375-.046875.15625-.203125l.5625-2.328125c0-.0625-.046875-.109375-.125-.109375s-.109375.0625-.125.171875c-.21875.765625-.390625 1-1.3125 1h-.9375l.59375-2.40625c.09375-.359375.109375-.390625.546875-.390625h1.40625c1.203125 0 1.515625.28125 1.515625 1.109375 0 .234375 0 .25-.046875.53125 0 .046875-.015625.125-.015625.171875s.03125.125.125.125c.109375 0 .125-.0625.140625-.25l.203125-1.734375c.03125-.265625-.015625-.265625-.265625-.265625h-5.046875c-.1875 0-.296875 0-.296875.203125 0 .109375.09375.109375.28125.109375.375 0 .65625 0 .65625.171875 0 .046875 0 .0625-.0625.25l-1.3125 5.265625c-.09375.390625-.109375.46875-.90625.46875-.171875 0-.28125 0-.28125.1875 0 .125.09375.125.28125.125h5.171875c.234375 0 .25-.015625.3125-.171875zm0 0"/></symbol><symbol id="c" overflow="visible"><path d="m9.234375-6.046875c.09375-.359375.109375-.453125.859375-.453125.21875 0 .3125 0 .3125-.203125 0-.109375-.09375-.109375-.265625-.109375h-1.3125c-.265625 0-.28125 0-.390625.1875l-3.640625 5.6875-.78125-5.640625c-.03125-.234375-.046875-.234375-.3125-.234375h-1.359375c-.1875 0-.296875 0-.296875.1875 0 .125.09375.125.28125.125.140625 0 .3125.015625.4375.015625.15625.03125.21875.046875.21875.171875 0 .03125-.015625.0625-.046875.1875l-1.265625 5.0625c-.09375.40625-.265625.71875-1.078125.75-.046875 0-.171875.015625-.171875.1875 0 .09375.0625.125.140625.125.3125 0 .65625-.03125 1-.03125.328125 0 .6875.03125 1.015625.03125.046875 0 .1875 0 .1875-.203125 0-.109375-.109375-.109375-.1875-.109375-.5625 0-.671875-.203125-.671875-.4375 0-.0625 0-.125.03125-.234375l1.359375-5.421875h.015625l.859375 6.171875c.015625.125.03125.234375.140625.234375s.171875-.109375.21875-.171875l4.03125-6.3125h.015625l-1.4375 5.703125c-.09375.390625-.109375.46875-.90625.46875-.15625 0-.265625 0-.265625.1875 0 .125.109375.125.140625.125.28125 0 .953125-.03125 1.234375-.03125.40625 0 .84375.03125 1.25.03125.0625 0 .1875 0 .1875-.203125 0-.109375-.09375-.109375-.28125-.109375-.359375 0-.640625 0-.640625-.171875 0-.046875 0-.0625.046875-.25zm0 0"/></symbol><symbol id="d" overflow="visible"><path d="m3.734375-6.125c.0625-.234375.09375-.328125.28125-.359375.09375-.015625.40625-.015625.609375-.015625.703125 0 1.8125 0 1.8125.984375 0 .34375-.15625 1.03125-.546875 1.421875-.265625.25-.78125.578125-1.6875.578125h-1.109375zm1.4375 2.734375c1.015625-.21875 2.1875-.921875 2.1875-1.921875 0-.859375-.890625-1.5-2.203125-1.5h-2.828125c-.203125 0-.296875 0-.296875.203125 0 .109375.09375.109375.28125.109375.015625 0 .203125 0 .375.015625.1875.03125.265625.03125.265625.171875 0 .03125 0 .0625-.03125.1875l-1.34375 5.34375c-.09375.390625-.109375.46875-.90625.46875-.171875 0-.265625 0-.265625.203125 0 .109375.125.109375.140625.109375.28125 0 .984375-.03125 1.25-.03125.28125 0 1 .03125 1.28125.03125.078125 0 .1875 0 .1875-.203125 0-.109375-.078125-.109375-.28125-.109375-.359375 0-.640625 0-.640625-.171875 0-.0625.015625-.109375.03125-.171875l.65625-2.640625h1.1875c.90625 0 1.078125.5625 1.078125.90625 0 .140625-.078125.453125-.140625.6875-.0625.28125-.15625.640625-.15625.84375 0 1.078125 1.203125 1.078125 1.328125 1.078125.84375 0 1.203125-1 1.203125-1.140625 0-.125-.109375-.125-.125-.125-.09375 0-.109375.0625-.125.140625-.25.734375-.6875.90625-.90625.90625-.328125 0-.40625-.21875-.40625-.609375 0-.3125.0625-.8125.109375-1.140625.015625-.140625.03125-.328125.03125-.46875 0-.765625-.671875-1.078125-.9375-1.171875zm0 0"/></symbol><symbol id="e" overflow="visible"><path d="m2.828125-6.234375c0-.203125-.140625-.359375-.359375-.359375-.28125 0-.546875.265625-.546875.53125 0 .1875.140625.359375.375.359375s.53125-.234375.53125-.53125zm-.75 3.75c.109375-.28125.109375-.3125.21875-.578125.078125-.203125.125-.34375.125-.53125 0-.4375-.3125-.8125-.8125-.8125-.9375 0-1.3125 1.453125-1.3125 1.53125 0 .109375.09375.109375.109375.109375.109375 0 .109375-.03125.15625-.1875.28125-.9375.671875-1.234375 1.015625-1.234375.078125 0 .25 0 .25.3125 0 .21875-.078125.421875-.109375.53125-.078125.25-.53125 1.40625-.6875 1.84375-.109375.25-.234375.578125-.234375.796875 0 .46875.34375.8125.8125.8125.9375 0 1.3125-1.4375 1.3125-1.53125 0-.109375-.09375-.109375-.125-.109375-.09375 0-.09375.03125-.140625.1875-.1875.625-.515625 1.234375-1.015625 1.234375-.171875 0-.25-.09375-.25-.328125 0-.25.0625-.390625.296875-1zm0 0"/></symbol><symbol id="f" overflow="visible"><path d="m.875-.59375c-.03125.15625-.09375.390625-.09375.4375 0 .171875.140625.265625.296875.265625.125 0 .296875-.078125.375-.28125 0-.015625.125-.484375.1875-.734375l.21875-.890625c.046875-.234375.109375-.453125.171875-.671875.03125-.171875.109375-.46875.125-.5.140625-.3125.671875-1.21875 1.625-1.21875.453125 0 .53125.375.53125.703125 0 .609375-.484375 1.890625-.640625 2.3125-.09375.234375-.109375.359375-.109375.46875 0 .46875.359375.8125.828125.8125.9375 0 1.296875-1.453125 1.296875-1.53125 0-.109375-.078125-.109375-.109375-.109375-.109375 0-.109375.03125-.15625.1875-.203125.671875-.53125 1.234375-1.015625 1.234375-.171875 0-.234375-.09375-.234375-.328125 0-.25.078125-.484375.171875-.703125.1875-.53125.609375-1.625.609375-2.203125 0-.65625-.421875-1.0625-1.140625-1.0625-.90625 0-1.390625.640625-1.5625.875-.046875-.5625-.453125-.875-.921875-.875-.453125 0-.640625.390625-.734375.5625-.171875.34375-.296875.9375-.296875.96875 0 .109375.09375.109375.109375.109375.109375 0 .109375-.015625.171875-.234375.171875-.703125.375-1.1875.734375-1.1875.1875 0 .296875.125.296875.453125 0 .21875-.03125.328125-.15625.84375zm0 0"/></symbol><symbol id="g" overflow="visible"><path d="m4.6875-3.765625c.015625-.046875.03125-.109375.03125-.171875 0-.171875-.109375-.265625-.28125-.265625-.09375 0-.375.0625-.40625.421875-.1875-.359375-.53125-.625-.9375-.625-1.125 0-2.359375 1.390625-2.359375 2.828125 0 .984375.59375 1.578125 1.3125 1.578125.59375 0 1.0625-.46875 1.15625-.578125l.015625.015625c-.203125.875-.328125 1.296875-.328125 1.3125-.046875.09375-.375 1.078125-1.4375 1.078125-.1875 0-.515625-.015625-.796875-.109375.296875-.078125.40625-.34375.40625-.515625 0-.15625-.109375-.34375-.375-.34375-.21875 0-.53125.171875-.53125.578125s.359375.609375 1.3125.609375c1.25 0 1.96875-.78125 2.125-1.375zm-1.28125 2.484375c-.0625.265625-.296875.515625-.515625.703125-.203125.171875-.515625.359375-.8125.359375-.5 0-.640625-.515625-.640625-.921875 0-.46875.28125-1.65625.5625-2.15625.265625-.484375.6875-.890625 1.109375-.890625.65625 0 .796875.8125.796875.859375s-.015625.109375-.03125.140625zm0 0"/></symbol><symbol id="h" overflow="visible"><path d="m1.859375-2.296875c.296875 0 1.03125-.03125 1.53125-.234375.703125-.296875.75-.890625.75-1.03125 0-.4375-.375-.84375-1.0625-.84375-1.109375 0-2.625.96875-2.625 2.71875 0 1.015625.59375 1.796875 1.578125 1.796875 1.421875 0 2.25-1.0625 2.25-1.171875 0-.0625-.046875-.140625-.109375-.140625s-.078125.03125-.140625.109375c-.78125.984375-1.875.984375-1.984375.984375-.78125 0-.875-.84375-.875-1.15625 0-.125.015625-.421875.15625-1.03125zm-.46875-.21875c.390625-1.515625 1.421875-1.671875 1.6875-1.671875.453125 0 .734375.296875.734375.625 0 1.046875-1.59375 1.046875-2.015625 1.046875zm0 0"/></symbol><symbol id="i" overflow="visible"><path d="m.875-.59375c-.03125.15625-.09375.390625-.09375.4375 0 .171875.140625.265625.296875.265625.125 0 .296875-.078125.375-.28125.015625-.03125.34375-1.390625.390625-1.578125.078125-.328125.265625-1.015625.3125-1.296875.046875-.125.328125-.59375.5625-.8125.078125-.0625.375-.328125.796875-.328125.265625 0 .40625.125.421875.125-.296875.046875-.515625.28125-.515625.546875 0 .15625.109375.34375.375.34375s.546875-.234375.546875-.59375c0-.34375-.3125-.640625-.828125-.640625-.640625 0-1.078125.484375-1.265625.765625-.09375-.453125-.453125-.765625-.921875-.765625-.453125 0-.640625.390625-.734375.5625-.171875.34375-.296875.9375-.296875.96875 0 .109375.09375.109375.109375.109375.109375 0 .109375-.015625.171875-.234375.171875-.703125.375-1.1875.734375-1.1875.15625 0 .296875.078125.296875.453125 0 .21875-.03125.328125-.15625.84375zm0 0"/></symbol><symbol id="j" overflow="visible"><path d="m6.4375-6.921875c0-.03125-.03125-.109375-.125-.109375-.046875 0-.046875.015625-.171875.15625l-.484375.5625c-.25-.46875-.765625-.71875-1.421875-.71875-1.265625 0-2.453125 1.15625-2.453125 2.359375 0 .796875.515625 1.265625 1.03125 1.40625l1.0625.28125c.375.09375.921875.25.921875 1.0625 0 .890625-.8125 1.828125-1.796875 1.828125-.640625 0-1.75-.21875-1.75-1.453125 0-.234375.0625-.484375.0625-.53125.015625-.046875.015625-.0625.015625-.078125 0-.09375-.0625-.109375-.109375-.109375s-.078125.015625-.109375.046875-.59375 2.3125-.59375 2.34375c0 .046875.046875.09375.109375.09375.046875 0 .0625-.015625.1875-.15625l.484375-.5625c.421875.578125 1.109375.71875 1.6875.71875 1.359375 0 2.53125-1.328125 2.53125-2.5625 0-.6875-.34375-1.03125-.484375-1.171875-.234375-.21875-.390625-.265625-1.265625-.484375-.234375-.0625-.578125-.171875-.671875-.1875-.265625-.09375-.609375-.375-.609375-.90625 0-.8125.796875-1.65625 1.75-1.65625.8125 0 1.421875.4375 1.421875 1.546875 0 .3125-.03125.5-.03125.5625 0 0 0 .09375.109375.09375s.125-.03125.15625-.203125zm0 0"/></symbol><symbol id="k" overflow="visible"><path d="m3.953125-3.78125c-.171875 0-.296875 0-.4375.125-.171875.15625-.1875.328125-.1875.390625 0 .25.1875.359375.375.359375.28125 0 .546875-.25.546875-.640625 0-.484375-.46875-.859375-1.171875-.859375-1.34375 0-2.671875 1.421875-2.671875 2.828125 0 .90625.578125 1.6875 1.625 1.6875 1.421875 0 2.25-1.0625 2.25-1.171875 0-.0625-.046875-.140625-.109375-.140625s-.078125.03125-.140625.109375c-.78125.984375-1.875.984375-1.984375.984375-.625 0-.90625-.484375-.90625-1.09375 0-.40625.203125-1.375.546875-1.984375.3125-.578125.859375-1 1.40625-1 .328125 0 .71875.125.859375.40625zm0 0"/></symbol><symbol id="l" overflow="visible"><path d="m4.671875-2.71875c0-1.046875-.6875-1.6875-1.59375-1.6875-1.328125 0-2.671875 1.421875-2.671875 2.828125 0 .984375.671875 1.6875 1.59375 1.6875 1.328125 0 2.671875-1.375 2.671875-2.828125zm-2.65625 2.609375c-.4375 0-.875-.3125-.875-1.09375 0-.484375.265625-1.5625.578125-2.0625.5-.765625 1.078125-.921875 1.359375-.921875.578125 0 .875.484375.875 1.078125 0 .390625-.203125 1.4375-.578125 2.078125-.359375.578125-.90625.921875-1.359375.921875zm0 0"/></symbol><symbol id="m" overflow="visible"><path d="m7.171875-6.5625c.015625-.046875.03125-.09375.03125-.15625 0-.09375-.046875-.09375-.25-.09375h-4.203125c-.234375 0-.25.015625-.3125.203125l-.546875 1.796875c-.015625.046875-.03125.125-.03125.140625 0 0 0 .109375.125.109375.09375 0 .109375-.078125.125-.109375.390625-1.171875.90625-1.828125 2.453125-1.828125h1.625l-5.5625 6.234375s-.046875.140625-.046875.171875c0 .09375.0625.09375.25.09375h4.328125c.25 0 .25-.015625.3125-.203125l.71875-2.203125c0-.03125.03125-.109375.03125-.140625 0-.0625-.03125-.109375-.125-.109375s-.109375.03125-.171875.25c-.4375 1.34375-.921875 2.0625-2.609375 2.0625h-1.703125zm0 0"/></symbol><symbol id="n" overflow="visible"><path d="m3.890625-3.734375c-.265625.015625-.46875.234375-.46875.453125 0 .140625.09375.296875.3125.296875s.453125-.171875.453125-.5625c0-.453125-.421875-.859375-1.1875-.859375-1.3125 0-1.6875 1.015625-1.6875 1.453125 0 .78125.734375.921875 1.03125.984375.515625.109375 1.03125.21875 1.03125.765625 0 .25-.21875 1.09375-1.421875 1.09375-.140625 0-.90625 0-1.140625-.53125.390625.046875.640625-.25.640625-.53125 0-.21875-.171875-.34375-.375-.34375-.265625 0-.5625.203125-.5625.65625 0 .5625.578125.96875 1.421875.96875 1.625 0 2.015625-1.203125 2.015625-1.65625 0-.359375-.1875-.609375-.3125-.71875-.265625-.28125-.5625-.34375-1-.421875-.359375-.078125-.75-.15625-.75-.609375 0-.28125.234375-.890625 1.109375-.890625.25 0 .75.078125.890625.453125zm0 0"/></symbol><symbol id="o" overflow="visible"><path d="m4.25-6.046875c.078125-.28125.109375-.34375.234375-.375.09375-.015625.421875-.015625.625-.015625 1.015625 0 1.453125.03125 1.453125.8125 0 .15625-.03125.546875-.078125.796875 0 .046875-.03125.15625-.03125.1875 0 .0625.03125.140625.125.140625.109375 0 .125-.078125.15625-.234375l.265625-1.734375c.015625-.046875.015625-.140625.015625-.171875 0-.109375-.09375-.109375-.265625-.109375h-5.53125c-.234375 0-.25.015625-.328125.203125l-.59375 1.75c0 .015625-.0625.15625-.0625.1875 0 .046875.0625.109375.125.109375.09375 0 .109375-.0625.171875-.21875.53125-1.546875.796875-1.71875 2.265625-1.71875h.390625c.28125 0 .28125.03125.28125.125 0 .046875-.03125.171875-.046875.203125l-1.328125 5.328125c-.09375.359375-.125.46875-1.1875.46875-.359375 0-.421875 0-.421875.1875 0 .125.109375.125.171875.125.265625 0 .546875-.015625.8125-.015625.28125 0 .578125-.015625.859375-.015625s.546875.015625.828125.015625.578125.015625.859375.015625c.09375 0 .21875 0 .21875-.203125 0-.109375-.078125-.109375-.34375-.109375-.234375 0-.375 0-.625-.015625-.296875-.03125-.375-.0625-.375-.21875 0-.015625 0-.0625.046875-.203125zm0 0"/></symbol><symbol id="p" overflow="visible"><path d="m2.046875-3.984375h.9375c.203125 0 .3125 0 .3125-.203125 0-.109375-.109375-.109375-.28125-.109375h-.875c.359375-1.421875.40625-1.609375.40625-1.671875 0-.171875-.125-.265625-.296875-.265625-.03125 0-.3125 0-.390625.359375l-.390625 1.578125h-.9375c-.203125 0-.296875 0-.296875.1875 0 .125.078125.125.28125.125h.875c-.71875 2.828125-.765625 3-.765625 3.171875 0 .546875.375.921875.921875.921875 1.015625 0 1.578125-1.453125 1.578125-1.53125 0-.109375-.078125-.109375-.109375-.109375-.09375 0-.109375.03125-.15625.140625-.421875 1.046875-.953125 1.28125-1.296875 1.28125-.203125 0-.3125-.125-.3125-.453125 0-.25.03125-.3125.0625-.484375zm0 0"/></symbol><symbol id="q" overflow="visible"><path d="m3.71875-3.765625c-.1875-.375-.46875-.640625-.921875-.640625-1.15625 0-2.390625 1.46875-2.390625 2.921875 0 .9375.546875 1.59375 1.3125 1.59375.203125 0 .703125-.046875 1.296875-.75.078125.421875.4375.75.90625.75.359375 0 .578125-.234375.75-.546875.15625-.359375.296875-.96875.296875-.984375 0-.109375-.09375-.109375-.125-.109375-.09375 0-.109375.046875-.140625.1875-.171875.640625-.34375 1.234375-.75 1.234375-.28125 0-.296875-.265625-.296875-.453125 0-.21875.015625-.3125.125-.75.109375-.40625.125-.515625.21875-.890625l.359375-1.390625c.0625-.28125.0625-.296875.0625-.34375 0-.171875-.109375-.265625-.28125-.265625-.25 0-.390625.21875-.421875.4375zm-.640625 2.578125c-.0625.1875-.0625.203125-.203125.375-.4375.546875-.84375.703125-1.125.703125-.5 0-.640625-.546875-.640625-.9375 0-.5.3125-1.71875.546875-2.1875.3125-.578125.75-.953125 1.15625-.953125.640625 0 .78125.8125.78125.875s-.015625.125-.03125.171875zm0 0"/></symbol><symbol id="r" overflow="visible"><path d="m2.578125-6.8125s0-.109375-.140625-.109375c-.21875 0-.953125.078125-1.21875.109375-.078125 0-.1875.015625-.1875.203125 0 .109375.109375.109375.25.109375.484375 0 .5.09375.5.171875l-.03125.203125-1.265625 4.984375c-.03125.109375-.046875.171875-.046875.328125 0 .578125.4375.921875.90625.921875.328125 0 .578125-.203125.75-.5625.171875-.375.296875-.953125.296875-.96875 0-.109375-.09375-.109375-.125-.109375-.09375 0-.109375.046875-.125.1875-.171875.640625-.359375 1.234375-.765625 1.234375-.296875 0-.296875-.3125-.296875-.453125 0-.25.015625-.296875.0625-.484375zm0 0"/></symbol><symbol id="s" overflow="visible"><path d="m5.140625-6.8125s0-.109375-.125-.109375c-.15625 0-1.09375.09375-1.265625.109375-.078125.015625-.140625.0625-.140625.1875s.09375.125.234375.125c.484375 0 .5.0625.5.171875l-.03125.203125-.59375 2.359375c-.1875-.375-.46875-.640625-.921875-.640625-1.15625 0-2.390625 1.46875-2.390625 2.921875 0 .9375.546875 1.59375 1.3125 1.59375.203125 0 .703125-.046875 1.296875-.75.078125.421875.4375.75.90625.75.359375 0 .578125-.234375.75-.546875.15625-.359375.296875-.96875.296875-.984375 0-.109375-.09375-.109375-.125-.109375-.09375 0-.109375.046875-.140625.1875-.171875.640625-.34375 1.234375-.75 1.234375-.28125 0-.296875-.265625-.296875-.453125 0-.25.015625-.3125.046875-.484375zm-2.0625 5.625c-.0625.1875-.0625.203125-.203125.375-.4375.546875-.84375.703125-1.125.703125-.5 0-.640625-.546875-.640625-.9375 0-.5.3125-1.71875.546875-2.1875.3125-.578125.75-.953125 1.15625-.953125.640625 0 .78125.8125.78125.875s-.015625.125-.03125.171875zm0 0"/></symbol><symbol id="t" overflow="visible"><path d="m3.484375-.5625c.109375.40625.46875.671875.890625.671875.34375 0 .578125-.234375.734375-.546875.171875-.359375.296875-.96875.296875-.984375 0-.109375-.078125-.109375-.109375-.109375-.109375 0-.109375.046875-.140625.1875-.140625.5625-.328125 1.234375-.75 1.234375-.203125 0-.3125-.125-.3125-.453125 0-.21875.125-.6875.203125-1.046875l.28125-1.078125c.03125-.140625.125-.515625.171875-.671875.046875-.234375.140625-.609375.140625-.671875 0-.171875-.140625-.265625-.28125-.265625-.046875 0-.3125.015625-.390625.34375-.1875.734375-.625 2.484375-.75 3-.015625.046875-.40625.84375-1.140625.84375-.515625 0-.609375-.453125-.609375-.8125 0-.5625.28125-1.34375.53125-2.03125.125-.3125.171875-.453125.171875-.640625 0-.4375-.3125-.8125-.8125-.8125-.953125 0-1.3125 1.453125-1.3125 1.53125 0 .109375.09375.109375.109375.109375.109375 0 .109375-.03125.15625-.1875.25-.859375.640625-1.234375 1.015625-1.234375.09375 0 .25.015625.25.328125 0 .234375-.109375.53125-.171875.671875-.375 1-.578125 1.609375-.578125 2.09375 0 .953125.6875 1.203125 1.21875 1.203125.65625 0 1.015625-.453125 1.1875-.671875zm0 0"/></symbol><symbol id="u" overflow="visible"><path d="m1.71875-2.75h.703125c.140625 0 .21875 0 .21875-.15625 0-.09375-.078125-.09375-.203125-.09375h-.65625l.25-1.03125c.015625-.03125.03125-.078125.03125-.09375 0-.140625-.109375-.234375-.25-.234375-.171875 0-.265625.125-.328125.296875-.046875.1875.046875-.15625-.265625 1.0625h-.703125c-.125 0-.21875 0-.21875.15625 0 .09375.078125.09375.203125.09375h.65625l-.40625 1.640625c-.046875.171875-.109375.421875-.109375.515625 0 .40625.359375.65625.75.65625.78125 0 1.21875-.96875 1.21875-1.0625s-.09375-.09375-.109375-.09375c-.09375 0-.09375.015625-.15625.140625-.1875.4375-.546875.828125-.921875.828125-.15625 0-.25-.09375-.25-.34375 0-.0625.03125-.21875.046875-.28125zm0 0"/></symbol><symbol id="v" overflow="visible"><path d="m2.1875-4.625c0-.015625.015625-.109375.015625-.109375 0-.046875-.015625-.109375-.109375-.109375-.140625 0-.71875.0625-.890625.078125-.046875 0-.15625.015625-.15625.15625 0 .09375.109375.09375.1875.09375.328125 0 .328125.0625.328125.109375s-.015625.09375-.015625.15625l-.984375 3.9375c-.046875.125-.046875.140625-.046875.15625 0 .109375.09375.21875.25.21875.078125 0 .203125-.03125.28125-.171875.015625-.046875.078125-.296875.109375-.4375l.171875-.625c.015625-.109375.09375-.375.109375-.46875.0625-.265625.0625-.28125.203125-.5.234375-.34375.578125-.734375 1.125-.734375.390625 0 .40625.3125.40625.484375 0 .421875-.296875 1.1875-.40625 1.484375-.078125.203125-.109375.265625-.109375.375 0 .375.3125.59375.65625.59375.703125 0 1.015625-.953125 1.015625-1.0625 0-.09375-.09375-.09375-.125-.09375-.09375 0-.09375.046875-.125.125-.15625.5625-.46875.84375-.734375.84375-.15625 0-.1875-.09375-.1875-.25s.046875-.25.171875-.5625c.078125-.21875.359375-.953125.359375-1.34375 0-.109375 0-.40625-.25-.609375-.125-.078125-.328125-.1875-.65625-.1875-.5 0-.875.28125-1.125.578125zm0 0"/></symbol><symbol id="w" overflow="visible"><path d="m1.640625-1.40625c0-.046875.171875-.671875.171875-.703125.015625-.0625.21875-.40625.453125-.578125.0625-.046875.25-.1875.5625-.1875.0625 0 .234375 0 .375.09375-.21875.0625-.296875.265625-.296875.390625 0 .140625.109375.25.265625.25.171875 0 .390625-.125.390625-.421875 0-.359375-.375-.515625-.734375-.515625s-.671875.15625-.984375.5c-.125-.421875-.546875-.5-.71875-.5-.25 0-.421875.171875-.546875.359375-.15625.265625-.25.671875-.25.71875 0 .078125.09375.078125.125.078125.09375 0 .09375-.015625.140625-.203125.109375-.421875.25-.75.515625-.75.1875 0 .234375.15625.234375.34375 0 .125-.0625.390625-.125.578125-.046875.1875-.109375.46875-.140625.625l-.234375.890625c-.015625.09375-.0625.265625-.0625.28125 0 .15625.125.21875.234375.21875s.25-.0625.296875-.1875c.015625-.046875.09375-.359375.140625-.53125zm0 0"/></symbol><symbol id="x" overflow="visible"><path d="m1.5625-1.59375c.1875 0 .75-.015625 1.125-.140625.515625-.1875.609375-.515625.609375-.71875 0-.390625-.390625-.625-.859375-.625-.84375 0-1.96875.640625-1.96875 1.84375 0 .703125.4375 1.296875 1.25 1.296875 1.1875 0 1.734375-.6875 1.734375-.78125 0-.046875-.0625-.125-.125-.125-.03125 0-.046875.015625-.109375.078125-.546875.640625-1.359375.640625-1.484375.640625-.421875 0-.703125-.28125-.703125-.84375 0-.09375 0-.234375.09375-.625zm-.390625-.1875c.296875-1.015625 1.0625-1.09375 1.265625-1.09375.296875 0 .5625.15625.5625.421875 0 .671875-1.1875.671875-1.484375.671875zm0 0"/></symbol><symbol id="y" overflow="visible"><path d="m3-2.625c-.171875.046875-.296875.1875-.296875.328125 0 .171875.140625.234375.234375.234375.078125 0 .34375-.046875.34375-.40625 0-.453125-.5-.609375-.9375-.609375-1.078125 0-1.28125.8125-1.28125 1.015625 0 .265625.15625.4375.25.515625.171875.140625.296875.171875.78125.25.15625.03125.59375.109375.59375.453125 0 .125-.078125.390625-.359375.5625-.28125.15625-.625.15625-.703125.15625-.28125 0-.671875-.0625-.84375-.296875.234375-.03125.390625-.203125.390625-.390625 0-.171875-.125-.265625-.265625-.265625-.203125 0-.40625.171875-.40625.46875 0 .421875.4375.671875 1.109375.671875 1.296875 0 1.53125-.875 1.53125-1.140625 0-.640625-.703125-.765625-.96875-.8125-.0625-.015625-.234375-.046875-.28125-.0625-.25-.046875-.375-.1875-.375-.34375s.125-.34375.28125-.453125c.1875-.109375.421875-.125.546875-.125.140625 0 .5.015625.65625.25zm0 0"/></symbol><symbol id="z" overflow="visible"><path d="m3.703125-1.859375c0-.765625-.578125-1.21875-1.265625-1.21875-1.03125 0-2 .96875-2 1.921875 0 .703125.5 1.21875 1.265625 1.21875 1 0 2-.90625 2-1.921875zm-2 1.734375c-.34375 0-.6875-.21875-.6875-.78125 0-.28125.125-.96875.40625-1.359375.296875-.4375.703125-.609375 1.015625-.609375.375 0 .6875.25.6875.765625 0 .171875-.078125.859375-.390625 1.34375-.265625.421875-.671875.640625-1.03125.640625zm0 0"/></symbol><symbol id="A" overflow="visible"><path d="m1.96875-4.625c0-.015625.03125-.109375.03125-.109375 0-.046875-.03125-.109375-.125-.109375-.140625 0-.71875.0625-.890625.078125-.046875 0-.140625.015625-.140625.15625 0 .09375.09375.09375.171875.09375.34375 0 .34375.0625.34375.109375s-.015625.09375-.03125.15625l-.875 3.4375c-.015625.078125-.015625.15625-.015625.21875 0 .453125.390625.65625.71875.65625.171875 0 .390625-.046875.5625-.359375.15625-.265625.25-.671875.25-.703125 0-.09375-.09375-.09375-.109375-.09375-.109375 0-.125.046875-.140625.171875-.09375.34375-.234375.796875-.53125.796875-.1875 0-.234375-.171875-.234375-.34375 0-.078125.015625-.203125.046875-.28125zm0 0"/></symbol><symbol id="B" overflow="visible"><path d="m3.984375-4.625c0-.015625.015625-.109375.015625-.109375 0-.046875-.015625-.109375-.109375-.109375-.140625 0-.71875.0625-.890625.078125-.046875 0-.15625.015625-.15625.15625 0 .09375.109375.09375.1875.09375.328125 0 .328125.0625.328125.109375s0 .09375-.015625.15625l-.40625 1.59375c-.140625-.234375-.375-.421875-.71875-.421875-.890625 0-1.796875.984375-1.796875 1.984375 0 .6875.453125 1.15625 1.0625 1.15625.375 0 .703125-.203125.984375-.484375.125.421875.53125.484375.71875.484375.25 0 .421875-.140625.546875-.359375.15625-.28125.25-.671875.25-.703125 0-.09375-.09375-.09375-.109375-.09375-.109375 0-.109375.03125-.15625.21875-.09375.34375-.21875.75-.515625.75-.171875 0-.234375-.15625-.234375-.34375 0-.125.015625-.1875.046875-.28125zm-1.484375 3.75c-.046875.203125-.203125.34375-.359375.46875-.0625.0625-.34375.28125-.640625.28125-.265625 0-.515625-.1875-.515625-.671875 0-.375.203125-1.140625.375-1.421875.3125-.5625.671875-.65625.859375-.65625.484375 0 .625.53125.625.609375 0 .015625-.015625.078125-.015625.09375zm0 0"/></symbol><symbol id="C" overflow="visible"><path d="m6.84375-3.265625c.15625 0 .34375 0 .34375-.1875 0-.203125-.1875-.203125-.328125-.203125h-5.96875c-.140625 0-.328125 0-.328125.203125 0 .1875.1875.1875.328125.1875zm.015625 1.9375c.140625 0 .328125 0 .328125-.203125 0-.1875-.1875-.1875-.34375-.1875h-5.953125c-.140625 0-.328125 0-.328125.1875 0 .203125.1875.203125.328125.203125zm0 0"/></symbol><symbol id="D" overflow="visible"><path d="m2.9375-6.375c0-.25 0-.265625-.234375-.265625-.625.640625-1.5.640625-1.8125.640625v.3125c.203125 0 .78125 0 1.296875-.265625v5.171875c0 .359375-.03125.46875-.921875.46875h-.3125v.3125c.34375-.03125 1.203125-.03125 1.609375-.03125.390625 0 1.265625 0 1.609375.03125v-.3125h-.3125c-.90625 0-.921875-.109375-.921875-.46875zm0 0"/></symbol><symbol id="E" overflow="visible"><path d="m4.578125-3.1875c0-.796875-.046875-1.59375-.390625-2.328125-.453125-.96875-1.28125-1.125-1.6875-1.125-.609375 0-1.328125.265625-1.75 1.1875-.3125.6875-.359375 1.46875-.359375 2.265625 0 .75.03125 1.640625.453125 2.40625.421875.796875 1.15625 1 1.640625 1 .53125 0 1.296875-.203125 1.734375-1.15625.3125-.6875.359375-1.46875.359375-2.25zm-2.09375 3.1875c-.390625 0-.984375-.25-1.15625-1.203125-.109375-.59375-.109375-1.515625-.109375-2.109375 0-.640625 0-1.296875.078125-1.828125.1875-1.1875.9375-1.28125 1.1875-1.28125.328125 0 .984375.1875 1.171875 1.171875.109375.5625.109375 1.3125.109375 1.9375 0 .75 0 1.421875-.109375 2.0625-.15625.953125-.71875 1.25-1.171875 1.25zm0 0"/></symbol><symbol id="F" overflow="visible"><path d="m1.90625-2.5c0-.28125-.234375-.515625-.515625-.515625-.296875 0-.53125.234375-.53125.515625 0 .296875.234375.53125.53125.53125.28125 0 .515625-.234375.515625-.53125zm0 0"/></symbol><symbol id="G" overflow="visible"><path d="m3.875 8.515625-1.75-3.875c-.078125-.15625-.125-.15625-.15625-.15625 0 0-.0625 0-.171875.078125l-.9375.71875c-.125.109375-.125.125-.125.15625 0 .0625.015625.109375.09375.109375.0625 0 .234375-.140625.34375-.21875.046875-.046875.203125-.15625.3125-.234375l1.96875 4.3125c.0625.15625.109375.15625.203125.15625.15625 0 .1875-.046875.25-.1875l4.53125-9.375c.0625-.140625.0625-.171875.0625-.203125 0-.09375-.078125-.203125-.203125-.203125-.078125 0-.140625.0625-.21875.21875zm0 0"/></symbol><use x="48.831" xlink:href="#b" y="15.044"/><use x="56.763222" xlink:href="#c" y="15.044"/><use x="67.513864" xlink:href="#d" y="15.044"/><g><use x="75.148204" xlink:href="#e" y="15.044"/><use x="78.58032" xlink:href="#f" y="15.044"/></g><use x="84.569835" xlink:href="#g" y="15.044"/><g><use x="89.670686" xlink:href="#h" y="15.044"/><use x="94.309273" xlink:href="#i" y="15.044"/></g><use x="102.400896" xlink:href="#j" y="15.044"/><g><use x="109.087794" xlink:href="#k" y="15.044"/><use x="113.399607" xlink:href="#l" y="15.044"/><use x="118.228479" xlink:href="#i" y="15.044"/></g><use x="123.002557" xlink:href="#h" y="15.044"/><g><use x="127.64" xlink:href="#u" y="16.538"/><use x="130.649892" xlink:href="#v" y="16.538"/><use x="135.31397" xlink:href="#w" y="16.538"/></g><g><use x="139.229061" xlink:href="#x" y="16.538"/><use x="143.00886" xlink:href="#y" y="16.538"/><use x="146.769133" xlink:href="#v" y="16.538"/><use x="151.433211" xlink:href="#z" y="16.538"/><use x="155.365737" xlink:href="#A" y="16.538"/></g><use x="157.92024" xlink:href="#B" y="16.538"/><use x="165.336" xlink:href="#C" y="15.044"/><g><use x="194.455" xlink:href="#D" y="8.304"/><use x="199.4363" xlink:href="#E" y="8.304"/></g><use x="206.632" xlink:href="#F" y="8.304"/><use x="211.613" xlink:href="#m" y="8.304"/><g><use x="219.130778" xlink:href="#n" y="8.304"/><use x="223.801245" xlink:href="#k" y="8.304"/></g><use x="228.103096" xlink:href="#l" y="8.304"/><use x="232.94193" xlink:href="#i" y="8.304"/><use x="237.706046" xlink:href="#h" y="8.304"/><g><use x="242.347" xlink:href="#u" y="9.798"/><use x="245.356892" xlink:href="#v" y="9.798"/><use x="250.02097" xlink:href="#w" y="9.798"/></g><g><use x="253.936061" xlink:href="#x" y="9.798"/><use x="257.71586" xlink:href="#y" y="9.798"/><use x="261.476133" xlink:href="#v" y="9.798"/><use x="266.140211" xlink:href="#z" y="9.798"/><use x="270.072737" xlink:href="#A" y="9.798"/></g><use x="272.634213" xlink:href="#B" y="9.798"/><path d="m-.001125-.0016875h117.636719" fill="none" stroke="#000" stroke-miterlimit="10" stroke-width=".398" transform="matrix(1 0 0 -1 177.048 12.553)"/><g clip-path="url(#a)"><use x="177.048" xlink:href="#G" y="14.745"/></g><path d="m.0015625-.000875h109.3320315" fill="none" stroke="#000" stroke-miterlimit="10" stroke-width=".398" transform="matrix(1 0 0 -1 185.35 14.546)"/><use x="185.35" xlink:href="#o" y="23.235"/><g><use x="192.556945" xlink:href="#l" y="23.235"/><use x="197.385817" xlink:href="#p" y="23.235"/><use x="200.983312" xlink:href="#q" y="23.235"/><use x="206.249542" xlink:href="#r" y="23.235"/></g><use x="212.73918" xlink:href="#d" y="23.235"/><g><use x="220.383483" xlink:href="#h" y="23.235"/><use x="225.022069" xlink:href="#n" y="23.235"/><use x="229.692536" xlink:href="#e" y="23.235"/><use x="233.124652" xlink:href="#s" y="23.235"/><use x="238.310185" xlink:href="#t" y="23.235"/><use x="244.013774" xlink:href="#h" y="23.235"/><use x="248.65236" xlink:href="#n" y="23.235"/></g><use x="256.640373" xlink:href="#j" y="23.235"/><use x="263.32727" xlink:href="#k" y="23.235"/><g><use x="267.629121" xlink:href="#q" y="23.235"/><use x="272.895351" xlink:href="#f" y="23.235"/></g><g><use x="278.884866" xlink:href="#f" y="23.235"/><use x="284.864419" xlink:href="#h" y="23.235"/><use x="289.503005" xlink:href="#s" y="23.235"/></g></svg>