<?xml version="1.0" encoding="UTF-8" standalone="no"?>
<!-- Created with Inkscape (http://www.inkscape.org/) -->

<svg
   width="300mm"
   height="300mm"
   viewBox="0 0 300 300"
   version="1.1"
   id="svg1"
   xml:space="preserve"
   inkscape:version="1.3.2 (091e20e, 2023-11-25)"
   sodipodi:docname="forth_logo.svg"
   xmlns:inkscape="http://www.inkscape.org/namespaces/inkscape"
   xmlns:sodipodi="http://sodipodi.sourceforge.net/DTD/sodipodi-0.dtd"
   xmlns="http://www.w3.org/2000/svg"
   xmlns:svg="http://www.w3.org/2000/svg"><sodipodi:namedview
     id="namedview1"
     pagecolor="#ffffff"
     bordercolor="#000000"
     borderopacity="0.25"
     inkscape:showpageshadow="2"
     inkscape:pageopacity="0.0"
     inkscape:pagecheckerboard="0"
     inkscape:deskcolor="#d1d1d1"
     inkscape:document-units="mm"
     inkscape:zoom="0.49564941"
     inkscape:cx="460.00257"
     inkscape:cy="523.55555"
     inkscape:window-width="1512"
     inkscape:window-height="844"
     inkscape:window-x="0"
     inkscape:window-y="38"
     inkscape:window-maximized="1"
     inkscape:current-layer="layer1" /><defs
     id="defs1" /><g
     inkscape:label="Layer 1"
     inkscape:groupmode="layer"
     id="layer1"><path
       style="fill:#332576;fill-opacity:1;stroke-width:7.31891;stroke-dasharray:none"
       d="M 125.27062,295.33575 C 92.672507,290.53636 68.20837,276.96653 41.926554,249.10644 8.5902832,213.7683 -2.9277932,170.03069 7.7878495,119.47158 20.707939,58.511307 77.371718,8.0927117 137.01694,4.4854281 180.18666,1.8746195 222.29645,17.473389 251.844,47.020949 c 33.92901,33.929042 49.58905,79.783461 43.79044,128.223601 -6.994,58.42602 -55.94302,108.03734 -117.39822,118.98654 -22.71005,4.04619 -31.71147,4.23394 -52.9656,1.10466 z m 51.01373,-5.97495 c 0.46256,-0.46258 -0.47574,-6.53341 -2.08516,-13.49137 l -2.92567,-12.65087 -24.02909,-0.25676 c -21.67901,-0.23205 -24.1564,0.22987 -25.33122,4.72239 -0.97344,3.72225 -0.28012,4.58727 2.74607,3.42605 2.22656,-0.8544 6.19922,-0.8708 8.8281,-0.0364 4.45674,1.41454 4.50913,2.04058 0.7758,9.26003 -3.84578,7.43702 -9.80576,8.96131 -10.47877,2.68014 -0.17741,-1.65679 -0.48575,-4.46469 -0.68505,-6.23974 -0.51979,-4.63077 -5.35719,3.32037 -5.40759,8.88838 -0.0294,3.2494 2.7742,4.6626 10.9338,5.51125 10.89805,1.13349 46.04955,-0.2035 47.65878,-1.81277 z m -35.39444,-9.08325 c 0,-8.89697 6.53502,-12.52709 10.20537,-5.66903 1.90709,3.56351 1.38482,5.78664 -2.10037,8.94073 -6.5313,5.9107 -8.105,5.27544 -8.105,-3.2717 z m 16.66807,0.14857 c 0.31692,-4.02665 1.40494,-8.66262 2.41825,-10.30212 2.95442,-4.78037 8.02418,1.66952 8.02418,10.20859 0,5.84831 -1.1638,7.41472 -5.50917,7.41472 -4.46441,0 -5.39999,-1.3884 -4.93326,-7.32119 z m -39.87229,-5.72794 c 1.72176,-7.17708 2.70905,-13.42433 2.19401,-13.88277 -0.51503,-0.45817 -7.66822,-3.98986 -15.89592,-7.84753 -8.227681,-3.85771 -21.836838,-13.38126 -30.242509,-21.16341 l -15.28306,-14.14949 -11.867984,8.16538 -11.867969,8.16545 6.178701,8.16156 c 12.992353,17.16187 55.958376,44.7983 70.684391,45.46536 1.63344,0.0739 4.37862,-5.73752 6.10034,-12.91455 z m -17.07435,-6.31551 c 0,-6.56251 1.13117,-9.0369 4.13114,-9.0369 7.21566,0 10.2535,5.08409 7.13178,11.93556 -4.41114,9.68135 -11.26292,7.91792 -11.26292,-2.89866 z m -18.388288,0.97634 c -3.966583,-3.96658 -1.207156,-10.01324 4.569589,-10.01324 5.826668,0 8.148054,3.37074 6.063162,8.80387 -1.839585,4.79391 -6.516287,5.32584 -10.632751,1.20937 z m -19.652518,-9.15255 c -0.946725,-0.9467 -1.721318,-3.85145 -1.721318,-6.45492 0,-4.30229 2.87255,-5.96743 8.583272,-4.97534 1.170623,0.20349 1.537762,-0.58626 0.815869,-1.75399 -0.721867,-1.1681 -0.315897,-3.73637 0.902262,-5.70738 1.831663,-2.96364 2.918879,-2.99929 6.284543,-0.20568 5.346879,4.43754 5.165021,5.8313 -1.821881,13.96246 -5.882638,6.84605 -9.792512,8.38547 -13.042747,5.13521 z M 47.939429,238.69012 c 0,-1.42009 1.742823,-2.58197 3.872942,-2.58197 2.130127,0 3.872947,-1.6742 3.872947,-3.72049 0,-2.0463 1.161863,-4.43866 2.581949,-5.31636 1.506372,-0.93096 2.581949,1.69449 2.581949,6.30258 0,6.70345 -0.976411,7.89822 -6.454886,7.89822 -3.550199,0 -6.454901,-1.16188 -6.454901,-2.58198 z m 166.545631,38.48726 c 8.52564,-4.17243 18.98256,-10.39339 23.23764,-13.82413 8.72761,-7.03694 9.55032,-5.62879 -12.35364,-21.14346 l -9.76219,-6.91463 -7.0205,6.59701 c -7.73821,7.2715 -25.74454,17.4536 -30.86537,17.4536 -3.981,0 -4.12799,5.82769 -0.47868,18.97075 2.69848,9.71814 2.96452,9.89606 12.24992,8.19061 5.22036,-0.95885 16.46702,-5.15724 24.9927,-9.32975 z m -32.5188,3.83198 c -4.69408,-5.65608 3.33267,-13.6828 8.98875,-8.98867 4.26306,3.53804 3.07922,9.43264 -2.30978,11.50062 -1.91649,0.7354 -4.92198,-0.39525 -6.67897,-2.51195 z m 12.2841,-10.47508 c -2.4323,-2.43227 -2.14497,-11.18851 0.36739,-11.18851 4.50129,0 11.50948,7.12557 9.77241,9.93618 -2.02384,3.27455 -7.44749,3.94445 -10.13958,1.25233 z m 17.16386,-1.50615 c -3.10925,-4.83553 -8.55737,-15.29738 -8.55737,-16.43234 0,-0.54743 1.84376,-0.99586 4.09718,-0.99586 2.25351,0 5.41294,3.48563 7.02099,7.74584 1.60805,4.26026 3.83088,7.7459 4.93962,7.7459 1.10875,0 2.01592,1.1619 2.01592,2.58199 0,3.67828 -7.04337,3.20057 -9.51634,-0.64553 z m 13.78929,-8.2799 c -0.84089,-2.19138 -3.06099,-3.98438 -4.93346,-3.98438 -1.8725,0 -3.57955,-2.32375 -3.79349,-5.16392 -0.26502,-3.52124 1.20265,-5.16387 4.61444,-5.16387 2.75194,0 5.00344,0.98431 5.00344,2.18732 0,1.20308 2.41445,3.26476 5.36539,4.58151 5.31594,2.37205 5.31885,2.43603 0.3191,6.9609 -4.43329,4.01207 -5.23211,4.08277 -6.57528,0.58257 z m -36.51585,-8.9712 c 11.73305,-5.77617 21.06851,-13.16201 32.13582,-25.42443 16.66448,-18.46407 18.1815,-22.04895 11.08037,-26.18503 -2.48513,-1.44748 -3.13462,-2.66702 -1.44337,-2.7102 1.69133,-0.0439 3.79318,1.08335 4.67087,2.50345 3.25101,5.26021 6.33703,2.164 14.62679,-14.67499 6.49008,-13.18315 8.73562,-21.50448 9.5123,-35.25031 l 1.01676,-17.99346 -12.29282,1.68489 c -6.76107,0.92673 -14.16396,1.69278 -16.45083,1.70239 -3.23351,0.0145 -4.3132,3.1852 -4.85561,14.26371 -0.3835,7.83536 -2.52532,19.62988 -4.7593,26.21007 -3.71888,10.95366 -3.70989,12.16092 0.10637,14.29656 2.29245,1.28295 3.54384,3.3428 2.78076,4.57748 -0.76308,1.23465 -0.20627,2.97465 1.23669,3.8666 3.3921,2.09653 3.42801,14.22676 0.0439,14.22676 -1.4201,0 -2.58197,-1.16186 -2.58197,-2.58188 0,-1.4201 -2.32379,-2.58198 -5.16396,-2.58198 -6.18765,0 -7.24485,-9.69137 -1.30577,-11.97041 2.12198,-0.81421 3.19398,-2.55504 2.38224,-3.86843 -0.81174,-1.31338 -7.94462,3.52409 -15.85082,10.74998 -16.30178,14.89885 -39.20131,27.40048 -54.74218,29.88555 l -10.52411,1.68284 v 14.22427 14.22429 l 16.92136,-1.35833 c 11.70969,-0.9399 22.01469,-3.8657 33.45844,-9.49939 z m -46.03689,1.40743 c -0.80889,-2.10807 -0.0835,-4.40044 1.61164,-5.09411 2.26585,-0.92711 2.13983,-1.9207 -0.47574,-3.75105 -1.95706,-1.36944 -2.7599,-3.78168 -1.78413,-5.36051 2.58161,-4.17701 10.99772,-3.5144 12.73094,1.00232 0.81742,2.13009 0.3747,3.87297 -0.98428,3.87297 -1.35875,0 -2.19368,2.5666 -1.85541,5.70355 0.71211,6.6044 -6.94701,9.60982 -9.24286,3.62683 z m 16.90141,-6.7484 c -1.91831,-7.55767 -1.82944,-10.32395 0.33153,-10.31328 1.65555,0.009 3.1232,4.54588 3.34044,10.32784 0.21309,5.67224 0.0658,10.31323 -0.33156,10.31323 -0.39521,0 -1.89858,-4.64751 -3.34041,-10.32779 z m 10.37933,-1.94787 c -3.60507,-7.63922 -0.54086,-13.19135 4.15679,-7.53127 1.80361,2.17323 2.22736,5.81601 1.04763,9.00531 -1.90203,5.14161 -2.11011,5.08269 -5.20442,-1.47404 z m 13.63056,-0.74728 c 0.9161,-1.48222 0.26116,-4.38697 -1.45472,-6.45486 -3.90354,-4.70344 1.0881,-11.95292 6.73753,-9.78496 2.24903,0.86296 3.68413,-0.20266 3.68413,-2.73545 0,-5.44052 4.23217,-5.25693 11.55241,0.50133 4.8324,3.80116 5.35294,5.41507 2.85031,8.83755 -2.80323,3.83368 -3.28189,3.83812 -5.66961,0.0513 -1.61836,-2.56573 -4.30195,-3.48424 -7.0728,-2.42095 -3.50497,1.34501 -3.89601,2.77636 -1.81892,6.65745 2.03539,3.80322 1.71447,5.30162 -1.39081,6.49319 -6.11863,2.348 -9.27543,1.86028 -7.41752,-1.14599 z m 25.39904,-24.39818 c -0.89429,-2.3305 -0.38789,-5.47536 1.12522,-6.98854 3.93391,-3.93393 11.38751,-0.33813 10.35993,4.99736 -1.14458,5.94333 -9.41814,7.37769 -11.48515,1.99118 z m 20.65873,-28.20482 c -4.06904,-3.57808 -6.2364,-6.50375 -4.8164,-6.50142 3.60115,0.006 15.23342,9.98845 13.5735,11.64831 -0.74735,0.74735 -4.6881,-1.56873 -8.7571,-5.14689 z m 2.54053,-10.45913 c 0.79996,-2.08464 0.13012,-4.60878 -1.48887,-5.6093 -1.92892,-1.1921 -1.22263,-2.44913 2.04921,-3.64716 3.06282,-1.12149 6.69529,-0.33522 9.39774,2.03407 3.75271,3.29008 3.87559,4.39165 0.8299,7.43742 -4.84786,4.84784 -12.67098,4.69196 -10.78798,-0.2153 z m 6.91522,-15.48839 c -2.5581,-3.08237 -2.60208,-4.78248 -0.19908,-7.67844 4.19683,-5.05681 10.91155,-2.02464 9.94627,4.49134 -1.00275,6.76854 -5.54314,8.25304 -9.74749,3.1871 z m -3.51396,-13.42615 c -0.9467,-0.9467 -1.72126,-4.29686 -1.72126,-7.44488 0,-7.6559 11.93361,-10.39194 15.58311,-3.57275 3.51,6.55843 3.10542,8.36343 -1.48012,6.60381 -2.25935,-0.86701 -4.60397,0.12664 -5.44017,2.30574 -1.57428,4.10256 -4.16138,4.88825 -6.94156,2.10808 z m -99.83567,93.38083 c 0,-7.81049 -1.06681,-14.2008 -2.37076,-14.2008 -1.30395,0 -4.25616,-0.72309 -6.56048,-1.60776 -2.30435,-0.88428 -3.90329,-0.59355 -3.55327,0.64555 1.02206,3.6184 -8.89672,20.64304 -10.0458,17.24259 -0.57319,-1.6963 0.195,-5.39608 1.70722,-8.22157 4.97937,-9.30403 2.66666,-9.49852 -5.08704,-0.4274 -8.48745,9.9292 -7.74312,11.76917 6.86766,16.97722 17.72177,6.31688 19.04247,5.59507 19.04247,-10.40762 z m -10.55753,-0.4333 c 0.84665,-5.20865 3.16372,-10.01179 5.14899,-10.67349 2.68984,-0.89663 3.18996,0.36522 1.96241,4.95183 -0.906,3.3853 -1.66313,8.18835 -1.68251,10.67349 -0.0194,2.48516 -1.5952,4.51844 -3.50175,4.51844 -2.55041,0 -3.0597,-2.50272 -1.92714,-9.47027 z m 125.10016,7.95801 c 4.46631,-1.71388 26.21466,-29.00029 24.48946,-30.72545 -0.61774,-0.61771 -3.78457,-0.42669 -7.03783,0.42375 -4.57346,1.19601 -5.13342,2.10632 -2.4692,4.01408 2.41118,1.72648 1.89525,1.90309 -1.71818,0.58771 -2.84011,-1.03359 -7.29668,-1.7889 -9.9034,-1.67837 -3.01167,0.12737 -4.24109,-1.09771 -3.37248,-3.36137 0.75188,-1.95928 -0.0221,-4.05921 -1.71542,-4.66661 -1.69529,-0.6075 -2.24728,-2.00174 -1.22651,-3.09848 1.02079,-1.09682 4.86576,-0.0219 8.5445,2.38822 3.67872,2.41043 8.65294,3.95554 11.05385,3.43356 2.85842,-0.62139 -0.28397,-3.35039 -9.10407,-7.9057 -7.40824,-3.82619 -13.86743,-6.95671 -14.35385,-6.95671 -0.4867,0 -6.34725,6.32765 -13.02417,14.06151 l -12.13976,14.0614 13.58377,10.42502 c 7.4711,5.73373 13.77929,10.44391 14.01818,10.4671 0.23864,0.0219 2.20767,-0.63822 4.37511,-1.47009 z m -9.32786,-9.113 c -10.65964,-7.95298 -8.54037,-11.01361 3.01937,-4.36069 5.56591,3.20335 9.56388,6.72369 8.88445,7.82299 -1.85878,3.00762 -4.10928,2.3531 -11.90382,-3.4623 z m 2.43877,-10.31764 c -3.63509,-2.11469 -4.00513,-3.50277 -1.68051,-6.30381 2.52505,-3.04255 3.91696,-2.91191 9.09891,0.8539 3.3648,2.44526 6.15429,5.31727 6.19891,6.38231 0.117,2.80132 -8.17524,2.23347 -13.61731,-0.9324 z m -136.7191,5.5675 c 9.53377,-12.08992 9.50791,-14.50861 -0.21942,-20.52047 -8.733766,-5.39777 -23.644386,-20.7382 -28.809004,-29.6394 -2.440624,-4.20649 -3.253287,-4.20011 -14.84625,0.11556 -6.745352,2.51126 -12.2643,5.93127 -12.2643,7.59998 0,9.87939 38.261354,50.33902 47.217462,49.93033 1.721881,-0.0782 5.736592,-3.44743 8.921532,-7.48638 z m -12.245743,-2.93466 c -2.91454,-2.06124 -3.074284,-3.06306 -0.645472,-4.04862 1.77509,-0.72017 3.227449,-3.53652 3.227449,-6.25829 0,-5.92234 5.826476,-6.49964 10.368026,-1.02742 2.66332,3.20912 2.41355,4.85055 -1.37499,9.03692 -5.30377,5.86055 -6.26648,6.05166 -11.574983,2.29741 z M 82.223052,225.4656 c -3.966583,-3.96655 -1.207156,-10.01324 4.569589,-10.01324 5.826668,0 8.148054,3.37073 6.063162,8.80389 -1.839585,4.7939 -6.516287,5.32583 -10.632751,1.20935 z M 67.180576,208.52609 c 0.354893,-6.64333 6.578433,-12.24617 6.578433,-5.92242 0,1.69041 1.742831,2.40458 3.872938,1.5872 4.135099,-1.58681 4.834001,0.58846 2.305711,7.17737 -0.86197,2.24626 -4.168183,4.08412 -7.347146,4.08412 -4.640808,0 -5.706991,-1.36505 -5.409936,-6.92627 z m -9.150609,-12.15242 c 3.292747,-3.96753 15.729042,-7.17241 15.729042,-4.05344 0,1.08422 -3.65903,3.24688 -8.13116,4.80589 -10.459613,3.64621 -11.188564,3.57403 -7.597882,-0.75245 z m -11.581119,26.9619 11.058628,-7.60853 -8.011461,-16.76818 c -5.408468,-11.32 -9.536089,-16.81753 -12.703889,-16.92007 -3.47298,-0.11252 -4.284417,1.13362 -3.122421,4.79478 1.937485,6.1045 -1.062575,8.19663 -8.838014,6.1633 l -5.930187,-1.55076 6.127603,-3.39716 6.127607,-3.39707 -6.454898,-0.0512 c -12.110236,-0.0972 -13.082226,2.66467 -6.573331,18.67946 6.160845,15.15838 13.32611,27.66477 15.849992,27.66477 0.776459,0 6.388125,-3.42388 12.470371,-7.60855 z m -14.339245,-2.92821 c -2.654892,-1.64084 -2.77174,-2.87796 -0.487587,-5.16205 1.652256,-1.65227 2.389645,-4.60536 1.638648,-6.56245 -1.55945,-4.06384 1.352037,-4.56013 6.741714,-1.14915 5.7247,3.62302 5.988027,12.31477 0.417252,13.7716 -2.650078,0.69312 -6.389585,0.28909 -8.310004,-0.89795 z m -9.989737,-18.03569 c 0,-1.02225 1.837841,-2.56382 4.084103,-3.42576 6.127425,-2.35127 14.491232,-1.8858 12.882598,0.71723 -1.751232,2.83355 -16.966701,5.26268 -16.966701,2.70874 z M 145.52259,213.8356 c 0.74344,-15.42903 0.60526,-15.79652 -6.45495,-17.20871 -3.96804,-0.7936 -11.65156,-4.454 -17.07447,-8.13413 -5.42292,-3.68009 -11.18969,-5.86925 -12.81503,-4.86475 -6.03838,3.73194 -19.240033,3.48916 -22.478808,-0.4135 -2.675379,-3.22363 -2.495453,-3.9097 1.025308,-3.9097 2.348579,0 4.938905,-1.74286 5.756307,-3.87298 2.357294,-6.14291 8.423093,-4.50288 10.248713,2.77103 1.11008,4.4229 2.52942,5.78205 4.24577,4.06569 1.71635,-1.71637 0.74379,-6.36771 -2.90931,-13.91405 -3.01815,-6.23462 -5.487529,-15.0355 -5.487529,-19.55742 0,-5.50874 -1.251218,-8.22165 -3.791936,-8.22165 -2.431226,0 -3.282092,1.62136 -2.371172,4.51841 1.334794,4.24512 1.200473,4.25187 -2.220856,0.11126 -3.433179,-4.15501 -3.898254,-4.15501 -8.12655,0 -4.242188,4.16873 -4.395486,4.04189 -2.832019,-2.34315 1.187675,-4.85026 0.508686,-7.18954 -2.412036,-8.31035 -3.275867,-1.25704 -4.065013,0.4201 -4.065013,8.6375 v 10.1974 l 11.618783,-1.59252 c 7.572379,-1.03789 11.618812,-0.62285 11.618812,1.19196 0,1.53141 -4.927974,3.14172 -10.951043,3.57838 -7.784655,0.56429 -11.188012,2.04416 -11.770676,5.11789 -1.267804,6.68836 4.17373,24.21075 9.59937,30.91109 4.817362,5.9492 4.957875,5.9645 10.309942,1.12089 2.984327,-2.70076 6.112983,-4.22351 6.952603,-3.38389 0.83963,0.83961 -0.9103,3.04847 -3.888755,4.90849 -2.978442,1.8601 -5.415305,4.5548 -5.415246,5.98836 6.9e-5,3.49026 15.206181,15.44061 27.507891,21.61817 23.05364,11.57692 25.22583,10.82938 26.1819,-9.00985 z m -16.09496,3.6152 c -3.77675,-2.11356 -3.98534,-3.0296 -1.11183,-4.88203 2.95425,-1.90445 2.89891,-2.69929 -0.3357,-4.82273 -3.05646,-2.0064 -2.43429,-2.55072 2.95121,-2.58198 7.8697,-0.0439 11.57485,6.45895 6.54455,11.48928 -2.43231,2.43228 -4.72161,2.65917 -8.04823,0.79746 z m -16.92646,-6.37288 c -0.009,-1.69589 2.85517,-6.34339 6.36047,-10.32783 8.28911,-9.42195 8.29047,-4.44678 9.9e-4,5.66544 -3.49206,4.2602 -6.35498,6.35833 -6.36202,4.66239 z m -6.75024,-11.57441 c -1.13022,-1.82877 -2.19481,-5.2233 -2.36574,-7.54332 -0.24358,-3.30536 1.1271,-3.83379 6.33266,-2.44158 4.20432,1.12441 6.64344,3.59146 6.64344,6.71951 0,5.7731 -7.61257,8.11589 -10.61036,3.26539 z M 79.863234,170.28539 c -0.89429,-2.3305 -0.387951,-5.47537 1.125255,-6.98856 3.933875,-3.93385 11.387471,-0.33813 10.359897,4.99737 -1.144585,5.94334 -9.418114,7.37779 -11.485152,1.99119 z m 93.553476,50.86073 c 14.34878,-7.32016 37.18602,-25.71549 37.18602,-29.95318 0,-1.91608 -5.51897,-5.88604 -12.26433,-8.82208 l -12.26424,-5.33837 -9.2382,8.97236 c -5.75737,5.59181 -12.81033,9.55211 -18.71911,10.51094 -10.45267,1.69624 -12.16211,5.69229 -4.48584,10.48619 4.32448,2.70061 5.14408,2.35064 6.10332,-2.60634 0.60969,-3.14933 1.19256,0.0835 1.29597,7.18384 0.13315,9.16587 -0.42963,11.38621 -1.94159,7.65617 -1.17115,-2.88943 -4.00218,-6.80784 -6.29117,-8.70746 -3.7241,-3.09073 -4.16178,-2.21773 -4.16178,8.30076 0,11.62488 0.0791,11.73196 7.17386,9.69721 3.94567,-1.13156 11.86883,-4.4526 17.60709,-7.38004 z m -4.32073,-12.39466 -6.25944,-6.70095 6.21027,0.89152 c 4.10561,0.58918 6.50639,2.86024 7.08413,6.70092 1.1045,7.34208 0.59577,7.2776 -7.03496,-0.89149 z m 11.27139,-3.62692 c 1.00167,-3.83028 0.0791,-5.16387 -3.57178,-5.16387 -2.70721,0 -4.92221,-1.16189 -4.92221,-2.58198 0,-2.64961 10.974,-3.65705 13.4008,-1.23032 2.21787,2.21785 -0.88083,14.14012 -3.67512,14.14012 -1.42016,0 -1.97442,-2.32377 -1.23169,-5.16395 z m 11.23917,-6.42557 c -0.69091,-1.80017 0.10546,-4.81089 1.76971,-6.69054 2.45016,-2.76751 2.27261,-2.85542 -0.93382,-0.46256 -5.06593,3.78095 -11.52337,-0.0143 -9.40755,-5.52565 2.04257,-5.32284 3.84414,-5.19776 13.95869,0.96932 5.18239,3.15982 7.80176,6.47959 6.92178,8.77278 -1.89523,4.93872 -10.73151,7.04673 -12.30881,2.93643 z m 85.6752,15.41541 c -0.46183,-1.37493 -2.1899,-2.18966 -3.8409,-1.81056 -1.83952,0.42231 -2.47269,-1.3338 -1.63534,-4.53598 1.61054,-6.15843 -2.38481,-6.8912 -7.0335,-1.28988 -3.57192,4.30397 -3.55574,4.33909 3.92479,8.51039 5.84167,3.2575 9.83532,2.85094 8.58495,-0.87397 z m -23.59873,-9.9662 c -0.75099,-1.95707 -0.0659,-4.86173 1.53112,-6.45485 2.1408,-2.14086 1.48656,-2.89661 -2.50746,-2.89661 -6.99022,0 -9.6235,6.85167 -3.91284,10.18102 5.90578,3.4431 6.49064,3.34385 4.88918,-0.82956 z m 26.21979,-11.45513 c -4.08712,-0.44719 -6.75957,-1.8994 -5.9388,-3.22752 0.82081,-1.3281 0.19334,-2.41466 -1.39433,-2.41466 -1.58767,0 -2.16858,-1.16189 -1.29098,-2.58196 2.46545,-3.98913 9.03692,-3.05032 9.03692,1.29098 0,5.14154 6.76913,4.97841 8.76059,-0.21146 0.86195,-2.24624 1.56719,-8.05567 1.56719,-12.90979 0,-7.91631 -0.73188,-8.82159 -7.10037,-8.78617 -5.4564,0.0293 -6.20867,0.60309 -3.24904,2.47446 2.91121,1.8405 3.12368,3.16258 0.87048,5.41579 -3.82115,3.82122 -8.82101,0.82807 -6.9148,-4.13951 1.07157,-2.7924 -0.48745,-3.77862 -5.92212,-3.74612 -6.53859,0.0366 -7.99864,1.65238 -12.8516,14.2007 l -5.475,14.1567 h 8.37969 c 14.63865,0 24.50559,2.96552 24.69836,7.4231 0.13674,3.16741 0.68068,2.93013 2.21825,-0.96822 1.71972,-4.36017 0.88015,-5.29043 -5.39444,-5.97665 z m -16.38126,-13.40633 c -0.88378,-1.43011 0.2598,-3.31643 2.54094,-4.19191 4.94357,-1.897 7.69872,0.19322 5.32241,4.03837 -2.14403,3.46911 -5.77048,3.53986 -7.86335,0.1537 z m 5.17525,18.09197 c 0.8776,-1.42008 -0.28397,-2.58197 -2.58198,-2.58197 -2.29772,0 -3.45956,1.16189 -2.58197,2.58197 0.87769,1.42009 2.03958,2.58198 2.58197,2.58198 0.54233,0 1.70431,-1.16189 2.58198,-2.58198 z m -99.14171,-8.4942 c 4.82525,-3.25173 8.19224,-7.02785 7.48225,-8.39138 -0.70996,-1.36352 -2.16247,-2.18866 -3.2275,-1.83362 -1.06506,0.35497 -4.35479,-1.77278 -7.31046,-4.72846 -4.66758,-4.66765 -4.90178,-5.94028 -1.78172,-9.68238 1.97576,-2.36957 3.40091,-6.71225 3.16698,-9.65037 -0.35496,-4.45445 1.0125,-5.31238 8.22904,-5.16386 4.75987,0.0981 8.83197,1.04945 9.04918,2.11451 1.40519,6.89078 0.22548,8.39138 -6.59801,8.39138 -8.91205,0 -11.92253,5.64135 -4.47985,8.39459 2.87437,1.06328 5.29547,2.8046 5.38016,3.86973 0.37692,4.7355 4.28957,1.13562 7.05802,-6.49365 3.9293,-10.82799 4.17471,-27.37485 0.55989,-37.74432 -2.36283,-6.77821 -3.82749,-7.9098 -8.3711,-6.46774 -4.63814,1.47213 -5.0085,1.1471 -2.3471,-2.05969 2.58277,-3.11202 1.87167,-5.01823 -3.89316,-10.43584 -7.63724,-7.17718 -25.74069,-17.484947 -30.70872,-17.484947 -1.69205,0 -3.57572,1.452379 -4.18614,3.227442 -0.6104,1.775131 -0.80427,1.194164 -0.43108,-1.290991 0.48377,-3.218216 -1.07411,-4.518408 -5.41284,-4.518408 -5.76538,0 -6.03323,0.726035 -5.00333,13.555314 1.13594,14.14991 0.12436,12.62406 -2.56753,-3.872947 -1.27681,-7.824896 -2.68554,-9.682367 -7.34328,-9.682367 -7.90205,0 -32.731975,17.781494 -32.731975,23.440344 0,1.0002 4.760183,3.72321 10.578165,6.05107 8.83966,3.53694 10.06076,4.85603 7.42974,8.02623 -2.01461,2.42748 -2.159667,3.79369 -0.40276,3.79369 1.51017,0 3.53859,-1.28286 4.50763,-2.8508 0.96902,-1.56799 6.36869,-4.91333 11.99924,-7.4342 9.14333,-4.09363 11.03843,-4.18379 17.73376,-0.84373 4.12297,2.05678 9.12759,6.06857 11.12135,8.91505 3.62374,5.17361 3.62857,5.17361 14.07284,-0.15443 5.74629,-2.9315 12.26792,-4.63163 14.49242,-3.77803 7.0649,2.71109 8.4088,19.05617 1.56679,19.05617 -1.17059,0 -2.76664,-2.44065 -3.54678,-5.42369 -0.78099,-2.98649 -2.65661,-4.65835 -4.17405,-3.72058 -1.51569,0.93674 -2.75574,-0.14567 -2.75574,-2.40465 0,-3.65074 -0.78128,-3.6984 -7.02301,-0.42815 -6.1073,3.19992 -6.92583,5.02709 -6.2771,14.01226 0.59211,8.20479 -0.41497,11.14569 -4.8921,14.28164 -8.94514,6.26537 -17.837,1.05026 -17.91566,-10.50757 -0.054,-7.90548 -4.25611,-7.35341 -6.30974,0.82893 -0.91635,3.65106 -3.07561,6.1452 -4.79832,5.54257 -1.72273,-0.60237 -4.5434,1.34807 -6.26818,4.335 l -3.13597,5.43072 -0.0914,-5.65703 c -0.10034,-6.20586 -4.02996,-10.03346 -6.38644,-6.2205 -2.17695,3.5223 3.05206,15.75048 6.73524,15.75048 1.73255,0 6.3967,-3.11045 10.36482,-6.91214 3.96808,-3.80167 8.07101,-6.05583 9.11763,-5.00922 1.04659,1.04661 -2.7174,5.85624 -8.36443,10.68813 -5.64705,4.83189 -8.88358,8.82884 -7.19226,8.88217 1.69128,0.0512 3.79507,-1.06812 4.67509,-2.49202 1.06404,-1.72163 3.27748,-1.69118 6.6073,0.0908 4.01011,2.14613 5.0072,1.83544 5.0072,-1.56025 0,-2.87048 -1.3689,-3.71473 -4.23813,-2.61366 -3.43216,1.31703 -3.65622,0.92518 -1.17816,-2.06072 3.7516,-4.5204 10.73848,-3.78952 14.05639,1.47038 1.77791,2.81859 0.93499,5.4332 -3.02988,9.39803 -5.42093,5.42091 -13.35607,5.21517 -13.35607,-0.3462 0,-1.9101 -0.98737,-1.83471 -3.05535,0.23348 -3.54204,3.54209 -3.6272,3.43243 8.21926,10.57974 12.40647,7.48514 30.09193,7.29764 41.57497,-0.4406 z m -23.5013,-9.57954 c 0,-5.68029 0.92806,-10.32781 2.06226,-10.32781 1.13428,0 2.00569,4.64386 1.93653,10.31968 -0.0733,5.67576 -0.99723,10.32329 -2.06225,10.32782 -1.06506,0.006 -1.93654,-4.63932 -1.93654,-10.31969 z m 9.29426,1.03058 c -2.10523,-5.48605 -0.37619,-7.28798 5.00986,-5.2211 2.3095,0.88624 3.73934,2.99044 3.17747,4.67606 -1.64772,4.94305 -6.37886,5.25808 -8.18733,0.54526 z m 1.9739,-35.86973 c -0.89429,-2.3305 -0.38788,-5.47537 1.12529,-6.98855 3.93384,-3.93386 11.38745,-0.33814 10.35988,4.99735 -1.14462,5.94342 -9.41816,7.37779 -11.48517,1.9912 z m 1.87175,-21.82169 c -4.75079,-2.93613 -1.00605,-13.052 4.8316,-13.052 3.87244,0 7.84809,4.63882 7.84809,9.15723 0,2.7146 -9.7457,5.7081 -12.67969,3.89477 z m -56.7806,-10.8553 c -4.050087,-11.61807 -3.539985,-13.229917 2.32939,-7.36057 7.12061,7.1206 9.62539,6.49394 11.6943,-2.92574 1.30703,-5.950802 2.37478,-7.1454 4.03857,-4.518411 3.87452,6.117661 2.84456,15.221251 -1.53211,13.541781 -2.13012,-0.81739 -3.87293,-0.2364 -3.87293,1.29098 0,1.53581 -1.93144,2.03598 -4.32118,1.11892 -3.27369,-1.25623 -3.91921,-0.6104 -2.66299,2.66299 0.91201,2.37667 0.64639,4.32125 -0.59013,4.32125 -1.23659,0 -3.5239,-3.65904 -5.08289,-8.1312 z m 41.70426,6.42121 c -4.98516,-2.01155 -3.82093,-8.11853 2.15762,-11.31816 6.73218,-3.60295 7.40192,-2.90707 5.70476,5.92776 -1.38475,7.20834 -2.11549,7.70931 -7.86238,5.3904 z m -13.08939,-9.06114 c 1.21632,-8.26607 7.27997,-9.151367 7.27997,-1.06286 0,4.33897 -1.41628,6.67003 -4.05249,6.67003 -2.6913,0 -3.77538,-1.88345 -3.22748,-5.60717 z m -64.057523,75.45321 c 6.560388,-2.49983 7.227993,-3.74538 5.809397,-10.83836 -0.881536,-4.40778 -1.602796,-13.67823 -1.602796,-20.60105 0,-6.92291 -1.161862,-12.58703 -2.581948,-12.58703 -1.420088,0 -2.581949,1.77929 -2.581949,3.95398 0,6.57138 -7.67093,7.40031 -15.425677,1.66702 l -7.307026,-5.40232 -1.435711,5.72034 c -0.789631,3.1461 -0.345671,13.26337 0.986609,22.48272 1.33227,9.21938 2.445671,17.77908 2.474222,19.02172 0.05781,2.5175 10.351968,0.89385 21.664879,-3.41702 z M 53.36305,179.79027 c -2.231012,-4.16872 -1.803668,-5.31837 2.383947,-6.41344 2.806233,-0.73386 5.102219,-3.31181 5.102219,-5.72882 0,-3.39824 -1.463423,-4.02731 -6.454886,-2.77453 -5.475478,1.37427 -6.454901,0.72456 -6.454901,-4.28328 0,-5.12748 1.210457,-5.84642 9.210108,-5.47015 10.784927,0.5072 14.125073,2.85322 8.788825,6.17286 -3.122071,1.94214 -3.223653,3.2898 -0.570743,7.57041 3.785169,6.10759 4.240103,13.0236 0.856677,13.0236 -1.30395,0 -4.119517,0.67114 -6.256886,1.49123 -2.315842,0.88869 -4.98446,-0.56137 -6.60436,-3.58788 z m 164.70993,0.16029 c 9.56057,-23.14671 8.01965,-58.43092 -3.29874,-75.53416 -5.48298,-8.285319 -28.02756,-25.816659 -38.2376,-29.734553 -2.03365,-0.780415 -5.41127,1.91404 -8.09532,6.457782 -4.51558,7.64426 -2.95107,10.565315 2.65574,4.95851 3.13132,-3.131268 13.6861,-0.808094 13.6861,3.012399 0,1.324426 -1.74286,2.407996 -3.87295,2.407996 -2.13012,0 -3.87288,1.742788 -3.87288,3.872971 0,5.750045 -6.57445,4.688575 -10.85083,-1.751944 -3.09146,-4.656018 -3.99829,-4.937999 -5.26488,-1.637238 -1.03798,2.704784 2.0138,6.48567 9.486,11.752507 15.65724,11.03629 23.22963,27.56398 21.40823,46.72642 -0.76445,8.04263 -2.17547,16.58484 -3.13558,18.9826 -1.34088,3.34863 1.14815,5.86525 10.73388,10.8531 6.86375,3.57142 13.21002,6.54768 14.10278,6.61375 0.89277,0.0658 2.94293,-3.07498 4.55605,-6.98014 z m -21.7204,-8.17766 c -2.09294,-5.42808 1.6294,-7.56214 10.71607,-6.14366 6.14996,0.9601 7.80097,2.34747 6.89884,5.79725 -1.45437,5.56138 -15.49778,5.83759 -17.61491,0.3462 z m 14.95241,-11.77682 c -2.38115,-4.25493 -3.3907,-4.47252 -6.96965,-1.50228 -6.23561,5.17506 -7.5186,1.74892 -1.41397,-3.7757 4.80101,-4.34481 5.61738,-4.40313 9.35238,-0.66822 2.25079,2.25073 3.58006,5.62885 2.95405,7.50696 -0.80955,2.42848 -1.94245,1.97772 -3.92281,-1.5609 z m -13.61201,-13.80461 c 0,-3.54639 6.0665,-8.19772 10.69177,-8.19772 4.11294,0 9.13088,4.48775 6.99492,6.25579 -2.42923,2.01088 -17.68669,3.68603 -17.68669,1.94193 z m 0.17711,-15.61318 c -2.05668,-3.84295 -1.74366,-5.33133 1.37261,-6.52718 7.45286,-2.85994 16.52424,-1.66783 16.52424,2.17147 0,5.86554 -4.58046,7.1729 -7.50863,2.14311 -2.42235,-4.16079 -2.66923,-4.17947 -2.74066,-0.20639 -0.11858,6.60782 -4.6404,8.03816 -7.64756,2.41926 z m -1.72278,-12.67743 c -3.3697,-2.20188 -3.80682,-11.31207 -0.44282,-9.23313 1.27293,0.78672 4.37476,-0.43399 6.89305,-2.71327 4.24896,-3.84522 4.79104,-3.67746 7.52782,2.32904 2.70106,5.9282 2.42893,6.47263 -3.23526,6.47263 -3.40139,0 -6.57166,1.12465 -7.04499,2.49921 -0.47353,1.37458 -2.13724,1.66505 -3.69759,0.64552 z m -13.00546,-17.32821 c -0.8943,-2.330497 -0.38791,-5.47537 1.1252,-6.988563 3.93393,-3.933855 11.38752,-0.33814 10.35995,4.997366 -1.14458,5.943327 -9.41814,7.377787 -11.48515,1.991197 z m -152.295943,80.06913 10.016706,-1.69619 -1.443587,-13.37548 c -1.327558,-12.3005 -0.143025,-23.79853 4.587436,-44.52774 1.722825,-7.54963 1.307027,-8.06407 -9.017864,-11.15749 -5.953177,-1.78363 -12.307365,-3.81213 -14.120425,-4.50788 -7.341579,-2.81728 -14.3469394,41.83158 -10.543157,67.19711 1.448518,9.65939 2.703986,11.88995 6.161684,10.94753 2.388379,-0.65141 8.850025,-1.94701 14.359207,-2.87986 z m -13.889639,-9.0826 c -2.296988,-4.29197 -1.963553,-5.16386 1.974723,-5.16386 2.606104,0 5.949487,-1.21115 7.429747,-2.69139 3.569576,-3.5696 9.80203,3.76106 7.748145,9.11337 -2.195188,5.72056 -13.87628,4.86381 -17.152615,-1.25812 z m 0.645529,-12.21426 c -1.775096,-0.6192 -3.22745,-3.22847 -3.22745,-5.79836 0,-5.02049 4.454237,-7.74408 9.682341,-5.92043 1.775097,0.61917 3.227444,3.22839 3.227444,5.79827 0,5.0205 -4.454229,7.74417 -9.682335,5.92052 z m -0.645529,-20.23415 c 0,-2.99558 1.509252,-3.59096 5.809406,-2.29178 9.98925,3.01803 11.274243,6.33871 2.452856,6.33871 -5.780805,0 -8.262262,-1.21546 -8.262262,-4.04693 z m 7.100381,-9.16616 c -5.325284,-2.74116 -9.682338,-5.28449 -9.682338,-5.65176 0,-0.3674 5.518937,-0.77917 12.264298,-0.91537 6.745365,-0.13617 10.231006,0.27738 7.74587,0.91875 -5.252527,1.3559 -5.958761,5.00696 -1.290981,6.67399 1.775099,0.63382 2.646507,1.78399 1.936473,2.55555 -0.71001,0.77155 -5.648035,-0.83993 -10.973322,-3.58116 z m 0.413301,-14.90172 -6.222725,-5.08328 7.184938,0.76154 c 8.729307,0.92518 11.429504,3.23605 7.902508,6.76304 -1.801349,1.80136 -4.621964,1.02458 -8.864721,-2.4413 z m 126.74811,32.94077 c 0,-10.00981 -6.7867,-21.63373 -14.74904,-25.26167 -9.18896,-4.18671 -10.86534,-3.18336 -2.37025,1.41871 6.73182,3.64688 7.03876,4.38441 3.35699,8.06619 -3.33839,3.33838 -4.75742,3.46713 -8.05481,0.73044 -2.20137,-1.82703 -4.00251,-5.50333 -4.00251,-8.16954 0,-5.68551 -0.33834,-5.75935 -8.77333,-1.91612 -7.06173,3.21756 -10.98611,9.87149 -5.99189,10.15958 1.73054,0.0995 0.82369,1.08795 -2.01516,2.1959 -3.23004,1.26055 -6.12869,0.81614 -7.74587,-1.18757 -3.104537,-3.84654 -21.678261,-10.06705 -23.780889,-7.96441 -3.153431,3.15344 5.120815,8.9911 12.44864,8.78274 4.233399,-0.12076 9.037329,1.12139 10.675379,2.75944 3.47613,3.47613 18.42744,4.08734 16.31348,0.66676 -2.27492,-3.68083 6.17149,-5.67832 11.63864,-2.75242 2.73728,1.46495 4.97686,4.44853 4.97686,6.63007 0,3.49266 0.49549,3.47122 4.14649,-0.18004 4.86621,-4.86621 11.34529,-1.21158 11.34529,6.39952 0,6.27196 -6.74368,8.33928 -11.54409,3.53886 -2.17122,-2.17116 -3.94769,-2.78573 -3.94769,-1.36564 0,1.42001 1.82353,4.40542 4.0523,6.63417 6.08416,6.08416 14.02146,0.88456 14.02146,-9.18526 z m 140.55271,10.9309 c 2.25034,-3.64102 -1.47292,-18.42989 -4.21349,-16.73606 -1.35173,0.8354 -7.04948,1.68796 -12.66154,1.8945 -7.80998,0.28764 -10.02651,-0.53282 -9.44809,-3.49727 0.52403,-2.68627 4.06749,-3.9018 11.56398,-3.96715 5.94452,-0.0512 11.50976,-0.7958 12.3673,-1.65335 0.8575,-0.85748 0.51818,-5.46264 -0.75383,-10.23362 -2.48398,-9.31555 -7.55389,-10.58999 -21.21903,-5.33391 -6.21746,2.39146 -6.42362,3.20665 -5.60537,22.1632 l 0.84942,19.68046 h 13.84442 c 7.61442,0 14.48873,-1.04257 15.27623,-2.3168 z m -23.82693,-2.01101 c -2.5611,-1.02767 -2.63758,-2.17893 -0.32935,-4.96014 4.58706,-5.5271 12.70142,-4.5419 12.70142,1.5421 0,5.07262 -4.88486,6.42216 -12.37207,3.41804 z m 4.62616,-30.5286 c 0,-2.13011 1.74284,-3.87296 3.87294,-3.87296 2.13012,0 3.87297,1.74285 3.87297,3.87296 0,2.13008 -1.74285,3.87296 -3.87297,3.87296 -2.1301,0 -3.87294,-1.74288 -3.87294,-3.87296 z m -160.08132,21.68314 c -3.11153,-2.22255 -2.73082,-2.5161 1.93646,-1.4932 3.19517,0.70043 5.8094,0.2203 5.8094,-1.06696 0,-1.28717 -4.06658,-2.34023 -9.03683,-2.34023 -12.584305,0 -11.385869,6.9647 1.29097,7.5025 3.44262,0.14637 3.44262,-0.14265 0,-2.60211 z m -50.101236,-9.06083 c -1.193856,-3.11114 -0.501621,-3.74029 2.744772,-2.49453 2.40858,0.92424 5.277699,0.19029 6.44464,-1.64895 3.112783,-4.90581 2.626546,-7.1962 -1.214779,-5.72218 -1.868459,0.71727 -6.806454,-0.58038 -10.973317,-2.88358 l -7.576097,-4.18731 10.871316,1.25228 c 10.229183,1.17828 11.188531,0.71432 16.24214,-7.85066 2.953952,-5.00657 5.033151,-9.33793 4.620428,-9.62513 -0.412692,-0.28762 -4.992558,-3.67673 -10.177378,-7.532197 l -9.427019,-7.009856 -5.488415,7.707786 c -16.065196,22.561487 -15.708074,43.979617 0.735541,44.115167 3.355141,0.0293 4.31535,-1.20954 3.198168,-4.12084 z m 0.398528,-20.78294 c -10.023955,-5.27987 -8.82447,-8.39122 1.936454,-5.02311 4.970264,1.55571 9.036857,4.28698 9.036857,6.06965 0,3.95179 -1.811882,3.77899 -10.973311,-1.04654 z m 0.03076,-12.4069 c -0.700858,-3.66641 -0.268305,-7.288037 0.961362,-8.047957 1.229639,-0.76 2.23568,0.42961 2.23568,2.643517 0,2.30399 2.208191,4.02534 5.163925,4.02534 2.840139,0 5.163919,1.16188 5.163919,2.58197 0,1.42002 -1.066869,2.5819 -2.370798,2.5819 -1.303914,0 -4.060299,0.64844 -6.125248,1.44073 -2.539164,0.97437 -4.167,-0.71725 -5.02884,-5.2255 z m 180.155658,24.59337 c -0.89052,-1.44081 2.19882,-1.82856 7.59345,-0.95314 5.00211,0.81173 9.09471,0.78649 9.09471,-0.0586 0,-0.84256 -2.40724,-7.96585 -5.34939,-15.82954 -5.77031,-15.422517 -8.34468,-16.694992 -20.7734,-10.26787 -4.28597,2.2164 -9.06123,3.60692 -10.61165,3.09013 -1.55043,-0.51672 2.59492,-3.00728 9.21182,-5.53429 6.61699,-2.527077 12.02773,-5.36997 12.02393,-6.317547 -0.003,-0.94759 -4.50563,-6.939811 -10.0039,-13.316071 l -9.99694,-11.593189 -7.81473,8.365754 c -7.59045,8.12563 -13.48877,10.769377 -13.48877,6.045882 0,-1.27583 4.74311,-5.120844 10.54022,-8.544417 9.28699,-5.484512 10.05443,-6.627804 6.45486,-9.61517 -2.76144,-2.291778 -4.0853,-2.444306 -4.0853,-0.470608 0,2.065915 -1.56302,1.969599 -5.34397,-0.329351 -4.69817,-2.856655 -6.03593,-2.391244 -11.07033,3.851076 -6.35035,7.874148 -9.40527,8.983323 -9.40527,3.414786 0,-2.026969 3.02887,-6.068048 6.73085,-8.979958 5.35732,-4.214095 7.79182,-4.726639 11.93036,-2.511784 3.76115,2.012926 4.71407,1.99719 3.4446,-0.05855 -2.99754,-4.850112 2.66341,-3.115744 7.58666,2.324346 5.94531,6.569548 9.59679,6.513925 15.70819,-0.239329 2.68935,-2.971633 7.22647,-6.566547 10.08251,-7.988688 2.85603,-1.42207 0.15295,1.880745 -6.00683,7.33957 l -11.19963,9.925138 6.68124,6.259513 6.68122,6.259441 0.40693,-6.259441 c 0.22382,-3.442753 0.35496,-7.699377 0.29128,-9.459135 -0.0658,-1.759839 0.83518,-2.612272 1.99676,-1.894359 1.16167,0.717986 2.84189,0.124424 3.73382,-1.318798 0.89198,-1.443221 2.78364,-2.624059 4.20372,-2.624059 1.42009,0 1.91558,1.078227 1.10114,2.396073 -0.81447,1.317848 0.85889,3.138652 3.71861,4.046273 4.08175,1.295521 4.66433,2.650039 2.71025,6.301306 -1.36899,2.558117 -2.04936,5.094345 -1.51178,5.636014 0.5372,0.541612 -2.56742,1.241221 -6.89995,1.554331 -4.33251,0.313242 -8.35624,1.048354 -8.94168,1.633798 -0.58551,0.585517 1.70831,5.150196 5.0972,10.143977 3.38881,4.993769 7.61082,12.578296 9.38206,16.854536 l 3.2205,7.77499 12.04667,-4.01606 c 6.62566,-2.20885 12.45477,-4.35271 12.95354,-4.76411 3.02632,-2.49625 -19.9484,-41.960647 -32.01623,-54.995375 -12.6641,-13.678723 -38.86111,-33.548603 -40.84728,-30.981777 -0.41642,0.53794 -3.73293,6.420093 -7.37088,13.071981 -5.68468,10.394201 -6.04829,12.31147 -2.58657,13.639856 5.78692,2.220636 10.69317,-3.296375 5.7248,-6.437442 -3.06073,-1.935051 -2.62304,-2.443058 2.13206,-2.474456 4.95113,-0.03662 5.7076,-1.04178 4.3847,-5.848928 -1.48128,-5.382928 -1.32858,-5.474415 2.07991,-1.246122 2.29338,2.844869 5.50361,3.969717 8.52509,2.987076 3.70096,-1.20367 3.32079,-0.245922 -1.6084,4.052129 -3.55021,3.095617 -4.71209,4.845721 -2.58198,3.889207 2.13009,-0.956435 1.00071,0.594298 -2.5098,3.446999 -3.51047,2.852261 -7.46612,4.516442 -8.79027,3.698038 -1.32423,-0.818403 -1.57855,-0.146372 -0.56501,1.492917 2.47926,4.011578 2.12577,3.912701 -12.45537,-3.484839 -6.98599,-3.544193 -16.28106,-6.309285 -20.65564,-6.144538 -4.62256,0.17419 -6.00394,0.805084 -3.2982,1.506677 3.67511,0.952997 4.0221,1.970403 1.64754,4.83152 -1.65436,1.993387 -2.33341,5.381979 -1.50908,7.53016 1.88419,4.910198 -8.51783,5.420254 -13.8355,0.678465 -3.07897,-2.745699 -3.10891,-2.552991 -0.20046,1.290985 1.88051,2.485144 4.38754,4.518417 5.57132,4.518417 1.18369,0 8.18901,3.559418 15.56728,7.909857 7.37836,4.350457 14.11031,6.964625 14.9599,5.809414 2.24845,-3.057337 7.9996,-3.793991 7.9996,-1.024651 0,1.301739 -1.431,2.843764 -3.17994,3.426788 -1.87137,0.623585 0.95176,4.687633 6.8602,9.875378 10.47486,9.196954 19.40351,25.370914 19.50062,35.324684 0.0512,4.92577 1.4545,5.80939 9.24594,5.80939 5.08302,0 8.51842,-1.0854 7.68803,-2.42901 z m -11.71337,-3.74963 c 0,-2.28206 1.23043,-4.14919 2.73434,-4.14919 1.5039,0 1.89421,-1.35926 0.86743,-3.02066 -1.24927,-2.02135 -0.46768,-2.48397 2.36133,-1.39828 2.57999,0.99011 5.23059,-0.0968 6.79994,-2.78867 2.41276,-4.13848 2.57653,-4.1398 2.6502,-0.0219 0.0439,2.4146 2.11178,5.57439 4.59694,7.02185 2.48514,1.44748 3.35655,2.76392 1.93649,2.92545 -8.59535,0.97768 -13.4325,1.99888 -17.42819,3.67939 -3.21719,1.35304 -4.51848,0.70553 -4.51848,-2.24882 z m -5.1639,-14.38618 c 0,-3.56767 9.92396,-8.391 13.15543,-6.39389 1.55492,0.96098 -0.25402,3.22509 -4.22142,5.28332 -8.24075,4.27535 -8.93401,4.36157 -8.93401,1.11057 z m 37.08774,-3.94643 c -0.89429,-2.33057 -0.3879,-5.47538 1.12523,-6.98857 3.93384,-3.933907 11.38744,-0.33885 10.35986,4.9973 -1.14452,5.94342 -9.41809,7.37778 -11.48509,1.99127 z M 219.36399,97.762233 c 0.86195,-2.24625 1.5672,-5.150927 1.5672,-6.454866 0,-3.668386 6.21646,-2.804457 11.77082,1.63586 4.8696,3.892798 4.84659,3.961073 -0.81021,2.403908 -3.98699,-1.097543 -6.31205,-0.325691 -7.3766,2.448258 -0.855,2.228027 -2.71644,4.050947 -4.13646,4.050947 -1.42009,0 -1.87673,-1.83786 -1.01475,-4.084107 z m 35.55714,-1.688038 c -4.07008,-4.07013 1.11955,-9.719545 8.92853,-9.719545 7.69954,0 7.68866,2.629474 -0.0366,8.237978 -4.42627,3.214465 -6.77075,3.605015 -8.89426,1.481567 z M 212.32471,92.37916 c -2.72161,-2.721628 -2.00737,-6.02451 1.30283,-6.02451 1.66322,0 5.15604,-1.929343 7.76167,-4.287431 7.53996,-6.823588 8.31093,-2.13427 0.8721,5.304552 -7.42907,7.429075 -7.48621,7.457842 -9.9366,5.007389 z M 178.61859,64.231787 c -0.78023,-2.0332 -0.29352,-3.69672 1.0823,-3.69672 1.37552,0 2.50097,-2.323764 2.50097,-5.163948 0,-5.427868 4.06684,-6.597943 9.95798,-2.865143 2.44204,1.547368 2.63754,2.754628 0.64553,3.985744 -1.57174,0.971371 -2.85766,3.774084 -2.85766,6.228194 0,5.463584 -9.33463,6.70934 -11.32912,1.511873 z m 47.4765,-7.417302 c 0,-5.326426 1.25125,-6.607239 6.45487,-6.607239 3.55019,0 6.45494,1.12536 6.45494,2.500879 0,1.375522 -1.74285,1.832148 -3.87297,1.014772 -2.41473,-0.926653 -3.87295,0.02197 -3.87295,2.510613 0,2.198243 -1.16187,4.714855 -2.58191,5.592544 -1.46437,0.904984 -2.58198,-1.2642 -2.58198,-5.011569 z M 93.124307,123.7989 c -2.840154,-2.03652 -6.492457,-4.83437 -8.116223,-6.21751 -2.92787,-2.49401 -6.084542,-1.16906 -6.084542,2.5538 0,1.91631 11.799373,7.00985 16.782712,7.24479 1.420082,0.0658 0.258137,-1.54452 -2.581947,-3.58108 z M 62.914302,88.418589 74.015594,73.082646 62.914302,63.041802 C 56.808567,57.519374 51.02617,52.953311 50.064498,52.89505 46.968553,52.707676 32.705334,71.581096 25.403753,85.52696 c -5.623003,10.739794 -6.431755,14.203693 -3.905975,16.72947 4.94732,4.9473 11.406945,-5.005574 7.783189,-11.992157 -2.264727,-4.366464 -1.539024,-4.165269 4.524251,1.25425 3.971911,3.550195 6.1965,4.712084 4.943537,2.581969 -2.596762,-4.414635 -4.263434,-12.909781 -2.532793,-12.909781 0.634334,0 4.112654,1.348366 7.729666,2.99637 7.671369,3.495302 8.892211,8.539364 1.60565,6.633878 -3.487069,-0.911942 -4.560617,-0.231279 -3.5967,2.280797 0.755725,1.969387 2.41162,3.580717 3.679762,3.580717 1.268144,0 2.305713,1.16189 2.305713,2.58189 0,1.420097 -1.645992,2.581977 -3.657768,2.581977 -2.011779,0 -4.243811,1.45237 -4.960078,3.22743 -0.746657,1.85044 -1.389273,1.20784 -1.506142,-1.50608 -0.112132,-2.60348 -1.583569,-4.273687 -3.26991,-3.711587 -6.317521,2.105797 -4.560442,6.447317 3.628808,8.966207 6.732321,2.07083 9.004815,1.81788 11.056071,-1.23061 1.420077,-2.11049 7.577533,-10.738398 13.683268,-19.173111 z m -18.86151,-9.825664 c -2.578183,-2.848893 -4.028117,-5.839269 -3.222065,-6.645304 2.345732,-2.345713 17.764902,6.623935 16.078214,9.353017 -2.463917,3.98677 -7.818307,2.858993 -12.856149,-2.707713 z m 6.46922,-7.67625 c -3.406509,-2.15403 -3.358617,-2.963502 0.397712,-6.720824 4.898072,-4.899368 8.706336,-3.455416 10.667697,4.044807 1.494208,5.713815 -4.11592,7.070596 -11.065424,2.676017 z m 45.904377,25.659827 c 7.331331,-6.668431 8.090401,-8.47504 5.663631,-13.479647 -2.779379,-5.731677 -2.764106,-5.736735 1.86181,-0.61553 3.68919,4.084478 7.28349,4.997157 17.19384,4.366177 6.89129,-0.438399 17.63279,0.941 23.86999,3.066194 l 11.34032,3.864112 7.6232,-11.079914 7.62308,-11.079911 -12.12842,-5.461246 C 134.59015,54.951963 111.28736,52.886856 96.860315,60.608036 c -4.208937,2.252547 -4.614196,3.714725 -2.335423,8.426433 2.665315,5.511009 2.622751,5.533112 -1.276928,0.663098 -3.916296,-4.89044 -4.372992,-4.704979 -15.634159,6.346983 -6.38003,6.261559 -11.570291,12.014102 -11.533931,12.783459 0.07361,1.553748 18.547476,15.396911 20.589545,15.428381 0.709996,0.0145 5.100685,-3.44532 9.75697,-7.68056 z M 75.266078,92.439975 c -2.623693,-6.837266 0.769565,-7.53879 6.884914,-1.423451 l 5.665959,5.665949 h -5.46145 c -3.003792,0 -6.194023,-1.909142 -7.089423,-4.242498 z m 15.051638,-5.14001 c 0.925846,-2.412758 -0.864388,-3.621917 -5.665798,-3.826844 -4.370083,-0.186642 -5.313998,-0.74514 -2.500926,-1.480253 2.539182,-0.66383 4.535728,-3.642564 4.557945,-6.800908 0.02186,-3.101256 0.889711,-4.424146 1.936485,-2.951732 3.412139,4.799764 9.505174,2.637526 12.976338,-4.604771 4.88447,-10.191104 12.16377,-9.416906 12.13806,1.290986 -0.0164,7.353696 -0.86728,8.3913 -6.87097,8.3913 -8.836688,0 -11.463099,2.741314 -7.361429,7.683484 3.643189,4.389823 3.675709,4.353027 -4.610259,5.210214 -4.120513,0.425957 -5.536341,-0.469871 -4.599446,-2.911476 z m 58.400244,0.718713 c -0.0439,-1.21508 2.82314,-5.661258 6.37331,-9.880405 3.55019,-4.219218 6.45486,-6.485016 6.45486,-5.035137 0,3.229409 -12.71377,18.011968 -12.82817,14.915542 z M 135.99758,76.533524 c -2.86927,-5.361188 0.46108,-13.334879 3.50907,-8.402502 1.31864,2.133615 2.79112,2.196558 5.17133,0.22104 2.50028,-2.075136 3.6692,-1.455879 4.70117,2.490348 0.90336,3.454683 -0.25622,6.124183 -3.38787,7.800299 -6.40837,3.429641 -7.10837,3.281875 -9.9937,-2.109401 z m -17.40437,-6.943985 c -0.89429,-2.330497 -0.38796,-5.475368 1.12525,-6.988559 3.9339,-3.933925 11.38747,-0.338133 10.3599,4.99737 -1.14458,5.943343 -9.41812,7.377702 -11.48515,1.991189 z M 86.706553,64.380947 c 9.782511,-7.217274 22.950337,-11.555279 35.142017,-11.577016 6.69961,-0.01455 8.33187,-1.219114 9.6202,-7.114809 0.85335,-3.905164 2.23351,-9.475606 3.06693,-12.378658 1.27472,-4.439958 0.36152,-5.26012 -5.74722,-5.163873 -5.56303,0.08782 -7.26267,-1.08584 -7.26267,-5.014203 0,-6.555494 8.94229,-8.479861 13.08401,-2.815666 2.7402,3.74744 3.29565,3.446853 4.81477,-2.605833 0.94451,-3.763103 1.04155,-7.517642 0.21585,-8.3435133 C 136.60507,6.3319967 108.10179,14.248448 90.542488,23.00387 80.601964,27.960395 67.821266,36.0536 62.140973,40.988611 l -10.32784,8.972864 11.618802,10.340776 c 6.390349,5.687468 12.264501,10.390317 13.053678,10.450924 0.789146,0.0585 5.388637,-2.806956 10.221068,-6.372228 z m -15.9588,-5.947366 c -3.633277,-3.695842 -3.794808,-5.32621 -1.037982,-10.477348 2.722644,-5.087317 3.530983,-5.406933 4.867304,-1.924585 0.881337,2.296756 3.38173,4.175963 5.556417,4.175963 4.717013,0 5.194277,5.472733 0.855602,9.811398 -3.930185,3.930194 -4.978524,3.767932 -10.241341,-1.585428 z M 81.599351,43.865755 c -3.870704,-4.663914 -1.38498,-9.14991 5.070068,-9.14991 2.672527,0 5.608661,1.212748 6.524773,2.695049 1.71206,2.770144 -3.043253,10.214743 -6.524773,10.214743 -1.072335,0 -3.353851,-1.691915 -5.070068,-3.759882 z M 104.3626,43.314641 c -4.833884,-1.283888 -7.65005,-9.124591 -4.88454,-13.599312 1.36936,-2.215586 2.54296,-2.12249 4.53146,0.35936 2.61812,3.267976 7.05559,15.264517 5.426,14.668973 -0.45068,-0.164663 -2.73352,-0.807938 -5.07292,-1.429314 z m 6.55915,-10.101153 c 0.86199,-2.246255 1.56724,-7.087435 1.56724,-10.758175 0,-8.864398 1.49404,-6.750764 3.64739,5.15992 1.44418,7.98818 1.00403,9.682365 -2.51567,9.682365 -2.82942,0 -3.73837,-1.375448 -2.69896,-4.08411 z m 45.20311,-4.307266 c 0.24881,-19.3354513 0.0512,-20.0101853 -5.78885,-20.0101853 -4.89686,0 -6.64594,2.0858253 -9.20141,10.9733513 -6.29394,21.888809 -6.29377,21.995153 0.0221,14.846237 l 5.7002,-6.454859 -1.65555,6.454859 c -0.91053,3.550195 -1.67134,7.404565 -1.69072,8.565346 -0.0221,1.160784 -2.35905,1.37296 -5.19917,0.471343 -4.21176,-1.336732 -5.16395,-0.464022 -5.16395,4.733444 0,5.228647 1.73774,6.789997 9.68237,8.699212 11.90388,2.860678 12.92531,0.688714 13.29791,-28.278893 z m -7.20688,8.065027 c 1.15077,-7.279852 2.72009,-13.863818 3.48732,-14.631062 1.8937,-1.893702 1.76349,9.887368 -0.21888,19.798595 -2.69316,13.465884 -5.51013,9.012389 -3.26857,-5.167533 z m 14.4734,13.456297 c 2.47117,-3.956907 2.33746,-5.566123 -0.66968,-8.062024 -3.01188,-2.499636 -3.75725,-2.329105 -3.75725,0.859607 0,2.187849 -0.70554,5.81577 -1.56728,8.062027 -2.20305,5.74119 2.27307,5.099318 5.99444,-0.85961 z m 38.70479,-15.880693 5.69369,-12.956857 -6.54729,-2.489317 c -12.93226,-4.916786 -29.44356,-8.205329 -34.52554,-6.876354 -2.84794,0.744774 -4.52689,0.300806 -3.73104,-0.987106 0.7958,-1.2876223 0.21667,-2.3411823 -1.28747,-2.3411823 -1.50382,0 -2.73428,2.3923413 -2.73428,5.3163283 0,2.923916 1.16189,4.598193 2.58189,3.720506 1.42012,-0.877612 2.58197,-0.365213 2.58197,1.138609 0,1.503893 -1.45236,2.752135 -3.22741,2.773874 -2.37296,0.02928 -2.43464,0.543798 -0.2326,1.94486 1.64698,1.047925 3.38974,5.378758 3.87297,9.62396 0.8071,7.091752 1.89493,7.862948 13.39509,9.496023 6.88418,0.977589 13.17772,2.438374 13.9856,3.246312 2.95713,2.957068 4.59505,1.088254 10.17486,-11.609656 z m -33.49208,-1.37984 c -2.74797,-2.747968 3.74105,-13.464056 8.98316,-14.834892 4.2963,-1.123532 4.83988,-0.357166 3.50906,4.945035 -0.93835,3.738511 -0.44936,6.274521 1.20874,6.274521 1.5309,0 2.06541,1.161882 1.1878,2.581974 -1.733,2.803957 -12.37927,3.542877 -14.88876,1.033362 z m 20.48298,-0.172737 c -3.05656,-3.056458 -1.82856,-10.594813 1.96285,-12.049744 5.72963,-2.198609 10.62723,5.098149 6.64363,9.898125 -3.49759,4.214314 -5.93457,4.823617 -8.60648,2.151619 z"
       id="path1"
       sodipodi:nodetypes="ssssssssssccsscsssssssssssssssssssscccsssssssssssssssscssssssssssssscssssscsscssssssssssssssssssssscsscssscscsssssssssssscccsccsssssssssscssssssscssssscsssccsssssssssssssssssssssssssssscsssssssssscsscscsccsssssssscscccssssssssscsssscccsssssssssssssssssssssccscssccccssccsssssssssssssssssssssssssssssscssssssssssssssscsssssssssssssssssscsssssssssssccsssssssscsccssccssssssscssscsssssscssscscsssccsssssssssscssssssssssssssssssssssssssssssssssssssscscscsssssscsssssssscsccsscsssssssssssssssssssssssssssssssssssssssscsssssssssssssssssssssssssssssssscssccsssssssssssssssssssscsssssssssscssssscsssssssssssssssssscsssscssscsssssscssscsssssssssccsssscsssscsssssssssssscsssccssscccsscscscssssssssssssscsssssssscsssssssssscsssscccscssssssssssscssssssscssssscssssssssssssscscscccssscssssccssssssssssssssscssccssssssssssssssssssssssscsscssssssssssssssssssssssssssssscsccscccssscsscccsscsssscsssssscscssccssssccssssscssssssssscscssssssssssssscscsccssssscssscsccssccssssssssssccssssssscssssscssssssssss" /></g></svg>
