<?xml version="1.0" encoding="utf-8"?>
<!-- Generator: Adobe Illustrator 24.0.0, SVG Export Plug-In . SVG Version: 6.00 Build 0)  -->
<svg version="1.1" id="Layer_1" xmlns="http://www.w3.org/2000/svg" xmlns:xlink="http://www.w3.org/1999/xlink" x="0px" y="0px"
	 viewBox="0 0 16.4 16" style="enable-background:new 0 0 16.4 16;" xml:space="preserve">
<style type="text/css">
	.st0{fill-rule:evenodd;clip-rule:evenodd;fill:#181616;}
	.st1{fill:#181616;}
</style>
<title>github_logo</title>
<g>
	<path class="st0" d="M8.2,0C3.7,0,0,3.7,0,8.2c0,3.5,2.3,6.7,5.6,7.8C6,16,6.2,15.8,6.2,15.6c0-0.2,0-0.8,0-1.5
		c-2.3,0.5-2.8-1-2.8-1c-0.4-0.9-0.9-1.2-0.9-1.2c-0.7-0.5,0.1-0.5,0.1-0.5c0.8,0.1,1.3,0.8,1.3,0.8c0.7,1.3,1.9,0.9,2.4,0.7
		c0.1-0.5,0.3-0.9,0.5-1.1C4.9,11.6,3,10.9,3,7.8c0-0.8,0.3-1.6,0.8-2.2c-0.1-0.2-0.4-1,0.1-2.2c0,0,0.7-0.2,2.3,0.8
		c1.3-0.4,2.8-0.4,4.1,0c1.6-1.1,2.3-0.8,2.3-0.8c0.4,1.1,0.2,2,0.1,2.2c0.6,0.6,0.9,1.4,0.8,2.2c0,3.1-1.9,3.8-3.7,4
		c0.3,0.3,0.6,0.8,0.6,1.5c0,1.1,0,2,0,2.2c0,0.2,0.1,0.5,0.6,0.4c4.3-1.4,6.6-6.1,5.2-10.4C14.9,2.3,11.7,0,8.2,0L8.2,0z"/>
	<path class="st1" d="M3.1,11.8c0,0-0.1,0.1-0.1,0c-0.1,0-0.1-0.1-0.1-0.1s0.1-0.1,0.1,0C3.1,11.7,3.1,11.7,3.1,11.8L3.1,11.8z"/>
	<path class="st1" d="M3.5,12.1c0,0-0.1,0-0.2,0c-0.1-0.1-0.1-0.1,0-0.2c0,0,0.1,0,0.2,0C3.5,12,3.5,12.1,3.5,12.1z"/>
	<path class="st1" d="M3.8,12.6c-0.1,0-0.1,0-0.2-0.1s-0.1-0.2,0-0.2s0.1,0,0.2,0.1C3.8,12.5,3.8,12.6,3.8,12.6z"/>
	<path class="st1" d="M4.2,13.1c0,0.1-0.1,0-0.2,0s-0.1-0.2,0-0.2s0.1,0,0.2,0C4.2,12.9,4.3,13,4.2,13.1L4.2,13.1z"/>
	<path class="st1" d="M4.8,13.3c0,0.1-0.1,0.1-0.2,0.1c-0.1,0-0.2-0.1-0.1-0.2c0-0.1,0.1-0.1,0.2-0.1C4.8,13.2,4.8,13.3,4.8,13.3
		L4.8,13.3z"/>
	<path class="st1" d="M5.5,13.4c0,0.1-0.1,0.1-0.2,0.1c-0.1,0-0.2-0.1-0.2-0.1s0.1-0.1,0.2-0.1C5.4,13.3,5.5,13.3,5.5,13.4L5.5,13.4
		z"/>
	<path class="st1" d="M6.1,13.3c0,0.1-0.1,0.1-0.2,0.2c-0.1,0-0.2,0-0.2-0.1c0-0.1,0.1-0.1,0.2-0.2C6,13.2,6.1,13.2,6.1,13.3
		L6.1,13.3z"/>
</g>
</svg>
