<?xml version="1.0" encoding="utf-8"?>
<!-- Generator: Adobe Illustrator 24.0.1, SVG Export Plug-In . SVG Version: 6.00 Build 0)  -->
<svg version="1.1" id="Layer_1" xmlns="http://www.w3.org/2000/svg" xmlns:xlink="http://www.w3.org/1999/xlink" x="0px" y="0px"
	 viewBox="0 0 362.5 173.3" style="enable-background:new 0 0 362.5 173.3;" xml:space="preserve">
<g>
	<g>
		<g>
			<path d="M360,75.9V54.2h-82.5v79.9c-0.4-9.4-3.9-16.6-10.3-21.7c-4.5-3.5-11.2-6.4-20.2-8.5l-20.5-4.8
				c-7.9-1.8-13.1-3.5-15.5-4.8c-2.2-1.2-3.8-2.8-4.7-4.7l0,0c0,0,0,0,0,0l0,0c-0.6-1.3-1-2.9-1-4.6c0-3.6,1.2-6.6,3.8-9
				c0,0,0,0,0,0c0.1-0.1,0.1-0.1,0.2-0.2l0,0c0,0,0,0,0,0c0.6-0.5,1.2-1,1.8-1.4c3.8-2.5,9-3.8,15.4-3.8c5.8,0,10.6,1,14.5,2.9
				c5.8,3,9,7.9,9.4,14.9h23.4c-0.4-12.4-5-21.8-13.8-28.4c-8.8-6.5-19.4-9.8-31.8-9.8c-14.9,0-26.2,3.5-33.9,10.4
				c-4.7,4.2-8,9.2-9.8,14.7h0c-0.4,1.2-0.7,2.5-1,3.7h0c-2.8,13.4-11.5,22.6-26,22.6c-23.2,0-31.9-19.7-31.9-39.3
				c0-20.5,8.7-40.2,31.9-40.2c12.8,0,24,8.9,25.6,20.5h25c-3.1-27.1-24.8-42.2-50.6-42.2c-34.6,0-55.6,24.7-57.5,57.2V3.3H74.3v73
				c0,17.4-5.9,25.5-24.3,25.5c-20.9,0-24.2-12.7-24.2-25.5v-73H0v73c0,31.9,18.4,47.2,50,47.2c31.4,0,50.1-15.4,50.1-47.2v-9.1
				c1.9,31.6,22.9,56.3,57.5,56.3c14.2,0,26.4-4.6,35.3-12.8c0.6,0.4,1.1,0.9,1.7,1.3c4.6,3.2,13.2,6.2,25.6,8.9l12.6,2.8
				c7.4,1.6,12.8,3.4,16.2,5.5c3.4,2.1,5.1,5.1,5.1,8.9c0,6.6-3.5,11.1-10.4,13.5c-3.7,1.3-8.4,1.9-14.3,1.9
				c-9.8,0-16.7-2.4-20.8-7.2c-2.2-2.6-3.7-6.6-4.4-11.9h-23.3c0,12.1,4.4,21.7,13.2,28.6c8.8,6.9,20.9,10.4,36.2,10.4
				c15,0,26.7-3.5,34.9-10.6c7.6-6.5,11.7-14.5,12.3-24v32.8h25.8V123h49.1v-20h-49.1V75.9H360z"/>
		</g>
	</g>
</g>
</svg>
