<?xml version="1.0" encoding="UTF-8" standalone="no"?>
<!-- Created with Inkscape (http://www.inkscape.org/) -->

<svg
   width="210mm"
   height="297mm"
   viewBox="0 0 210 297"
   version="1.1"
   id="svg1"
   xml:space="preserve"
   inkscape:version="1.3.2 (091e20e, 2023-11-25)"
   sodipodi:docname="forth_logo.svg"
   xmlns:inkscape="http://www.inkscape.org/namespaces/inkscape"
   xmlns:sodipodi="http://sodipodi.sourceforge.net/DTD/sodipodi-0.dtd"
   xmlns="http://www.w3.org/2000/svg"
   xmlns:svg="http://www.w3.org/2000/svg"><sodipodi:namedview
     id="namedview1"
     pagecolor="#ffffff"
     bordercolor="#000000"
     borderopacity="0.25"
     inkscape:showpageshadow="2"
     inkscape:pageopacity="0.0"
     inkscape:pagecheckerboard="0"
     inkscape:deskcolor="#d1d1d1"
     inkscape:document-units="mm"
     inkscape:zoom="0.49564941"
     inkscape:cx="282.45772"
     inkscape:cy="630.48597"
     inkscape:window-width="1512"
     inkscape:window-height="844"
     inkscape:window-x="0"
     inkscape:window-y="38"
     inkscape:window-maximized="1"
     inkscape:current-layer="layer1" /><defs
     id="defs1" /><g
     inkscape:label="Layer 1"
     inkscape:groupmode="layer"
     id="layer1"><path
       style="fill:#332576;fill-opacity:1;stroke-width:2.66511;stroke-dasharray:none"
       d="M 96.678218,141.77742 C 84.807948,140.02977 75.899588,135.08846 66.329336,124.94349 54.190277,112.07547 49.996088,96.148876 53.898079,77.738295 58.602797,55.540239 79.236328,37.180828 100.95552,35.867273 c 15.71981,-0.950699 31.05365,4.729432 41.81309,15.488871 12.3549,12.354909 18.05734,29.052328 15.94583,46.691306 -2.54679,21.27523 -20.37107,39.34068 -42.74934,43.32772 -8.26964,1.47338 -11.54741,1.54174 -19.286882,0.40225 z m 18.576122,-2.17572 c 0.16844,-0.16844 -0.17323,-2.37907 -0.75929,-4.91274 l -1.06535,-4.60668 -8.74995,-0.0935 c -7.894182,-0.0845 -8.796302,0.0837 -9.224102,1.71961 -0.35446,1.35542 -0.102,1.67041 0.99996,1.24756 0.81078,-0.31112 2.25738,-0.31709 3.21466,-0.0133 1.622872,0.51509 1.641952,0.74306 0.2825,3.37195 -1.4004,2.70811 -3.57067,3.26317 -3.81574,0.97594 -0.0646,-0.6033 -0.17688,-1.62577 -0.24945,-2.27214 -0.18928,-1.68624 -1.95077,1.20908 -1.96912,3.23662 -0.0107,1.18323 1.0102,1.69784 3.98143,2.00686 3.968412,0.41275 16.768472,-0.0741 17.354452,-0.6601 z m -12.88852,-3.30757 c 0,-3.23974 2.37966,-4.56161 3.71618,-2.06432 0.69445,1.29762 0.50427,2.10715 -0.76483,3.25568 -2.3783,2.15232 -2.95135,1.92099 -2.95135,-1.19136 z m 6.06951,0.0541 c 0.1154,-1.46626 0.51159,-3.1544 0.88058,-3.75141 1.07582,-1.74072 2.92192,0.60794 2.92192,3.71735 0,2.12961 -0.42378,2.7 -2.00611,2.7 -1.62567,0 -1.96635,-0.50557 -1.79639,-2.66594 z m -14.519082,-2.08577 c 0.62696,-2.61346 0.98647,-4.88833 0.79892,-5.05527 -0.18754,-0.16683 -2.7923,-1.45286 -5.78833,-2.85759 -2.99603,-1.40475 -7.95166,-4.87265 -11.0125,-7.70644 l -5.56517,-5.15239 -4.321603,2.97334 -4.321599,2.97336 2.24991,2.97195 c 4.731032,6.24932 20.376662,16.31284 25.738992,16.55574 0.5948,0.0269 1.59443,-2.08926 2.22138,-4.7027 z m -6.21745,-2.29973 c 0,-2.38967 0.4119,-3.29069 1.50431,-3.29069 2.62751,0 3.73371,1.85132 2.59696,4.34621 -1.60626,3.52536 -4.10127,2.88323 -4.10127,-1.05552 z m -6.69591,0.35553 c -1.44439,-1.44439 -0.43957,-3.64622 1.66397,-3.64622 2.12172,0 2.96703,1.22742 2.20784,3.20584 -0.66987,1.74565 -2.37284,1.93935 -3.87181,0.44038 z m -7.15626,-3.33281 c -0.34474,-0.34473 -0.6268,-1.40246 -0.6268,-2.35049 0,-1.56664 1.04601,-2.17298 3.12551,-1.81172 0.42627,0.0741 0.55996,-0.21348 0.29709,-0.6387 -0.26286,-0.42535 -0.11503,-1.36056 0.32855,-2.07828 0.66698,-1.07918 1.06288,-1.09216 2.28845,-0.0749 1.94701,1.61589 1.88079,2.12341 -0.66342,5.08429 -2.1421,2.49292 -3.56584,3.05348 -4.74938,1.86993 z m -5.327765,-7.83495 c 0,-0.51711 0.63463,-0.9402 1.410291,-0.9402 0.775664,0 1.410294,-0.60964 1.410294,-1.35478 0,-0.74514 0.42308,-1.61629 0.94019,-1.93589 0.54853,-0.339 0.94019,0.61703 0.94019,2.29501 0,2.441 -0.35555,2.87606 -2.35048,2.87606 -1.292768,0 -2.350485,-0.42309 -2.350485,-0.9402 z m 60.645877,14.01474 c 3.10452,-1.51935 6.9123,-3.78465 8.46174,-5.03392 3.17807,-2.56243 3.47765,-2.04966 -4.49845,-7.69917 l -3.5548,-2.51789 -2.55644,2.40223 c -2.81779,2.64784 -9.37461,6.35555 -11.23931,6.35555 -1.44964,0 -1.50316,2.12209 -0.1743,6.908 0.98262,3.53876 1.0795,3.60355 4.46068,2.98253 1.90094,-0.34916 5.99629,-1.87795 9.10083,-3.39733 z m -11.84139,1.39537 c -1.7093,-2.0596 1.21356,-4.98245 3.27316,-3.27313 1.55235,1.28834 1.12127,3.4348 -0.84108,4.18783 -0.69787,0.26779 -1.79229,-0.14392 -2.43208,-0.9147 z m 4.47313,-3.81439 c -0.8857,-0.88569 -0.78107,-4.07418 0.13378,-4.07418 1.6391,0 4.19106,2.5947 3.55852,3.61816 -0.73696,1.19239 -2.71192,1.43633 -3.69222,0.45602 z m 6.25004,-0.54845 c -1.1322,-1.76081 -3.11608,-5.57038 -3.11608,-5.98366 0,-0.19935 0.67139,-0.36264 1.49195,-0.36264 0.82059,0 1.97107,1.26926 2.55662,2.82057 0.58555,1.55133 1.39498,2.82059 1.79871,2.82059 0.40374,0 0.73408,0.42309 0.73408,0.9402 0,1.33941 -2.56477,1.16546 -3.46528,-0.23506 z m 5.02123,-3.01504 c -0.3062,-0.79797 -1.11463,-1.45087 -1.79647,-1.45087 -0.68185,0 -1.30346,-0.84617 -1.38136,-1.88039 -0.0965,-1.28222 0.43793,-1.88037 1.6803,-1.88037 1.00209,0 1.82195,0.35843 1.82195,0.79649 0,0.43809 0.8792,1.18883 1.95375,1.66831 1.93575,0.86376 1.93681,0.88706 0.1162,2.53474 -1.61434,1.46096 -1.90522,1.4867 -2.39432,0.21214 z m -13.29687,-3.26677 c 4.27247,-2.10333 7.67188,-4.79281 11.70193,-9.25804 6.0682,-6.7235 6.6206,-8.0289 4.0348,-9.53501 -0.90494,-0.52708 -1.14144,-0.97117 -0.52559,-0.98689 0.61588,-0.016 1.38125,0.39449 1.70085,0.9116 1.18382,1.91545 2.30756,0.788 5.3262,-5.34374 2.36329,-4.80051 3.18098,-7.830638 3.4638,-12.836042 l 0.37024,-6.55213 -4.4763,0.613536 c -2.46198,0.337457 -5.15766,0.616414 -5.9904,0.619905 -1.17745,0.0053 -1.57061,1.159858 -1.76812,5.193988 -0.13965,2.853164 -0.91957,7.148022 -1.73305,9.54412 -1.35419,3.988663 -1.35092,4.428273 0.0387,5.205953 0.83477,0.46717 1.29045,1.21724 1.01258,1.66684 -0.27786,0.44958 -0.0751,1.08319 0.45033,1.40798 1.2352,0.76343 1.24828,5.18053 0.016,5.18053 -0.51711,0 -0.9402,-0.42308 -0.9402,-0.94017 0,-0.51711 -0.84618,-0.9402 -1.8804,-0.9402 -2.25317,0 -2.63814,-3.52901 -0.47548,-4.3589 0.77269,-0.29649 1.16305,-0.93039 0.86747,-1.40865 -0.29559,-0.47825 -2.89296,1.28326 -5.77192,3.9145 -5.93612,5.42526 -14.27475,9.9776 -19.9338,10.88251 l -3.83225,0.61279 v 5.17962 5.17963 l 6.16174,-0.49462 c 4.26397,-0.34226 8.01643,-1.40766 12.18355,-3.45911 z m -16.76386,0.5125 c -0.29455,-0.76763 -0.0304,-1.60237 0.58686,-1.85497 0.82509,-0.33759 0.7792,-0.6994 -0.17323,-1.3659 -0.71265,-0.49867 -1.00499,-1.37706 -0.64968,-1.95198 0.94007,-1.52101 4.00471,-1.27973 4.63584,0.36499 0.29766,0.77565 0.13645,1.4103 -0.35841,1.4103 -0.49478,0 -0.79881,0.9346 -0.67563,2.07689 0.25931,2.40492 -2.52968,3.49932 -3.36569,1.32067 z m 6.15447,-2.45736 c -0.69853,-2.75205 -0.66617,-3.75936 0.12073,-3.75547 0.60285,0.003 1.13728,1.65533 1.21638,3.76077 0.0776,2.06549 0.024,3.75546 -0.12073,3.75546 -0.14391,0 -0.69135,-1.69234 -1.21638,-3.76076 z m 3.77953,-0.7093 c -1.31275,-2.78174 -0.19695,-4.80349 1.51365,-2.74243 0.65677,0.79136 0.81108,2.11784 0.38149,3.27919 -0.69261,1.87227 -0.76838,1.85081 -1.89514,-0.53676 z m 4.96343,-0.27211 c 0.33359,-0.53973 0.0951,-1.59747 -0.52972,-2.35047 -1.42144,-1.71271 0.39622,-4.35253 2.4534,-3.56309 0.81896,0.31424 1.34154,-0.0738 1.34154,-0.99609 0,-1.98111 1.5411,-1.91425 4.20669,0.18256 1.75967,1.38415 1.94922,1.97184 1.03791,3.2181 -1.02077,1.39599 -1.19507,1.39761 -2.06453,0.0187 -0.58931,-0.93428 -1.56651,-1.26875 -2.57549,-0.88156 -1.2763,0.48977 -1.41869,1.01098 -0.66234,2.42424 0.74117,1.3849 0.62431,1.93053 -0.50645,2.36443 -2.22803,0.855 -3.37755,0.6774 -2.70101,-0.4173 z m 9.2488,-8.88434 c -0.32565,-0.84863 -0.14125,-1.9938 0.40973,-2.54481 1.4325,-1.4325 4.14665,-0.12313 3.77247,1.81974 -0.41679,2.1642 -3.42952,2.68651 -4.1822,0.72507 z m 7.52266,-10.2705 c -1.4817,-1.30292 -2.27092,-2.36827 -1.75384,-2.36742 1.31132,0.002 5.54709,3.63719 4.94265,4.24161 -0.27214,0.27214 -1.70712,-0.57124 -3.18881,-1.87419 z m 0.92511,-3.80858 c 0.2913,-0.759104 0.0474,-1.678248 -0.54216,-2.04257 -0.70239,-0.434093 -0.44521,-0.891827 0.7462,-1.328079 1.1153,-0.408376 2.43802,-0.122062 3.42209,0.740688 1.36651,1.198049 1.41126,1.599175 0.3022,2.708261 -1.7653,1.76529 -4.61401,1.70853 -3.92833,-0.0784 z m 2.51811,-5.639941 c -0.93151,-1.122412 -0.94753,-1.741492 -0.0725,-2.796024 1.52823,-1.841381 3.97333,-0.737251 3.62183,1.635474 -0.36514,2.464697 -2.01847,3.005262 -3.54945,1.16055 z m -1.27958,-4.888991 c -0.34473,-0.344733 -0.62678,-1.564662 -0.62678,-2.710981 0,-2.787816 4.3455,-3.784116 5.67443,-1.300976 1.27813,2.388182 1.13081,3.045453 -0.53897,2.404706 -0.82272,-0.315709 -1.67649,0.04611 -1.98098,0.839618 -0.57326,1.493903 -1.51533,1.780003 -2.5277,0.767633 z M 100.48542,123.501 c 0,-2.84411 -0.38846,-5.17107 -0.863282,-5.17107 -0.47482,0 -1.54984,-0.26331 -2.38894,-0.58545 -0.8391,-0.322 -1.42134,-0.21614 -1.29388,0.23507 0.37217,1.3176 -3.23965,7.51695 -3.65807,6.27871 -0.20873,-0.61769 0.071,-1.96493 0.62166,-2.9938 1.81319,-3.38797 0.97104,-3.45879 -1.85239,-0.15564 -3.09062,3.61562 -2.81958,4.28563 2.50079,6.18208 6.453192,2.30023 6.934112,2.03739 6.934112,-3.78982 z m -3.844412,-0.15778 c 0.3083,-1.89668 1.15203,-3.64569 1.87495,-3.88664 0.97948,-0.3265 1.16159,0.13299 0.71459,1.80316 -0.32991,1.23272 -0.60561,2.9817 -0.61267,3.88664 -0.007,0.90494 -0.58087,1.64534 -1.27512,1.64534 -0.92871,0 -1.11416,-0.91134 -0.70175,-3.4485 z m 45.553932,2.89783 c 1.62636,-0.62409 9.5458,-10.56016 8.91758,-11.18836 -0.22494,-0.22493 -1.37811,-0.15537 -2.56275,0.15431 -1.66538,0.43551 -1.86928,0.76699 -0.89913,1.46168 0.878,0.62868 0.69013,0.69299 -0.62566,0.21401 -1.0342,-0.37637 -2.65701,-0.65141 -3.60622,-0.61116 -1.09667,0.0464 -1.54435,-0.39972 -1.22806,-1.22401 0.27379,-0.71345 -0.008,-1.47812 -0.62465,-1.6993 -0.61732,-0.22121 -0.81832,-0.72891 -0.44662,-1.12828 0.37171,-0.39939 1.77182,-0.008 3.11139,0.86965 1.33957,0.87773 3.15088,1.44037 4.02515,1.25029 1.04086,-0.22627 -0.10341,-1.22001 -3.31516,-2.87878 -2.69763,-1.39326 -5.04968,-2.53321 -5.2268,-2.53321 -0.17723,0 -2.31129,2.30415 -4.74262,5.12035 l -4.42057,5.12032 4.94639,3.79616 c 2.72053,2.08788 5.01759,3.80304 5.10458,3.81149 0.0869,0.008 0.8039,-0.2324 1.59315,-0.53532 z m -3.39664,-3.31841 c -3.8816,-2.89599 -3.10989,-4.01049 1.09947,-1.5879 2.02677,1.16647 3.48259,2.44836 3.23518,2.84866 -0.67686,1.0952 -1.49635,0.85686 -4.33465,-1.26076 z m 0.88805,-3.75706 c -1.32368,-0.77004 -1.45843,-1.2755 -0.61194,-2.29547 0.91947,-1.10791 1.42632,-1.06034 3.31327,0.31094 1.22526,0.89042 2.24102,1.93623 2.25727,2.32406 0.0426,1.02007 -2.97693,0.81329 -4.9586,-0.33953 z m -49.784852,2.02735 c 3.47163,-4.40242 3.46221,-5.28316 -0.0799,-7.47232 -3.18031,-1.96554 -8.60986,-7.5516 -10.4905,-10.79288 -0.88873,-1.53175 -1.18465,-1.52943 -5.40611,0.0421 -2.45625,0.91445 -4.465918,2.15981 -4.465918,2.76745 0,3.59748 13.932478,18.33044 17.193748,18.18162 0.62701,-0.0285 2.08892,-1.25535 3.24869,-2.72609 z m -4.45916,-1.06863 c -1.0613,-0.75058 -1.11947,-1.11538 -0.23504,-1.47426 0.64638,-0.26225 1.17524,-1.28779 1.17524,-2.27889 0,-2.15656 2.12165,-2.36678 3.77541,-0.37413 0.96982,1.16857 0.87887,1.76628 -0.50069,3.2907 -1.93131,2.13406 -2.28187,2.20365 -4.21491,0.83658 z m -4.43945,-3.78937 c -1.44439,-1.44438 -0.43957,-3.64622 1.66397,-3.64622 2.12172,0 2.96703,1.22742 2.20784,3.20584 -0.66987,1.74565 -2.37284,1.93935 -3.87181,0.44038 z m -5.47756,-6.16835 c 0.12923,-2.4191 2.39547,-4.45932 2.39547,-2.15659 0,0.61554 0.63463,0.8756 1.41029,0.57796 1.50575,-0.57782 1.76025,0.21428 0.8396,2.61357 -0.31388,0.81795 -1.5178,1.48719 -2.67539,1.48719 -1.6899,0 -2.07814,-0.49707 -1.96997,-2.52213 z m -3.3321,-4.42518 c 1.19902,-1.44474 5.72757,-2.61176 5.72757,-1.47602 0,0.39481 -1.3324,1.18232 -2.96088,1.75002 -3.80876,1.32773 -4.0742,1.30145 -2.76669,-0.274 z m -4.217145,9.8179 4.026885,-2.77057 -2.917291,-6.10596 c -1.969437,-4.12206 -3.472468,-6.12393 -4.62599,-6.16127 -1.26465,-0.041 -1.560126,0.4128 -1.136997,1.74597 0.705515,2.22289 -0.386926,2.98472 -3.218272,2.2443 l -2.159416,-0.56469 2.231303,-1.23704 2.231305,-1.23701 -2.350484,-0.0187 c -4.409818,-0.0354 -4.763758,0.97031 -2.393611,6.80193 2.243408,5.51977 4.852565,10.07384 5.771611,10.07384 0.282739,0 2.32617,-1.24677 4.540957,-2.77057 z m -5.221488,-1.06628 c -0.966752,-0.59749 -1.009301,-1.04798 -0.17755,-1.87971 0.601652,-0.60165 0.870165,-1.67699 0.596697,-2.38965 -0.567858,-1.4798 0.49233,-1.66052 2.454925,-0.41845 2.084591,1.31929 2.180479,4.4843 0.151938,5.01479 -0.964998,0.25239 -2.326701,0.10527 -3.026002,-0.32698 z m -3.63766,-6.56751 c 0,-0.37224 0.669231,-0.93359 1.487184,-1.24746 2.231239,-0.85619 5.276833,-0.68669 4.691065,0.26118 -0.637693,1.0318 -6.178249,1.91635 -6.178249,0.98636 z m 44.935825,4.17447 c 0.27072,-5.61832 0.2204,-5.75214 -2.3505,-6.26637 -1.44492,-0.28898 -4.242792,-1.62188 -6.217492,-2.96196 -1.9747,-1.34007 -4.07461,-2.13723 -4.66646,-1.77145 -2.19881,1.35895 -7.00606,1.27054 -8.18543,-0.15057 -0.97421,-1.173854 -0.90869,-1.423681 0.37336,-1.423681 0.85521,0 1.79845,-0.634644 2.0961,-1.410299 0.85838,-2.236883 3.06718,-1.639685 3.73196,1.009039 0.40423,1.610551 0.92106,2.105471 1.54606,1.480471 0.62499,-0.624996 0.27084,-2.318729 -1.0594,-5.066648 -1.09903,-2.270278 -1.99823,-5.475024 -1.99823,-7.121638 0,-2.005952 -0.45562,-2.99383 -1.38079,-2.99383 -0.88531,0 -1.19514,0.590403 -0.86344,1.645335 0.48605,1.54582 0.43714,1.548272 -0.8087,0.04051 -1.25016,-1.513012 -1.41951,-1.513012 -2.9592,0 -1.54475,1.517996 -1.60057,1.471809 -1.03125,-0.853236 0.43248,-1.766171 0.18523,-2.617995 -0.87832,-3.026131 -1.19287,-0.457733 -1.48023,0.152978 -1.48023,3.145261 v 3.713277 l 4.23086,-0.579902 c 2.7574,-0.37794 4.23087,-0.226801 4.23087,0.43404 0,0.557649 -1.79447,1.144027 -3.98771,1.303028 -2.8347,0.20548 -4.074,0.744366 -4.28617,1.863634 -0.46166,2.435488 1.51982,8.81609 3.49551,11.25595 1.75419,2.16634 1.80536,2.17191 3.75426,0.40816 1.08671,-0.98345 2.22598,-1.53795 2.53172,-1.23221 0.30574,0.30574 -0.33148,1.11007 -1.41605,1.78738 -1.08457,0.67734 -1.97193,1.65858 -1.97191,2.1806 3e-5,1.27094 5.53718,5.62254 10.01672,7.87203 8.394742,4.21562 9.185722,3.94341 9.533862,-3.28084 z m -5.860812,1.31644 c -1.37526,-0.76963 -1.45122,-1.1032 -0.40486,-1.77774 1.07576,-0.69349 1.05561,-0.98292 -0.12224,-1.75615 -1.11298,-0.73061 -0.88642,-0.92882 1.07465,-0.9402 2.865672,-0.016 4.214862,2.35196 2.383132,4.1837 -0.8857,0.88569 -1.719322,0.96831 -2.930682,0.29039 z m -6.16359,-2.32062 c -0.003,-0.61754 1.03968,-2.30988 2.3161,-3.76077 3.01839,-3.43091 3.01889,-1.61925 5.7e-4,2.06301 -1.2716,1.55131 -2.3141,2.31532 -2.31667,1.69776 z m -2.45803,-4.2147 c -0.41156,-0.66593 -0.79922,-1.90201 -0.86146,-2.74682 -0.0887,-1.20362 0.41042,-1.39604 2.30597,-0.88908 1.53096,0.40944 2.41914,1.30779 2.41914,2.44684 0,2.10221 -2.77204,2.95532 -3.86365,1.18906 z m -9.42674,-10.639478 c -0.32565,-0.848626 -0.14127,-1.993799 0.40975,-2.544811 1.43248,-1.432472 4.14663,-0.123128 3.77245,1.81974 -0.41679,2.164206 -3.42951,2.686542 -4.1822,0.725071 z m 34.066532,18.520408 c 5.22496,-2.66556 13.54091,-9.36403 13.54091,-10.90714 0,-0.69772 -2.00968,-2.14334 -4.46593,-3.21247 l -4.4659,-1.943909 -3.36399,3.267189 c -2.09649,2.0362 -4.66475,3.4783 -6.81638,3.82745 -3.80623,0.61767 -4.4287,2.07279 -1.63347,3.81844 1.57471,0.9834 1.87317,0.85596 2.22246,-0.94907 0.22201,-1.1468 0.43426,0.0304 0.47192,2.61592 0.0485,3.33765 -0.15645,4.14617 -0.70701,2.78792 -0.42647,-1.05216 -1.45736,-2.47901 -2.29087,-3.17074 -1.35609,-1.12545 -1.51547,-0.80756 -1.51547,3.02264 0,4.23308 0.0288,4.27207 2.61229,3.53114 1.43677,-0.41205 4.32191,-1.62137 6.41144,-2.68737 z m -1.57335,-4.51339 -2.27931,-2.44008 2.2614,0.32464 c 1.49502,0.21454 2.36924,1.04153 2.57962,2.44007 0.40219,2.67354 0.21694,2.65006 -2.56171,-0.32463 z m 4.10436,-1.3207 c 0.36475,-1.39476 0.0288,-1.88037 -1.30063,-1.88037 -0.9858,0 -1.79237,-0.42309 -1.79237,-0.9402 0,-0.96483 3.99607,-1.33168 4.87977,-0.44801 0.80761,0.80761 -0.32075,5.14898 -1.33826,5.14898 -0.51714,0 -0.71897,-0.84618 -0.44851,-1.8804 z m 4.09263,-2.33981 c -0.25159,-0.65551 0.0384,-1.75183 0.64442,-2.43629 0.8922,-1.00776 0.82755,-1.03977 -0.34004,-0.16843 -1.84471,1.37679 -4.19612,-0.005 -3.42566,-2.01211 0.74378,-1.93826 1.3998,-1.89271 5.08291,0.35296 1.88711,1.15062 2.84093,2.35948 2.5205,3.19452 -0.69013,1.79839 -3.90777,2.566 -4.48213,1.06927 z m 31.19774,5.61337 c -0.16817,-0.50067 -0.79743,-0.79735 -1.39862,-0.6593 -0.66985,0.15378 -0.90041,-0.48569 -0.5955,-1.65173 0.58646,-2.24253 -0.8684,-2.50936 -2.56117,-0.4697 -1.30068,1.56725 -1.29479,1.58004 1.42917,3.09897 2.12718,1.18619 3.58143,1.03814 3.12612,-0.31824 z m -8.59323,-3.62909 c -0.27347,-0.71265 -0.024,-1.77035 0.55754,-2.35047 0.77955,-0.77957 0.54131,-1.05477 -0.91307,-1.05477 -2.54542,0 -3.5043,2.49497 -1.42482,3.70731 2.15053,1.25377 2.3635,1.21763 1.78035,-0.30207 z m 9.54766,-4.17127 c -1.48828,-0.16284 -2.46142,-0.69165 -2.16255,-1.17527 0.29889,-0.48361 0.0704,-0.87927 -0.50773,-0.87927 -0.57814,0 -0.78967,-0.42309 -0.4701,-0.9402 0.89777,-1.452594 3.2907,-1.11074 3.2907,0.4701 0,1.87224 2.46491,1.81284 3.19008,-0.077 0.31387,-0.81795 0.57068,-2.933386 0.57068,-4.70097 0,-2.88264 -0.26651,-3.212288 -2.58553,-3.199389 -1.98689,0.01066 -2.26082,0.219605 -1.1831,0.901048 1.06008,0.670197 1.13745,1.151623 0.31697,1.972105 -1.39143,1.391456 -3.21208,0.301531 -2.51795,-1.507362 0.3902,-1.016821 -0.1775,-1.375945 -2.15648,-1.364112 -2.38096,0.01333 -2.91262,0.601703 -4.67978,5.171041 l -1.99366,5.155019 h 3.05137 c 5.33052,0 8.92346,1.07986 8.99366,2.70304 0.0498,1.15338 0.24786,1.06698 0.80775,-0.35256 0.62622,-1.58772 0.3205,-1.92646 -1.96433,-2.17634 z m -5.96506,-4.881774 c -0.32183,-0.520763 0.0946,-1.207643 0.92525,-1.526444 1.80015,-0.690771 2.80341,0.07036 1.9381,1.47053 -0.78072,1.263238 -2.10126,1.289008 -2.86335,0.05597 z m 1.88451,6.588004 c 0.31957,-0.51711 -0.10341,-0.9402 -0.9402,-0.9402 -0.83669,0 -1.25977,0.42309 -0.9402,0.9402 0.3196,0.51711 0.74269,0.9402 0.9402,0.9402 0.19748,0 0.6206,-0.42309 0.9402,-0.9402 z m -36.10143,-3.09308 c 1.75706,-1.18408 2.98312,-2.55912 2.72458,-3.055633 -0.25852,-0.496511 -0.78744,-0.796976 -1.17526,-0.667691 -0.38783,0.129258 -1.58575,-0.645544 -2.66203,-1.721824 -1.69965,-1.699677 -1.78493,-2.163087 -0.64879,-3.525733 0.71945,-0.862857 1.2384,-2.444203 1.15322,-3.514086 -0.12926,-1.622042 0.36869,-1.934446 2.99652,-1.880371 1.73326,0.03571 3.21607,0.38215 3.29517,0.769978 0.51168,2.509205 0.0821,3.055633 -2.4026,3.055633 -3.24523,0 -4.34147,2.054243 -1.63129,3.056806 1.04667,0.387188 1.92829,1.021272 1.95913,1.409126 0.13725,1.724382 1.562,0.413519 2.5701,-2.364596 1.43082,-3.942903 1.52018,-9.968273 0.20388,-13.744207 -0.8604,-2.468215 -1.39374,-2.880268 -3.04825,-2.355161 -1.68893,0.536061 -1.82379,0.417703 -0.85467,-0.750016 0.94049,-1.133207 0.68155,-1.827336 -1.41766,-3.800107 -2.78102,-2.61349 -9.3732,-6.366957 -11.18226,-6.366957 -0.61614,0 -1.30206,0.528865 -1.52434,1.175235 -0.22227,0.646397 -0.29286,0.43484 -0.15697,-0.470099 0.17616,-1.171878 -0.39113,-1.645335 -1.971032,-1.645335 -2.0994,0 -2.19694,0.264379 -1.82191,4.936031 0.41364,5.152545 0.0453,4.596922 -0.93494,-1.410298 -0.46494,-2.849354 -0.97791,-3.525733 -2.67398,-3.525733 -2.87745,0 -11.91901,6.474948 -11.91901,8.535561 0,0.364214 1.73337,1.35577 3.85193,2.203436 3.21887,1.287943 3.66352,1.768277 2.70546,2.922671 -0.7336,0.883938 -0.78642,1.381435 -0.14666,1.381435 0.54991,0 1.28854,-0.467141 1.64141,-1.038088 0.35286,-0.570974 2.31909,-1.789145 4.3694,-2.70709 3.32945,-1.490652 4.01953,-1.523486 6.457562,-0.307234 1.50134,0.74895 3.32372,2.209806 4.04972,3.246322 1.31955,1.883916 1.32131,1.883916 5.12448,-0.05623 2.09246,-1.067485 4.46724,-1.686564 5.27727,-1.375732 2.57261,0.987212 3.06198,6.939104 0.57053,6.939104 -0.42626,0 -1.00744,-0.888735 -1.29152,-1.974983 -0.28439,-1.087499 -0.96738,-1.696291 -1.51994,-1.35481 -0.55192,0.341108 -1.00347,-0.05304 -1.00347,-0.875624 0,-1.329385 -0.2845,-1.346735 -2.55736,-0.155909 -2.22391,1.165215 -2.52197,1.830561 -2.28574,5.102415 0.21561,2.987699 -0.15111,4.058595 -1.78141,5.200517 -3.25728,2.281471 -6.495162,0.382443 -6.523802,-3.826225 -0.0197,-2.878696 -1.54982,-2.677667 -2.29763,0.301851 -0.33368,1.329492 -1.11995,2.23771 -1.74726,2.018264 -0.62731,-0.219339 -1.65443,0.490888 -2.28249,1.578547 l -1.14193,1.977542 -0.0333,-2.059947 c -0.0365,-2.259803 -1.46747,-3.653578 -2.32556,-2.265134 -0.79271,1.282613 1.11138,5.735379 2.45257,5.735379 0.63089,0 2.32929,-1.132647 3.77424,-2.516987 1.44494,-1.38434 2.93898,-2.205169 3.32009,-1.824057 0.38111,0.381111 -0.98951,2.132491 -3.04582,3.891972 -2.05631,1.759482 -3.23486,3.214928 -2.61899,3.234356 0.61587,0.01866 1.38194,-0.388947 1.70239,-0.907444 0.38746,-0.626915 1.19346,-0.615828 2.40598,0.03305 1.46024,0.781491 1.82332,0.668357 1.82332,-0.568149 0,-1.045258 -0.49847,-1.352679 -1.54327,-0.951739 -1.24979,0.479587 -1.33138,0.336897 -0.42902,-0.75039 1.36611,-1.646054 3.910312,-1.379916 5.118492,0.535422 0.64741,1.026362 0.34047,1.978447 -1.1033,3.422193 -1.973972,1.973973 -4.863472,1.899053 -4.863472,-0.12606 0,-0.695541 -0.35954,-0.668091 -1.11257,0.08502 -1.2898,1.289813 -1.32081,1.249883 2.99295,3.852503 4.517692,2.72564 10.957672,2.65736 15.139102,-0.16044 z m -8.55776,-3.488288 c 0,-2.068422 0.33794,-3.760769 0.75095,-3.760769 0.41304,0 0.73035,1.691015 0.70517,3.757811 -0.0267,2.066766 -0.36313,3.759116 -0.75095,3.760766 -0.38783,0.002 -0.70517,-1.68936 -0.70517,-3.757808 z m 3.38441,0.375275 c -0.7666,-1.99769 -0.13699,-2.653841 1.82429,-1.901213 0.84098,0.322719 1.36164,1.088939 1.15704,1.702742 -0.6,1.799964 -2.32279,1.914674 -2.98133,0.198551 z m 0.71878,-13.061591 c -0.32565,-0.848626 -0.14125,-1.993799 0.40976,-2.544811 1.43247,-1.432472 4.14662,-0.123128 3.77244,1.81974 -0.4168,2.164232 -3.42952,2.686541 -4.1822,0.725071 z m 0.68157,-7.946144 c -1.72995,-1.069164 -0.36634,-4.752752 1.75938,-4.752752 1.41011,0 2.8578,1.689176 2.8578,3.334511 0,0.988491 -3.54879,2.078549 -4.61718,1.418241 z M 88.354888,74.940698 c -1.4748,-4.230603 -1.28905,-4.817541 0.84822,-2.680279 2.5929,2.59289 3.50499,2.364702 4.25836,-1.065379 0.47594,-2.166925 0.86475,-2.601925 1.4706,-1.645335 1.41087,2.227689 1.03582,5.542664 -0.5579,4.931101 -0.77566,-0.29764 -1.41029,-0.08608 -1.41029,0.470099 0,0.559248 -0.70331,0.741381 -1.57351,0.407443 -1.19208,-0.457441 -1.42714,-0.222271 -0.9697,0.969701 0.3321,0.865443 0.23538,1.573537 -0.21489,1.573537 -0.45029,0 -1.28319,-1.332397 -1.85088,-2.960888 z m 15.186172,2.338211 c -1.81529,-0.73248 -1.39135,-2.956278 0.78567,-4.121386 2.45146,-1.311982 2.69534,-1.058583 2.07733,2.158529 -0.50424,2.624844 -0.77033,2.807272 -2.863,1.962857 z m -4.766362,-3.299518 c 0.44291,-3.010007 2.650922,-3.332379 2.650922,-0.387028 0,1.579986 -0.51572,2.428825 -1.475672,2.428825 -0.98001,0 -1.37477,-0.68584 -1.17525,-2.041797 z M 75.448808,101.4549 c 2.3889,-0.91029 2.632,-1.36384 2.11543,-3.946683 -0.321,-1.605038 -0.58364,-4.980778 -0.58364,-7.501656 0,-2.520905 -0.42308,-4.583437 -0.94019,-4.583437 -0.51711,0 -0.94019,0.647916 -0.94019,1.439802 0,2.392899 -2.79329,2.69475 -5.617101,0.607033 l -2.660778,-1.967201 -0.522799,2.083 c -0.287536,1.145626 -0.125873,4.82972 0.359263,8.186857 0.485133,3.357138 0.890566,6.474065 0.900963,6.926555 0.02105,0.91672 3.769562,0.32549 7.889042,-1.24427 z m -4.95499,-1.752174 c -0.8124,-1.517996 -0.656787,-1.936632 0.86809,-2.335386 1.02186,-0.267231 1.85792,-1.205965 1.85792,-2.086092 0,-1.237439 -0.53289,-1.466506 -2.35048,-1.010318 -1.993839,0.500428 -2.350485,0.263846 -2.350485,-1.559705 0,-1.867125 0.440775,-2.128919 3.353765,-1.991906 3.92722,0.184692 5.1435,1.038968 3.20036,2.247784 -1.13687,0.707215 -1.17386,1.197942 -0.20783,2.756687 1.37833,2.224011 1.54399,4.74241 0.31195,4.74241 -0.47482,0 -1.50008,0.24439 -2.27838,0.54302 -0.84329,0.3236 -1.81504,-0.20442 -2.40491,-1.306494 z m 59.977422,0.05837 c 3.48138,-8.428637 2.92027,-21.277019 -1.2012,-27.50499 -1.99657,-3.017016 -10.20595,-9.400871 -13.92383,-10.827533 -0.74053,-0.284181 -1.97046,0.696981 -2.94783,2.351537 -1.6443,2.783578 -1.0746,3.847252 0.96706,1.805588 1.14024,-1.140216 4.98366,-0.294255 4.98366,1.096934 0,0.482279 -0.63465,0.87685 -1.4103,0.87685 -0.77566,0 -1.41027,0.634617 -1.41027,1.410298 0,2.09382 -2.39402,1.707299 -3.95122,-0.637948 -1.12572,-1.695439 -1.45593,-1.798126 -1.91715,-0.596186 -0.37797,0.984919 0.73331,2.36169 3.45423,4.27956 5.70142,4.018752 8.45883,10.037139 7.79559,17.014941 -0.27837,2.928641 -0.79218,6.039202 -1.14179,6.91232 -0.48827,1.21937 0.41808,2.135769 3.90863,3.952044 2.49937,1.300499 4.81029,2.384269 5.13538,2.408329 0.32509,0.024 1.07164,-1.11972 1.65904,-2.541744 z m -7.90926,-2.977812 c -0.76212,-1.976582 0.59333,-2.753676 3.90215,-2.23715 2.23944,0.349609 2.84064,0.854808 2.51214,2.11101 -0.52959,2.025114 -5.64336,2.125695 -6.41429,0.12606 z m 5.44477,-4.288409 c -0.86707,-1.54939 -1.23469,-1.628624 -2.53793,-0.547041 -2.27063,1.884449 -2.73782,0.636856 -0.51488,-1.374879 1.74824,-1.582118 2.04551,-1.603359 3.40557,-0.243325 0.8196,0.819576 1.30364,2.049686 1.07569,2.733581 -0.29479,0.884311 -0.70732,0.720167 -1.42845,-0.568389 z m -4.95668,-5.026805 c 0,-1.291381 2.20906,-2.985114 3.8933,-2.985114 1.49769,0 3.32492,1.634168 2.54713,2.27798 -0.88458,0.73224 -6.44043,1.342231 -6.44043,0.707134 z m 0.0645,-5.685381 c -0.74892,-1.399371 -0.63494,-1.941349 0.49982,-2.376802 2.71388,-1.04142 6.01713,-0.607326 6.01713,0.790713 0,2.135875 -1.66793,2.611945 -2.73419,0.780398 -0.88207,-1.515117 -0.97197,-1.521913 -0.99798,-0.07516 -0.0432,2.406172 -1.68976,2.927015 -2.78478,0.880954 z m -0.62734,-4.616351 c -1.22704,-0.801799 -1.38621,-4.119173 -0.16124,-3.362148 0.46352,0.286473 1.59302,-0.158041 2.51003,-0.988011 1.54721,-1.400197 1.74461,-1.339113 2.74118,0.848093 0.98356,2.158689 0.88447,2.356947 -1.17809,2.356947 -1.23858,0 -2.393,0.409521 -2.56536,0.910056 -0.17243,0.500535 -0.77826,0.606314 -1.34644,0.235063 z m -4.7358,-6.309897 c -0.32565,-0.848626 -0.14125,-1.993799 0.40973,-2.544811 1.4325,-1.432472 4.14665,-0.123128 3.77247,1.81974 -0.41679,2.164206 -3.42952,2.686542 -4.1822,0.725071 z M 62.294433,100.01279 65.941913,99.395149 65.416246,94.5246 c -0.483417,-4.479098 -0.05208,-8.665992 1.670467,-16.214315 0.627349,-2.749118 0.475941,-2.936449 -3.283762,-4.062886 -2.167788,-0.649488 -4.4816,-1.388152 -5.141807,-1.641497 -2.67336,-1.025883 -5.22429,15.232539 -3.839182,24.469132 0.527463,3.517366 0.984629,4.329606 2.243714,3.986426 0.869704,-0.2372 3.222645,-0.70898 5.228757,-1.04867 z m -5.057769,-3.307328 c -0.836424,-1.562876 -0.715007,-1.880371 0.719075,-1.880371 0.948986,0 2.166444,-0.441023 2.705466,-0.980042 1.299824,-1.29983 3.569308,1.369549 2.821407,3.318547 -0.799355,2.083079 -5.052904,1.771101 -6.245948,-0.458134 z m 0.235063,-4.447702 c -0.646383,-0.225469 -1.175243,-1.175608 -1.175243,-2.11141 0,-1.828162 1.621965,-2.81993 3.525725,-2.155864 0.646383,0.225469 1.17524,1.175582 1.17524,2.111383 0,1.828162 -1.621961,2.819958 -3.525722,2.155891 z m -0.235063,-7.368054 c 0,-1.090805 0.549579,-1.307612 2.115435,-0.834527 3.637483,1.098986 4.1054,2.308175 0.893183,2.308175 -2.105021,0 -3.008618,-0.442596 -3.008618,-1.473648 z m 2.585531,-3.337762 c -1.939147,-0.998166 -3.525724,-1.924293 -3.525724,-2.058028 0,-0.133789 2.009664,-0.283728 4.465918,-0.333326 2.456255,-0.04957 3.725515,0.101008 2.820578,0.334552 -1.912653,0.493739 -2.169821,1.823231 -0.470097,2.430264 0.646384,0.230799 0.963698,0.649622 0.705147,0.930578 -0.258543,0.280956 -2.056674,-0.305849 -3.995822,-1.30404 z m 0.150499,-5.426306 -2.265941,-1.851028 2.616321,0.277305 c 3.178687,0.336897 4.161936,1.17838 2.877617,2.462698 -0.655943,0.655938 -1.683041,0.37309 -3.227997,-0.888975 z m 46.154016,11.995039 c 0,-3.64497 -2.47131,-7.877704 -5.37071,-9.198775 -3.346062,-1.524552 -3.956502,-1.159191 -0.863102,0.516606 2.451322,1.327973 2.563092,1.596537 1.222412,2.937222 -1.215642,1.215639 -1.732362,1.262518 -2.933072,0.265979 -0.80161,-0.665293 -1.45748,-2.00398 -1.45748,-2.974854 0,-2.070314 -0.1232,-2.097205 -3.19471,-0.697727 -2.57146,1.171638 -4.00048,3.594599 -2.18189,3.699498 0.63016,0.03625 0.29994,0.39617 -0.7338,0.799615 -1.17618,0.459012 -2.2317,0.297186 -2.82058,-0.432442 -1.13048,-1.400677 -7.89391,-3.665811 -8.65956,-2.90015 -1.14829,1.148291 1.86469,3.274012 4.53304,3.198136 1.54155,-0.04397 3.29085,0.408349 3.88733,1.004828 1.2658,1.265796 6.71016,1.48836 5.94039,0.242792 -0.82839,-1.340339 2.24728,-2.067702 4.23809,-1.002269 0.99675,0.533449 1.81227,1.619883 1.81227,2.414273 0,1.27182 0.18043,1.264011 1.509902,-0.06556 1.77198,-1.771981 4.13127,-0.441183 4.13127,2.330322 0,2.28387 -2.45564,3.036658 -4.20366,1.288636 -0.79063,-0.790606 -1.437512,-1.014396 -1.437512,-0.497284 0,0.517086 0.664022,1.604186 1.475602,2.415766 2.21548,2.215483 5.10577,0.322106 5.10577,-3.344718 z m 51.18082,3.980374 c 0.81944,-1.325841 -0.53635,-6.71105 -1.5343,-6.094263 -0.49222,0.304196 -2.56699,0.614656 -4.61057,0.689865 -2.84392,0.104739 -3.65105,-0.19402 -3.44042,-1.273498 0.19082,-0.978177 1.48113,-1.420799 4.2109,-1.444598 2.16464,-0.01866 4.19116,-0.289778 4.50343,-0.60205 0.31225,-0.312244 0.18869,-1.989161 -0.2745,-3.726469 -0.90452,-3.392157 -2.75067,-3.856233 -7.7267,-1.942282 -2.26402,0.870826 -2.33909,1.167667 -2.04113,8.070499 l 0.30931,7.166438 h 5.0413 c 2.77271,0 5.27592,-0.379645 5.56268,-0.843642 z m -8.67633,-0.732293 c -0.9326,-0.374209 -0.96045,-0.793431 -0.11993,-1.806174 1.67033,-2.012641 4.62509,-1.65389 4.62509,0.561539 0,1.847137 -1.77877,2.338558 -4.50516,1.244635 z m 1.68457,-11.116671 c 0,-0.775654 0.63464,-1.410298 1.41029,-1.410298 0.77566,0 1.4103,0.634644 1.4103,1.410298 0,0.775655 -0.63464,1.410299 -1.4103,1.410299 -0.77565,0 -1.41029,-0.634644 -1.41029,-1.410299 z m -58.291962,7.895694 c -1.13303,-0.809315 -0.9944,-0.916213 0.70514,-0.543736 1.16349,0.255051 2.11544,0.08022 2.11544,-0.388521 0,-0.468713 -1.48081,-0.85217 -3.29068,-0.85217 -4.58244,0 -4.14604,2.536123 0.4701,2.731955 1.25359,0.0533 1.25359,-0.05197 0,-0.947528 z m -18.24385,-3.299415 c -0.43473,-1.132887 -0.18266,-1.36198 0.99948,-0.908351 0.87706,0.336551 1.92182,0.06929 2.34675,-0.60045 1.13349,-1.7864 0.95643,-2.62042 -0.44235,-2.083666 -0.68038,0.261181 -2.4785,-0.211344 -3.99582,-1.050029 l -2.758758,-1.524765 3.958678,0.456001 c 3.72485,0.429057 4.07419,0.260115 5.91441,-2.858734 1.07565,-1.823098 1.83277,-3.400313 1.68248,-3.504892 -0.15028,-0.104739 -1.81799,-1.338847 -3.70599,-2.742775 l -3.43275,-2.552567 -1.99855,2.806712 c -5.849975,8.215534 -5.719933,16.014724 0.26784,16.064082 1.22174,0.01066 1.57139,-0.440437 1.16458,-1.500566 z m 0.14512,-7.567885 c -3.65012,-1.922613 -3.21334,-3.05558 0.70514,-1.829121 1.80987,0.566497 3.29068,1.561064 3.29068,2.210206 0,1.439002 -0.65978,1.376078 -3.99582,-0.381085 z m 0.0112,-4.517848 c -0.25521,-1.335089 -0.0977,-2.653867 0.35007,-2.930586 0.44776,-0.276745 0.8141,0.156442 0.8141,0.962613 0,0.838977 0.80409,1.465786 1.88039,1.465786 1.03421,0 1.88039,0.423087 1.88039,0.940199 0,0.517085 -0.38849,0.940172 -0.8633,0.940172 -0.47481,0 -1.47852,0.236129 -2.23045,0.524628 -0.92461,0.354806 -1.51737,-0.261182 -1.8312,-1.902812 z m 65.601822,8.955423 c -0.32427,-0.524654 0.80068,-0.665852 2.76508,-0.347078 1.82147,0.295588 3.31175,0.286393 3.31175,-0.02132 0,-0.306808 -0.87658,-2.900683 -1.94793,-5.764162 -2.1012,-5.615955 -3.03863,-6.079312 -7.56442,-3.738942 -1.56069,0.807077 -3.29955,1.313422 -3.86412,1.125238 -0.56458,-0.188157 0.94491,-1.095068 3.35439,-2.015252 2.4095,-0.920211 4.37977,-1.955421 4.37838,-2.300474 -0.001,-0.345052 -1.64067,-2.527061 -3.64281,-4.848908 l -3.64028,-4.221541 -2.84565,3.046305 c -2.76399,2.958863 -4.9118,3.921556 -4.9118,2.201545 0,-0.464583 1.72715,-1.864701 3.83811,-3.111361 3.38176,-1.99713 3.66122,-2.413448 2.35047,-3.501267 -1.00555,-0.834527 -1.48762,-0.890068 -1.48762,-0.171367 0,0.752282 -0.56916,0.717209 -1.94595,-0.11993 -1.71079,-1.040221 -2.19792,-0.870746 -4.03115,1.40233 -2.31241,2.867289 -3.42483,3.271187 -3.42483,1.243462 0,-0.738103 1.10293,-2.20962 2.45097,-3.269962 1.95081,-1.534519 2.83731,-1.721157 4.34432,-0.91464 1.36958,0.732986 1.71658,0.727256 1.25431,-0.02132 -1.09152,-1.766118 0.96986,-1.134566 2.76261,0.846387 2.16492,2.392233 3.49457,2.371978 5.71997,-0.08715 0.9793,-1.082089 2.63145,-2.39114 3.67144,-2.908998 1.04,-0.517832 0.0557,0.684854 -2.18732,2.672629 l -4.07823,3.614135 2.4329,2.279339 2.4329,2.279312 0.14818,-2.279312 c 0.0815,-1.253643 0.12926,-2.803647 0.10607,-3.444447 -0.024,-0.640827 0.30412,-0.951232 0.7271,-0.689811 0.42301,0.261447 1.03484,0.04531 1.35963,-0.480227 0.3248,-0.525534 1.01363,-0.955524 1.53074,-0.955524 0.51711,0 0.69754,0.392625 0.40097,0.872505 -0.29658,0.479881 0.31275,1.142908 1.35409,1.473409 1.48633,0.471752 1.69847,0.964984 0.98691,2.294556 -0.4985,0.931511 -0.74625,1.855053 -0.5505,2.052298 0.19562,0.197219 -0.9349,0.451977 -2.51254,0.56599 -1.57764,0.114067 -3.04284,0.381751 -3.25602,0.594934 -0.21321,0.213209 0.62206,1.875387 1.85609,3.693821 1.234,1.818434 2.7714,4.580265 3.41638,6.137412 l 1.17271,2.831177 4.38667,-1.462401 c 2.41267,-0.804332 4.53528,-1.584997 4.7169,-1.734803 1.102,-0.908991 -7.264,-15.279552 -11.65838,-20.026014 -4.6115,-4.980965 -14.15087,-12.216377 -14.87411,-11.281694 -0.15164,0.195885 -1.35931,2.337811 -2.68403,4.760027 -2.07002,3.784941 -2.20243,4.483095 -0.94188,4.966813 2.10725,0.808622 3.89381,-1.200341 2.08463,-2.344128 -1.11453,-0.704629 -0.95515,-0.889615 0.77637,-0.901048 1.8029,-0.01333 2.07836,-0.379353 1.59664,-2.129826 -0.53939,-1.960138 -0.48379,-1.993452 0.75738,-0.453763 0.83511,1.03593 2.00408,1.445532 3.10432,1.087713 1.34767,-0.438304 1.20924,-0.08955 -0.58568,1.475541 -1.29277,1.127237 -1.71586,1.764519 -0.9402,1.416215 0.77565,-0.348277 0.3644,0.216407 -0.91392,1.255189 -1.2783,1.038621 -2.71871,1.644615 -3.20089,1.346602 -0.4822,-0.298013 -0.57481,-0.0533 -0.20574,0.54363 0.9028,1.460775 0.77408,1.42477 -4.53549,-1.268968 -2.54388,-1.290581 -5.92858,-2.297461 -7.52154,-2.23747 -1.68326,0.06343 -2.18628,0.293163 -1.20101,0.548641 1.33826,0.347024 1.46461,0.717502 0.59994,1.759348 -0.60242,0.725871 -0.84969,1.959792 -0.54952,2.74203 0.68611,1.787998 -3.10168,1.97373 -5.03805,0.247056 -1.12118,-0.999818 -1.13208,-0.929645 -0.073,0.470099 0.68477,0.90494 1.59768,1.645335 2.02874,1.645335 0.43103,0 2.98194,1.296125 5.66867,2.880295 2.68675,1.584171 5.13812,2.536096 5.44749,2.115435 0.81875,-1.113298 2.91297,-1.381542 2.91297,-0.373116 0,0.474017 -0.52108,1.03553 -1.15794,1.247833 -0.68144,0.227067 0.34657,1.706952 2.49807,3.596012 3.81431,3.348982 7.06559,9.238564 7.10095,12.863119 0.0187,1.793676 0.52964,2.115435 3.36681,2.115435 1.85093,0 3.1019,-0.395237 2.79952,-0.884498 z m -4.2653,-1.365391 c 0,-0.830983 0.44805,-1.51088 0.99568,-1.51088 0.54763,0 0.68976,-0.494965 0.31587,-1.099946 -0.45491,-0.736051 -0.1703,-0.904513 0.85985,-0.50917 0.93948,0.360537 1.90467,-0.03518 2.47613,-1.015462 0.87858,-1.506988 0.93822,-1.507468 0.96504,-0.008 0.016,0.879248 0.76899,2.029857 1.67393,2.556937 0.90494,0.52708 1.22225,1.006454 0.70516,1.065273 -3.12991,0.356006 -4.89131,0.727869 -6.3463,1.339806 -1.17151,0.4927 -1.64536,0.256917 -1.64536,-0.818883 z m -1.88038,-5.238575 c 0,-1.299137 3.61371,-3.0555 4.79041,-2.32827 0.56621,0.349929 -0.0925,1.174382 -1.53718,1.923866 -3.00079,1.556826 -3.25323,1.588221 -3.25323,0.404404 z m 13.50512,-1.437056 c -0.32565,-0.848653 -0.14125,-1.993799 0.40974,-2.544811 1.43247,-1.432499 4.14662,-0.123395 3.77244,1.819713 -0.41677,2.164233 -3.4295,2.686542 -4.18218,0.725098 z M 130.94135,69.83306 c 0.31387,-0.81795 0.57068,-1.875654 0.57068,-2.350471 0,-1.335808 2.26366,-1.021218 4.28622,0.59568 1.77321,1.417521 1.76484,1.442386 -0.29503,0.875356 -1.45182,-0.39966 -2.29847,-0.118597 -2.68611,0.891508 -0.31134,0.811314 -0.98916,1.475114 -1.50625,1.475114 -0.51711,0 -0.68339,-0.669237 -0.36951,-1.487187 z m 12.94776,-0.614682 c -1.48207,-1.482097 0.40768,-3.539272 3.25123,-3.539272 2.80372,0 2.79975,0.957496 -0.0133,2.999773 -1.61178,1.170518 -2.4655,1.312728 -3.23875,0.539499 z m -15.51104,-1.34551 c -0.99105,-0.991049 -0.73097,-2.193762 0.47441,-2.193762 0.60565,0 1.87752,-0.70255 2.82633,-1.561224 2.7456,-2.484739 3.02634,-0.777173 0.31757,1.931595 -2.70522,2.705224 -2.72603,2.715698 -3.61831,1.823391 z M 116.10433,57.623293 c -0.28411,-0.740369 -0.10688,-1.346123 0.39411,-1.346123 0.50088,0 0.9107,-0.846174 0.9107,-1.880398 0,-1.976502 1.4809,-2.402573 3.6261,-1.043312 0.88924,0.563458 0.96043,1.003069 0.23506,1.451368 -0.57233,0.353714 -1.04059,1.374293 -1.04059,2.267932 0,1.989508 -3.39911,2.443137 -4.12538,0.550533 z m 17.28808,-2.700934 c 0,-1.939563 0.45563,-2.405958 2.35047,-2.405958 1.29277,0 2.3505,0.409788 2.3505,0.910669 0,0.500882 -0.63464,0.667158 -1.4103,0.369519 -0.8793,-0.337431 -1.41029,0.008 -1.41029,0.914214 0,0.800467 -0.42309,1.716866 -0.94018,2.036467 -0.53323,0.329541 -0.9402,-0.460346 -0.9402,-1.824911 z M 84.972468,79.314043 c -1.03421,-0.741568 -2.36416,-1.760388 -2.95544,-2.264041 -1.06615,-0.908164 -2.21562,-0.425699 -2.21562,0.929938 0,0.697807 4.29662,2.552567 6.11125,2.638117 0.51711,0.02399 0.094,-0.562419 -0.94019,-1.304014 z m -11.00066,-12.883375 4.04242,-5.584426 -4.04242,-3.65627 c -2.22334,-2.010935 -4.328941,-3.67362 -4.679124,-3.694835 -1.127356,-0.06823 -6.32116,6.80433 -8.979955,11.882572 -2.047559,3.910788 -2.342057,5.172133 -1.422321,6.091864 1.801516,1.801511 4.153722,-1.822725 2.834168,-4.366816 -0.824677,-1.590007 -0.56042,-1.516743 1.647459,0.456721 1.446331,1.292766 2.256392,1.715853 1.800138,0.940199 -0.945583,-1.607544 -1.552485,-4.700969 -0.92229,-4.700969 0.230986,0 1.497581,0.490994 2.814678,1.091098 2.79345,1.272779 3.238007,3.109522 0.584681,2.41566 -1.26978,-0.332074 -1.660702,-0.08422 -1.309701,0.830529 0.275189,0.717129 0.878166,1.30388 1.339947,1.30388 0.461782,0 0.839602,0.423087 0.839602,0.940173 0,0.517112 -0.599371,0.940199 -1.331939,0.940199 -0.732568,0 -1.54534,0.528865 -1.806161,1.175235 -0.271887,0.673821 -0.505889,0.439824 -0.548446,-0.548427 -0.04083,-0.948034 -0.57664,-1.556214 -1.190704,-1.351533 -2.30046,0.766807 -1.660638,2.347726 1.321393,3.264952 2.451505,0.754067 3.27901,0.661961 4.025954,-0.448113 0.517106,-0.768512 2.759281,-3.910282 4.982621,-6.981693 z m -6.868224,-3.577915 c -0.938819,-1.037396 -1.466797,-2.126308 -1.173282,-2.419817 0.854174,-0.854169 6.468906,2.412035 5.854716,3.405802 -0.89721,1.451741 -2.846956,1.041074 -4.681434,-0.985985 z m 2.355699,-2.795225 c -1.240445,-0.78437 -1.223005,-1.079131 0.144823,-2.447321 1.783582,-1.784054 3.170322,-1.258254 3.884532,1.472875 0.5441,2.080628 -1.49877,2.574687 -4.02936,0.974446 z m 16.715605,9.343757 c 2.66963,-2.428239 2.94604,-3.086096 2.06235,-4.908474 -1.01208,-2.087131 -1.00652,-2.08897 0.67796,-0.224136 1.34338,1.48732 2.65221,1.81966 6.26096,1.5899 2.50939,-0.15964 6.420802,0.342654 8.692012,1.116523 l 4.12946,1.407074 2.77591,-4.034637 2.77587,-4.034636 -4.41644,-1.988655 c -9.06114,-4.080103 -17.546612,-4.832091 -22.800072,-2.020503 -1.53264,0.820242 -1.68021,1.352679 -0.85042,3.068399 0.97055,2.006778 0.95505,2.014827 -0.46498,0.24146 -1.42608,-1.780803 -1.59238,-1.713269 -5.69302,2.311187 -2.32322,2.280085 -4.2132,4.374811 -4.19996,4.654968 0.0268,0.565777 6.75387,5.606627 7.49747,5.618087 0.25854,0.0053 1.85736,-1.254576 3.5529,-2.796797 z m -7.70531,-1.50627 c -0.95539,-2.489723 0.28023,-2.745174 2.50707,-0.518338 l 2.0632,2.063198 h -1.98873 c -1.0938,0 -2.25549,-0.695195 -2.58154,-1.54486 z m 5.4809,-1.871683 c 0.33714,-0.878581 -0.31476,-1.318885 -2.06314,-1.393508 -1.59132,-0.06796 -1.93504,-0.271335 -0.91069,-0.539019 0.92462,-0.241726 1.65164,-1.326401 1.65973,-2.476477 0.008,-1.129289 0.32398,-1.611009 0.70515,-1.074841 1.2425,1.747782 3.46121,0.960427 4.7252,-1.676783 1.77863,-3.710985 4.42931,-3.429069 4.41995,0.470099 -0.006,2.677774 -0.31581,3.055607 -2.50199,3.055607 -3.21779,0 -4.17417,0.998218 -2.68059,2.797863 1.32663,1.598509 1.33847,1.585104 -1.67878,1.897242 -1.50044,0.155109 -2.016,-0.1711 -1.67484,-1.060183 z m 21.265842,0.261715 c -0.016,-0.442463 1.02802,-2.061493 2.32078,-3.597851 1.29277,-1.536385 2.35047,-2.361451 2.35047,-1.833492 0,1.175955 -4.62959,6.558872 -4.67125,5.431343 z m -4.63199,-4.182204 c -1.044812,-1.952223 0.1679,-4.855758 1.27779,-3.059684 0.48017,0.776934 1.01636,0.799854 1.88309,0.08049 0.91045,-0.75564 1.3361,-0.530144 1.71188,0.906832 0.32895,1.257987 -0.0933,2.230061 -1.23366,2.840399 -2.33354,1.248872 -2.58844,1.195063 -3.6391,-0.768113 z m -6.337622,-2.52858 c -0.32565,-0.848626 -0.14127,-1.993799 0.40975,-2.544811 1.43249,-1.432499 4.14663,-0.123128 3.77245,1.81974 -0.41679,2.164206 -3.42951,2.686515 -4.1822,0.725071 z m -11.6112,-1.896655 c 3.5622,-2.628096 8.35713,-4.207736 12.79661,-4.215651 2.43959,-0.0053 3.03396,-0.443928 3.50309,-2.590784 0.31074,-1.422025 0.81331,-3.450444 1.116792,-4.507561 0.46418,-1.616765 0.13165,-1.915418 -2.092792,-1.880371 -2.02572,0.03198 -2.64462,-0.395397 -2.64462,-1.82587 0,-2.387116 3.25624,-3.087854 4.764402,-1.025296 0.99782,1.364592 1.20008,1.255136 1.75325,-0.948887 0.34393,-1.370295 0.37927,-2.737472 0.0786,-3.038204 -1.1053,-1.105302 -11.484472,1.777392 -17.878512,4.965588 -3.61974,1.804868 -8.2737,4.751925 -10.34212,6.548958 l -3.760776,3.267376 4.230866,3.765487 c 2.32698,2.071033 4.46599,3.783529 4.75336,3.805596 0.28736,0.02132 1.96222,-1.022124 3.7219,-2.320381 z m -5.81123,-2.165672 c -1.32302,-1.345803 -1.38184,-1.939484 -0.37797,-3.815218 0.99142,-1.852494 1.28577,-1.968879 1.77238,-0.700818 0.32093,0.83634 1.23142,1.520634 2.02331,1.520634 1.71765,0 1.89144,1.992839 0.31156,3.572719 -1.43114,1.43114 -1.81288,1.372054 -3.72928,-0.577317 z m 3.9515,-5.304723 c -1.40948,-1.698317 -0.50433,-3.331846 1.84621,-3.331846 0.97317,0 2.04234,0.44161 2.37593,0.981375 0.62343,1.008719 -1.10817,3.719593 -2.37593,3.719593 -0.39048,0 -1.22127,-0.616094 -1.84621,-1.369122 z m 8.289,-0.200683 c -1.76021,-0.467515 -2.78569,-3.322625 -1.77865,-4.952049 0.49863,-0.806783 0.92599,-0.772883 1.65008,0.130857 0.95336,1.19 2.56922,5.558416 1.97582,5.341555 -0.16411,-0.05996 -0.99538,-0.294202 -1.84725,-0.52047 z m 2.38845,-3.678231 c 0.31388,-0.81795 0.57069,-2.580816 0.57069,-3.917478 0,-3.227879 0.54404,-2.458221 1.32816,1.878932 0.52589,2.908813 0.36561,3.525733 -0.91605,3.525733 -1.03031,0 -1.36129,-0.500855 -0.9828,-1.487187 z m 16.460242,-1.568446 c 0.0906,-7.040805 0.0187,-7.286502 -2.10795,-7.286502 -1.78314,0 -2.42005,0.759531 -3.3506,3.995832 -2.29187,7.970584 -2.29181,8.009308 0.008,5.406104 l 2.07567,-2.35047 -0.60285,2.35047 c -0.33156,1.292767 -0.6086,2.696296 -0.61566,3.118983 -0.008,0.422687 -0.85902,0.499949 -1.89322,0.171634 -1.533672,-0.486757 -1.880402,-0.168969 -1.880402,1.723635 0,1.903958 0.632782,2.472507 3.525732,3.167728 4.33468,1.041687 4.70662,0.250788 4.8423,-10.297467 z m -2.62431,2.936796 c 0.41904,-2.650883 0.99049,-5.048366 1.26987,-5.32775 0.68957,-0.689572 0.64216,3.600383 -0.0797,7.209454 -0.98069,4.903463 -2.00646,3.281768 -1.19022,-1.881704 z m 5.27034,4.899972 c 0.89985,-1.440867 0.85116,-2.026846 -0.24386,-2.935703 -1.09674,-0.910217 -1.36816,-0.848119 -1.36816,0.313017 0,0.796683 -0.25692,2.117753 -0.57071,2.935704 -0.80222,2.090595 0.82771,1.856864 2.18281,-0.313018 z m 14.09395,-5.782791 2.0733,-4.718105 -2.38413,-0.906459 c -4.70915,-1.790397 -10.72157,-2.987886 -12.57212,-2.503954 -1.03705,0.271202 -1.64842,0.109536 -1.35862,-0.359444 0.28978,-0.468874 0.0789,-0.852517 -0.46882,-0.852517 -0.5476,0 -0.99566,0.871146 -0.99566,1.935886 0,1.064713 0.42309,1.674384 0.94017,1.354784 0.51712,-0.319574 0.9402,-0.132989 0.9402,0.414612 0,0.547627 -0.52886,1.002162 -1.17523,1.010078 -0.86409,0.01066 -0.88655,0.198018 -0.0847,0.708201 0.59973,0.381591 1.23434,1.958619 1.4103,3.504465 0.2939,2.582389 0.69002,2.863212 4.87769,3.457879 2.5068,0.355979 4.79853,0.887909 5.09271,1.182111 1.07681,1.076786 1.67324,0.396276 3.70507,-4.227537 z m -12.1958,-0.502454 c -1.00064,-1.000644 1.36227,-4.902797 3.27113,-5.401973 1.56445,-0.409122 1.76239,-0.130058 1.27779,1.800684 -0.34169,1.36134 -0.16363,2.284802 0.44015,2.284802 0.55746,0 0.75209,0.423087 0.43252,0.940199 -0.63105,1.021032 -4.50778,1.290102 -5.42159,0.376288 z m 7.45867,-0.0629 c -1.11301,-1.112978 -0.66585,-3.857992 0.71475,-4.38779 2.08639,-0.800601 3.8698,1.856438 2.41921,3.6043 -1.27361,1.534599 -2.16101,1.75647 -3.13396,0.78349 z"
       id="path1"
       sodipodi:nodetypes="ssssssssssccsscsssssssssssssssssssscccsssssssssssssssscssssssssssssscssssscsscssssssssssssssssssssscsscssscscsssssssssssscccsccsssssssssscssssssscssssscsssccsssssssssssssssssssssssssssscsssssssssscsscscsccsssssssscscccssssssssscsssscccsssssssssssssssssssssccscssccccssccsssssssssssssssssssssssssssssscssssssssssssssscsssssssssssssssssscsssssssssssccsssssssscsccssccssssssscssscsssssscssscscsssccsssssssssscssssssssssssssssssssssssssssssssssssssscscscsssssscsssssssscsccsscsssssssssssssssssssssssssssssssssssssssscsssssssssssssssssssssssssssssssscssccsssssssssssssssssssscsssssssssscssssscsssssssssssssssssscsssscssscsssssscssscsssssssssccsssscsssscsssssssssssscsssccssscccsscscscssssssssssssscsssssssscsssssssssscsssscccscssssssssssscssssssscssssscssssssssssssscscscccssscssssccssssssssssssssscssccssssssssssssssssssssssscsscssssssssssssssssssssssssssssscsccscccssscsscccsscsssscsssssscscssccssssccssssscssssssssscscssssssssssssscscsccssssscssscsccssccssssssssssccssssssscssssscssssssssss" /></g></svg>
