<?xml version="1.0" encoding="UTF-8" standalone="no"?>
<!-- Created with Inkscape (http://www.inkscape.org/) -->

<svg
   width="210mm"
   height="297mm"
   viewBox="0 0 210 297"
   version="1.1"
   id="svg1"
   xml:space="preserve"
   inkscape:version="1.3.2 (091e20e, 2023-11-25)"
   sodipodi:docname="forth_logo.svg"
   xmlns:inkscape="http://www.inkscape.org/namespaces/inkscape"
   xmlns:sodipodi="http://sodipodi.sourceforge.net/DTD/sodipodi-0.dtd"
   xmlns="http://www.w3.org/2000/svg"
   xmlns:svg="http://www.w3.org/2000/svg"><sodipodi:namedview
     id="namedview1"
     pagecolor="#ffffff"
     bordercolor="#000000"
     borderopacity="0.25"
     inkscape:showpageshadow="2"
     inkscape:pageopacity="0.0"
     inkscape:pagecheckerboard="0"
     inkscape:deskcolor="#d1d1d1"
     inkscape:document-units="mm"
     inkscape:zoom="0.49564941"
     inkscape:cx="322.80882"
     inkscape:cy="495.30978"
     inkscape:window-width="1512"
     inkscape:window-height="844"
     inkscape:window-x="0"
     inkscape:window-y="38"
     inkscape:window-maximized="1"
     inkscape:current-layer="layer1" /><defs
     id="defs1" /><g
     inkscape:label="Layer 1"
     inkscape:groupmode="layer"
     id="layer1"><path
       style="fill:#332576;fill-opacity:1;stroke-width:6.42652;stroke-dasharray:none"
       d="M 84.850033,270.51003 C 56.226595,266.29583 34.745368,254.38057 11.66809,229.91745 -17.603495,198.88808 -27.717174,160.4834 -18.308088,116.08895 -6.9633416,62.561544 42.791431,18.29048 95.164127,15.123032 133.07017,12.830559 170.04551,26.527373 195.99034,52.472204 c 29.79205,29.792079 43.54266,70.055486 38.45107,112.589326 -6.14122,51.30215 -49.12189,94.86436 -103.08387,104.47853 -19.94102,3.55284 -27.8449,3.71769 -46.507507,0.96997 z m 44.793627,-5.24643 c 0.40616,-0.40618 -0.41773,-5.73679 -1.83092,-11.84636 l -2.56894,-11.10835 -21.09923,-0.22546 c -19.035684,-0.20376 -21.211012,0.20184 -22.242588,4.14659 -0.854736,3.2684 -0.24596,4.02795 2.411254,3.00831 1.955077,-0.75022 5.443342,-0.76462 7.751683,-0.032 3.91333,1.24206 3.959334,1.79177 0.68121,8.13096 -3.376862,6.53022 -8.610151,7.86866 -9.2011,2.35334 -0.155774,-1.45477 -0.42652,-3.92031 -0.601513,-5.47893 -0.456418,-4.06613 -4.703995,2.91552 -4.748253,7.80463 -0.02581,2.8532 2.435952,4.09409 9.600646,4.83926 9.569255,0.99528 40.434741,-0.17869 41.847751,-1.59174 z m -31.078796,-7.97573 c 0,-7.81216 5.738206,-10.99966 8.961026,-4.9778 1.67456,3.12901 1.21597,5.08108 -1.84427,7.85059 -5.73494,5.19001 -7.116756,4.6322 -7.116756,-2.87279 z m 14.635736,0.13046 c 0.27827,-3.53568 1.23363,-7.60639 2.12339,-9.04599 2.59419,-4.1975 7.04579,1.46596 7.04579,8.96386 0,5.13523 -1.02189,6.51065 -4.83744,6.51065 -3.92007,0 -4.74157,-1.21911 -4.33174,-6.42852 z m -35.010663,-5.02954 c 1.511818,-6.30198 2.378725,-11.7875 1.926483,-12.19004 -0.45223,-0.4023 -6.733227,-3.50338 -13.957728,-6.89068 -7.224489,-3.38735 -19.174279,-11.74969 -26.555048,-18.58296 l -13.419599,-12.42425 -10.420922,7.16978 -10.4209096,7.16983 5.4253326,7.16643 c 11.408198,15.06933 49.135377,39.33605 62.065856,39.92178 1.434272,0.0649 3.844742,-5.03795 5.356535,-11.33989 z m -14.99248,-5.54546 c 0,-5.76234 0.99324,-7.93503 3.627427,-7.93503 6.335857,0 9.003294,4.46419 6.262196,10.48026 -3.873273,8.5009 -9.889623,6.95249 -9.889623,-2.54523 z m -16.146214,0.8573 c -3.482939,-3.48293 -1.059968,-8.79233 4.012422,-8.79233 5.116218,0 7.15456,2.95975 5.32388,7.73042 -1.615289,4.20939 -5.721755,4.67646 -9.336302,1.06191 z m -17.25629,-8.03658 c -0.831291,-0.83127 -1.511438,-3.38184 -1.511438,-5.66787 0,-3.77772 2.522301,-5.23983 7.536715,-4.3687 1.027889,0.17868 1.350263,-0.51478 0.71639,-1.54013 -0.633849,-1.02567 -0.277379,-3.28079 0.79225,-5.01147 1.608329,-2.60229 2.56298,-2.63359 5.518269,-0.18061 4.694935,3.89647 4.535251,5.12029 -1.599739,12.26002 -5.165369,6.01131 -8.598512,7.36303 -11.452447,4.50907 z M 16.947817,220.77119 c 0,-1.24693 1.53032,-2.26715 3.400714,-2.26715 1.870401,0 3.40072,-1.47006 3.40072,-3.26685 0,-1.7968 1.020196,-3.89746 2.267131,-4.66813 1.322701,-0.81745 2.267133,1.48788 2.267133,5.5341 0,5.8861 -0.857358,6.93519 -5.667843,6.93519 -3.117323,0 -5.667855,-1.02021 -5.667855,-2.26716 z m 146.238753,33.79452 c 7.4861,-3.66369 16.66802,-9.12613 20.40427,-12.13856 7.66346,-6.17893 8.38585,-4.94247 -10.84736,-18.56544 l -8.57189,-6.07153 -6.16449,5.79264 c -6.79469,6.38488 -22.60551,15.32548 -27.10196,15.32548 -3.4956,0 -3.62466,5.11712 -0.42031,16.65765 2.36945,8.53321 2.60306,8.68944 10.75629,7.19193 4.58384,-0.84194 14.45919,-4.52841 21.94534,-8.19217 z m -28.5538,3.36474 c -4.12172,-4.96643 2.92633,-12.01445 7.89276,-7.89268 3.74327,3.10665 2.70377,8.28252 -2.02815,10.09835 -1.68281,0.64573 -4.32184,-0.34705 -5.86461,-2.20567 z m 10.78631,-9.19785 c -2.13573,-2.13571 -1.88344,-9.8243 0.32259,-9.8243 3.95246,0 10.10614,6.25675 8.58086,8.72467 -1.77707,2.87528 -6.53941,3.4635 -8.90326,1.09963 z m 15.07107,-1.32251 c -2.73014,-4.24593 -7.51397,-13.43217 -7.51397,-14.42874 0,-0.48069 1.61895,-0.87444 3.59761,-0.87444 1.97874,0 4.75295,3.06063 6.16492,6.80139 1.41198,3.74081 3.36379,6.80145 4.33733,6.80145 0.97357,0 1.77013,1.02022 1.77013,2.26716 0,3.22979 -6.18458,2.81033 -8.35602,-0.56682 z m 12.10797,-7.27033 c -0.73836,-1.92419 -2.68777,-3.49856 -4.33193,-3.49856 -1.64418,0 -3.1431,-2.04042 -3.33095,-4.53429 -0.2327,-3.09189 1.05601,-4.53424 4.0518,-4.53424 2.4164,0 4.39337,0.8643 4.39337,1.92062 0,1.05639 2.12006,2.86669 4.71119,4.02289 4.66777,2.08283 4.67033,2.13901 0.2802,6.11215 -3.89275,3.52289 -4.59416,3.58497 -5.77356,0.51154 z m -32.06348,-7.87734 c 10.30244,-5.07188 18.49963,-11.55717 28.21751,-22.32443 14.63258,-16.21275 15.96463,-19.36053 9.72934,-22.9923 -2.18213,-1.27098 -2.75242,-2.34183 -1.26739,-2.37974 1.48511,-0.0386 3.33068,0.95125 4.10136,2.1982 2.85461,4.61883 5.56435,1.90014 12.84335,-12.88567 5.69874,-11.57573 7.67048,-18.88244 8.35246,-30.95225 l 0.89279,-15.79952 -10.79396,1.47946 c -5.9367,0.81373 -12.43695,1.48638 -14.44498,1.49481 -2.83925,0.0128 -3.7873,2.79683 -4.26357,12.52454 -0.33674,6.88 -2.21741,17.23642 -4.179,23.01428 -3.26543,9.61808 -3.25755,10.67814 0.0934,12.55339 2.01293,1.12652 3.11174,2.93521 2.4417,4.01934 -0.67003,1.08411 -0.18111,2.61196 1.0859,3.39515 2.97851,1.8409 3.01004,12.4921 0.0386,12.4921 -1.24694,0 -2.26715,-1.0202 -2.26715,-2.26708 0,-1.24694 -2.04045,-2.26716 -4.53432,-2.26716 -5.43319,0 -6.36149,-8.5097 -1.14655,-10.51086 1.86324,-0.71494 2.80453,-2.2435 2.09177,-3.39675 -0.71276,-1.15324 -6.97594,3.09439 -13.91813,9.43924 -14.31411,13.08223 -34.4215,24.05954 -48.06748,26.2416 l -9.240912,1.47766 v 12.4899 12.48993 l 14.858142,-1.19271 c 10.28194,-0.8253 19.33045,-3.39436 29.37886,-8.34113 z m -40.42362,1.23582 c -0.71026,-1.85104 -0.0733,-3.86389 1.41513,-4.47299 1.98958,-0.81406 1.87892,-1.68651 -0.41773,-3.29368 -1.71844,-1.20247 -2.423385,-3.32058 -1.5666,-4.70691 2.26684,-3.6677 9.65678,-3.08589 11.17866,0.88011 0.71776,1.87037 0.32902,3.40074 -0.86426,3.40074 -1.19308,0 -1.92621,2.25366 -1.62918,5.00812 0.62528,5.79912 -6.09996,8.4381 -8.11588,3.18461 z m 14.84062,-5.92557 c -1.68441,-6.63617 -1.60637,-9.06515 0.29111,-9.05578 1.45369,0.008 2.74239,3.9916 2.93314,9.06856 0.18711,4.98063 0.0578,9.05575 -0.29113,9.05575 -0.34702,0 -1.66709,-4.08084 -2.93312,-9.06853 z m 9.11378,-1.71037 c -3.1655,-6.70777 -0.47491,-11.58293 3.64995,-6.61298 1.5837,1.90825 1.95579,5.10687 0.9199,7.90729 -1.67012,4.5147 -1.85283,4.46296 -4.56985,-1.29431 z m 11.96859,-0.65616 c 0.8044,-1.30149 0.22932,-3.85207 -1.27734,-5.66782 -3.42759,-4.12995 0.95543,-10.4955 5.91602,-8.59188 1.9748,0.75774 3.23493,-0.17795 3.23493,-2.40192 0,-4.77716 3.71613,-4.61595 10.14382,0.44021 4.24319,3.33768 4.70026,4.75481 2.50277,7.75998 -2.46143,3.36624 -2.88173,3.37014 -4.97831,0.0451 -1.42104,-2.25289 -3.77742,-3.05941 -6.21042,-2.12576 -3.07761,1.18101 -3.42097,2.43784 -1.59714,5.84571 1.78722,3.33949 1.50543,4.65519 -1.22123,5.70147 -5.37258,2.06171 -8.14447,1.63346 -6.5131,-1.00626 z m 22.30214,-21.42331 c -0.78525,-2.04635 -0.3406,-4.80775 0.98802,-6.13643 3.45425,-3.45427 9.99904,-0.29691 9.09675,4.38803 -1.00502,5.21866 -8.26979,6.47813 -10.08477,1.7484 z m 18.13981,-24.76581 c -3.5729,-3.14181 -5.47599,-5.71075 -4.22913,-5.7087 3.16206,0.005 13.37601,8.77056 11.91848,10.22803 -0.65622,0.65622 -4.11647,-1.37746 -7.68935,-4.51933 z m 2.23077,-9.18385 c 0.70242,-1.83047 0.11425,-4.04684 -1.30734,-4.92537 -1.69372,-1.04674 -1.07355,-2.1505 1.79936,-3.20246 2.68937,-0.98474 5.87893,-0.29434 8.25187,1.78606 3.29515,2.88892 3.40304,3.85618 0.72871,6.53058 -4.25676,4.25674 -11.12601,4.11987 -9.4726,-0.18905 z m 6.07205,-13.5999 c -2.24619,-2.70654 -2.28482,-4.19935 -0.17481,-6.7422 3.68511,-4.44024 9.58111,-1.77778 8.73352,3.94371 -0.88048,5.94325 -4.86726,7.24674 -8.55898,2.79849 z m -3.08551,-11.7891 c -0.83127,-0.83126 -1.51139,-3.77295 -1.51139,-6.53713 0,-6.72242 10.47855,-9.12485 13.68307,-3.13712 3.08203,5.75876 2.72678,7.34367 -1.29965,5.7986 -1.98387,-0.76129 -4.04261,0.11121 -4.77685,2.02461 -1.38233,3.60234 -3.65399,4.29223 -6.09518,1.85104 z m -87.662722,81.99492 c 0,-6.85816 -0.936722,-12.46929 -2.081688,-12.46929 -1.144953,0 -3.737211,-0.63493 -5.760572,-1.41173 -2.023374,-0.77646 -3.427357,-0.52118 -3.120008,0.56683 0.897437,3.17721 -7.811946,18.12604 -8.820913,15.14021 -0.503319,-1.48947 0.171211,-4.73814 1.499052,-7.21911 4.37224,-8.1696 2.341515,-8.34038 -4.466777,-0.3753 -7.452584,8.71854 -6.799006,10.33417 6.030292,14.90719 15.560946,5.54667 16.720614,4.91287 16.720614,-9.13861 z m -9.270244,-0.38047 c 0.743421,-4.57356 2.777954,-8.79105 4.521169,-9.37207 2.361873,-0.78731 2.801007,0.32069 1.723136,4.34806 -0.795536,2.97252 -1.460348,7.18994 -1.477366,9.37207 -0.01695,2.18214 -1.400693,3.9675 -3.074776,3.9675 -2.239449,0 -2.686631,-2.19756 -1.692163,-8.31556 z m 109.846716,6.9877 c 3.92173,-1.50491 23.01831,-25.46429 21.50346,-26.97911 -0.54242,-0.54239 -3.32312,-0.37466 -6.17971,0.37209 -4.01582,1.05018 -4.5075,1.84949 -2.16813,3.52464 2.11718,1.51597 1.66416,1.67105 -1.50868,0.51605 -2.49382,-0.90756 -6.407,-1.57078 -8.69588,-1.47372 -2.64446,0.11184 -3.72398,-0.96387 -2.96128,-2.95152 0.6602,-1.72039 -0.0194,-3.56428 -1.50626,-4.09762 -1.48858,-0.53342 -1.97327,-1.75767 -1.07696,-2.72068 0.89633,-0.96308 4.27248,-0.0192 7.50267,2.09703 3.23018,2.11652 7.59789,3.47324 9.70606,3.0149 2.50989,-0.54562 -0.24935,-2.94188 -7.99402,-6.94176 -6.50495,-3.35966 -12.17657,-6.10848 -12.60368,-6.10848 -0.42736,0 -5.57334,5.55613 -11.43614,12.34699 l -10.65956,12.3469 11.9275,9.1539 c 6.56016,5.03462 12.09919,9.17048 12.30895,9.19085 0.20955,0.0192 1.93849,-0.5604 3.84166,-1.29085 z m -8.19052,-8.00186 c -9.35991,-6.98327 -7.49904,-9.67072 2.65122,-3.82899 4.88726,2.81277 8.39776,5.90387 7.80117,6.86913 -1.63214,2.64091 -3.60824,2.06619 -10.45239,-3.04014 z m 2.14141,-9.05961 c -3.19186,-1.85684 -3.51679,-3.07568 -1.47561,-5.53519 2.21717,-2.67157 3.43937,-2.55686 7.98949,0.74979 2.95453,2.14711 5.40389,4.66893 5.44307,5.60412 0.10274,2.45975 -7.17843,1.96114 -11.95695,-0.81872 z m -120.048961,4.88866 c 8.371327,-10.6158 8.348617,-12.73958 -0.192668,-18.01842 -7.668861,-4.73962 -20.761428,-18.20959 -25.296325,-26.02547 -2.143039,-3.69359 -2.856614,-3.68799 -13.03605,0.10147 -5.922892,2.20506 -10.768915,5.20807 -10.768915,6.67331 0,8.6748 33.596153,44.2012 41.460238,43.84234 1.511945,-0.0687 5.037129,-3.02709 7.833746,-6.57357 z m -10.75262,-2.57684 c -2.559172,-1.80992 -2.699435,-2.68958 -0.566771,-3.55497 1.558657,-0.63237 2.833928,-3.10532 2.833928,-5.49522 0,-5.20023 5.116054,-5.70714 9.103855,-0.90215 2.33858,2.81783 2.119266,4.25912 -1.207341,7.93505 -4.657081,5.14597 -5.502403,5.31378 -10.163646,2.01729 z m -10.705086,-9.13753 c -3.482939,-3.48291 -1.059968,-8.79233 4.012422,-8.79233 5.116218,0 7.15456,2.95974 5.32388,7.73043 -1.615289,4.20938 -5.721755,4.67645 -9.336302,1.0619 z M 33.842894,194.28506 c 0.31162,-5.83331 5.776325,-10.753 5.776325,-5.2003 0,1.48429 1.530328,2.11138 3.400711,1.39367 3.630907,-1.39333 4.244592,0.51671 2.024576,6.30224 -0.75687,1.97237 -3.659956,3.58614 -6.451309,3.58614 -4.074955,0 -5.011139,-1.19861 -4.750303,-6.08175 z m -8.034877,-10.67068 c 2.891263,-3.48377 13.811202,-6.29788 13.811202,-3.55921 0,0.95203 -3.212885,2.851 -7.139729,4.21992 -9.184274,3.20163 -9.824344,3.13825 -6.671473,-0.66071 z m -10.169035,23.67444 9.710251,-6.68082 -7.034625,-14.72364 c -4.749014,-9.93975 -8.3733546,-14.76697 -11.1549056,-14.85701 -3.04952,-0.0988 -3.762018,0.9954 -2.741704,4.21015 1.701247,5.36018 -0.933016,7.19722 -7.760397,5.41181 l -5.20712,-1.36167 5.380465,-2.98295 5.380469,-2.98287 -5.667853,-0.045 c -10.6336374,-0.0854 -11.4871134,2.33977 -5.771846,16.40188 5.409654,13.31012 11.701259,24.29161 13.917405,24.29161 0.681785,0 5.6092216,-3.00641 10.9498606,-6.68084 z M 3.0481184,204.71765 c -2.33118103,-1.44077 -2.43378203,-2.52705 -0.428135,-4.53265 1.450797,-1.4508 2.098276,-4.04383 1.438848,-5.76229 -1.369307,-3.56833 1.187183,-4.00411 5.919697,-1.00903 5.0266886,3.18127 5.2579086,10.81323 0.3663766,12.09243 -2.3269536,0.60861 -5.6105036,0.25384 -7.2967656,-0.78846 z m -8.771689,-15.83661 c 0,-0.8976 1.613753,-2.25121 3.586128,-3.00806 5.38031,-2.06458 12.7243186,-1.65586 11.311825,0.62979 -1.537704,2.48805 -14.897953,4.621 -14.897953,2.37846 z M 102.63267,198.94718 c 0.6528,-13.54777 0.53147,-13.87045 -5.667887,-15.11045 -3.484216,-0.69684 -10.230879,-3.91093 -14.992581,-7.14234 -4.761714,-3.23138 -9.825337,-5.15362 -11.252499,-4.27159 -5.302117,3.27691 -16.894101,3.06372 -19.737974,-0.36308 -2.349169,-2.83058 -2.191181,-3.433 0.900297,-3.433 2.062216,0 4.336699,-1.53035 5.054437,-3.40074 2.069871,-5.39391 7.396065,-3.95385 8.999094,2.43316 0.974729,3.88361 2.221002,5.07704 3.728088,3.56995 1.507073,-1.50709 0.653097,-5.59129 -2.554579,-12.2175 -2.650154,-5.47444 -4.818447,-13.20223 -4.818447,-17.1728 0,-4.83705 -1.098659,-7.21918 -3.32958,-7.21918 -2.13479,0 -2.881906,1.42367 -2.082056,3.96748 1.172042,3.72752 1.054098,3.73344 -1.950066,0.0977 -3.014577,-3.6484 -3.422942,-3.6484 -7.135683,0 -3.724938,3.66043 -3.859545,3.54906 -2.486712,-2.05746 1.042862,-4.25886 0.446663,-6.31291 -2.117937,-7.29707 -2.87644,-1.10376 -3.569366,0.36889 -3.569366,7.58434 v 8.95403 l 10.202109,-1.39835 c 6.649076,-0.91134 10.202133,-0.5469 10.202133,1.04663 0,1.34468 -4.327109,2.75865 -9.61579,3.14206 -6.83547,0.49549 -9.823857,1.79493 -10.335476,4.49388 -1.113221,5.87284 3.664827,21.25873 8.42892,27.1421 4.229978,5.22381 4.353363,5.23725 9.052854,0.98422 2.620446,-2.37145 5.367631,-3.70854 6.104877,-2.97129 0.737247,0.73724 -0.799318,2.67677 -3.414603,4.31 -2.615284,1.6333 -4.755021,3.99943 -4.754971,5.2582 6.4e-5,3.06469 13.352103,13.55794 24.153865,18.98227 20.242711,10.16535 22.150043,9.50895 22.989533,-7.91128 z m -14.132499,3.1744 c -3.316244,-1.85585 -3.499411,-2.6602 -0.97626,-4.28676 2.594041,-1.67225 2.545444,-2.37017 -0.294773,-4.2347 -2.683783,-1.76176 -2.137472,-2.23971 2.591372,-2.26716 6.910156,-0.0386 10.163532,5.67141 5.746579,10.08839 -2.135739,2.13572 -4.145904,2.33494 -7.066918,0.70023 z m -14.862604,-5.59584 c -0.0076,-1.48911 2.507031,-5.56994 5.584933,-9.06856 7.278412,-8.27313 7.279614,-3.90458 0.0013,4.97466 -3.066274,3.74076 -5.580113,5.58306 -5.586312,4.0939 z m -5.92719,-10.16314 c -0.992418,-1.60579 -1.927204,-4.58642 -2.077285,-6.62356 -0.213887,-2.90235 0.989672,-3.36634 5.560514,-2.14388 3.691688,0.9873 5.833411,3.15355 5.833411,5.9002 0,5.06918 -6.684376,7.12632 -9.31664,2.86724 z m -22.73122,-25.65556 c -0.785249,-2.04634 -0.340649,-4.80776 0.988053,-6.13645 3.454218,-3.45419 9.999002,-0.29689 9.096719,4.38805 -1.005032,5.21867 -8.269768,6.47821 -10.084772,1.7484 z m 82.146513,44.65929 c 12.59924,-6.42762 32.65194,-22.58 32.65194,-26.30099 0,-1.68245 -4.84604,-5.16836 -10.76894,-7.74641 l -10.76887,-4.68746 -8.11178,7.87836 c -5.05538,4.91 -11.24837,8.38742 -16.4367,9.22934 -9.17818,1.48942 -10.67918,4.99823 -3.93888,9.20761 3.79719,2.37133 4.51687,2.06403 5.35915,-2.28854 0.53534,-2.76534 1.04715,0.0733 1.13795,6.30791 0.11691,8.04827 -0.37725,9.99789 -1.70485,6.72266 -1.02836,-2.53713 -3.5142,-5.97777 -5.5241,-7.64577 -3.27002,-2.71387 -3.65433,-1.94732 -3.65433,7.28865 0,10.20746 0.0695,10.30148 6.29915,8.51484 3.46457,-0.9936 10.42167,-3.9097 15.46026,-6.4802 z m -3.7939,-10.88339 -5.49623,-5.8839 5.45305,0.78282 c 3.60502,0.51734 5.71307,2.5115 6.22037,5.88388 0.96982,6.44686 0.52312,6.39024 -6.17719,-0.7828 z m 9.89707,-3.18468 c 0.87953,-3.36326 0.0695,-4.53424 -3.13628,-4.53424 -2.37712,0 -4.32204,-1.02022 -4.32204,-2.26716 0,-2.32655 9.63594,-3.21115 11.76685,-1.08031 1.94744,1.94743 -0.77344,12.41602 -3.22702,12.41602 -1.247,0 -1.73368,-2.04044 -1.08151,-4.53431 z m 9.86878,-5.64211 c -0.60667,-1.58067 0.0926,-4.22429 1.55393,-5.87476 2.15141,-2.43007 1.99551,-2.50726 -0.81996,-0.40615 -4.44825,3.31993 -10.11833,-0.0126 -8.26049,-4.85191 1.79352,-4.67383 3.37542,-4.564 12.25671,0.85112 4.5505,2.77455 6.85049,5.68954 6.07781,7.70312 -1.66414,4.33655 -9.42302,6.18753 -10.808,2.57839 z m 75.22884,13.53582 c -0.40552,-1.20729 -1.92289,-1.92268 -3.37258,-1.5898 -1.61523,0.37082 -2.1712,-1.17117 -1.43595,-3.98291 1.41417,-5.40753 -2.09403,-6.05095 -6.1759,-1.13261 -3.1364,3.7792 -3.12219,3.81003 3.44624,7.47272 5.12939,2.86032 8.6361,2.50333 7.53819,-0.7674 z m -20.72134,-8.75102 c -0.65943,-1.71845 -0.0578,-4.26894 1.34443,-5.66781 1.87977,-1.87983 1.3053,-2.54344 -2.20173,-2.54344 -6.13791,0 -8.45011,6.01626 -3.43575,8.93966 5.18569,3.02328 5.69924,2.93613 4.29305,-0.72841 z m 23.02281,-10.05841 c -3.58878,-0.39267 -5.93537,-1.66781 -5.21468,-2.83399 0.72073,-1.16616 0.16977,-2.12024 -1.22432,-2.12024 -1.39409,0 -1.90417,-1.02022 -1.13357,-2.26715 2.16484,-3.50273 7.93504,-2.67839 7.93504,1.13358 0,4.51463 5.94378,4.37139 7.69242,-0.18568 0.75685,-1.97236 1.37611,-7.07344 1.37611,-11.3357 0,-6.95108 -0.64265,-7.74598 -6.23463,-7.71487 -4.7911,0.0257 -5.45164,0.52955 -2.85288,2.17275 2.55624,1.61608 2.7428,2.77696 0.76434,4.75544 -3.35524,3.3553 -7.74547,0.7271 -6.07168,-3.63478 0.94091,-2.45192 -0.42801,-3.3179 -5.20004,-3.28936 -5.74134,0.0321 -7.02336,1.45091 -11.28461,12.46921 l -4.80743,12.43058 h 7.35795 c 12.85377,0 21.51763,2.60394 21.6869,6.518 0.12007,2.78121 0.59768,2.57286 1.94778,-0.85016 1.51003,-3.82854 0.77283,-4.64537 -4.7367,-5.24792 z m -14.38389,-11.7717 c -0.77603,-1.25574 0.22812,-2.91206 2.23112,-3.68079 4.3408,-1.6657 6.76001,0.16966 4.67345,3.54597 -1.88261,3.04612 -5.06689,3.10825 -6.90457,0.13496 z m 4.54423,15.88602 c 0.77059,-1.24693 -0.24935,-2.26716 -2.26716,-2.26716 -2.01756,0 -3.03774,1.02023 -2.26715,2.26716 0.77067,1.24694 1.79089,2.26716 2.26715,2.26716 0.4762,0 1.4965,-1.02022 2.26716,-2.26716 z m -87.05338,-7.4585 c 4.2369,-2.85525 7.19336,-6.17095 6.56994,-7.36822 -0.62339,-1.19727 -1.8988,-1.9218 -2.83397,-1.61005 -0.9352,0.31169 -3.82381,-1.55663 -6.4191,-4.15193 -4.09846,-4.09852 -4.3041,-5.21597 -1.56447,-8.5018 1.73485,-2.08065 2.98623,-5.89383 2.78083,-8.4737 -0.31169,-3.91132 0.88905,-4.66464 7.22567,-4.53424 4.17951,0.0862 7.75509,0.9215 7.94582,1.85669 1.23385,6.05059 0.19798,7.36822 -5.79352,7.36822 -7.8254,0 -10.46882,4.95351 -3.93362,7.37104 2.5239,0.93364 4.64979,2.46264 4.72416,3.3979 0.33096,4.1581 3.76654,0.99715 6.19743,-5.70188 3.45021,-9.50774 3.66569,-24.03704 0.49163,-33.14216 -2.07473,-5.95175 -3.36081,-6.94536 -7.35042,-5.67913 -4.07261,1.29263 -4.39781,1.00723 -2.06091,-1.80856 2.26785,-2.73257 1.64345,-4.40636 -3.41848,-9.1634 -6.70603,-6.30207 -22.60212,-15.353009 -26.964404,-15.353009 -1.485729,0 -3.139733,1.275284 -3.67572,2.833915 -0.535975,1.558695 -0.706199,1.048556 -0.378518,-1.133579 0.424787,-2.825818 -0.94315,-3.967481 -4.752858,-3.967481 -5.062395,0 -5.2976,0.637509 -4.393268,11.902524 0.997428,12.42461 0.109189,11.08481 -2.25448,-3.400727 -1.121129,-6.870808 -2.358089,-8.501797 -6.447906,-8.501797 -6.93856,0 -28.740977,15.613404 -28.740977,20.582274 0,0.87824 4.179774,3.26924 9.288375,5.31326 7.761842,3.10569 8.834045,4.26394 6.523832,7.0476 -1.768975,2.13149 -1.896346,3.33112 -0.353656,3.33112 1.326032,0 3.107128,-1.12644 3.958018,-2.5032 0.850877,-1.37681 5.592157,-4.31425 10.536178,-6.52775 8.028489,-3.59449 9.692514,-3.67366 15.571485,-0.74085 3.620254,1.80599 8.014659,5.32863 9.765319,7.82804 3.1819,4.54279 3.18614,4.54279 12.35694,-0.1356 5.04565,-2.57407 10.7721,-4.0669 12.72536,-3.31737 6.20348,2.38052 7.38352,16.73265 1.37575,16.73265 -1.02786,0 -2.4293,-2.14307 -3.11432,-4.76239 -0.68576,-2.62234 -2.33269,-4.09036 -3.6651,-3.26692 -1.33088,0.82252 -2.41973,-0.12791 -2.41973,-2.11145 0,-3.20561 -0.68603,-3.24746 -6.1667,-0.37595 -5.36264,2.80975 -6.08137,4.41413 -5.51174,12.30374 0.51992,7.20439 -0.36437,9.78671 -4.2956,12.54029 -7.854459,5.50143 -15.662141,0.9222 -15.731209,-9.22639 -0.04745,-6.94156 -3.73716,-6.45681 -5.540398,0.72787 -0.80462,3.20588 -2.700599,5.39591 -4.213264,4.86676 -1.512666,-0.52892 -3.989421,1.1837 -5.503896,3.80643 l -2.753599,4.76856 -0.08034,-4.96727 c -0.08806,-5.44918 -3.538583,-8.81008 -5.607745,-5.46204 -1.911503,3.09283 2.679925,13.83003 5.914018,13.83003 1.521295,0 5.616742,-2.7312 9.101034,-6.06935 3.484254,-3.33813 7.08692,-5.31744 8.005917,-4.39844 0.918984,0.91899 -2.386064,5.14219 -7.344559,9.38492 -4.958495,4.24275 -7.800394,7.75234 -6.31531,7.79918 1.485071,0.045 3.332339,-0.93789 4.105062,-2.18817 0.934306,-1.51172 2.877857,-1.48498 5.801667,0.0797 3.521161,1.88445 4.396684,1.61164 4.396684,-1.37001 0,-2.52048 -1.201989,-3.26179 -3.721383,-2.29498 -3.013678,1.15645 -3.210421,0.81237 -1.034511,-1.80945 3.294179,-3.96923 9.429144,-3.32747 12.342503,1.29109 1.561136,2.47492 0.820992,4.77073 -2.660453,8.25213 -4.759943,4.75994 -11.727553,4.57928 -11.727553,-0.30399 0,-1.67719 -0.866983,-1.611 -2.68281,0.20502 -3.110164,3.1102 -3.184939,3.01391 7.217075,9.28975 10.893756,6.57248 26.42283,6.40784 36.50574,-0.38688 z m -20.63579,-8.41151 c 0,-4.9877 0.8149,-9.06855 1.81081,-9.06855 0.99598,0 1.76113,4.07764 1.70041,9.06141 -0.0644,4.98371 -0.87564,9.06457 -1.8108,9.06855 -0.9352,0.005 -1.70042,-4.07365 -1.70042,-9.06141 z m 8.16101,0.90492 c -1.84854,-4.81714 -0.33032,-6.39936 4.39901,-4.5845 2.02791,0.77819 3.2834,2.62582 2.79004,4.10592 -1.44681,4.34034 -5.60108,4.61696 -7.18905,0.47877 z m 1.73323,-31.49614 c -0.78525,-2.04634 -0.34059,-4.80776 0.98808,-6.13644 3.45419,-3.4542 9.99898,-0.29691 9.0967,4.38803 -1.00505,5.21874 -8.2698,6.47821 -10.08478,1.74841 z m 1.64352,-19.16097 c -4.17152,-2.57814 -0.88338,-11.46058 4.24249,-11.46058 3.40027,0 6.89117,4.07321 6.89117,8.04069 0,2.38361 -8.5574,5.01212 -11.13366,3.41989 z m -49.85734,-9.53172 c -3.556271,-10.201484 -3.108356,-11.616803 2.045364,-6.4631 6.252403,6.25238 8.45177,5.70213 10.268418,-2.56901 1.147661,-5.225219 2.085219,-6.274167 3.546137,-3.967484 3.402115,5.371744 2.497732,13.365334 -1.345289,11.890644 -1.870396,-0.71773 -3.400712,-0.20758 -3.400712,1.13356 0,1.34856 -1.695933,1.78774 -3.794297,0.9825 -2.874529,-1.10306 -3.441338,-0.53597 -2.338289,2.33829 0.800812,2.08689 0.56758,3.79436 -0.518173,3.79436 -1.085816,0 -3.094236,-3.21289 -4.463134,-7.13976 z m 36.61926,5.63827 c -4.377315,-1.76628 -3.355038,-7.12864 1.89454,-9.93814 5.91133,-3.16365 6.49941,-2.55261 5.00918,5.20499 -1.21591,6.32943 -1.85755,6.76932 -6.90372,4.73315 z m -11.493399,-7.95632 c 1.068015,-7.258198 6.392325,-8.035552 6.392325,-0.93326 0,3.80991 -1.24359,5.85675 -3.558371,5.85675 -2.363151,0 -3.315056,-1.6538 -2.833954,-4.92349 z m -56.247004,66.25322 c 5.760481,-2.19503 6.346685,-3.28871 5.101058,-9.51685 -0.77405,-3.87033 -1.407367,-12.01044 -1.407367,-18.08916 0,-6.0788 -1.020197,-11.0523 -2.267132,-11.0523 -1.246937,0 -2.267133,1.56235 -2.267133,3.47188 0,5.77012 -6.735614,6.49799 -13.544826,1.46376 l -6.416082,-4.74362 -1.260655,5.02286 c -0.693351,2.7625 -0.303523,11.64617 0.866312,19.74141 1.169827,8.09526 2.147471,15.61128 2.172541,16.7024 0.05076,2.21054 9.089754,0.78487 19.023284,-3.00038 z m -11.948241,-4.22512 c -1.958985,-3.66043 -1.583747,-4.6699 2.093273,-5.63145 2.464069,-0.64438 4.480106,-2.908 4.480106,-5.03031 0,-2.98389 -1.284988,-3.53626 -5.667843,-2.43623 -4.807854,1.20671 -5.667855,0.63622 -5.667855,-3.76101 0,-4.50229 1.062866,-5.13357 8.08712,-4.80318 9.469923,0.44536 12.402806,2.50532 7.717205,5.4202 -2.741397,1.70534 -2.830593,2.88867 -0.501152,6.64735 3.323644,5.36289 3.723108,11.43564 0.752222,11.43564 -1.144959,0 -3.617225,0.58931 -5.493984,1.30941 -2.033472,0.78032 -4.376706,-0.49293 -5.799092,-3.15042 z m 144.626874,0.14075 c 8.39485,-20.32444 7.04181,-51.30645 -2.89652,-66.3243 -4.81444,-7.275095 -24.61017,-22.668841 -33.5753,-26.109027 -1.78568,-0.685259 -4.75148,1.680662 -7.10826,5.670386 -3.96499,6.712199 -2.59125,9.27709 2.33192,4.35392 2.74952,-2.749474 12.01737,-0.709564 12.01737,2.645093 0,1.162945 -1.53036,2.114394 -3.40073,2.114394 -1.8704,0 -3.40066,1.530291 -3.40066,3.400737 0,5.048946 -5.77283,4.116905 -9.52779,-1.538325 -2.71452,-4.08831 -3.51078,-4.335915 -4.62293,-1.437612 -0.91142,2.374993 1.76826,5.694869 8.32937,10.319534 13.74815,9.69064 20.39724,24.20311 18.79793,41.02908 -0.67124,7.06199 -1.91022,14.56265 -2.75326,16.66805 -1.17739,2.94033 1.00815,5.1501 9.4251,9.52978 6.02686,3.13596 11.59932,5.74933 12.38323,5.80734 0.78391,0.0578 2.5841,-2.70005 4.00053,-6.12905 z m -19.07204,-7.18056 c -1.83774,-4.76624 1.43073,-6.64009 9.40947,-5.39456 5.40009,0.84303 6.84979,2.06124 6.05766,5.09039 -1.27703,4.88328 -13.60814,5.12581 -15.46713,0.30398 z m 13.12927,-10.34088 c -2.09081,-3.73613 -2.97727,-3.92719 -6.11984,-1.31911 -5.4753,4.54407 -6.60186,1.53568 -1.24157,-3.31532 4.21563,-3.81505 4.93246,-3.86626 8.21205,-0.58675 1.97635,1.9763 3.14354,4.94253 2.59386,6.59164 -0.71084,2.13238 -1.7056,1.73658 -3.4445,-1.37058 z m -11.9523,-12.12141 c 0,-3.11398 5.32682,-7.19818 9.38812,-7.19818 3.61146,0 8.01756,3.94056 6.14204,5.49303 -2.13304,1.76569 -15.53016,3.23659 -15.53016,1.70515 z m 0.15552,-13.70947 c -1.80591,-3.37438 -1.53106,-4.68128 1.20525,-5.73132 6.54413,-2.51123 14.50943,-1.46447 14.50943,1.9067 0,5.15035 -4.02196,6.29831 -6.5931,1.8818 -2.12699,-3.65347 -2.34377,-3.66987 -2.40649,-0.18123 -0.10412,5.80214 -4.0746,7.05808 -6.71509,2.12429 z m -1.51273,-11.13167 c -2.95883,-1.93341 -3.34265,-9.93279 -0.38882,-8.10734 1.11772,0.69079 3.84134,-0.38108 6.05258,-2.38244 3.73088,-3.37637 4.20687,-3.22907 6.60996,2.04506 2.37171,5.20537 2.13277,5.68343 -2.84079,5.68343 -2.98666,0 -5.77038,0.98751 -6.186,2.19447 -0.41579,1.20698 -1.87665,1.46204 -3.24674,0.56682 z m -11.4197,-15.215398 c -0.78526,-2.046337 -0.34061,-4.807755 0.988,-6.136445 3.45427,-3.454205 9.99904,-0.29691 9.09677,4.388043 -1.00503,5.21866 -8.26979,6.47821 -10.08477,1.748402 z M 1.9385044,169.80067 10.733875,168.31131 9.4663054,156.56669 c -1.16569,-10.8007 -0.125586,-20.89678 4.0280896,-39.09848 1.512761,-6.6291 1.147662,-7.08081 -7.9183166,-9.79706 -5.22730703,-1.56615 -10.80673,-3.34732 -12.398724,-3.95823 -6.4464214,-2.47377 -12.5976194,36.73106 -9.2576314,59.00378 1.2719,8.48162 2.374289,10.44021 5.410391,9.61269 2.0971644,-0.57198 7.7709424,-1.70961 12.6083904,-2.52872 z m -12.1960774,-7.97515 c -2.016916,-3.76865 -1.724137,-4.53424 1.7339454,-4.53424 2.288342,0 5.224067,-1.06347 6.523839,-2.36323 3.134339,-3.13435 8.606871,3.30248 6.803416,8.00219 -1.92753,5.02305 -12.184348,4.27076 -15.0612004,-1.10472 z m 0.5668204,-10.72498 c -1.5586594,-0.5437 -2.8339284,-2.83482 -2.8339284,-5.09136 0,-4.40835 3.9111334,-6.79985 8.5017754,-5.19856 1.558659,0.54368 2.833922,2.83475 2.833922,5.09129 0,4.40835 -3.911125,6.79992 -8.501769,5.19863 z m -0.5668204,-17.767 c 0,-2.63033 1.3252304,-3.15312 5.1010664,-2.01234 8.771263,2.65004 9.899577,5.56583 2.15378,5.56583 -5.075953,0 -7.2548464,-1.06726 -7.2548464,-3.55349 z m 6.2346334,-8.04853 c -4.675973,-2.40694 -8.5017734,-4.64016 -8.5017734,-4.96264 0,-0.32261 4.8460144,-0.68417 10.7689154,-0.80376 5.922903,-0.11957 8.983541,0.24355 6.801417,0.80672 -4.61208703,1.19058 -5.23221003,4.39646 -1.133572,5.86023 1.558662,0.55654 2.323819,1.56647 1.70036,2.24396 -0.623439,0.67747 -4.95937203,-0.73752 -9.635347,-3.14451 z m 0.362907,-13.08476 -5.463989,-4.46348 6.30888,0.66868 c 7.664944,0.81238 10.035906,2.84149 6.938956,5.93844 -1.581711,1.58171 -4.05840903,0.89965 -7.783847,-2.14364 z M 107.6337,141.12456 c 0,-8.78932 -5.9592,-18.99594 -12.950688,-22.18152 -8.068546,-3.67623 -9.540534,-2.79522 -2.081245,1.24572 5.911007,3.20222 6.180526,3.84982 2.947672,7.08268 -2.931351,2.93134 -4.177345,3.04439 -7.072687,0.64138 -1.932961,-1.60426 -3.514493,-4.83231 -3.514493,-7.17343 0,-4.99227 -0.297088,-5.05711 -7.703592,-1.68248 -6.200693,2.82524 -9.646573,8.66786 -5.261301,8.92082 1.519536,0.0874 0.723254,0.9553 -1.769456,1.92815 -2.836193,1.10685 -5.381422,0.71663 -6.801422,-1.04277 -2.725992,-3.37753 -19.035028,-8.83958 -20.881283,-6.9933 -2.768933,2.76894 4.496435,7.89481 10.930777,7.71185 3.71722,-0.10603 7.935406,0.98467 9.373727,2.42299 3.052294,3.05229 16.180591,3.58897 14.324391,0.58546 -1.997538,-3.23203 5.418999,-4.98596 10.219543,-2.41682 2.403524,1.28633 4.370026,3.90612 4.370026,5.82167 0,3.0668 0.435086,3.04798 3.640914,-0.15809 4.272869,-4.27287 9.961957,-1.06385 9.961957,5.61923 0,5.50722 -5.921421,7.32247 -10.13652,3.10736 -1.90648,-1.90643 -3.466351,-2.44606 -3.466351,-1.19912 0,1.24687 1.601193,3.86826 3.558206,5.82526 5.342315,5.34232 12.311825,0.77671 12.311825,-8.0653 z m 123.41514,9.59809 c 1.97596,-3.19707 -1.29332,-16.18273 -3.69974,-14.69543 -1.18691,0.73353 -6.18993,1.48215 -11.11772,1.66351 -6.85771,0.25256 -8.80398,-0.46786 -8.29608,-3.07086 0.46013,-2.35873 3.57153,-3.42605 10.15398,-3.48344 5.21971,-0.045 10.10638,-0.69876 10.85936,-1.45175 0.75295,-0.75293 0.455,-4.79658 -0.66191,-8.98584 -2.18112,-8.1797 -6.63285,-9.29875 -18.63181,-4.68354 -5.45936,2.09987 -5.64039,2.81566 -4.9219,19.46084 l 0.74585,17.28083 h 12.15637 c 6.68599,0 12.72212,-0.91545 13.4136,-2.03432 z m -20.92172,-1.76581 c -2.24882,-0.90236 -2.31598,-1.91325 -0.28919,-4.35534 4.02776,-4.85319 11.15274,-3.98811 11.15274,1.35407 0,4.45412 -4.28925,5.6391 -10.86355,3.00127 z m 4.0621,-26.80625 c 0,-1.87038 1.53034,-3.40073 3.40071,-3.40073 1.8704,0 3.40074,1.53035 3.40074,3.40073 0,1.87037 -1.53034,3.40073 -3.40074,3.40073 -1.87037,0 -3.40071,-1.53036 -3.40071,-3.40073 z M 73.626597,141.18991 c -2.732141,-1.95155 -2.397855,-2.20931 1.700337,-1.31114 2.805587,0.61503 5.101073,0.19344 5.101073,-0.93686 0,-1.13023 -3.570758,-2.05488 -7.934989,-2.05488 -11.049898,0 -9.997584,6.11549 1.133579,6.58771 3.022852,0.12853 3.022852,-0.12525 0,-2.28483 z m -43.99241,-7.95605 c -1.048289,-2.7318 -0.440458,-3.28423 2.410102,-2.19036 2.114903,0.81154 4.634191,0.16708 5.658847,-1.4479 2.733242,-4.30765 2.306291,-6.31877 -1.066662,-5.02447 -1.640638,0.62981 -5.976544,-0.50962 -9.635341,-2.53199 l -6.652346,-3.67675 9.545779,1.09959 c 8.98194,1.03461 9.824315,0.62722 14.261739,-6.89343 2.593776,-4.39613 4.419459,-8.19936 4.05706,-8.45154 -0.362373,-0.25256 -4.383817,-3.22843 -8.936453,-6.613806 l -8.277584,-6.155145 -4.819214,6.767982 c -14.106369,19.810569 -13.792791,38.617189 0.645857,38.736209 2.94605,0.0257 3.78918,-1.06206 2.808216,-3.61839 z m 0.349936,-18.24887 c -8.801736,-4.6361 -7.748504,-7.36809 1.700343,-4.41065 4.36424,1.36602 7.934994,3.76427 7.934994,5.32958 0,3.46995 -1.59096,3.31822 -9.635337,-0.91893 z m 0.02701,-10.89414 c -0.615402,-3.21936 -0.23559,-6.399406 0.844144,-7.066673 1.079708,-0.667331 1.963083,0.377227 1.963083,2.321195 0,2.023068 1.938947,3.534538 4.534289,3.534538 2.493841,0 4.534283,1.02021 4.534283,2.26715 0,1.24687 -0.936786,2.26709 -2.081727,2.26709 -1.144928,0 -3.565227,0.56938 -5.378398,1.26506 -2.229564,0.85557 -3.658918,-0.62979 -4.415674,-4.58836 z m 158.189304,21.59471 c -0.78194,-1.26513 1.93072,-1.6056 6.66758,-0.83692 4.39221,0.71276 7.9858,0.69059 7.9858,-0.0514 0,-0.73982 -2.11373,-6.99457 -4.69715,-13.89944 -5.06673,-13.542063 -7.32721,-14.659384 -18.2405,-9.01592 -3.76338,1.94616 -7.95639,3.16714 -9.31777,2.71335 -1.36139,-0.45371 2.27852,-2.6406 8.08863,-4.85949 5.81017,-2.218952 10.56119,-4.715217 10.55784,-5.547255 -0.003,-0.83205 -3.95625,-6.093642 -8.78412,-11.692443 l -8.77801,-10.179634 -6.86188,7.345719 c -6.66495,7.134873 -11.84409,9.45627 -11.84409,5.308709 0,-1.120268 4.16478,-4.49646 9.25505,-7.502598 8.15463,-4.815786 8.8285,-5.819677 5.66782,-8.442794 -2.42474,-2.012341 -3.58718,-2.146271 -3.58718,-0.413227 0,1.814019 -1.37244,1.729446 -4.69238,-0.289193 -4.12532,-2.508343 -5.29997,-2.099679 -9.72053,3.381515 -5.57605,6.914055 -8.25848,7.887988 -8.25848,2.998422 0,-1.779821 2.65956,-5.328172 5.91016,-7.885033 4.7041,-3.700271 6.84176,-4.150321 10.47569,-2.205523 3.30255,1.76749 4.13928,1.753673 3.0246,-0.05141 -2.63205,-4.258738 2.33866,-2.735841 6.66162,2.040939 5.2204,5.768524 8.42666,5.719683 13.79289,-0.210148 2.36144,-2.609302 6.34535,-5.765889 8.85315,-7.014629 2.5078,-1.248676 0.1343,1.651427 -5.27441,6.444658 l -9.83407,8.714968 5.8666,5.496291 5.86658,5.496229 0.35732,-5.496229 c 0.19652,-3.022978 0.31168,-6.760593 0.25576,-8.305784 -0.0578,-1.545262 0.73335,-2.293758 1.7533,-1.66338 1.02002,0.630442 2.49537,0.109253 3.27855,-1.157997 0.78322,-1.267249 2.44423,-2.304108 3.69116,-2.304108 1.24694,0 1.68202,0.946759 0.96688,2.10392 -0.71516,1.157163 0.75416,2.755957 3.2652,3.552912 3.58407,1.137558 4.09561,2.32692 2.37979,5.532989 -1.20207,2.246206 -1.79948,4.473192 -1.32745,4.948816 0.4717,0.475573 -2.25438,1.089878 -6.05864,1.364811 -3.80424,0.275048 -7.33736,0.920528 -7.85142,1.434589 -0.51412,0.514125 1.50002,4.522233 4.4757,8.907125 2.97561,4.384879 6.68283,11.044633 8.2381,14.799473 l 2.82783,6.82698 10.57782,-3.52638 c 5.81779,-1.93952 10.93616,-3.82199 11.37412,-4.18323 2.65732,-2.1919 -17.51609,-36.844417 -28.1125,-48.289823 -11.11997,-12.010878 -34.12278,-29.458027 -35.86677,-27.204174 -0.36565,0.472349 -3.27778,5.637293 -6.47215,11.478117 -4.99155,9.126838 -5.31083,10.810334 -2.2712,11.976751 5.08132,1.949874 9.38936,-2.894449 5.02678,-5.652526 -2.68753,-1.699111 -2.30321,-2.145177 1.8721,-2.172746 4.34744,-0.03215 5.01167,-0.914756 3.85007,-5.135769 -1.30067,-4.726589 -1.16659,-4.806921 1.82631,-1.094183 2.01375,2.497995 4.83256,3.485691 7.48562,2.622863 3.24971,-1.056907 2.9159,-0.215937 -1.41228,3.558053 -3.11733,2.718169 -4.13755,4.254883 -2.26716,3.414997 1.87037,-0.839818 0.8787,0.521835 -2.20378,3.026707 -3.08244,2.504485 -6.55578,3.965752 -7.71848,3.247137 -1.16276,-0.718615 -1.38607,-0.128525 -0.49612,1.310885 2.17697,3.522447 1.86658,3.435626 -10.93668,-3.059933 -6.13419,-3.11205 -14.29591,-5.539995 -18.13711,-5.395335 -4.05892,0.152951 -5.27188,0.70692 -2.89604,1.322968 3.227,0.836798 3.53168,1.730152 1.44665,4.242413 -1.45264,1.750334 -2.0489,4.725755 -1.32508,6.612009 1.65446,4.311499 -7.47925,4.759364 -12.14853,0.59574 -2.70356,-2.410917 -2.72985,-2.241705 -0.17603,1.133575 1.65123,2.182132 3.85257,3.967488 4.89202,3.967488 1.03936,0 7.19052,3.125418 13.66916,6.945409 6.47872,3.820007 12.38984,6.11543 13.13584,5.101073 1.9743,-2.684556 7.02421,-3.33139 7.02421,-0.899715 0,1.143018 -1.25651,2.497024 -2.79221,3.00896 -1.64319,0.547551 0.83571,4.11607 6.02374,8.671274 9.19766,8.07558 17.03764,22.277445 17.12291,31.017555 0.045,4.32518 1.27715,5.10106 8.11858,5.10106 4.46325,0 7.47978,-0.95306 6.75064,-2.13284 z m -10.28516,-3.29244 c 0,-2.0038 1.0804,-3.64328 2.40094,-3.64328 1.32053,0 1.66325,-1.19352 0.76167,-2.65235 -1.09695,-1.77488 -0.41066,-2.1811 2.07341,-1.22779 2.26541,0.86939 4.59283,-0.0849 5.97083,-2.44864 2.11857,-3.63388 2.26237,-3.63504 2.32705,-0.0192 0.0386,2.12019 1.8543,4.89471 4.03644,6.16568 2.18213,1.27099 2.94728,2.42692 1.70038,2.56875 -7.54732,0.85847 -11.79468,1.75516 -15.30318,3.23076 -2.82492,1.18807 -3.96754,0.61951 -3.96754,-1.97462 z m -4.53427,-12.63207 c 0,-3.13267 8.71394,-7.36789 11.55139,-5.61429 1.36533,0.84381 -0.22305,2.83186 -3.7067,4.63913 -7.23596,3.75406 -7.84469,3.82976 -7.84469,0.97516 z m 32.56564,-3.46525 c -0.78525,-2.0464 -0.3406,-4.80776 0.98803,-6.13645 3.45419,-3.454251 9.99898,-0.297538 9.09669,4.38798 -1.00498,5.21874 -8.26974,6.47821 -10.08472,1.74847 z m -38.47604,-9.269181 c 0.75685,-1.972373 1.37611,-4.522878 1.37611,-5.667831 0,-3.2211 5.45849,-2.462509 10.3356,1.436398 4.27585,3.418146 4.25565,3.478105 -0.71142,2.110801 -3.50085,-0.963723 -5.54242,-0.285979 -6.47717,2.149744 -0.75075,1.956368 -2.38522,3.557019 -3.6321,3.557019 -1.24694,0 -1.6479,-1.613771 -0.89102,-3.586131 z m 31.22166,-1.482225 c -3.57381,-3.573857 0.98305,-8.53444 7.83987,-8.53444 6.76075,0 6.75119,2.30886 -0.0321,7.233523 -3.88657,2.822528 -5.94519,3.165455 -7.80978,1.300917 z M 161.28963,92.2999 c -2.38977,-2.389783 -1.76262,-5.289946 1.14397,-5.289946 1.46043,0 4.52737,-1.694099 6.81529,-3.764666 6.62062,-5.991589 7.29758,-1.874039 0.76577,4.657764 -6.52325,6.52325 -6.57342,6.548516 -8.72503,4.396848 z M 131.69329,67.584527 c -0.6851,-1.785292 -0.25773,-3.24598 0.95033,-3.24598 1.2078,0 2.19603,-2.040427 2.19603,-4.534308 0,-4.766049 3.57097,-5.793457 8.74381,-2.515796 2.14428,1.358697 2.31594,2.418756 0.56682,3.499763 -1.3801,0.852931 -2.50923,3.31391 -2.50923,5.468791 0,4.79741 -8.19646,5.891271 -9.94776,1.32753 z m 41.6877,-6.512911 c 0,-4.676976 1.09868,-5.80162 5.66782,-5.80162 3.11732,0 5.66789,0.988145 5.66789,2.195947 0,1.207805 -1.53034,1.608755 -3.40074,0.891041 -2.1203,-0.813666 -3.40071,0.01929 -3.40071,2.204495 0,1.930211 -1.02021,4.139974 -2.26711,4.910646 -1.28581,0.79464 -2.26715,-1.110057 -2.26715,-4.400509 z M 56.623307,119.88864 c -2.493848,-1.7882 -5.700828,-4.24492 -7.126611,-5.45941 -2.570875,-2.18991 -5.342655,-1.02652 -5.342655,2.24241 0,1.68266 10.360679,6.15514 14.736398,6.36144 1.24693,0.0578 0.226665,-1.3562 -2.267132,-3.14444 z M 30.096805,88.822238 39.844518,75.356202 30.096805,66.539637 C 24.735542,61.690558 19.658191,57.681234 18.813776,57.630077 16.095319,57.465549 3.5712124,74.037736 -2.8400876,86.283183 c -4.937392,9.430296 -5.647532,12.471848 -3.429721,14.689647 4.344095,4.34408 10.016099,-4.39524 6.83418597,-10.529952 -1.98858897,-3.834063 -1.351371,-3.6574 3.97261003,1.101316 3.487617,3.117326 5.440962,4.13754 4.340772,2.267157 -2.280138,-3.87636 -3.743594,-11.335699 -2.223969,-11.335699 0.556989,0 3.6111986,1.18396 6.7871886,2.631024 6.736,3.06912 7.807985,7.498156 1.409873,5.825009 -3.061891,-0.800748 -4.004542,-0.203081 -3.158155,2.002701 0.66358,1.729259 2.117571,3.144123 3.231089,3.144123 1.11352,0 2.024579,1.020215 2.024579,2.267082 0,1.246943 -1.445297,2.267159 -3.211778,2.267159 -1.766483,0 -3.726364,1.27528 -4.3552956,2.83391 -0.655617,1.62482 -1.219879,1.06057 -1.322498,-1.32245 -0.09846,-2.286045 -1.390485,-3.752593 -2.871211,-3.259029 -5.54722703,1.849039 -4.004388,5.661199 3.186348,7.872959 5.9114496,1.81833 7.9068586,1.59623 9.7080056,-1.08056 1.246927,-1.85316 6.653606,-9.429078 12.014869,-16.835342 z M 13.535077,80.194614 c -2.263826,-2.501528 -3.5369696,-5.127288 -2.8292,-5.835043 2.059717,-2.059701 15.598831,5.81628 14.117801,8.212605 -2.163493,3.500664 -6.865023,2.510397 -11.288601,-2.377562 z m 5.680428,-6.740286 c -2.991154,-1.89139 -2.949101,-2.602163 0.349219,-5.901355 4.300851,-4.301989 7.644774,-3.034098 9.366987,3.551625 1.312019,5.017129 -3.614067,6.208478 -9.716219,2.34973 z m 40.307268,22.531124 c 6.437418,-5.85535 7.103938,-7.441677 4.973058,-11.836071 -2.440493,-5.032815 -2.427082,-5.037256 1.634798,-0.540479 3.23937,3.586458 6.395424,4.387852 15.097405,3.83381 6.05103,-0.384945 15.482831,0.826268 20.959526,2.692337 l 9.95759,3.392955 6.69371,-9.728939 6.6936,-9.728939 -10.6496,-4.795357 C 93.033234,59.436191 72.571741,57.622882 59.903784,64.402619 c -3.695737,1.977895 -4.051582,3.26179 -2.050665,7.399 2.340338,4.839053 2.302963,4.858461 -1.121231,0.582246 -3.438782,-4.294149 -3.839795,-4.131301 -13.727887,5.573097 -5.602115,5.498088 -10.159528,10.549223 -10.127601,11.224777 0.06463,1.364293 16.285985,13.519571 18.079063,13.547201 0.623427,0.0128 4.478759,-3.025231 8.56731,-6.74407 z M 40.942531,92.353293 c -2.303786,-6.003597 0.675732,-6.619584 6.045438,-1.249891 l 4.975107,4.975107 h -4.795534 c -2.63754,0 -5.438787,-1.67636 -6.225011,-3.725216 z m 13.216395,-4.513287 c 0.812958,-2.11857 -0.758997,-3.180297 -4.974969,-3.360237 -3.837239,-0.163885 -4.666063,-0.654286 -2.195988,-1.299766 2.22958,-0.58289 3.982689,-3.198427 4.002199,-5.971675 0.01923,-2.72312 0.781226,-3.884711 1.700362,-2.591827 2.996105,4.214529 8.346212,2.315932 11.394141,-4.043313 4.288899,-8.948504 10.680642,-8.268704 10.65807,1.133576 -0.01442,6.457062 -0.761539,7.368151 -6.03319,7.368151 -7.759236,0 -10.065413,2.407066 -6.46386,6.746638 3.198983,3.854573 3.227527,3.822259 -4.048127,4.574929 -3.618103,0.374026 -4.861301,-0.412577 -4.038638,-2.556476 z m 51.279504,0.631081 c -0.0386,-1.066926 2.47892,-4.970982 5.59622,-8.675689 3.11732,-3.70477 5.66782,-5.6943 5.66782,-4.421204 0,2.835648 -11.16358,15.815775 -11.26404,13.096893 z M 94.269056,78.386316 c -2.519419,-4.707499 0.404859,-11.70896 3.081204,-7.377987 1.157858,1.873464 2.450805,1.928733 4.54079,0.194089 2.19542,-1.822115 3.22182,-1.278364 4.12795,2.1867 0.79322,3.033454 -0.22497,5.377462 -2.97478,6.84921 -5.626992,3.011465 -6.241651,2.881716 -8.775164,-1.852202 z M 78.986788,72.289009 c -0.785249,-2.046339 -0.340649,-4.807757 0.988053,-6.136444 3.454243,-3.454263 9.999002,-0.296905 9.096719,4.388041 -1.005019,5.218672 -8.269768,6.47814 -10.084772,1.748403 z M 50.988068,67.7155 c 8.58973,-6.337273 20.152007,-10.146346 30.857169,-10.165432 5.882717,-0.01278 7.315951,-1.070468 8.447202,-6.247301 0.749305,-3.429008 1.961176,-8.320247 2.692982,-10.869331 1.119295,-3.898595 0.317445,-4.618754 -5.046466,-4.534243 -4.884732,0.07711 -6.377129,-0.953443 -6.377129,-4.402822 0,-5.756184 7.851952,-7.445913 11.488678,-2.472352 2.406093,3.290515 2.893812,3.026578 4.227701,-2.288105 0.829343,-3.304268 0.914556,-6.601017 0.189531,-7.326189 C 94.802475,16.744449 69.774593,23.695649 54.356288,31.383523 45.627813,35.7357 34.405464,42.842102 29.417768,47.175388 l -9.068568,7.878804 10.202123,9.079927 c 5.611175,4.993996 10.769093,9.123428 11.462045,9.176644 0.692926,0.05137 4.731602,-2.464704 8.974814,-5.595263 z M 36.975125,62.493295 c -3.190272,-3.245208 -3.332107,-4.676785 -0.911421,-9.199846 2.390673,-4.467022 3.100451,-4.747666 4.273834,-1.689921 0.773876,2.016713 2.969396,3.666789 4.878925,3.666789 4.141868,0 4.560936,4.805443 0.751278,8.615095 -3.450978,3.450987 -4.371493,3.30851 -8.992616,-1.392117 z M 46.50359,49.701723 c -3.39875,-4.095245 -1.21611,-8.034264 4.451873,-8.034264 2.346665,0 4.924802,1.064878 5.729207,2.366443 1.503316,2.43238 -2.672182,8.969261 -5.729207,8.969261 -0.941581,0 -2.944914,-1.485621 -4.451873,-3.30144 z m 19.98773,-0.483918 c -4.244491,-1.127344 -6.717285,-8.01203 -4.288963,-11.94115 1.202382,-1.94544 2.232895,-1.863695 3.978932,0.315544 2.298889,2.869512 6.195303,13.403316 4.764409,12.880387 -0.395725,-0.144585 -2.400221,-0.709426 -4.454378,-1.255038 z m 5.759395,-8.869521 c 0.756883,-1.972369 1.376148,-6.223265 1.376148,-9.446432 0,-7.783563 1.311874,-5.927644 3.202665,4.530772 1.268098,7.014182 0.881609,8.501796 -2.208932,8.501796 -2.484435,0 -3.282552,-1.20774 -2.369881,-3.586136 z m 39.691505,-3.782081 c 0.21847,-16.977883 0.045,-17.570347 -5.08302,-17.570347 -4.29979,0 -5.8356,1.8315 -8.079489,9.635372 -5.526517,19.21991 -5.526366,19.313288 0.01936,13.036038 l 5.005169,-5.667819 -1.45368,5.667819 c -0.79951,3.11732 -1.46755,6.501727 -1.48458,7.520975 -0.0194,1.01925 -2.0714,1.205555 -4.565223,0.413872 -3.698229,-1.173745 -4.534315,-0.407444 -4.534315,4.156296 0,4.591119 1.525862,5.962093 8.501798,7.638518 10.45245,2.511877 11.34933,0.60474 11.6765,-24.830852 z m -6.32815,7.081659 c 1.01046,-6.392221 2.38843,-12.173405 3.06211,-12.847099 1.6628,-1.662803 1.54847,8.681803 -0.19219,17.384556 -2.36479,11.823991 -4.83828,7.913509 -2.87004,-4.537457 z m 12.70866,11.815573 c 2.16986,-3.474442 2.05245,-4.887446 -0.58803,-7.079023 -2.64464,-2.194856 -3.29912,-2.045117 -3.29912,0.754796 0,1.921085 -0.61952,5.106654 -1.37619,7.079025 -1.93443,5.041167 1.99591,4.477559 5.26354,-0.754798 z m 33.98552,-13.944363 4.99946,-11.377029 -5.74898,-2.185795 c -11.35544,-4.317283 -25.85351,-7.204855 -30.31585,-6.037922 -2.50069,0.653964 -3.97492,0.26413 -3.27611,-0.866748 0.69876,-1.130622 0.19025,-2.055722 -1.13049,-2.055722 -1.32046,0 -2.40089,2.100643 -2.40089,4.668109 0,2.567403 1.02022,4.037536 2.26708,3.266866 1.24697,-0.770606 2.26715,-0.320683 2.26715,0.999778 0,1.320523 -1.27527,2.416568 -2.83389,2.435656 -2.08363,0.02571 -2.13778,0.477493 -0.20424,1.707724 1.44616,0.920152 2.97643,4.722927 3.40074,8.450512 0.70869,6.227056 1.66388,6.90422 11.76183,8.338174 6.04479,0.858392 11.57096,2.141064 12.28033,2.85049 2.59657,2.596513 4.03478,0.955563 8.93424,-10.194093 z m -29.4084,-1.211596 c -2.4129,-2.412909 3.28491,-11.822386 7.88785,-13.026076 3.77245,-0.98654 4.24975,-0.313617 3.0812,4.342088 -0.82394,3.282675 -0.39457,5.50947 1.06136,5.50947 1.34424,0 1.81357,1.020213 1.04297,2.267154 -1.52169,2.462071 -10.86987,3.110894 -13.07338,0.907364 z m 17.9855,-0.151675 c -2.68387,-2.683785 -1.60561,-9.30299 1.72352,-10.580521 5.03101,-1.930533 9.33145,4.476533 5.83357,8.691248 -3.07113,3.700464 -5.21097,4.235475 -7.55709,1.889273 z"
       id="path1"
       sodipodi:nodetypes="ssssssssssccsscsssssssssssssssssssscccsssssssssssssssscssssssssssssscssssscsscssssssssssssssssssssscsscssscscsssssssssssscccsccsssssssssscssssssscssssscsssccsssssssssssssssssssssssssssscsssssssssscsscscsccsssssssscscccssssssssscsssscccsssssssssssssssssssssccscssccccssccsssssssssssssssssssssssssssssscssssssssssssssscsssssssssssssssssscsssssssssssccsssssssscsccssccssssssscssscsssssscssscscsssccsssssssssscssssssssssssssssssssssssssssssssssssssscscscsssssscsssssssscsccsscsssssssssssssssssssssssssssssssssssssssscsssssssssssssssssssssssssssssssscssccsssssssssssssssssssscsssssssssscssssscsssssssssssssssssscsssscssscsssssscssscsssssssssccsssscsssscsssssssssssscsssccssscccsscscscssssssssssssscsssssssscsssssssssscsssscccscssssssssssscssssssscssssscssssssssssssscscscccssscssssccssssssssssssssscssccssssssssssssssssssssssscsscssssssssssssssssssssssssssssscsccscccssscsscccsscsssscsssssscscssccssssccssssscssssssssscscssssssssssssscscsccssssscssscsccssccssssssssssccssssssscssssscssssssssss" /></g></svg>
