<svg enable-background="new 0 0 16.4 16" viewBox="0 0 16.4 16" xmlns="http://www.w3.org/2000/svg"><g fill="#181616"><path clip-rule="evenodd" d="m8.2 0c-4.5 0-8.2 3.7-8.2 8.2 0 3.5 2.3 6.7 5.6 7.8.4 0 .6-.2.6-.4s0-.8 0-1.5c-2.3.5-2.8-1-2.8-1-.4-.9-.9-1.2-.9-1.2-.7-.5.1-.5.1-.5.8.1 1.3.8 1.3.8.7 1.3 1.9.9 2.4.7.1-.5.3-.9.5-1.1-1.9-.2-3.8-.9-3.8-4 0-.8.3-1.6.8-2.2-.1-.2-.4-1 .1-2.2 0 0 .7-.2 2.3.8 1.3-.4 2.8-.4 4.1 0 1.6-1.1 2.3-.8 2.3-.8.4 1.1.2 2 .1 2.2.6.6.9 1.4.8 2.2 0 3.1-1.9 3.8-3.7 4 .3.3.6.8.6 1.5v2.2c0 .2.1.5.6.4 4.3-1.4 6.6-6.1 5.2-10.4-1.3-3.2-4.5-5.5-8-5.5z" fill-rule="evenodd"/><path d="m3.1 11.8s-.1.1-.1 0c-.1 0-.1-.1-.1-.1s.1-.1.1 0c.1-0 .1-0 .1.1z"/><path d="m3.5 12.1s-.1 0-.2 0c-.1-.1-.1-.1 0-.2h.2z"/><path d="m3.8 12.6c-.1 0-.1 0-.2-.1s-.1-.2 0-.2.1 0 .2.1z"/><path d="m4.2 13.1c0 .1-.1 0-.2 0s-.1-.2 0-.2.1 0 .2 0c0 0 .1.1 0 .2z"/><path d="m4.8 13.3c0 .1-.1.1-.2.1s-.2-.1-.1-.2c0-.1.1-.1.2-.1.1.1.1.2.1.2z"/><path d="m5.5 13.4c0 .1-.1.1-.2.1s-.2-.1-.2-.1.1-.1.2-.1.2 0 .2.1z"/><path d="m6.1 13.3c0 .1-.1.1-.2.2-.1 0-.2 0-.2-.1s.1-.1.2-.2c.1-0 .2-0 .2.1z"/></g></svg>