<?xml version="1.0" encoding="UTF-8" standalone="no"?>
<!-- Created with Inkscape (http://www.inkscape.org/) -->

<svg
   width="2000mm"
   height="500mm"
   viewBox="0 0 2000 500"
   version="1.1"
   id="svg1"
   xml:space="preserve"
   inkscape:version="1.3.2 (091e20e, 2023-11-25)"
   sodipodi:docname="imbb_logo.svg"
   xmlns:inkscape="http://www.inkscape.org/namespaces/inkscape"
   xmlns:sodipodi="http://sodipodi.sourceforge.net/DTD/sodipodi-0.dtd"
   xmlns="http://www.w3.org/2000/svg"
   xmlns:svg="http://www.w3.org/2000/svg"><sodipodi:namedview
     id="namedview1"
     pagecolor="#ffffff"
     bordercolor="#000000"
     borderopacity="0.25"
     inkscape:showpageshadow="2"
     inkscape:pageopacity="0.0"
     inkscape:pagecheckerboard="0"
     inkscape:deskcolor="#d1d1d1"
     inkscape:document-units="mm"
     inkscape:zoom="0.040615982"
     inkscape:cx="5281.1724"
     inkscape:cy="2769.8456"
     inkscape:window-width="1512"
     inkscape:window-height="844"
     inkscape:window-x="0"
     inkscape:window-y="41"
     inkscape:window-maximized="0"
     inkscape:current-layer="layer1" /><defs
     id="defs1" /><g
     inkscape:label="Layer 1"
     inkscape:groupmode="layer"
     id="layer1"><path
       style="fill:#52476f;fill-opacity:1;stroke-width:6.01479"
       d="m 84.167002,370.09939 c 0,-1.75054 0.238756,-3.16835 0.530486,-3.15061 0.291718,0.0201 4.827286,1.38613 10.079005,3.04085 l 9.548467,3.00873 -10.078987,0.14192 c -7.607544,0.1072 -10.078939,-0.63847 -10.078939,-3.04084 z m 28.114988,-4.76822 -28.114988,-7.57116 v -7.09213 c 0,-3.90063 0.716115,-7.07316 1.591393,-7.05006 0.875261,0.0229 15.914175,3.83895 33.419655,8.47959 35.70515,9.46542 37.13298,9.67289 37.13298,5.3959 0,-4.59441 -2.45204,-5.5507 -38.13762,-14.8734 l -32.94547,-8.60686 -0.625233,-11.8198 -0.625184,-11.8198 12.295583,-8.58792 c 6.762514,-4.72344 17.499424,-11.21103 23.859694,-14.41691 l 11.5641,-5.82886 4.98854,6.08585 c 13.48929,16.45656 30.07492,60.29648 30.19822,79.82143 0.0359,5.76726 -0.11698,5.83299 -13.22496,5.64524 -7.98591,-0.11411 -24.44657,-3.20188 -41.37671,-7.76111 z m 36.33724,-31.93562 c 2.53884,-4.10792 -3.68588,-7.15874 -27.09755,-13.28093 -24.807898,-6.48733 -30.98906,-6.79269 -30.98906,-1.53096 0,1.6851 9.5175,5.28027 24.93214,9.41792 26.9777,7.24148 31.55267,7.98574 33.15447,5.39397 z m -11.80897,-27.48319 c -0.76977,-3.99743 -15.4559,-9.90001 -20.15016,-8.09867 -5.51553,2.11646 -2.69302,7.1715 5.17038,9.26 12.44798,3.30615 15.79015,3.04703 14.97978,-1.16133 z m 32.23212,59.22168 c 0,-18.69174 -12.00871,-53.62281 -25.85814,-75.21651 -3.58385,-5.58781 -6.1545,-10.48759 -5.71261,-10.88839 0.44209,-0.40059 6.53252,-3.65413 13.53472,-7.22954 27.69001,-14.13888 51.11241,-34.64208 61.61191,-53.93323 8.48436,-15.58851 9.67138,-37.75745 3.16821,-59.16787 -4.94345,-16.27496 -13.82074,-35.27226 -22.87853,-48.95954 -2.96426,-4.47934 -5.01116,-8.36356 -4.54862,-8.63164 0.46254,-0.26839 7.38453,-3.829277 15.3822,-7.913907 7.99762,-4.08464 20.17201,-12.519682 27.054,-18.744572 l 12.51284,-11.31792 V 218.20657 373.28219 H 206.17535 169.04238 Z M 270.89285,188.67821 V 4.0741988 h 27.58451 27.58456 v 8.5721162 c 0,7.661936 2.46624,13.830836 12.16953,30.440046 5.52964,9.46516 2.42274,27.0275 -7.43807,42.04433 -7.5959,11.567642 -4.61204,15.033899 3.40948,3.960622 6.8062,-9.395712 13.07786,-26.438302 13.07786,-35.537932 0,-4.36123 1.00793,-4.91955 8.88124,-4.91955 6.1634,0 10.36515,-1.39403 13.73027,-4.5554 l 4.849,-4.55541 4.23522,5.08584 c 2.32932,2.79724 4.26687,6.17707 4.3057,7.51075 0.0359,1.33364 -6.85202,7.10935 -15.31304,12.83489 -13.33694,9.02509 -15.47503,11.35223 -16.07021,17.49192 -0.37767,3.89498 -2.85906,10.532312 -5.51446,14.749582 -23.05252,36.611707 -50.58866,119.717807 -57.44108,173.361707 -1.27507,9.98174 -0.96745,11.06611 4.07741,14.37163 3.35222,2.19648 5.45659,5.53942 5.45659,8.66829 0,10.16708 14.51664,21.64094 32.14897,25.41044 5.14074,1.09898 5.75516,2.34632 7.13049,14.47656 1.91403,16.88065 5.63123,25.83131 13.95817,33.60985 l 6.62396,6.18771 H 314.61593 270.89285 Z M 424.22319,365.8556 c 1.72397,-5.61722 3.44471,-7.4266 7.06268,-7.4266 5.51424,0 18.86057,-14.39891 20.90821,-22.5572 2.0117,-8.01538 -6.43657,-21.10297 -18.35696,-28.43769 -7.40156,-4.55423 -10.16857,-7.59005 -10.16857,-11.15671 0,-12.10562 14.31293,-13.78027 24.8716,-2.91002 8.56993,8.82286 20.20757,15.20525 24.63046,13.50808 6.14547,-2.35824 16.27637,-18.66606 16.27637,-26.20032 0,-5.86729 -1.50573,-8.18567 -8.7028,-13.39921 -4.78658,-3.46736 -10.75439,-6.92828 -13.26177,-7.69086 -6.41577,-1.95133 -11.98557,-7.27364 -11.98557,-11.45311 0,-4.51686 8.69448,-12.77226 13.45163,-12.77226 1.99629,0 9.09614,5.80885 15.7774,12.90858 l 12.14778,12.90857 9.30312,-8.60209 9.30314,-8.60214 -3.7102,-5.66243 c -3.2726,-4.99459 -3.38151,-6.6586 -0.92318,-14.10738 l 2.78707,-8.44487 4.78006,5.55712 c 2.62898,3.0564 5.47235,5.5571 6.31862,5.5571 0.8463,0 4.03841,-2.99431 7.09361,-6.65393 l 5.55496,-6.65392 2.95809,8.96313 c 2.31537,7.01566 2.40691,9.72929 0.42101,12.48911 -1.39525,1.9393 -3.13449,4.78246 -3.86495,6.31816 -1.52626,3.20886 11.27244,17.36568 15.69973,17.36568 1.59643,0 7.39994,-4.89095 12.8966,-10.86883 8.92728,-9.70886 10.97336,-10.89451 19.17079,-11.10946 7.57525,-0.19842 10.06595,0.79306 14.27158,5.68247 2.88374,3.35253 5.09485,8.63433 5.09485,12.1704 0,5.12138 -0.8879,6.24733 -4.92672,6.24733 -8.76557,0 -24.01956,6.40099 -29.91282,12.55226 -7.48183,7.8093 -7.60763,16.3272 -0.42225,28.58814 9.31255,15.89058 17.76372,17.87035 33.54949,7.85931 5.35034,-3.39308 11.47177,-9.12133 13.60312,-12.72943 2.96438,-5.01827 4.89002,-6.25022 8.19304,-5.24135 12.64164,3.86099 13.27491,12.40424 1.06412,14.35677 -5.47404,0.87542 -11.40054,3.97316 -16.44462,8.59572 -7.43361,6.8124 -7.88614,7.96328 -7.88614,20.05442 0,12.8261 9.9e-4,12.82826 12.66482,25.62565 l 12.6649,12.7984 H 524.05958 421.9437 Z m 211.8552,5.48639 c -1.62889,-1.03142 -2.38826,-3.3693 -1.68755,-5.19535 1.06277,-2.76951 2.3996,-2.92774 8.06119,-0.95413 6.33787,2.20945 6.52805,2.55545 2.87337,5.22792 -4.575,3.34529 -5.30448,3.41803 -9.24701,0.92156 z m 46.9026,-25.11379 c 5.80674,-14.87975 10.89688,-27.40161 11.31152,-27.82641 0.41444,-0.42465 3.2361,1.18015 6.26995,3.56657 11.76193,9.25188 31.38173,7.47505 43.61189,-3.94961 5.46724,-5.10722 6.26451,-7.33496 6.26451,-17.50491 0,-8.62837 0.86411,-11.98461 3.32914,-12.93048 3.7744,-1.44839 4.00352,-0.31637 -6.92238,-34.18767 -16.23849,-50.34055 -37.39669,-90.73732 -65.7682,-125.57001 -5.11105,-6.27491 -10.30087,-13.62142 -11.53296,-16.32553 -1.23205,-2.70409 -8.59954,-8.6455 -16.37227,-13.203057 -12.13127,-7.11323 -13.38121,-8.37559 -8.8276,-8.9157 15.45294,-1.83274 23.01351,-10.771102 20.14765,-23.819212 -1.36999,-6.2377 -1.17666,-6.5357 2.84398,-4.38391 6.18727,3.31134 24.98337,2.84609 32.0198,-0.79256 3.70611,-1.91653 7.38086,-6.5593 9.61901,-12.15313 4.52519,-11.30942 5.50996,-9.73691 11.87781,18.9677 2.65373,11.96219 5.62188,21.749332 6.596,21.749332 0.97415,0 1.77117,-1.82567 1.77117,-4.057102 0,-8.75472 -6.38392,-36.74901 -10.50497,-46.06518 -2.39151,-5.40646 -4.34821,-11.4164 -4.34821,-13.3553 0,-1.93901 -1.90969,-7.271155 -4.24381,-11.84933 -2.33403,-4.5781742 -4.2437,-8.5994122 -4.2437,-8.9361722 0,-0.336844 16.23241,-0.61233 36.07202,-0.61233 h 36.07203 V 188.67821 373.28219 H 725.22333 672.42336 Z M 805.60786,188.67821 V 4.0741988 h 58.10445 58.10451 l 1.24706,5.835206 c 2.90168,13.5774862 3.95574,84.9534582 1.54192,104.4171552 -2.88273,23.24579 -6.95427,33.59429 -19.8666,50.49483 -24.96368,32.67402 -49.27533,73.37824 -56.67768,94.89372 -9.4116,27.35516 -1.83479,47.76717 19.74092,53.18235 3.13814,0.78758 5.70577,1.68629 5.70577,1.99701 0,0.31095 -4.64692,11.42674 -10.32646,24.70212 -5.67945,13.27542 -10.99554,26.28552 -11.81334,28.91132 -1.41741,4.55098 -2.52219,4.77428 -23.62368,4.77428 h -22.13687 z m 57.62862,173.5604 c 2.33584,-6.17989 7.84147,-18.92964 12.23476,-28.33281 l 7.98782,-17.09663 13.73228,0.87445 c 39.69491,2.5276 79.60735,-21.19289 97.35486,-57.85919 4.61832,-9.54145 8.3969,-18.30004 8.3969,-19.46358 0,-4.18038 15.4769,-20.08623 23.5541,-24.20695 5.3316,-2.72002 16.3096,-5.0063 31.0698,-6.47059 12.5537,-1.24542 32.3734,-3.96673 44.0438,-6.04738 11.6704,-2.08059 36.1673,-6.45485 54.4376,-9.72051 l 33.2186,-5.93756 10.8931,6.99002 c 26.4053,16.94429 39.5665,45.28651 38.9564,83.89043 -0.7431,46.99764 -24.5935,75.07535 -75.1267,88.44229 -17.4233,4.60878 -21.0124,4.7298 -161.4099,5.44386 l -143.59039,0.73037 z M 1261.813,292.75152 v -80.32059 l 14.7158,6.18293 c 10.6209,4.46242 20.9541,6.81077 37.134,8.43914 l 22.4181,2.25626 20.0386,-13.971 c 11.0211,-7.68407 21.4472,-14.5116 23.1687,-15.17225 2.1793,-0.83619 8.0285,5.71337 19.2521,21.55728 8.8666,12.51704 15.7633,23.11646 15.3255,23.55426 -0.4379,0.43787 -17.8801,5.03654 -38.7609,10.21956 -45.6804,11.3388 -62.6158,16.70323 -74.5557,23.61635 -13.6933,7.92851 -20.088,24.14656 -9.5207,24.14656 2.1372,0 5.1722,-1.19356 6.7446,-2.65237 2.3334,-2.16518 2.6184,-1.97031 1.552,1.06092 -1.0981,3.12029 -4e-4,3.71332 6.8731,3.71332 8.0619,0 8.2006,-0.13737 9.6047,-9.49901 0.7835,-5.22444 2.3241,-10.05503 3.4236,-10.73465 1.0996,-0.67963 1.9994,-3.64231 1.9994,-6.58374 0,-4.86622 0.6212,-5.23957 6.8961,-4.1435 3.7929,0.66248 5.5969,0.62357 4.0088,-0.0866 -1.5878,-0.71008 7.8626,-4.05922 21.0013,-7.44262 13.1384,-3.38339 24.1965,-5.84315 24.5734,-5.46625 0.3772,0.37716 -7.4202,3.37972 -17.3269,6.67287 -9.907,3.29317 -18.6216,6.97303 -19.366,8.17748 -1.3635,2.20635 2.6884,1.53794 10.7981,-1.78132 8.2388,-3.37197 0.9629,3.37338 -9.1858,8.51616 -9.4213,4.77409 -17.1552,12.91273 -17.1552,18.05266 0,4.11701 17.9973,2.15322 35.2229,-3.84339 22.5473,-7.84901 34.7681,-16.13266 40.1042,-27.18326 8.7502,-18.12236 17.6014,-22.63093 22.2752,-11.34689 2.5548,6.1676 2.244,6.77036 -10.5243,20.41969 -7.236,7.73542 -22.1455,25.37878 -33.1321,39.20747 -17.5321,22.06783 -21.9879,26.32251 -36.4303,34.7862 -26.064,15.27441 -36.7985,18.71465 -60.4838,19.38409 l -20.6885,0.58465 z m 65.6241,-6.7116 c 4.8687,-6.58532 2.912,-8.54876 -2.3989,-2.40735 -4.3747,5.05847 -8.3399,17.45165 -6.5239,20.39001 0.8314,1.34524 2.121,-0.73111 2.9395,-4.73257 0.8021,-3.92123 3.4943,-9.88382 5.9833,-13.25009 z m -16.6439,86.39344 c 0.4861,-0.46673 6.7371,-3.21783 13.8908,-6.11329 15.1126,-6.11692 35.0259,-19.24927 44.6217,-29.42693 3.6869,-3.91022 15.839,-18.46243 27.005,-32.3381 11.1662,-13.8757 22.2721,-26.60859 24.6804,-28.29531 4.0916,-2.86575 4.3064,-2.74198 3.2764,1.88781 -0.6059,2.72501 -3.9866,17.49059 -7.5123,32.81237 -4.3194,18.77134 -6.4102,33.47858 -6.4102,45.09008 v 17.2322 h -50.2179 c -27.6199,0 -49.8202,-0.38196 -49.3339,-0.84883 z m 110.1613,-0.79822 c 0,-1.06279 1.9226,-7.52131 4.273,-14.35232 4.0552,-11.78646 6.6897,-30.19214 9.6473,-67.39755 0.8828,-11.10654 2.1262,-16.30272 3.7767,-15.78337 1.3535,0.42581 6.2802,8.37363 10.9484,17.66197 13.6512,27.16202 19.5637,35.8143 29.1602,42.6739 24.4332,17.46469 51.7176,26.19979 84.8911,27.17775 12.7689,0.37653 22.8103,-0.1769 22.8103,-1.25703 0,-1.06126 -8.3551,-1.93617 -18.5664,-1.94431 -32.8831,-0.0229 -70.266,-12.15522 -87.0871,-28.25519 -6.7273,-6.43911 -14.3521,-17.86736 -32.5796,-48.83245 -7.8037,-13.2573 -8.3188,-15.03934 -5.9789,-20.68835 2.6926,-6.50024 5.7942,-7.99074 7.344,-3.52919 7.3159,21.05858 11.065,28.27132 19.2699,37.07013 9.3961,10.07663 9.4282,10.09065 4.9622,2.17797 -2.4723,-4.38011 -5.3538,-8.49458 -6.4033,-9.14324 -2.4739,-1.52911 -2.4703,-5.1727 0,-5.1727 1.0528,0 3.9012,3.10327 6.3302,6.89612 5.1778,8.08509 6.0104,4.3253 1.1317,-5.10943 l -3.3561,-6.49011 4.9477,3.75529 c 15.1914,11.53044 23.9465,30.44134 13.4349,29.01958 -3.4088,-0.46134 -2.8869,0.61293 2.6518,5.45879 9.4307,8.25061 25.3759,15.92964 30.3671,14.62441 2.5302,-0.66168 4.1139,-0.002 4.1139,1.71349 0,2.77764 22.8908,11.66657 30.0439,11.66657 6.1881,0 9.0231,-7.81667 6.2235,-17.16005 -3.3572,-11.20624 -21.204,-26.49598 -47.1111,-40.36145 -29.0383,-15.54136 -66.1626,-38.61607 -66.2294,-41.16523 -0.03,-1.15658 5.7303,-4.96742 12.8013,-8.4685 7.0711,-3.50118 16.7076,-9.87279 21.4144,-14.15923 17.2174,-15.68004 15.9276,-15.41462 44.1466,-9.08561 24.6636,5.53159 25.2394,5.56242 37.871,2.02801 32.7768,-9.1716 41.6527,-12.56924 55.2995,-21.16825 l 14.6403,-9.22479 10.6981,5.41596 c 34.4184,17.42468 49.148,45.89067 47.4349,91.66978 -1.0646,28.43751 -7.1758,43.45301 -24.2632,59.61363 -12.8584,12.16068 -26.3881,19.02956 -50.8579,25.82008 -15.8274,4.39223 -21.9594,4.70293 -107.4953,5.44756 -53.7056,0.46733 -90.7106,10e-4 -90.7106,-1.14264 z m 61.9236,-68.83492 c -1.5224,-1.52257 -2.5109,-1.64787 -2.5109,-0.31814 0,2.83224 2.5094,5.3416 3.9254,3.92544 0.6032,-0.60293 -0.035,-2.22623 -1.4145,-3.60722 z M 357.97673,363.48096 c -8.36541,-7.03908 -12.00514,-14.09755 -13.94714,-27.04745 -1.4246,-9.50029 -0.72833,-11.96082 9.29923,-32.86128 7.40216,-15.4283 13.55662,-33.02091 19.40919,-55.48121 15.8491,-60.82425 26.06349,-94.2925 35.59517,-116.6306 9.97701,-23.38181 10.91271,-27.58813 8.03132,-36.105787 -0.97968,-2.89599 9.33403,8.710517 22.91935,25.792097 13.58534,17.08164 24.70054,31.64838 24.70054,32.3706 0,0.72219 -3.34193,6.17142 -7.42659,12.10939 -9.79828,14.24422 -9.8043,22.83155 -0.0302,42.67217 l 7.39663,15.01433 -9.64555,10.31184 c -5.30511,5.6716 -11.1218,13.87243 -12.92596,18.22413 -1.80422,4.35169 -8.19227,13.19938 -14.1957,19.66155 -6.00343,6.46221 -14.67785,17.10575 -19.27652,23.65245 -4.59861,6.54665 -11.10175,13.52193 -14.4514,15.50056 -6.91828,4.08673 -17.38118,17.66003 -22.09887,28.6683 -2.18298,5.09397 -2.7884,10.92556 -1.92737,18.56651 1.47919,13.12649 -1.01349,14.34433 -11.42645,5.5824 z m 37.36354,-5.06204 c -5.98332,-7.11077 -9.58405,-24.16629 -6.23275,-29.52278 1.15496,-1.84599 4.5128,-3.64723 7.46193,-4.00278 4.27489,-0.51547 5.64678,0.48842 6.76676,4.9506 0.77261,3.07831 3.77747,9.35551 6.67739,13.94931 4.4448,7.04097 4.88137,9.09565 2.78054,13.08546 -5.15228,9.7852 -10.14544,10.22575 -17.45387,1.54019 z m 249.00432,0.22679 c 0,-1.04793 2.37562,-6.06089 5.27922,-11.13988 2.90349,-5.07907 5.29061,-11.38306 5.30468,-14.00888 0.0359,-6.36352 3.00506,-6.05408 6.05062,0.63029 3.30824,7.26083 3.10036,12.66957 -0.77482,20.16345 -2.48413,4.80364 -4.70575,6.26032 -9.54846,6.26032 -3.47123,0 -6.31124,-0.85743 -6.31124,-1.9053 z m 27.99714,-23.55768 c -2.67707,-5.83532 -7.97636,-13.71282 -11.77624,-17.50548 -3.79993,-3.79277 -11.06558,-13.1024 -16.14601,-20.68815 -5.08037,-7.58574 -12.18854,-17.27971 -15.79588,-21.54214 -3.60735,-4.2625 -8.29286,-12.68449 -10.41231,-18.71557 -5.47778,-15.58788 -16.8597,-27.64255 -26.09971,-27.64255 -9.03881,0 -9.1491,-2.58553 -0.81406,-19.09698 7.7304,-15.3139 7.99419,-23.37177 1.14761,-35.05455 -9.7691,-16.66975 -8.76645,-20.05377 14.89745,-50.27974 11.59831,-14.81462 21.84726,-26.978407 22.7755,-27.030587 0.9281,-0.0543 1.11723,3.008207 0.4204,6.801067 -1.16156,6.32055 8.69013,70.08058 17.00694,110.06916 3.81821,18.35833 9.08008,35.14359 12.88886,41.1152 7.75517,12.15887 26.34823,56.90381 26.34823,63.40816 0,6.1051 -6.91293,26.7719 -8.95504,26.7719 -0.33986,0 -2.80856,-4.77436 -5.48557,-10.60974 z m -251.73564,3.77195 c -1.81673,-2.5937 -3.30316,-7.8454 -3.30316,-11.67034 0,-6.50534 0.46976,-6.95445 7.27262,-6.95445 5.32933,0 8.44764,1.49381 11.67036,5.59084 5.40761,6.87475 5.511,9.71901 0.5173,14.23818 -5.40348,4.89007 -12.24586,4.38008 -16.15727,-1.20423 z m 196.15404,-1.75106 c 0,-5.73303 9.91879,-14.75184 16.22397,-14.75184 9.15445,0 4.3313,11.4519 -6.7781,16.09378 -9.22503,3.85436 -9.44587,3.82303 -9.44587,-1.34194 z m 90.1801,-17.21473 c -13.30325,-7.31585 -15.32129,-22.36151 -5.16805,-38.53195 6.26214,-9.97343 18.30552,-17.81566 24.00244,-15.62951 1.33365,0.51186 3.55847,5.16899 4.94395,10.34933 1.72637,6.45441 4.12928,10.15239 7.63508,11.74975 11.14444,5.07775 8.41525,26.36325 -4.04788,31.57068 -8.40545,3.51194 -21.44732,3.74635 -27.36554,0.49138 z m 801.94587,-7.61611 c -7.7665,-9.70638 -7.8086,-9.84364 -1.1341,-3.71327 6.3713,5.85195 12.1735,13.79227 10.0785,13.79227 -0.4844,0 -4.5092,-4.53552 -8.9444,-10.079 z m -8.9977,5.41085 c -1.4002,-1.40049 -2.546,-4.89044 -2.546,-7.75547 0,-5.07481 0.1104,-5.1101 4.2436,-1.36865 2.3341,2.11234 4.244,5.60227 4.244,7.75547 0,4.50691 -2.2784,5.03177 -5.9416,1.36865 z m 30.8366,-5.95351 c -4.7499,-7.25496 -4.9606,-8.17624 -1.4376,-6.29099 5.1365,2.74901 5.4046,0.37774 0.4136,-3.65888 -3.3847,-2.73762 -3.3108,-2.80935 0.8338,-0.81146 3.2673,1.57524 4.7757,4.59323 5.3608,10.72651 0.4473,4.69403 0.7197,8.53459 0.6041,8.53459 -0.1136,0 -2.7139,-3.82489 -5.7747,-8.49977 z M 320.66068,309.84033 c -15.71396,-9.05676 -20.50435,-22.11832 -10.51296,-28.66491 2.9176,-1.91169 5.30476,-5.30033 5.30476,-7.5303 0,-6.15342 10.27624,-56.34457 15.22421,-74.35738 2.40422,-8.75278 7.1193,-21.3685 10.47788,-28.03502 3.35853,-6.66648 8.97353,-19.3382 12.4777,-28.15947 11.01447,-27.72724 20.71947,-45.048367 28.61456,-51.070237 6.91591,-5.275062 7.47161,-6.548122 7.47161,-17.117362 0,-6.28026 0.89481,-11.41856 1.98847,-11.41856 1.09369,0 1.47632,3.15609 0.85031,7.01349 -0.87539,5.39441 0.0543,8.45602 4.02944,13.26185 l 5.16755,6.248202 -14.16951,33.950207 c -29.17415,69.90096 -33.93829,88.89776 -33.93829,135.32663 v 32.63835 l -8.0247,11.48626 c -4.41354,6.31746 -9.4265,11.73657 -11.13987,12.04248 -1.71341,0.30553 -7.93294,-2.22055 -13.82116,-5.61423 z m 571.41399,0.56422 c -2.04229,-0.59971 -3.71325,-1.7721 -3.71325,-2.6058 0,-3.34364 22.89444,-41.0335 32.05791,-52.77505 5.47327,-7.01318 13.23647,-14.17032 17.63344,-16.25687 7.22562,-3.42879 8.26807,-3.4571 13.00477,-0.35366 12.60477,8.25894 17.79861,33.68398 9.62068,47.0954 -5.54235,9.08915 -17.11495,17.51819 -28.93613,21.07583 -10.9514,3.29588 -33.91802,5.5076 -39.66742,3.81994 z M 867.1436,305.12 c -10.31775,-4.11423 -14.85427,-10.379 -14.85427,-20.51315 0,-7.38779 2.80255,-14.84807 12.96067,-34.50099 19.49156,-37.71033 37.44623,-53.97938 46.81013,-42.41538 4.74012,5.85382 4.84154,10.37689 0.59785,26.66918 -5.96854,22.91489 -32.05451,73.32642 -37.77964,73.00967 -1.33715,-0.074 -4.81776,-1.08613 -7.73475,-2.24933 z M 84.167002,154.72757 V 4.0737398 h 27.279768 27.27978 l 1.33724,14.3227122 c 2.51056,26.890629 12.16243,53.550759 25.9147,71.580961 5.90407,7.74062 6.36043,9.58116 2.3756,9.58116 -5.4518,0 -40.83061,25.119627 -51.9432,36.880627 -6.19006,6.55135 -13.81356,17.40441 -16.94101,24.11795 -13.168177,28.26728 -4.506522,65.78698 25.63984,111.0638 l 3.65834,5.49432 -17.67098,10.79842 c -9.71903,5.93914 -18.916269,12.29898 -20.438441,14.1331 -1.522123,1.83401 -3.605456,3.33465 -4.629596,3.33465 -1.050653,0 -1.862041,-65.64631 -1.862041,-150.65387 z M 1305.6857,301.74267 c -0.7342,-1.18788 0.5522,-3.86765 2.8587,-5.955 4.7763,-4.32229 5.6219,-1.65794 1.3349,4.20493 -1.7021,2.3277 -3.399,3.03594 -4.1936,1.75007 z m 212.6046,-2.19645 c -2.6392,-3.36542 -2.5642,-3.4405 0.8013,-0.80116 3.5346,2.77198 4.6584,4.51447 2.912,4.51447 -0.4407,0 -2.1113,-1.67098 -3.7133,-3.71331 z m -833.43888,-4.41743 c -1.3389,-2.50179 -2.31287,-16.28634 -2.31287,-32.7349 0,-24.96704 -0.65882,-30.32422 -5.43178,-44.16859 -7.59716,-22.03604 -24.58958,-86.8187 -23.82027,-90.81345 0.73187,-3.80046 7.12174,5.8189 28.71627,43.22987 8.08368,14.00441 18.15575,31.07008 22.38231,37.92357 4.2265,6.85357 10.2512,20.22143 13.3881,29.70642 3.13697,9.48497 6.09071,18.30252 6.56395,19.59448 0.47338,1.29205 -2.24082,3.63366 -6.03115,5.20369 -10.67915,4.42349 -21.11795,14.74529 -26.36422,26.06882 -4.38329,9.46093 -4.96835,9.95516 -7.09034,5.99009 z m 659.71518,-0.2893 c 3.4953,-2.68972 6.0224,-3.36721 7.409,-1.98633 2.5825,2.57234 -2.3351,6.10431 -8.4699,6.08306 -3.8791,-0.0118 -3.7879,-0.36568 1.0609,-4.09673 z m -761.8092,-3.38838 c -1.13813,-2.99355 -2.06934,-6.21856 -2.06934,-7.16677 0,-3.31909 5.59132,-6.31334 14.42801,-7.72641 8.60178,-1.37546 8.91271,-1.2273 8.91271,4.24718 0,6.75984 -8.58702,16.08885 -14.80928,16.08885 -2.76285,0 -5.16048,-2.01941 -6.4621,-5.44285 z m 756.0924,0.0708 c 3.2744,-2.8807 7.0405,-5.23761 8.3693,-5.23761 1.3286,0 -0.8199,2.38709 -4.7744,5.30471 -9.1932,6.78263 -11.3354,6.7426 -3.5949,-0.0668 z m 18.4481,2.7224 c 0.5834,-0.57979 4.4029,-2.71217 8.4874,-4.73802 5.7289,-2.8414 6.699,-2.95514 4.2439,-0.49742 -1.7507,1.75219 -5.57,3.8843 -8.4877,4.73802 -2.9175,0.85375 -4.8271,1.07769 -4.2436,0.49742 z m -898.01673,-5.3076 c -4.008,-4.59486 -8.02812,-12.22845 -8.02812,-15.2442 0,-1.24375 3.21324,-2.26137 7.14047,-2.26137 8.1166,0 18.3222,6.94082 18.3222,12.46097 0,8.5253 -11.49667,11.85183 -17.43455,5.0446 z m 842.84763,2.87936 c 0,-0.45894 1.4819,-1.40257 3.2931,-2.09756 1.8884,-0.72462 2.7401,-0.36872 1.9966,0.8339 -1.246,2.01621 -5.2897,2.98217 -5.2897,1.26366 z m 192.2555,-8.72328 c -15.8659,-11.98057 -17.1638,-13.4815 -6.5906,-7.62097 10.0172,5.55235 13.821,8.43521 17.7654,13.46489 4.2756,5.45162 2.6754,4.61478 -11.1748,-5.84392 z m -192.2555,1.0697 c -2.5736,-1.66338 -2.269,-2.06316 1.5915,-2.08942 2.6259,-0.0201 4.7741,0.92234 4.7741,2.08942 0,2.65853 -2.2518,2.65853 -6.3656,0 z m 57.291,1.13559 c 0,-0.54256 2.1484,-2.13106 4.7741,-3.53025 4.3294,-2.30677 4.5028,-2.21482 1.8622,0.98627 -2.7114,3.28684 -6.6363,4.79145 -6.6363,2.54398 z m 27.5845,-8.56223 c 10.2075,-10.40085 10.6094,-10.67285 10.6094,-7.1823 0,2.85179 -14.7921,16.7308 -17.8313,16.7308 -1.1821,0 2.0676,-4.29683 7.2219,-9.5485 z m -12.0047,2.24285 c -1.9213,-2.11586 -0.8247,-3.48296 5.0369,-6.27809 9.5563,-4.55709 10.5709,-3.46475 3.2324,3.48089 -4.6384,4.38999 -6.3093,4.95526 -8.2693,2.7972 z M 127.13799,265.59603 c -19.70694,-31.65456 -26.44228,-50.19495 -26.78676,-73.73545 -0.30253,-20.68777 4.13385,-31.7773 19.20729,-48.00908 10.73923,-11.56465 33.55279,-27.62151 49.24193,-34.65801 l 9.26962,-4.15731 5.12464,6.2792 c 2.81859,3.45358 9.86582,15.8277 15.6606,27.49806 27.86048,56.10987 14.35837,91.42339 -49.13395,128.50488 -7.86973,4.5962 -14.7586,8.3567 -15.3086,8.3567 -0.54974,0 -3.82366,-4.53557 -7.27477,-10.07899 z m 23.78427,-7.63313 c 2.15043,-1.57244 3.04904,-3.39039 1.99698,-4.03999 -3.00349,-1.85443 -27.10377,-7.87234 -27.98754,-6.9886 -2.25787,2.25788 4.77118,9.80158 10.73995,11.52628 9.59076,2.77126 10.83561,2.73065 15.25061,-0.49744 z m 25.54672,-18.17135 c 0,-2.07147 -9.71197,-5.54758 -31.51231,-11.27912 -17.33172,-4.5566 -32.09811,-7.69888 -32.81409,-6.98285 -4.08221,4.08211 5.18024,9.05895 28.45092,15.28706 26.67933,7.1404 35.87548,7.90295 35.87548,2.97491 z m 17.62545,-17.68456 c 0.72297,-3.72623 -1.48193,-4.469 -54.34371,-18.30654 -27.35007,-7.15941 -32.66505,-8.0043 -33.68183,-5.35462 -0.66404,1.73047 -0.55094,3.82119 0.2508,4.64613 1.90533,1.95979 82.23389,23.60442 85.00242,22.90398 1.16709,-0.29537 2.41452,-2.04531 2.77224,-3.88895 z m 12.61769,-20.15442 c 1.16641,-3.54202 -2.25188,-4.68667 -54.4249,-18.22554 -37.73381,-9.79189 -45.23822,-11.17598 -46.25329,-8.53085 -0.66636,1.73652 -0.36869,3.92786 0.66159,4.86954 1.03021,0.94167 15.71846,5.30311 32.64046,9.69216 16.92201,4.38898 36.97386,9.69185 44.55959,11.78422 15.348,4.23318 21.52107,4.34426 22.81655,0.41019 z m 1.69944,-21.94726 c 0.78407,-1.26871 0.51004,-3.2221 -0.60849,-4.34089 -2.78635,-2.78631 -81.22086,-23.23006 -86.50308,-22.54673 -2.33408,0.30194 -4.24375,1.90916 -4.24375,3.57156 0,2.13203 12.19132,6.29941 41.3767,14.14386 44.94285,12.07962 47.8517,12.61351 49.97862,9.1722 z m -7.54089,-26.38419 c 0,-1.77555 -2.14844,-4.14399 -4.77424,-5.26311 -8.90297,-3.79461 -56.96386,-14.97401 -58.99018,-13.72168 -6.08415,3.76024 0.095,7.09993 26.10093,14.10704 32.43104,8.7383 37.66349,9.41592 37.66349,4.87775 z m -12.73129,-25.15726 c 0,-4.25314 -4.02454,-6.76177 -15.23082,-9.49411 -19.20381,-4.68234 -22.42681,2.6616 -3.70624,8.44507 14.52556,4.48745 18.93706,4.73182 18.93706,1.04904 z m 1214.78742,91.91763 c -8.9236,-12.9059 -17.5938,-23.99074 -19.2674,-24.63301 -1.707,-0.65508 -12.8567,5.45476 -25.3968,13.9168 -19.0081,12.82704 -23.6904,15.07821 -31.2865,15.04244 -17.2243,-0.0811 -37.7838,-4.25255 -51.4109,-10.43133 l -13.7522,-6.23552 V 105.97224 3.9035688 l 166.0375,0.664286 c 154.5231,0.618207 166.8469,0.934925 177.7081,4.56745 51.7593,17.3109362 76.5151,51.5053062 73.8513,102.0078152 -1.629,30.88191 -14.6401,50.51999 -48.05,72.52345 -22.9255,15.09838 -30.2207,18.31353 -57.5025,25.34154 l -21.9291,5.64915 -19.336,-4.52126 c -34.347,-8.03127 -30.7865,-8.37723 -46.039,4.47283 -7.4872,6.30747 -19.2088,14.6421 -26.0487,18.52142 -10.4902,5.94977 -12.2456,6.42687 -11.2205,3.04968 0.6685,-2.20197 4.129,-14.80883 7.6903,-28.01539 7.0089,-25.99204 7.7913,-27.76857 31.0051,-70.41204 8.5765,-15.755 19.9792,-39.137927 25.3392,-51.962109 5.3597,-12.82416 11.0126,-24.7597 12.5618,-26.52355 3.7476,-4.26719 13.9984,-33.16803 12.3491,-34.81733 -0.7128,-0.71271 -8.6109,15.65656 -17.5519,36.37612 -18.6422,43.201009 -31.3888,69.064739 -48.8932,99.206629 -8.3162,14.31988 -14.0236,27.42798 -17.5538,40.31588 -2.8775,10.50333 -6.1924,22.43887 -7.3669,26.52353 l -2.1354,7.42657 -0.2165,-10.07888 c -0.1284,-5.93818 -1.1996,-10.079 -2.6095,-10.079 -1.595,0 -1.9503,-2.77027 -1.0653,-8.30381 0.8222,-5.14312 -0.3256,-16.24827 -3.0156,-29.17595 -8.9521,-43.01786 -10.7441,-57.95499 -11.5409,-96.199009 -0.45,-21.59016 -0.8772,-41.1168 -0.95,-43.39252 -0.097,-3.04949 -0.7561,-3.51385 -2.5044,-1.7655 -1.7424,1.74236 -1.7703,14.95361 -0.1038,49.75818 1.841,38.474959 3.4945,53.306519 8.7928,78.869039 l 6.5255,31.48303 -6.3669,22.21024 c -6.8,23.72186 -7.8191,26.22268 -10.6841,26.22268 -1.0105,0 -9.1382,-10.55938 -18.0617,-23.46525 z M 494.65039,219.1352 c -2.86184,-3.08799 -5.20341,-6.7622 -5.20341,-8.16483 0,-1.40263 -7.15363,-6.08584 -15.89697,-10.40701 -20.16412,-9.96563 -22.19235,-13.37517 -15.12787,-25.42981 2.92472,-4.99068 6.83479,-10.33303 8.68912,-11.87198 5.41799,-4.4965 9.53904,2.99965 8.1439,14.81373 -0.88644,7.50633 -0.22681,10.66855 3.07484,14.7463 4.15536,5.1316 4.27067,5.14672 10.10627,1.32308 5.82504,-3.8167 5.95595,-3.80125 9.92099,1.16787 10.29104,12.89702 10.70355,14.01517 8.09142,21.93 -2.96469,8.98313 -4.93419,9.29911 -11.79829,1.89265 z m 53.4476,0.92714 c -2.92078,-10.90365 -1.37613,-19.08326 5.16269,-27.33921 6.39117,-8.06952 6.64587,-8.17196 12.62595,-5.07958 8.98208,4.6448 14.52776,3.95643 17.30945,-2.14866 2.78279,-6.10764 4.97662,-6.735 6.81349,-1.94832 3.07693,8.0184 0.703,11.32092 -18.33953,25.51364 -10.79504,8.04575 -20.22197,14.90637 -20.94867,15.24585 -0.72665,0.33921 -1.90716,-1.57022 -2.62338,-4.24372 z m 514.53751,-22.92728 c -15.4301,-3.25625 -27.6739,-10.38313 -33.8393,-19.69697 -4.9982,-7.55098 -5.6951,-10.69992 -5.6951,-25.73603 0,-33.15366 13.1646,-60.615897 55.169,-115.086559 l 25.4626,-33.0195322 16.9751,1.310451 c 31.8382,2.457867 54.7803,11.4340672 73.9102,28.9178412 20.8303,19.03769 30.3118,44.53637 28.6109,76.943039 -0.7815,14.88579 -2.1539,20.53858 -7.7438,31.89356 -7.2143,14.65426 -28.3374,36.61172 -37.0619,38.52592 -2.5676,0.56302 -20.4232,4.48658 -39.6794,8.71841 -37.1578,8.16588 -60.959,10.42695 -76.1083,7.22987 z m -580.26141,-9.87193 c -0.77803,-0.77802 -1.41463,-3.85477 -1.41463,-6.83714 v -5.42263 l 4.50128,4.5013 c 2.47571,2.47567 3.85165,5.5524 3.05762,6.83719 -1.63488,2.64525 -4.05717,3.00847 -6.14427,0.92128 z m 86.64324,-5.74984 c -3.74815,-2.74075 -3.71593,-3.10161 0.84906,-9.51258 6.11307,-8.58499 8.6998,-8.43538 8.6998,0.50286 0,9.08607 -4.12346,12.97659 -9.54886,9.00948 z M 960.5692,115.94101 C 954.05119,112.64284 946.29288,101.3601 943.61228,91.280993 941.43143,83.081021 930.78064,5.5068228 931.70822,4.5792078 c 0.30615,-0.306739 36.67021,-0.306739 80.80838,-8.31e-4 l 80.2513,0.556363 -28.7341,33.9502112 c -41.3502,48.856272 -54.9585,63.932479 -63.1871,70.003409 -12.37537,9.13025 -29.88806,12.10981 -40.2775,6.8527 z M 171.29332,80.403841 c -11.41399,-17.65959 -17.23144,-35.69279 -18.63447,-57.76359 -1.15916,-18.2352862 -1.09427,-18.5665112 3.63711,-18.5665112 2.6495,0 23.31117,4.928696 45.91481,10.9525692 l 41.09759,10.952572 v 10.58231 c 0,10.40126 -0.28157,10.85815 -16.47229,26.71083 -11.00854,10.77882 -21.15375,18.41604 -30.58578,23.02478 -7.76238,3.792862 -14.69342,6.896122 -15.40225,6.896122 -0.70885,0 -5.00848,-5.75506 -9.55472,-12.789082 z m 24.09905,0.89168 c 6.24193,-2.39527 3.4437,-7.01363 -5.66164,-9.34443 -4.95983,-1.26962 -10.18094,-2.69696 -11.60243,-3.17196 -3.8581,-1.28909 -5.57702,2.93563 -2.6361,6.4792 1.41428,1.70409 5.55461,3.96325 9.20076,5.02041 3.64603,1.0571 6.7898,2.00814 6.98616,2.11334 0.19611,0.10517 1.86726,-0.38794 3.71325,-1.09656 z m 26.22656,-20.11544 c 0.50104,-2.60049 -5.6895,-4.98625 -28.60568,-11.0248 -18.77678,-4.94782 -29.97721,-6.97374 -31.29112,-5.65984 -3.99507,3.99499 4.21374,8.15221 28.53912,14.45293 26.7077,6.91783 30.40457,7.18092 31.35768,2.23171 z m 17.28885,-17.66255 c 1.36666,-1.64666 1.72223,-3.45656 0.79028,-4.02204 -2.76152,-1.67545 -76.19331,-20.568511 -79.94403,-20.568511 -4.47137,0 -4.47193,6.103981 -7.1e-4,7.819751 6.31107,2.42174 69.71005,19.36426 73.21625,19.566 1.8994,0.10956 4.57161,-1.1485 5.93821,-2.7952 z m 162.80983,37.30748 c -1.93138,-2.13424 -3.51163,-5.54945 -3.51163,-7.58941 0,-2.83868 1.24473,-2.22975 5.30468,2.59526 2.91757,3.46735 5.30473,6.88261 5.30473,7.58939 0,2.54481 -3.65574,1.20808 -7.09778,-2.59524 z m 242.50056,-1.95481 c 1.17962,-2.04234 5.00698,-7.0553 8.50514,-11.13987 l 6.36038,-7.42666 0.0543,7.03561 c 0.0846,10.45717 -3.27579,15.24419 -10.70172,15.24419 -5.46495,0 -6.06217,-0.52568 -4.22085,-3.71327 z m 25.05861,-23.21196 c -5.23257,-1.36744 -4.85942,-2.36148 6.02103,-16.04063 8.53312,-10.72798 10.38577,-12.04053 15.36792,-10.88749 8.51218,1.97007 15.21359,6.81203 15.21359,10.99245 0,3.85291 -5.49062,13.04185 -9.42551,15.77441 -2.39742,1.66482 -21.001,1.77517 -27.17703,0.16114 z M 350.06572,40.935191 c -1.60696,-4.18773 6.78862,-11.2827 13.43263,-11.35163 6.70117,-0.0697 8.35971,6.55119 2.77413,11.07414 -5.78286,4.68268 -14.45934,4.83124 -16.20676,0.27727 z M 335.8608,28.703511 c -1.88833,-3.97931 -3.43325,-11.148886 -3.43325,-15.932441 0,-8.4593772 0.19554,-8.6973302 7.14276,-8.6973302 5.99672,0 8.39294,1.604746 14.93506,10.0018152 7.7223,9.911896 7.74962,10.017646 3.04474,11.758066 -2.61121,0.96598 -7.78697,3.63476 -11.50181,5.93061 l -6.75423,4.17438 z m 361.10594,-3.03782 -7.85155,-3.55594 6.10976,-7.426566 6.10977,-7.4265912 2.25535,5.9287652 c 3.75015,9.858252 4.97458,16.359922 3.04973,16.193622 -1.0018,-0.0866 -5.35469,-1.75751 -9.67306,-3.71329 z M 221.02859,10.57025 199.80974,5.1346818 220.7716,4.5240428 c 11.52907,-0.335613 21.38809,-0.184652 21.90899,0.336242 0.52089,0.520865 0.63655,3.241661 0.25689,6.0461812 l -0.69018,5.099039 z"
       id="path2"
       sodipodi:nodetypes="ssscsssscscssscccsscssssssssssssssssssssssscccccsccccssssssscscsssssssssccccssssssssssssscccsscssscsssssssssssssssssscccssssssssssssssssssssssssssssscccccsccccsssssssssccsscssssssscsssscsccsscsssssssssssssssssssssssssssssccssssssssssssscsssssssssscsssssssssscsssssssssssssscssssssssssssssssssssscsssssssssssssssssscssssssssssssscssssssssssssssssssssssssssssssssssssssssssssssssssssccsscssssssssssssssssssssscccsssssscssssssssssssssssssssssssscsssssssssssssssssssssssssssssssssssssssssssssssssscssssssssssssssssssssssssssssssssssssssssssssssssssscccssssscssssssssssssscssssssssscssssssssssssssssssssssssssscssssssssscsssssssssssscsssssssscssssscssssscsssssssssssssssscsccsccsssssssssssssssssscsscccsssccssscc" /><text
       xml:space="preserve"
       style="font-size:72.8283px;line-height:0.95;font-family:Rockwell;-inkscape-font-specification:'Rockwell, Normal';text-align:center;text-anchor:middle;fill:#000000;fill-opacity:1;stroke-width:2.86725;stroke-linecap:round;stroke-dasharray:none"
       x="983.32483"
       y="479.49667"
       id="text2"><tspan
         sodipodi:role="line"
         id="tspan2"
         style="font-size:72.8283px;fill:#000000;fill-opacity:1;stroke-width:2.86725"
         x="983.32483"
         y="479.49667"><tspan
   style="font-weight:bold;stroke-width:2.86725"
   id="tspan6">I</tspan>nstitute of <tspan
   style="font-weight:bold;stroke-width:2.86725"
   id="tspan5">M</tspan>olecular <tspan
   style="font-weight:bold;stroke-width:2.86725"
   id="tspan3">B</tspan>iology and <tspan
   style="font-weight:bold;stroke-width:2.86725"
   id="tspan4">B</tspan>iotechnology</tspan></text></g></svg>
