<svg clip-rule="evenodd" stroke-linecap="round" stroke-linejoin="round" stroke-miterlimit="10" viewBox="0 0 1188.16 1391.7" xmlns="http://www.w3.org/2000/svg"><path d="m209.873 422.796c5.789-.527 6.56 9.2.2 8.501-8.58 1.027-17.297.527-25.831 2.179-10.962.544-21.794 2.465-32.765 2.644-5.4-.44-10.938-1.609-15.949-2.992-3.325-4.295 2.64-7.931 6.485-6.209 12.28 2.986 24.617-.98 36.969-1.134 8.758-1.057 17.455-2.232 26.258-2.582 1.541-.202 3.088-.284 4.633-.407z" fill="#0068ff" stroke="#0074ff" stroke-linecap="butt" stroke-linejoin="miter" stroke-width="2.66666"/><path d="m207.188 391.558c6.041 3.924-2.023 10.853-7.065 9.485-18.539 1.956-37.392-1.33-55.882 1.719-4.386 1.077-11.243-2.193-8.681-7.311 3.355-2.141 7.013 1.468 10.689-.445 18.764-3.232 38.214.993 56.795-2.835 1.235-.885 2.708-1.149 4.144-.613z" fill="#0068ff" stroke="#0074ff" stroke-linecap="butt" stroke-linejoin="miter" stroke-width="2.66666"/><path d="m208.015 314.288c5.535 2.653 1.884 12.053-4.167 9.536-9.349 2.616-19.122 3.1-28.677 1.045-11.523-1.984-23.387-1.173-34.728.916-5.216 4.307-8.473-5.386-3.045-7.158 7.2-2.335 15.097-2.867 22.69-3.24 13.536-.558 27.235 4.797 40.446.082 2.697-.034 4.798-2.244 7.481-1.181z" fill="#0068ff" stroke="#0074ff" stroke-linecap="butt" stroke-linejoin="miter" stroke-width="2.66666"/><path d="m207.43 241.953c5.501 2.961.66 9.501-4.2 7.952-6.18 1.249-12.461.72-18.729.98-13.688 2.167-27.243 5.119-40.962 7.127-4.82 1.16-7.802-6.955-1.868-7.474 6.771.158 13.467-2.538 20.203-3.517 11.404-2 22.795-5.293 34.511-4.236 3.6-.863 7.384-1.353 11.045-.832z" fill="#0068ff" stroke="#0074ff" stroke-linecap="butt" stroke-linejoin="miter" stroke-width="2.66666"/><path d="m195.22 216.274c4.329.745 12.549-.613 11.851 5.767-2.823 7.109-10.691 0-15.764 3.09-10.334 3.115-21.275 3.114-31.951 3.111-5.879.84-13.653 2.945-18.275-1.793-2.54-3.104 1.395-7.451 4.758-4.916 7.308 1.282 14.282-2.463 21.633-1.054 9.027-.02 17.824-2.061 26.445-4.214.435-.01.87-.024 1.303.009z" fill="#0068ff" stroke="#0074ff" stroke-linecap="butt" stroke-linejoin="miter" stroke-width="2.66666"/><path d="m194.14 117.907c3.805.773 10.533-.883 9.487 5.213-2.367 6.26-9.758 1.851-14.57 3.23-9.209.766-18.268 2.458-27.462 3.496-7.092 1.586-14.378 3.157-21.563 3.381-5.827 1.987-6.097-7.017-.891-7.479 11.778-1.22 23.183-4.973 35.063-5.729 6.555-1.265 13.227-2.019 19.936-2.112z" fill="#0068ff" stroke="#0074ff" stroke-linecap="butt" stroke-linejoin="miter" stroke-width="2.66666"/><path d="m203.239 75.103c5.603-.2747 5.579 7.82.56 8.6466-7.243 3.3494-15.279-1.416-22.685 1.2734-10.022-.5107-19.876 1.3506-29.327 4.52-3.313-.232-5.24 2.196-8.043 2.996-6.242-1.1227-2.946-9.4934 2.027-9.7907 11.005-3.2 22.192-6.8413 33.892-5.912 6.027-2.0466 12.24-.5293 18.379-.2813 1.941.1133 3.246-1.656 5.197-1.452z" fill="#0068ff" stroke="#0074ff" stroke-linecap="butt" stroke-linejoin="miter" stroke-width="2.66666"/><path d="m279.72 421.333c3.547 1.577 7.167.368 10.681.369 5.059 2.8.555 8.5-3.761 7.899-4.407.549-8.732-2.381-12.951.221-7.661 1.514-15.55.307-23.297 1.531-3.928-.699-10.765 2.109-12.173-3.176.844-4.511 6.861-2.941 10.14-3.835 7.386-.858 14.834-.752 22.19-1.269 3.038-.725 5.954-2.124 9.171-1.74z" fill="#0068ff" stroke="#0074ff" stroke-linecap="butt" stroke-linejoin="miter" stroke-width="2.66666"/><path d="m303.583 226.416c5.488 2.067 4.248 9.057 6.099 13.597.837 4.468-2.503 8.666-6.118 10.804-8.117 2.208-16.582 3.188-24.957 3.535-11.105-1.049-22.213 2.264-33.4 1.12-8.612 1.065-14.569-6.877-15.093-14.676-1.387-3.257.133-8.091 4.181-8.085 1.722-6.06 9.844-4.058 14.759-4.519 17.242.428 34.457-.491 51.594-1.98.994-.012 1.963-.059 2.935.204z" fill="#0068ff" stroke="#0074ff" stroke-linecap="butt" stroke-linejoin="miter" stroke-width="2.66666"/><path d="m303.371 207.478c4.704 2.22 1.013 8.605-3.428 7.109-7.157.455-14.32.654-21.305 2.146-12.404-.32-24.807-.27-37.214.209-3.648.475-11.154-.968-8.93-5.971 4.596-2.465 10.344-.328 15.406-1.317 10.644-.764 21.339-.06 31.971-.211 7.088-2.136 14.715-1.566 22.057-2.256l1.024.207z" fill="#0068ff" stroke="#0074ff" stroke-linecap="butt" stroke-linejoin="miter" stroke-width="2.66666"/><path d="m408.767 421.45c5.24 3.08.325 8.243-3.936 7.931-11.237 1.434-22.592 2.546-33.909 1.022-9.922-.306-20.534 2.598-30.029-.946-4.147-2.478.52-9.083 4.013-5.602 11.7 1.446 23.417-1.961 35.108.172 9.541.535 19.052-1.686 28.325-2.664z" fill="#0068ff" stroke="#0074ff" stroke-linecap="butt" stroke-linejoin="miter" stroke-width="2.66666"/><path d="m404.004 231.005c-3.616-.404-1.529 1.524.113 1.596-.12-.427.643-1.829-.113-1.596zm-54.036 8.46c-3.644-.157 1.003 1.832 2.267.355 2.333-.574-2.187-.248-2.267-.355zm48.185 2.572c-3.629 1.077-7.436 1.48-11.2 1.532 3.939-.137 7.824.776 11.2-1.532zm10.044-18.975c6.788 2.071 2.759 10.658 3.851 15.791.519 5.301-.971 12.933-7.947 12.201-11.564.147-23.048 2.531-34.626.923-10.018-.28-20.252.136-30.126-1.505-5.583-2.346-3.905-9.244-4.189-13.927 2.013-2.776.23-7.344 3.499-9.851 4.78-3.941 11.76-.437 17.436-1.862 10.39-1.363 20.826-.102 31.249-1.263 7.013.629 13.896-.453 20.853-.507z" fill="#0068ff" stroke="#0074ff" stroke-linecap="butt" stroke-linejoin="miter" stroke-width="2.66666"/><path d="m404.35 205.54c4.716 2.581.249 7.923-3.835 6.425-11.672-.938-23.142 1.036-34.71 1.787-8.86-.693-17.863-1.276-26.542-3.027-3.307-1.476-.008-3.644 2.303-3.274 11.451-1.358 22.968 1.786 34.355-.834 9.409-.904 18.986-1.589 28.429-1.077z" fill="#0068ff" stroke="#0074ff" stroke-linecap="butt" stroke-linejoin="miter" stroke-width="2.66666"/><path d="m476.727 425.503c8.724 2.083 17.769.1 26.5.436 6.525 2.443.507 12.621-4.913 8.048-8.166.776-16.314.187-24.384-.52-8.16 1.569-16.683 3.152-24.716.203-3.404-.127-8.959 2.818-9.602-2.715 1.13-4.639 7.454-5.471 11.576-5.115 8.368 3.826 16.96-.44 25.539-.337z" fill="#0068ff" stroke="#0074ff" stroke-linecap="butt" stroke-linejoin="miter" stroke-width="2.66666"/><path d="m990.612 99.78c6.441-.015 12.878.259 19.318.35 2.99.245.79 3.734-1.4 2.647-8.27.122-16.535.558-24.795.044-9.773-.067-19.55-.282-29.321.006-2.738-.041-5.505.106-8.225-.042-2.715-1.467.675-3.649 2.574-2.763 7.474-.005 14.942.287 22.416.134 6.479-.043 12.962-.025 19.433-.376z" fill="#d20078" stroke="#d20078" stroke-linecap="butt" stroke-linejoin="miter" stroke-width="2.66666"/><path d="m948.076 100.09c.845 9.084.05 18.404.341 27.578-.017 11.001.153 21.995.094 33 .336 11.548-.014 23.096.256 34.645.237 13.048.225 26.105.085 39.154.156 16.89-.292 33.792-.01 50.685.044 11.393-.32 22.785-.412 34.179-2.547 2.873-2.08-3.253-2.102-4.916-.183-14.878-.448-29.75-.208-44.63-.108-17.348-.21-34.684-.168-52.031-.189-16.466.53-32.927.21-49.393.304-9.703.147-19.413.236-29.113.19-12.834-.093-25.677.115-38.516.1-.797.94-1.13 1.563-.642z" fill="#d20078" stroke="#d20078" stroke-linecap="butt" stroke-linejoin="miter" stroke-width="2.66666"/><path d="m976.132 317.426c5.103-.065 10.2.27 15.304.202 6.582.293 13.194.172 19.764.38 2.28 2.264-2.38 2.312-3.82 2.078-5.9.052-11.804.193-17.705.315-6.014-.007-12.026.34-18.042.147-7.175-.02-14.349-.26-21.512-.59-1.507-.18-5.074 1.073-4.67-1.468 2.032-1.223 4.737-.076 7.055-.48 7.862-.563 15.749-.487 23.626-.584z" fill="#d20078" stroke="#d20078" stroke-linecap="butt" stroke-linejoin="miter" stroke-width="2.66666"/><path d="m1010.65 100.308c.78 5.486-.03 11.236.38 16.823-.19 24.804-.2 49.62.04 74.424.26 13.387.11 26.79.2 40.186.48 16.047-.11 32.106-.03 48.156.02 9.386-.11 18.773-.07 28.168-.3 3.822.01 7.742-.24 11.508-2.11 2.44-2.77-2.015-2.18-3.57-.25-10.09-.08-20.198-.24-30.285.15-17.307-.4-34.629-.1-51.94.31-12.239-.04-24.496.22-36.733.42-30.008.17-60.047.17-90.057.43-2.234-1.1-5.704 1.08-6.997l.41.17zm-527.066 51.906c14.718 11.704 33.958 14.993 50.805 22.75 34.803 14.79 68.73 31.622 103.388 46.817 30.45 14.728 61.723 27.729 92.35 42.106 51.592 22.786 103.8 44.326 153.908 70.294 24.328 10.917 48.317 23.109 73.748 31.18 3.691-.336 8.885 3.755 4.256 6.726-12.736-1.734-24.4-8.276-36.316-12.914-31.215-13.014-61.025-28.956-91.639-43.254-49.167-22.616-99.325-43.027-148.325-66.021-30.546-13.154-60.375-27.824-90.8-41.25-27.135-12.818-54.366-25.402-82.297-36.346-11.552-3.446-23.012-8.797-32.12-16.424-5.012-1.338.29-6.45 3.042-3.664zm687.816 186.789c2.8 1.739-.62 4.669-2.73 4.613-23.45 13.22-45.07 29.43-67.66 44.05-28.38 19.277-57.79 37.06-85.34 57.539-8.35 5.748-16.525 11.945-25.571 16.527-1.522 1.333-4.362-.472-2.75-2.23 1.071-1.948 3.452-.432 4.851-1.972 17.84-10.97 34.09-24.275 51.6-35.75 26.1-17.372 52.32-34.575 78.07-52.469 15.61-10.545 31.14-21.534 47.81-30.225.56-.188 1.12-.322 1.72-.083zm12.53 81.964c1.83.68 4.21 3.203 2.02 4.85-4.6 1.41-9.59 1.597-14.32 2.686-15.19 2.421-30.44 4.52-45.56 7.376-40.74 8.005-80.79 19.058-121.32 27.97-5.473 1.181-10.901 2.56-16.274 4.133-2.171-.455-.74-2.9.861-2.871 10.793-3.475 22.043-5.405 33.053-8.152 36.96-8.62 73.63-18.61 110.95-25.58 13.51-2.404 27.09-4.427 40.6-6.808 2.6-.46 5.33-1.13 7.86-1.485-.53-1.312.82-2.664 2.13-2.119zm-195.642 49.876c9.865 1.848 19.622 4.41 29.432 6.641 21.73 4.884 43.37 10.181 65.04 15.313 18.45 3.547 36.67 8.273 54.41 14.481 10.21 3.603 20.87 5.685 31.14 9.107 5.1 1.585 10.45 2.215 15.52 3.815 2.17 1.257-.44 3.775-2.17 2.368-7.54-1.578-14.97-3.626-22.35-5.916-8.88-2.595-17.9-4.701-26.58-7.989-16.57-5.728-33.6-9.992-50.79-13.38-23.66-5.697-47.29-11.563-71.06-16.835-7.54-2.347-15.462-3.444-22.872-6.089-.852-.315-.82-1.707.28-1.516zm-.216 5.042c3.373 1.266 6.639 2.87 9.944 4.555 10.134 5.68 20.164 11.512 29.904 17.838 26.55 15.553 52.92 31.442 78.82 48.046 12.43 8.084 25.18 15.673 37.36 24.14 10.21 6.423 19.8 13.72 29.87 20.327 1.93 1.545 4.07 1.722 6.08 2.119 2.06 1 .96 4.032-1.34 3.315-8.68-2.986-15.39-9.678-23.03-14.535-15.77-10.752-31.68-21.314-47.91-31.368-24.02-15.784-48.76-30.44-73.37-45.266-11.51-6.58-22.38-14.224-33.95-20.704-4.098-2.937-8.998-4.514-13.098-7.391-.395-.522.144-1.203.72-1.076z" fill="#d20078" stroke="#d20078" stroke-linecap="butt" stroke-linejoin="miter" stroke-width="2.66666"/><path d="m981.894 321.342c4.55 4.499-.06 11.247 1.416 16.758.527 24.635.53 49.278.014 73.912.285 23.818.397 47.644 1.253 71.448-6.119 1.992-2.643-9.775-3.73-13.612-.623-27.3-1.05-54.61-.623-81.918-1.227-15.98-.335-32.021-.795-48.012-.506-6.102-2.432-12.972.893-18.565.447-.328 1.13-.4 1.572-.011z" fill="#d20078"/><path d="m981.894 321.342c4.55 4.499-.06 11.247 1.416 16.758.527 24.635.53 49.278.014 73.912.285 23.818.397 47.644 1.253 71.448-6.119 1.992-2.643-9.775-3.73-13.612-.623-27.3-1.05-54.61-.623-81.918-1.227-15.98-.335-32.021-.795-48.012-.506-6.102-2.432-12.972.893-18.565.447-.328 1.13-.4 1.572-.011z" fill="none" stroke="#d20078" stroke-linecap="butt" stroke-linejoin="miter" stroke-width="2.66666"/><path d="m978.21 320.69c1.517 6.967 1.66 14.166 2.59 21.213 1.25 26.892-.724 53.804.141 80.704-.022 15.872.74 31.724 1.358 47.573-.24 4.77 2.015 10.112.13 14.421-4.848-.575-1.427-8.533-2.978-12.356-.59-10.848-.752-21.709-1.212-32.567-.48-23.21-.62-46.425.015-69.634.052-13.633.212-27.334-1.774-40.853.325-1.938-1.711-9.328 1.73-8.501z" fill="#d20078"/><path d="m978.21 320.69c1.517 6.967 1.66 14.166 2.59 21.213 1.25 26.892-.724 53.804.141 80.704-.022 15.872.74 31.724 1.358 47.573-.24 4.77 2.015 10.112.13 14.421-4.848-.575-1.427-8.533-2.978-12.356-.59-10.848-.752-21.709-1.212-32.567-.48-23.21-.62-46.425.015-69.634.052-13.633.212-27.334-1.774-40.853.325-1.938-1.711-9.328 1.73-8.501z" fill="none" stroke="#d20078" stroke-linecap="butt" stroke-linejoin="miter" stroke-width="2.66666"/><path d="m981.847 321.251c-.863 4.511.675 14.197-3.077 15.243-1.238-4.827-1.102-12.208 2.303-15.569z" fill="#d20078"/><path d="m981.847 321.251c-.863 4.511.675 14.197-3.077 15.243-1.238-4.827-1.102-12.208 2.303-15.569z" fill="none" stroke="#d20078" stroke-linecap="butt" stroke-linejoin="miter" stroke-width="2.66666"/><path d="m979.303 322.168c-.15 21.792.467 43.58.907 65.37-.964 22.421 1.253 44.823.89 67.243.27 8.404.164 16.847.815 25.216-4.409 3.043-2.849-6.373-3.416-9.208-.467-18.183-.24-36.371-1.151-54.547-.662-11.294.018-22.596-.051-33.887-.8-17.991-.707-36.02-1.034-54.017.46-1.645-.118-7.812 3.04-6.17z" fill="#d20078"/><path d="m979.303 322.168c-.15 21.792.467 43.58.907 65.37-.964 22.421 1.253 44.823.89 67.243.27 8.404.164 16.847.815 25.216-4.409 3.043-2.849-6.373-3.416-9.208-.467-18.183-.24-36.371-1.151-54.547-.662-11.294.018-22.596-.051-33.887-.8-17.991-.707-36.02-1.034-54.017.46-1.645-.118-7.812 3.04-6.17z" fill="none" stroke="#d20078" stroke-linecap="butt" stroke-linejoin="miter" stroke-width="2.66666"/><path d="m984.765 321.266c.425 12.84-.379 25.694-.256 38.543.073 16.831.048 33.66-.494 50.484.115 13.984.101 27.972.476 41.953-.208 5.495 1.394 11.464-.334 16.67-4.386.793-1.472-8.172-2.263-11.344-.905-15.637-.667-31.35-.906-47.023.328-14.314.85-28.622.45-42.942.378-14.897-.237-29.838.851-44.71.069-1.294 1.121-2.582 2.476-1.631z" fill="none" stroke="#d20078" stroke-linecap="butt" stroke-linejoin="miter" stroke-width="2.66666"/><path d="m980.283 343.529c2.202 9.306-.423 18.833-.164 28.246-.186 12.949-.332 25.91.767 38.819.82 23.17-.784 46.35-.012 69.524 1.175 2.781-1.535 8.937-3.216 3.716-.029-15.584-.186-31.204.286-46.802.358-12.956.11-25.91-.793-38.834-.413-18.066.488-36.15 1.757-54.152.18-.507.876-.99 1.375-.517z" fill="none" stroke="#d20078" stroke-linecap="butt" stroke-linejoin="miter" stroke-width="2.66666"/><path d="m137.45 458.537c31.851 3.176 64.257 2.128 96.32 2.149 107.662-3.768 215.353.73 323.032.171 117.74-2.423 235.441 4.117 353.154 2.552 18 .871 36.653-4.053 54.261.727.522 4.558-9.99-1.607-13.49.512-104.951 3.092-209.915-2.97-314.893-2.608-76.505.453-153.01 1.009-229.505-.718-75.825-1.452-151.623 1.738-227.436 1.594-12.016-.094-27.566-.93-37.375-.59 2.153 1.09 9.323 7 3.557 3.864-2.426-2.56-9.05-3.364-8.582-7.296l.909-.377z" fill="#565656"/><path d="m733.75 453.153c37.048.103 74.126.109 111.126 1.985 39.663.816 79.47.378 118.957 4.095 7.242.929 2.326 12.64-3.824 7.169-52.223-3.937-104.746-2.514-157.062-5.174-66.313-.895-132.63.006-198.906 1.482-40.865.838-81.692 1.428-122.576 1.39-39.818 1.218-79.689.73-119.527.214-29.203-1.778-58.575-2.55-87.84-2.228-36.413-1.11-72.715 2.018-109.141 1.587-9.282-.501-19.374 3.181-28.14-.737-4.637-2.911.437-7.536 4.434-5.038 19.4-1.426 38.927-1.8 58.439-1.849 24.911-1.125 49.901-1.771 74.85-1.368 33.911-.492 67.814 1.324 101.662 2.597 40.466.163 80.855.067 121.303-.718 44.093.242 88.139-1.394 132.229-1.723 34.63-1.537 69.347-1.133 104.016-1.684z" fill="#565656"/><path d="m259.76 454.132c29.525.381 58.961 2.547 88.569 2.041 43.361 1.782 86.781 1.984 130.141 3.631 28.787-.468 57.547-2.44 86.311-.695 47.262 1.588 94.613-.566 141.887 1.138 34.171-.36 68.267-2.862 102.471-1.286 41.741.263 83.473 1.151 125.103 3.334 12.671.796 26.395-.724 38.343 3.9 3.919 5.725-3.571 7.746-7.8 5.629-21.911-2.803-44.177-1.7-66.245-3.396-48.303-1.489-96.727-2.435-145.067-1.927-42.583 2.727-85.253-.16-127.894.606-40.724 1.314-81.37-2.53-122.052-.554-35.367 2-70.754-1.821-106.155-1.317-41.171-2.152-82.488-1.268-123.588-3.673-28.132-.592-56.119 3.13-84.228 4.194-15.233 1.383-30.385.13-45.605 1.264-4.433.64-14.591-1.729-9.633-7.481 3.926-1.373 5.641 2.035 10.477.819 15.145-1.806 30.301-.2 45.488-1.916 23.186-1.059 46.308-3.294 69.477-4.311z" fill="#565656"/><path d="m586.503 466.166c6.55 7.381 4.012 19.524 5.43 28.813.374 24.614 3.325 49.073 3.86 73.707.827 23.213.018 46.402 1.275 69.646.542 28.695 1.486 57.39.922 86.133 1.082 29.512.766 59.134 3.709 88.527.484 19.712 2.308 39.321 4.084 58.906 2.47 30.786.907 61.799 3.433 92.548.763 27.297 2.96 54.624 1.854 81.964.125 16.76.444 33.35.488 50.06-.52 20.55-.247 41.45-5.454 61.5-3.573 17.36-8.888 34.36-14.145 51.18-2.88 10.36-6.504 20.62-10.595 30.57-8.392 14.05-14.066 29.64-23.48 43.04-9.624 11.06-15.622 25-27.013 34.52-7.72 7-13.218 16.1-21.93 22.12-11.1 8.83-22.563 17.06-34.915 24.06-8.995 5.62-18.431 10.5-28.215 14.59-8.584 1.86-17.445 1.14-25.937 3.58-17.024 1.57-34.108.29-50.95-2.31-20.578-2.26-39.559-10.97-59.512-15.66-18.118-5.87-36.286-12.65-51.914-23.77-12.751-7.53-24.36-16.84-36.735-25.01-13.491-11.77-28.267-22.5-39.74-36.21 1.082-10.09 9.313-2.6 12.576 1.6 12.05 11.95 25.108 22.84 38.693 33 12.603 8.24 24.34 17.57 37.498 24.89 9.788 6.38 21.067 10.7 32.103 14.62 14.279 4.93 28.905 8.63 43.25 13.36 15.953 5.56 32.974 6.53 49.64 8.49 13.45.9 26.53-1.15 39.664-2.8 11.436.93 20.46-6.98 30.296-11.45 12.898-7.56 25.596-15.44 37.212-24.94 7.98-5.24 13.74-12.8 20.116-19.65 8.73-7.51 15.47-16.66 21.495-26.4 10.82-12.26 18.266-26.98 25.044-41.78 7.978-12.27 11.982-26.44 16.288-40.23 5.937-19.11 11.76-38.43 15.408-58.21 4.58-22.41 3.113-45.49 3.617-68.22-.356-19.28-.521-38.77-.215-58.11-.766-33.413-3.069-66.715-3.894-100.08.498-27.855-1.771-55.52-4.56-83.163-.979-29.604-4.2-58.985-3.979-88.638-1.843-30.408.143-60.926-1.268-91.343-.716-28.97-1.541-57.909-1.328-86.857-1.059-24.07-2.805-48.094-3.985-72.152.858-11.006-2.103-22.184-2.026-32.894.626-1.376 2.395-2.114 3.835-1.547z" fill="#565656"/><path d="m481.102 1349.23c5.937 4.75-2.977 9.55-6.72 11.92-10.468 6.59-21.548 13.2-34.156 14.31-9.023 1.52-18.22 1.5-27.301 2.59-10.824.95-20.993-4.24-31.776-3.75-6.839-.88-13.69-1.46-20.575-1.95-5.895-2.78-13.076.48-18.558-3.4-.737-4.73 7.132-2.14 9.974-3.88 5.89-.12 11.659 1.69 17.556.92 6.116.28 12.15 1.46 18.294 1.26 8.55.69 16.87 4.36 25.575 3.08 9.652-1.17 19.463-1.23 28.993-3.15 10.967-1.71 20.286-8.31 29.544-14.01 2.974-1.26 5.648-5.05 9.15-3.94z" fill="#565656"/><path d="m777.852 816.612c2.384.201 4.933.344 7.095 1.269 1.642 1.979-1.387 3.615-3.043 2.502-9.155-1.271-18.453.461-27.68.024-10.131-.191-20.244.956-30.396.534-13.68.056-27.336.798-40.986 1.65-13.766.486-27.551.877-41.267 2.128-9.715.933-19.499.806-29.239 1.092-2.418-.347-5.02-.471-7.333-.266-1.489-1.566 1.449-3.048 2.98-2.776 9.161.3 18.363-.298 27.541-.585 11.212-1.14 22.459-1.837 33.723-2.275 10.411-.273 20.807-.862 31.193-1.6 11.232-.453 22.467-.693 33.709-.586 7.494-.223 14.934-.808 22.434-.562 7.098.1 14.174-.576 21.269-.549z" fill="#565656"/><path d="m786.73 816.425c8.514 1.95 1.722 11.785-4.732 8.466-18.799.585-37.654.61-56.398 2.34-10.796.79-21.59 1.6-32.424 1.329-10.983.868-21.983-.533-32.94.83-10.231-.08-20.439.892-30.655.873-10.228-1.08-20.399 2.712-30.57.258-6.749-6.316 4.365-8.6 9.318-7.13 6.573-.295 13.048-2.08 19.693-1.283 10.554.297 21.084-.983 31.636-.943 11.484-1.404 23.005-.124 34.514-1 12.62.33 25.176-1.136 37.745-1.889 17.706-1.46 35.502-1.442 53.257-1.85z" fill="#565656"/><path d="m970.809 443.367c6.223 3.904-1.087 9.48-6.061 7.804-44.064 2.641-88.188 2.468-132.28 2.681-34.74.21-69.392 1.567-104.134 2.466-35.97 1.556-72 2.597-108 3.63-25.491-.173-50.996.127-76.404.348-59.23-1.056-118.533.014-177.753-1.938-30.3-.423-60.428 2.546-90.622 3.189-27.056.392-54.185-3.113-81.076 1.199-14.657 2.14-29.579 1.32-44.181 4.118-3.928 1.107-13.279-.885-8.499-6.238 14.388-.926 28.635-4.392 43.184-3.979 24.711-4.059 49.807-3.92 74.716-2.301 29.32.226 58.437-2.748 87.768-3.258 33.73-.482 67.394 1.656 101.139 1.058 35.5-.242 71.123.464 106.551.504 39.737-.63 79.593.23 119.289-2.242 32.501-.645 64.877-2.512 97.348-3.124 53.021-2.03 106.107-.442 159.17-2.353 13.261-.493 26.674-1.211 39.845-1.564z" fill="#565656"/><path d="m136.01 461.104c1.353-.007 2.36 1.607 1.784 2.826-.33 1.763.71 3.354 1.135 5.003.556 1.815 1.19 3.613 1.592 5.47.23 1.639-.401 3.55-1.964 4.316-1.747.916-4.24.088-4.9-1.824-.376-1.023-.123-2.144-.445-3.181-.287-1.226-.513-2.464-.679-3.712-.304-1.665-.547-3.425.03-5.063.377-1.418.963-3.03 2.413-3.66.325-.142.68-.202 1.034-.175z" fill="#565656"/><path d="m134.114 460.4c1.159 2.424-.103 5.251 1.037 7.732 1.106 2.03 1.143 5.632 3.814 6.14 3.463-.238 6.955-.456 10.425-.065 7.168.85 14.404.854 21.6.395 4.464-.281 8.944-.326 13.406-.4 3.11-.451 4.193 4.125.954 4.75-4.252.845-8.62.997-12.938 1.375-6.903.556-13.83.962-20.757.6-3.707-.207-7.427-.38-11.12.153-2.162.086-4.43-.09-6.474-.867-2.218-.767-2.737-3.24-2.979-5.301-.47-2.461-1.462-4.838-1.298-7.4.037-2.607.774-5.51 2.898-7.19.447-.226 1.016-.214 1.432.078z" fill="#565656"/><path d="m247.682 460.122c6.37 5.075-3.915 9.254-8.477 8.514-15.077 2.453-30.356 3.327-45.605 3.437-14.743 1.735-28.962 8.192-44.026 6.608-6.427 1.234-13.941-.572-14.525-8.204-3.762-8.463 9.51-5.785 14.267-7.756 14.317-2.497 28.886-1.787 43.282-.512 6.865.49 14.085-.882 20.658 1.676 11.244-.652 22.421-2.391 33.527-3.968 0 0 .899.205.899.205z" fill="#565656"/><path d="m703.606 459.18c4.425-1.769 11.953 2.761 6.199 6.541-29.946 1.57-60.118.627-89.9 4.696-49.519 3.292-99.233 6.894-148.858 3.575-24.363-.167-48.6-2.281-72.871-4.131-3.331-.682-9.68-.477-10.668-3.568 12.491-2.176 25.827.015 38.631-.31 26.569 3.342 53.493 1.293 80.194 2.954 47.569.164 95.092-3.756 142.332-8.204 18.293-1.081 36.62-.9 54.941-1.553z" fill="#565656"/><path d="m836.36 461.847c35.055-.131 69.997 5.264 105.029 4.221 4.421-.106 15.737-.062 10.737 7.134-6.71 2.422-14.377-.918-21.465.564-43.02-.991-86.1-7.712-129.072-2.531-27.514 2.125-55.185 1.309-82.671 3.655-43.115.05-86.114-4.379-129.259-2.794-18.568-.29-37.137-.666-55.688.04-6.346-.896-12.76-2.06-19.07-2.549.658-3.977 8.116-1.299 11.725-2.781 17.652-.558 35.225-2.952 52.928-1.594 38.963-1.029 77.9.527 116.809 2.284 29.857 1.07 59.547-3.044 89.444-2.342 16.848-1.223 33.648-3.13 50.553-3.307z" fill="#565656"/><path d="m777.276 465.208c18.02 2.539 36.291 1.893 54.399 2.497 25.554-.012 51.045-3.226 76.601-.833 15.994-.04 31.77 3.696 47.741 2.624 5.352 1.399 13.313-2.968 16.692 2.316.837 8.165-9.488 4.52-14.412 5.573-12.791-.177-25.601-.664-38.311-2.564-22.048-.958-44.109-2.39-66.128-.262-24.845.717-49.694.325-74.366-2.67-4.636.072-9.145-6.384-2.216-6.681z" fill="#565656"/><path d="m335.426 456.888c7.14.631 16.563-1.467 22.011 3.352-4.367 3.896 6.073 1.067 9.106 1.956 6.99 2.691.12 8.297-4.614 6.728-13.33-.084-27.927-1.779-40.395-1.612 2.068 8.324-10.231 3.876-14.935 4.801-25.541.596-51.071 1.238-76.571 1.656-14.6 1.988-29.28 3.194-43.96 1.458-5.119 1.153-8.934-3.704-6.542-6.238-4.26.032-7.333-6.026-1.413-5.672 12.331 3.907 25.527-.794 38.221.83 8.267-.911 18.227.602 25.336-.039-3.576-7.984 8.894-5.565 13.18-5.987 18.812-.669 37.861 2.783 56.453.932 7.942-1.578 16.054-1.864 24.123-2.165z" fill="#565656"/><path d="m534.474 462.908c7.693 1.573 16.872-.292 24.623 1.629 2.249 5.902-7.88 3.32-10.872 4.008-10.511-.528-21.514 3.018-31.644 1.654-2.84-7.127 8.717-4.346 12.466-5.716 4.295.71 3.103-.724 5.427-1.575z" fill="#565656"/><path d="m943.843 447.634c7.373.804 15.143 1.467 22.012 3.872 3.809 4.013-2.336 7.067-2.075 11.272-6.75 7.053-18.774 6.772-27.656 4.713-3.538-2.688.044-7.342-7.149-5.529-19.535 2.191-39.355-2.38-59.077-2.139-15.633-1.87-31.568 1.56-47.012-1.465-6.64-5.34 3.177-9.085 7.737-7.62 19.374 1.884 38.724-.232 58.109-.361 18.447 1.325 36.68-2.376 55.111-2.743z" fill="#565656"/><path d="m204.485 461.914c15.855 1.759 31.617 4.709 47.697 4.611 24.981.912 49.957 2.37 74.945 1.877 19.77.62 39.47 1.488 59.251 1.135 35.566-.324 71.128 1.096 106.634 1.96 24.976-.075 49.928-1.88 74.944-1.844 27.749-2.271 55.588-.998 83.364-2.099 7.199.784 17.035-3.771 22.532 1.311-5.689 5.614-16.056 2.216-23.709 3.928-30.566.53-61.152.413-91.687 2.001-23.9-.304-47.689 2.404-71.554 1.184-43.718-1.744-87.496-1.1-131.243-1.688-29.03-1.764-58.184-.927-87.233-2.645-22.362-.355-44.894-2.952-66.678-6.958-4.107-.469 1.349-3.092 2.737-2.773z" fill="#565656"/><path d="m600.455 470.949c5.263 4.347 2.025 12.727 3.032 18.676-.999 19.797.377 39.595.345 59.378 1.863 21.64-.044 43.319-2.173 64.879-1.947 25.547.727 51.251-.855 76.768-2.91 4.82-7.854-.38-6.397-4.444.181-32.267-2.26-64.648 1.54-96.801 1.915-21.982-.669-44-.168-65.983-4.341-10.808-.441-23.21-1.985-34.601-.735-6.247-3.184-14.907 4.218-18.021.827-.356 1.631.006 2.443.149z" fill="#565656"/><path d="m605.465 512.487c4.129 5.507 2.035 13.843 2.863 20.627 1.378 23.876 2.296 47.762 2.17 71.693-2.23 26.478-.893 53.17-2.538 79.69.808 23.827-.77 47.693-.707 71.548-.103 13.573-1.507 27.065-2.316 40.581.581 12.522-.068 25.446-3.688 37.475 3.948-1.663.607 3.285-1.799 3.392-5.746 1.256-5.362-6.267-3.58-9.688 2.15-12.813 1.892-25.763 1.996-38.695 2.894-26.698 1.61-53.65 2.571-80.457.005-16.645-.139-33.225.72-49.853.051-20.157.577-40.299 1.672-60.396-.14-23.217-1.152-46.38-1.912-69.58.789-5.408-1.659-12.197 2.267-16.337l1.141-.217z" fill="#565656"/><path d="m597.062 528.005c4.197 4.523.891 12.02 2.368 17.667.244 15.425-1.837 30.798-.809 46.246-.567 8.467.976 17.629-1.176 25.728-5.966 3.472-6.08-5.513-5.744-9.199-.384-18.91-.448-37.813 1.08-56.658.18-7.809-.366-16.453 3.068-23.515.4-.048.804-.57 1.213-.269z" fill="#565656"/><path d="m603.135 562.155c.053 3.768-3.904 7.46-2.411 11.925-.548 15.278 1.2 30.574.056 45.876.188 18.748 2.107 37.481 1.44 56.215-1.474 15.649-1.421 32.284-.181 47.36 4.272 3.774 1.453 10.597 3.337 15.64 3.495 27.577 3.474 55.423 2.506 83.177 1.286 6.382-8.723 5.152-7.246-.692-.124-8.695.743-18.436.436-26.518-6.298 1.604-5.28-6.64-5.442-10.492-2.24-22.739-1.355-45.711-1.346-68.534-1.601-17.411.914-34.76.999-52.139-1.252-22.325-1.848-44.693-1.199-67.053-.36-11.884-.144-25.277 7.31-35.04l.682-.164z" fill="#565656"/><path d="m605.597 823.846c5.219 3.597 2.309 11.529 4.045 16.843 1.504 16.506 2.731 33.216 2.166 49.749-2.971 5.196-8.342.304-7.408-4.028-.571-17.451-1.112-34.967-2.947-52.344.569-3.284-1.545-10.943 4.144-10.22z" fill="#565656"/><path d="m610.94 849.004c4.424 3.272 2.467 10.263 3.619 15.147.998 17.164-1.707 34.364-.028 51.496.537 30.071 2.749 60.095 1.301 90.193-.435 5.73 1.197 12.4-1.832 17.52-5.668 3-5.123-5.2-4.983-8.6-.518-21.059.614-42.147-1.064-63.16-.36-18.935-1.528-37.787-1.72-56.701 1.296-14.523.774-29.167.072-43.646.524-1.9 2.827-2.92 4.635-2.249z" fill="#565656"/><path d="m600.871 818.382c4.369 4.073-.485 10.752 1.539 15.984 1.896 17.937 4.136 36.077 3.465 54.345 1.227 15.089 1.131 30.244 1.829 45.355 2.03 17.933-.63 35.992 1.712 53.901 1.095 19.233.331 38.543.247 57.793.379 4-1.979 8.15-.255 11.86-2.204 3.28-3.901-2.15-5.049-3.93-1.101-10.9-.9-21.99-1.495-32.96.662-16.81-.681-33.523-1.91-50.226 1.085-15.597-.187-31.124-1.1-46.68-.115-19.062-1.831-38.045-1.723-57.129-.511-12.818-2.924-25.31-3.252-38.07.717-3.712.935-10.867 5.992-10.243z" fill="#565656"/><path d="m610.82 946.599c4.44 5.043 4.884 12.891 6.541 19.463 1.731 20.19 2.526 40.448 3.992 60.678 0 22.96 3.03 45.97.78 68.93.786 15.98-1.812 31.75-2.532 47.65-.933 4.12-.626 12.02-6.32 11.97-3.252-5.66-.221-13.45-.632-20.03.299-11.18 2.524-22.21 1.824-33.46-.061-13.99 1.416-28.01.094-42.02-1.302-15.88-.302-31.81-2.128-47.64-.912-15.802-1.64-31.637-3.243-47.377-.717-5.711-4.341-11.836-2.056-17.321.941-.95 2.428-1.27 3.68-.843z" fill="#565656"/><path d="m610.38 830.308c5.017 3.069 3.224 10.213 4.625 15.228.94 37.067 2.547 74.168 2.471 111.212-.724 9.893.896 19.92-1.529 29.694-1.342 7.171 1.965 16.248-3.69 21.878-5.474.18-2.066-7.23-2.605-10.468-1.891-10.547 2.435-20.907.668-31.45.045-10.282.231-20.525-.221-30.832-.659-30.709-1.294-61.447-2.755-92.106-.053-4.333-2.644-9.893.724-13.077.771.002 1.532-.598 2.312-.079z" fill="#565656"/><path d="m615.239 1129.04c4.243 3.67 1.965 10.46 3.455 15.58-.123 11.53-4.336 22.37-6.28 33.63-3.328 11.8-8.754 22.86-12.322 34.6-4.418 11.46-9.573 22.64-13.989 34.14-3.215 6.78-6.913 13.33-11.065 19.58-9.776 1.52-3.419-12.06.156-15.9 5.298-11.34 9.109-23.29 14.37-34.61 4.223-11.13 8.048-22.45 12.424-33.52 3.306-10.45 5.054-21.37 7.526-32.01 1.78-7.05-3.224-16.12 2.778-21.53.991-.47 1.96-.17 2.947.04z" fill="#565656"/><path d="m611.267 1129.61c5.285 10.97-.189 62.48-13.2 46.5 9.292-13.69 3.577-32 10.539-46.08z" fill="#565656"/><path d="m506.766 1333.78c6.021 6.1-4.368 8.69-7.623 12.85-7.846 5.15-16.409 8.88-24.184 14.07-5.772 1.35-5.069-6.45-.868-7.8 4.822-3.93 10.455-6.33 15.726-9.54 5.622-2.65 9.414-8.2 15.538-9.87l1.19.24z" fill="#565656"/><path d="m543.757 1298.08c5.438 9.33-9.766 16.05-14.61 23.25-9.388 9.29-20.089 17.09-30.662 24.94-6.825 2.75-16.15 13.99-22.052 7.41 5.938-9.32 19.342-12.27 26.928-20.88 13.521-9.64 24.848-21.85 36.187-33.85 1.144-.95 2.772-1.37 4.209-.87z" fill="#565656"/><path d="m574.151 1262.92c5.54 4.62-.96 11.66-2.91 16.6-5.057 7.47-11.01 14.28-16.536 21.39-9.217 10.51-18.665 20.87-28.65 30.65-8.917 8.08-18.123 15.88-28.31 22.33-8.375 5.56-17.002 10.77-25.674 15.83-4.293 4.19-13.918-1.11-7.046-5.25 5.257-2.3 10.08-5.28 14.775-8.57 12.23-7.82 24.307-15.98 34.952-25.91 10.577-9.36 19.75-20.14 29.48-30.34 6.036-6.54 11.011-13.91 16.76-20.68 3.366-4.14 5.37-9.1 7.65-13.85 1.115-1.81 3.376-3.24 5.509-2.2z" fill="#565656"/><path d="m609.035 1174.16c3.448 4.72 1.344 10.9.606 16.16-1.687 8.84-3.85 17.59-7.224 25.96-2.357 6.56-4.756 13.09-7.895 19.32-3.458 7.73-6.585 15.6-10.79 22.97-3.2 6.21-6.934 12.11-11.347 17.51-2.111 2.84-4.182 5.7-6.337 8.51-4.928 3.2-7.686-4.13-4.783-7.58 3.6-4.72 6.858-9.76 10.261-14.65 5.786-9.23 10.412-19.11 14.588-29.16 2.885-5.75 5.775-11.54 7.617-17.72 4.303-10.01 7.026-20.6 9.342-31.2.738-3.59.659-10.62 5.962-10.12z" fill="#565656"/><path d="m574.22 1255.17c5.132 3.58-.773 10.5-2.923 14.27-3.933 5.45-7.02 11.7-10.86 17.03-5.486 2.71-7.141-4.99-3.9-8.13 4.72-7.55 9.886-14.93 14.43-22.49.877-.73 2.144-1.11 3.253-.68z" fill="#565656"/><path d="m541.32 1298.21c5.8 4.28-1.936 9.75-4.391 13.79-8.141 8.33-17.141 15.65-26.248 22.82-9.725 7.99-20.662 14.24-31.254 20.98-6.349 3.19-12.879 6.02-19.34 8.92-2.211 2.4-8.021 4.93-9.597.82 2.746-8.17 12.43-9.79 19.172-13.53 8.497-3.99 16.018-9.83 23.963-14.69 8.584-5.69 16.56-12.21 24.443-18.79 6.829-5.66 13.381-11.8 18.584-19.1 1.163-1.31 2.996-1.91 4.668-1.22z" fill="#565656"/><path d="m480.267 1355.97c3.563 1.27 3.07 6.93-.207 8.24-3.916 3-8.026 5.77-12.228 8.33-5.646 2.3-11.552 3.89-17.161 6.29-6.776 2.46-13.66 4.63-20.568 6.68-5.407 1.44-11.212 2.29-16.709.88-4.048-1.58-2.4-7.42 1.832-6.97 3.214-.13 6.473.09 9.586-.91 7.44-1.89 14.63-4.63 21.813-7.31 5.424-2.22 10.974-4.12 16.428-6.25 5.332-2.38 9.265-7.17 14.805-9.15.797-.18 1.65-.14 2.409.17z" fill="#565656"/><path d="m469.784 1357.62c2.067.34 7.928-.2 5.094 3.28-3.733 1.68-7.075 4.51-11.242 5.41-5.448 1.39-10.165 4.82-15.78 5.67-3.88.88-7.636 2.23-11.615 2.64-4.864.91-9.652 2.46-14.615 2.69-3.323-.3-4.728-5.23-1.783-7.01 3.292-1.7 7.113-1.98 10.629-3.05 4.23-1.22 8.703-1.31 12.862-2.79 4.726-.73 9.202-2.4 13.64-4.1 4.256-.91 8.43-2.59 12.81-2.74z" fill="#565656"/><path d="m470.002 1354.51c5.921-1.49 8.01 8.1 1.45 8.23-8.933 2-16.777 7.35-26.16 7.79-9.291 2.69-19.078 3.67-28.685 4.93-12.84.97-25.875 1.76-38.666-.2-5.08-2.2-.92-8.6 3.592-6.85 12.939.64 25.896-.49 38.714-1.92 9.063-1.5 18.032-2.88 26.967-4.94 8.115-.64 14.764-6.08 22.788-7.04z" fill="#565656"/><path d="m469.39 1361.4c7.535 6.48-5.655 10.25-9.991 13.3-6.738 4.06-14.293 6.37-21.6 9.14-7.125 3.07-14.538 5.32-22.335 6.17-11.058 1.95-22.763 2.92-33.474-1.19-5.662-1.5-11.511-2.25-16.687-5.24-5.926.68-9.003-8.34-1.673-7.7 6.417.96 12.177 4.5 18.703 5 3.888 1.39 5.335-5.01 10.178-3.09 10.75.61 21.785.5 32.076-3.01 8.762-2.14 17.207-5.37 26.01-7.38 5.169-1.4 10.155-3.25 14.908-5.7 1.238-.43 2.595-.61 3.885-.3z" fill="#565656"/><path d="m246.084 1334.76c12.197 4.28 21.475 14.47 33.904 18.52 14.914 9.38 32.278 13.09 49.046 17.68 13.345 3.35 27.227 3 40.665 5.83 5.366-1.24 19.875-.73 12.459 7.55-12.616 4.3-25.51-1.85-38.313-1.66-18.496-2.53-36.552-7.83-53.947-14.42-10.163-5.58-20.937-10.13-30.442-16.85-4.177-4.92-20.836-9.32-13.819-16.64l.29-.02zm274.426 1.93c6.06 9.09-11.127 13.64-15.848 20.08-12.337 9.13-26.644 15.22-40.255 22.19-13.707 5.7-28.447 9.73-43.331 10.24-5.935 2.56-14.585-6.13-5.721-8.1 11.811 2.34 23.616-2.99 35.105-5.47 15.427-5.6 29.886-13.75 44.112-21.87 8.732-5.1 15.921-15.58 25.938-17.07z" fill="#565656"/><path d="m573.455 1272.29c2.352 22.02-24.435 41.3-38.04 58.04-10.343 9.54-29.029 28.15-41.773 21.73 18.792-13.18 39.676-27.88 53.82-47.83 9.942-8.55 13.685-28.44 25.993-31.94z" fill="#565656"/><path d="m605.045 1192.82c3.808 16.96-7.307 35.32-13.116 51.64-7.427 19.27-17.057 40.75-36.248 50.36 4.997-18.02 23.541-31.98 27.812-52.01 10.044-14.77 8.489-40.69 21.552-49.99z" fill="#565656"/><path d="m539.986 458.756c4.942 1.02 2.354 6.954-1.648 6.632-15.5 2.01-31.147 2.206-46.735 3.23-9.709-.182-19.389.316-29.095.354-16.46.543-32.903-.3-49.347.397-11.535.018-23.052.429-34.576.471-7.628.99-15.302-.095-22.963.71-14.508.348-29.051.484-43.491 2.223-14.592.964-29.214 1.553-43.676 3.668-11.169.626-22.28 1.563-33.42 2.292-10.857.437-21.685 1.72-32.543 1.67-7.17.553-14.368-.21-21.468 1.182-10.399.421-20.795.073-31.176.818-3.338-.162-9.572 1.508-10.344-3.186 1.576-3.18 6.4-2.582 9.575-3.176 10.796-.664 21.642.06 32.408-.73 7.683-2.207 15.63-.876 23.453-1.918 11.313.21 22.536-1.77 33.859-1.705 14.214-1.738 28.631-1.618 42.765-4.057 16.56-.914 33.09-2.2 49.625-3.467 11.697-.316 23.425-.164 35.107-.796 8.108.526 16.167-1.016 24.304-.581 12.257-.505 24.56-.477 36.828-.763 14.523.046 29.041.277 43.568-.304 13.722-.28 27.51-.104 41.186-1.465 9.287-.057 18.546-1.396 27.804-1.499z" fill="#565656"/><path d="m526.392 460.73c3.32-.745 7.948 2.148 5.348 5.755-3.294 2.437-7.868 1.299-11.72 2.201-13.385.146-26.774.488-40.145.698-12.89.516-25.735 1.61-38.632 2.385-12.998.232-25.94 1.465-38.932 1.722-13.111.194-26.203 1.11-39.322.872-13.036.734-26.108.881-39.139 1.592-8.539.457-17.097.87-25.59 1.687-6.948.582-13.864 1.072-20.835.753-7.524.406-15.062 0-22.588.236-6.974-1.244-14.11.533-21.02-1.42-5.043-1.305-10.573 2.048-15.215-.648-2.346-2.591 2.31-4.042 4.281-4.569 8.334-2.91 16.9 1.368 25.34-.085 5.671.612 11.341.598 17.034.157 7.318.066 14.646-.354 21.929-.365 9.538-.69 19.005-1.79 28.576-2.214 10.394-.742 20.822-1.068 31.245-1.426 16.051-1.232 32.17-.55 48.234-1.675 13.755.204 27.407-1.392 41.14-1.712 14.258-.498 28.436-2.073 42.676-2.505 8.02-.396 16.06-.19 24.092-.482 7.763-.257 15.549.162 23.243-.957zm267.103 363.195c10.377 3.257-1.664 12.88-7.872 9.3-10.134.918-20.31-1.129-30.43.006-17.63-.39-35.267.281-52.9-.077-8.778.226-17.527.77-26.313.719-20.91 2.163-41.975 3.002-62.926 4.812-6.371 2.596-17.54-8.46-7.49-10.568 4.548 4.179 10.807 1.69 16.92 1.484 19.39-1.837 38.86-3.019 58.254-4.64 11.248.408 22.492-1.104 33.733-.328 11.584-.019 23.193-.196 34.757-.226 9.521.323 19.086-.844 28.57.332 5.237-.176 10.449-.953 15.697-.814z" fill="#565656"/><path d="m798.227 815.957c10.222 22.961-68.838 2.805-95.988 11.907-20.585-5.143-101.65 7.75-87.68-7.976 61.251-2.286 122.47 1.666 183.668-3.931z" fill="#565656"/><path d="m603.769 469.52c6.711 1.56 3.864 10.555 5.153 15.585-.192 34.416 1.335 69.019-1.828 103.319-2.38 26.306.174 52.8-.565 79.19.559 22.216 3.312 44.276 2.815 66.557.493 21.342 2.508 42.656 1.838 64.03-.08 10.705-.696 21.459 1.246 32.059.046 4.958 1.282 12.023-2.415 15.404-5.903-2.969-3.235-11.4-4.897-16.725-2.686-12.761-1.022-25.856-1.486-38.768.04-25.25-2.76-50.37-2.284-75.642-1.194-22.727-3.34-45.424-2.652-68.244-.306-22.78-1.644-45.66 1.48-68.299 1.3-32.013.911-64.134.448-96.151 1.074-4.228-4.224-9.88 1.264-12.071.579-.223 1.27-.333 1.883-.244z" fill="#565656"/><path d="m591.016 467.668c4.768 3.147 2.271 10.224 4.36 14.991 3.057 16.956 1.849 34.244.784 51.366-.391 31.875-.264 63.805 2.305 95.579.086 10.664 1.388 21.584.8 32.097-2.773 6.28-8.393-1.047-7.164-5.248-1.176-30.353-4.205-60.552-3.732-90.947-1.056-22.201 1.364-44.306 1.319-66.485-.565-9.476-3.009-18.76-2.868-28.252.071-2.065 2.153-3.764 4.196-3.101z" fill="#565656"/><path d="m613.464 978.99c4.898 5.704.479 13.657 2.677 20.237.762 13.563.675 27.153.631 40.723.964 19.36-1.395 38.69-.566 58.06.167 10.14.13 20.3.773 30.44.077 5.98-9.13 6.39-7.26-.43-.95-15.85-1.015-31.73-1.2-47.6.443-15.5 1.195-31.03.089-46.51.337-7.16.55-14.3.009-21.45.08-9.19-1.119-18.331-.973-27.505.012-3.014 2.117-7.453 5.82-5.965z" fill="#565656"/><path d="m185.252 1272.39c-3.347 19.15 24.72 26.08 32.883 42.09-12.128 6.91-29.536-17.2-39.782-26.6-5.936-4.78 1.028-15.79 6.899-15.49z" fill="#565656"/><path d="m184.949 1273.82c-9.804 23.07 25.925 35.31 42.187 49.89 7.285 3.94 35.943 23.04 13.34 19.85-24.439-14.29-48.314-30.91-66.787-52.56-5.049-6.91 5.087-16.5 11.26-17.18z" fill="#565656"/><path d="m213.423 1305.39c13.863 9.23 26.185 21.21 39.412 30.84-12.193 10.3-34.26-17.87-43.783-28.42.298-1.94 2.57-3.11 4.371-2.42z" fill="#565656"/><path d="m225.203 1320.27c8.063 7.22 17.981 12.16 26.641 18.59 5.402 3.24 11.619 4.37 17.438 6.73 4.67.76 7.496 7.98 1.677 9.43-5.363-.39-10.283-3.22-15.513-4.41-8.43-3.25-14.787-9.81-22.498-14.4-4.15-3.87-10.365-6.47-12.616-11.82-.46-2.63 2.176-5.31 4.871-4.12z" fill="#565656"/><path d="m230.579 1325.14c5.012 1.78 7.495 7.3 12.613 9.06 5.223 3.62 10.346 7.48 16.17 10.08 9.657 5.73 20.835 7.86 30.933 12.62 8.284 3.45 17.106 5.37 25.324 9.02 8.683 3.46 17.446 7.04 26.754 8.39 4.084 2.2 12.188.44 12.636 6.71-.893 5.06-7.694 4.18-11.403 2.87-5.752-1.59-11.723-2.28-17.334-4.43-12.035-4.09-23.614-9.49-35.87-12.9-14.453-6.08-30.056-9.9-42.974-19.16-5.56-4-10.907-8.31-16.342-12.45-2.22-2.25-5.98-9-.507-9.81z" fill="#565656"/><path d="m260.881 1337.42c10.532 4.09 21.523 8.29 31.005 14.33 3.218 4.97-3.818 8.07-7.501 5.04-9.101-4.69-19.665-7.45-27.432-14.19-1.597-2.62.581-6.52 3.928-5.18z" fill="#565656"/><path d="m253.145 1333.85c8.483 4.26 42.872 15.11 30.224 23.91-4.909-4.19-47.197-17.88-30.224-23.91z" fill="#565656"/><path d="m258.618 1341.59c8.115 1.15 13.692 8.08 21.39 10.32 6.565 4.94 14.431 7.37 22.19 9.66 12.868 4.63 25.145 11.31 38.892 13.06 19.133 2.59 38.096 6.95 57.45 7.56 8.237-.91 5.91 12.21-1.579 9-18.23.03-36.022-4.46-53.982-6.98-17.426-1.39-32.363-11.23-48.717-16.34-9.523-2.25-17.263-8.53-25.782-12.98-3.81-4.28-15.357-5.98-13.128-12.95 1.064-.34 2.198 0 3.266-.35z" fill="#565656"/><path d="m314.184 1362.19c9.825.93 19.296 3.96 29.065 5.5 4.007.91 12.57 2.71 8.526 8.54-7.43 3.45-16.444.28-24.204-2.29-5.578-1.21-12.752 1.48-17.208-3.77-3.795-3.17-.72-8.57 3.821-7.98z" fill="#565656"/><path d="m331.243 1368.11c13.521 1.19 27.435 1.26 40.605 4.59 6.447 1.55 2.074 11.17-3.449 7.13-14.735-3.39-31.425-1.38-44.703-9.25-.629-2.43 5.819-2.24 7.547-2.47z" fill="#565656"/><path d="m972.209 443.336c7.977 5.88-.1 16.184 2.824 23.848.848 5.592-6.555 11.475-10.197 4.736.108-5.347-1.315-10.961.866-16.191 1.878-4.986-3.32-14.16 6.507-12.393z" fill="#565656"/><path d="m970.655 443.575c4.159 3.579 3.684 10.391 4.055 15.58-.648 5.033.708 9.967.505 14.824-5.053 7.392-11.583-1.147-9.701-7.249 1.114-6.772-.53-13.534-.086-20.234.51-2.261 2.898-3.916 5.227-2.921z" fill="#565656"/><path d="m604.2 1173.11c3.573 2.5 2.455 8.3 1.504 11.45-3.204 13.17-6.871 26.61-14.155 38.07-5.269 3.34-7.876-4.26-4.848-7.8 6.431-12.61 10.747-26.45 13.371-40.28.856-1.32 2.569-2.11 4.128-1.44z" fill="#565656"/><path d="m759.857 564.8c1.539 2.166-1.94.476-3.275 1.063-7.533.85-15.227.694-22.76.472-.713-1.4 1.945-.738 2.803-.943 7.264.15 14.554.057 21.776-.653.481.043.992-.1 1.456.061zm-26.913-16.21c1.22.834 2.797.452 4.18.529 1.362.053 2.718.07 4.079-.015 3.054.036 6.113.074 9.154-.265 2.184-.27 4.38-.02 6.57-.079 1.074.374 3.084-.588 3.52.67-.883 1.002-2.425.158-3.593.378-2.349-.002-4.701-.171-7.041.107-3.61.438-7.249.092-10.869.332-2.049-.342-4.336.345-6.184-.872-.351-.242-.457-.95.184-.785zm24.994-14.73c3.083.62-.674 1.528-2.119 1.034-6.775.615-13.574 1.282-20.406 1.18-1.178-.186-3.008.658-3.808-.32 1.176-1.01 3.352-.433 4.913-.743 6.616.21 13.165-.735 19.73-1.151.564.004 1.127-.011 1.69 0zm.857-13.663c.544 1.87-1.587 1.1-2.656 1.63-6.513.823-13.155.319-19.55 2.047-1.207.01-3.087 1.353-3.895.13 1.238-1.131 3.633-.817 5.262-1.53 5.921-1.357 12.01-.902 18-1.674.958-.199 1.986-.681 2.839-.603zm-92.14 45.615c1.071 1.423-1.785 1.825-2.893 1.739-7.982-.402-16.02 1.38-24.026.977-2.113-.07-1.052-2.15.276-.97 8.257.16 16.557-1.384 24.755-1.09.803-.009 1.195-.985 1.888-.656zm2.451-14.707c.138 1.682-2.646.612-3.845 1.07-5.768.411-11.564 1.177-17.444.997-2.67-.01-5.391.617-8.016.373-1.761-1.254 1.219-.745 2.141-1.001 6.78-.58 13.627-.25 20.327-1.155 2.196-.142 4.627-.644 6.837-.284zm-2.232-12.32c.164 1.451-2.268.794-3.307 1.317-4.46-.574-9.036-.352-13.54.107-4.07.008-8.2 1.183-12.182.684-.28-1.77 2.547-.536 3.538-.984 6.818-.521 13.662-1.56 20.499-1.025 1.63.714 3.355-.69 4.992-.099zm-29.424-14.365c.164 1.341 2.735.948 3.822 1.257 8.15.046 16.271-1.13 24.4-1.078 1.27-.665 2.87.894.855.992-7.648.048-15.317.824-22.988 1.131-2.312-.204-5.608.382-7.113-1.713-.178-.496.741-1.432 1.024-.589zm129.047-49.965c.502 1.912.043 3.947.525 5.917-.661 5.228-1.687 10.465-.549 15.726-.148 3.11 1.361 6.055 1.37 9.118-1.588 2.2-4.421-.968-6.483.272-7.012 1.46-14.208 1.675-21.372 1.616-2.487-.29-5.431 1.68-7.423-.47.079-1.691 2.323 1.023 3.477-.204 7.288-.986 14.796.121 22.026-1.518 2.515-.153 5.07-1.39 7.485-.122 2.181.818.68-1.818.648-2.859-.921-3.578-1.132-7.288-1.35-10.968-.476-4.54 1.675-9.112.647-13.64.336-.697-.688-3.66.999-2.868zm-136.848 5.615c-1.01 1.468.614 3.368.743 5.015 1.894 5.198 1.68 10.841 2.469 16.281.492 2.817.36 5.767.61 8.56 1.187 1.311 3.587.573 5.226.652 7.877-.606 15.677-1.924 23.45-3.215 1.132-.685 3.962.525 1.673 1.055-7.502.88-14.955 2.577-22.538 3.115-2.724.245-5.827.907-8.336-.294-1.66-2.094-.29-5.099-.984-7.55-.768-5.503-.742-11.165-2.013-16.574-.485-2.243-1.858-4.607-1.33-6.893.412.1.731-.733 1.03-.152zm80.979-7.604c.02 2.207-2.209 3.278-3.474 4.744-3.71 3.508-5.554 8.39-8.236 12.63-.92 1.627-2.106 3.087-3.006 4.726-2.215.739-3.087-2.251-4.328-3.518-1.765-2.62-3.05-5.648-5.573-7.673-3.268-3.094-6.359-6.367-9.556-9.532 1.8-1.27 2.679 1.921 4.115 2.544 3.243 3.193 6.592 6.294 9.543 9.767 1.429 2.476 2.692 5.149 4.873 7.072 1.491-1.833 2.558-3.963 3.898-5.903 2.052-3.513 3.682-7.372 6.666-10.238 1.163-1.246 2.38-2.442 3.541-3.69-.692-.934.969-1.373 1.537-.929z" fill="none" stroke="#ffc114" stroke-linecap="butt" stroke-linejoin="miter" stroke-width="2.66666"/><path d="m653.495 602.45c-1.38-.03-.475 1.948.013.192l.047-.237zm.821-3.741c3.834 1.457 2.525 8.71-1.86 8.082-2.934-.372-4.547-5.153-1.59-6.59.608-1.172 2.177-1.961 3.45-1.492zm-.372 21.227c2.29.879 1.012 3.6.888 5.39-.476 2.722-5.154 3.767-5.773.658-.843-2.614 1.912-6.757 4.885-6.048zm84.391-21.966c3.076.087 4.932 4.567 1.98 6.243-2.144.682-5.506 1.434-6.503-1.267-.857-1.678.644-4.082 2.512-4 .74-.12 1.109-1.058 2.011-.976zm.684 24.286c3.86.213 3.216 5.764.585 7.301-2.015 2.057-6.024.324-5.158-2.654.753-2.073 2.416-4.04 4.573-4.647zm-28.791 35.592c-7.064-.14-14.126-.07-21.18.269-5.567.026-11.115.343-16.647.946-8.926.606-17.848 1.685-26.606 3.486-2.496.772-5.308 1.207-7.43 2.75.833 1.659 3.377 2.276 5.18 2.864 5.542 1.756 11.362 2.327 17.103 3.053 10.677.87 21.365 2.004 32.096 1.694 6.178.144 12.354-.255 18.531-.326 5.203-.228 10.403-.399 15.594-.828 7.292-.813 14.682-.91 21.881-2.467 4.8-.664 9.696-1.51 14.077-3.642 2.058-.807-1.051-1.73-1.918-2.203-4.153-1.816-8.739-2.23-13.147-3.155-7.4-1.021-14.818-1.85-22.29-2.017-5.078-.256-10.157-.663-15.244-.424zm-18.32-2.75c8.177.254 16.368-.097 24.53.58 6.768.13 13.523.633 20.246 1.347 5.978.41 11.953 1.175 17.845 2.229 3.884 1.014 8.177 1.38 11.438 3.882 2.175 1.841.667 5.12-1.613 6.052-4.699 2.359-10.013 2.925-15.113 3.959-6.61.595-13.201 1.564-19.833 1.846-7.252.252-14.506.578-21.767.53-6.135.094-12.268-.267-18.4-.423-10.746-.675-21.555-.666-32.214-2.368-5.125-.547-10.22-1.527-15.216-2.774-2.516-.89-6.358-1.362-6.723-4.611-.077-2.624 2.94-3.744 4.905-4.717 7.407-2.444 15.233-3.447 22.996-4.098 6.195-.656 12.413-.96 18.64-1.007 3.42-.269 6.851-.32 10.279-.426z" fill="#ffc114" stroke="#ffc114" stroke-linecap="butt" stroke-linejoin="miter" stroke-width="2.66666"/><path d="m706.555 657.736c-10.85.11-21.701.299-32.514 1.273-6.102.183-12.163.992-18.207 1.759-4.66.711-9.268 1.776-13.826 2.946-1.202.72-2.891.772-3.778 1.905 4.242 2.952 9.572 3.413 14.533 4.326 13.41 1.978 26.991 2.68 40.533 2.994 8.386-.22 16.78-.34 25.159-.702 8.295-.499 16.588-1.115 24.833-2.183 5.448-.543 10.895-1.47 16.179-2.86 1.438-.631 3.135-.838 4.313-1.94-1.67-1.916-4.372-2.246-6.678-3.032-4.997-1.14-10.013-2.288-15.148-2.569-6.958-1.112-14.024-1.169-21.042-1.692-4.79.147-9.566-.41-14.357-.225zm-11.03-2.623c7.802.094 15.608.292 23.4.596 6.278.404 12.568.61 18.82 1.379 5.058.063 9.993 1.305 15.013 1.773 4.44.893 9.054 1.636 12.953 4 1.733 1.435 1.57 4.457-.54 5.51-3.295 2.31-7.391 2.932-11.226 3.904-7.198 1.325-14.479 2.17-21.786 2.598-9.965.557-19.947.78-29.929.748-12.842-.626-25.723-.506-38.523-1.868-7.985-.808-15.993-1.851-23.681-4.212-2.354-.635-5.53-2.527-4.89-5.386 2.31-3.756 7.093-4.278 10.984-5.437 5.385-1.037 10.887-1.472 16.323-2.19 7.253-.52 14.49-1.24 21.77-1.228 3.773-.19 7.542.048 11.313-.187zm11.06 24.064c-8.479-.07-16.955.157-25.413.67-7.428.045-14.772 1.202-22.142 1.946-4.91.367-9.716 1.549-14.514 2.505-2.109.774-4.578 1.04-6.268 2.606 3.267 2.504 7.59 2.957 11.48 3.99 7.008 1.494 14.158 2.165 21.296 2.656 9.56.62 19.144.809 28.721.76 7.6-.191 15.201-.573 22.797-.915 7.395-.461 14.796-.946 22.147-1.89 5.203-1.017 10.575-1.474 15.606-3.16 1.093-.472 3.331-.934 3.217-2.083-1.772-1.698-4.423-1.91-6.671-2.738-12.034-2.97-24.46-3.579-36.788-4.198-4.493.048-8.977-.443-13.468-.149zm-7.377-2.572c6.57.047 13.133.338 19.697.582 11.809.536 23.613 1.529 35.287 3.382 3.273.642 6.542 1.357 9.581 2.739 2.05.622 4.325 2.902 2.887 5.144-1.76 2.356-4.902 3.108-7.612 3.857-7.281 2.41-15.052 2.56-22.61 3.555-9.956.764-19.951 1.308-29.942 1.109-10.015-.275-20.04-.27-30.033-1.038-9.176-.6-18.328-1.455-27.426-2.79-4.35-.787-8.991-1.459-12.69-4.008-1.914-1.48-1.442-4.733.83-5.628 3.414-2.279 7.612-2.798 11.513-3.805 7.855-1.026 15.693-2.322 23.636-2.34 5.96-.378 11.915-.79 17.887-.686 2.996-.117 5.997.012 8.995-.073zm-21.913 31.855c.905-.025 1.652.572 2.354 1.056.48.566 1.034 1.09 1.29 1.808.37.65.316 1.457-.124 2.06-.56.599-.87 1.375-1.564 1.892-.746.703-1.912.81-2.841.432-.611-.462-1.32-.14-2.018-.26-.997-.134-1.948-.862-2.104-1.897-.151-.976.367-2.038 1.205-2.558.698-.572.933-1.713 1.929-2.002.57-.324 1.205-.575 1.873-.531zm41.297.53c-.528-.016 1.06.197 1.484.533.472.29.625.874.915 1.319.223.509.335 1.063.27 1.619-.014.515-.267.983-.392 1.475-.27.7-.638 1.407-1.297 1.811-.742.521-1.72.612-2.581.37-.634-.1-1.359-.08-1.842-.572-.484-.35-.863-.807-1.174-1.307-.427-.889-.58-2.001-.094-2.902.165-.38.45-.716.78-.967.487-.386 1.338-.439 1.94-.624.554-.015 1.075-.194 1.597-.363.29-.054 1.352-.363.799-.38zm-39.697 23.81c1.377.03 2.53 1.389 1.556 2.639-.93.764-1.868-.05-2.872.346-3.313.384-6.684.016-10.008.511-6.4.31-12.77 1.17-19.185.839-3.272.018-6.538.01-9.794.064-1.14-.012-2.772.703-3.605-.265-.116-1.378 1.963-1.346 2.909-1.863 5.341-.563 10.752-.415 16.13-.48 6.455-.404 12.912-1.067 19.368-1.323 1.857.126 3.69-.185 5.501-.468zm86.965-2.563c1.048 1.223-.239 2.904-1.68 2.543-3.337.211-6.691.734-10.063.399-8.07-.408-16.117.777-24.188.473-3.304-.108-6.687.76-9.938-.003-1.645-.333-2.135-3.042-.234-3.324.974.054 1.084 1.17 2.228.837 4.675-.196 9.352-.441 14.037-.258 7.351-.443 14.722-.81 22.077-.397 2.415.033 4.866-.904 7.204-.5 0 0 .557.23.557.23zm-98.112 21.398c1.347.082 1.642 1.513 1.923 2.588.269 1.99-1.419 4.09-3.512 3.785-1.978-.097-3.748-2.54-2.46-4.309.616-1.287 2.028-2.288 3.501-1.948.186-.074.339-.19.548-.116zm-1.18 20.874c1.136-.113 3.028 1.585 1.979 2.06 1.075 2.697-2.485 6.36-4.88 4.01-2.013-2.23.47-5.73 2.901-6.07zm68.344-22.645c1.623-.172 2.576 1.5 2.713 2.895-.023 2.046-2.137 4.185-4.237 3.233-1.225-.394-1.48-1.852-1.521-2.965-1.498-.438-1.163-2.847.307-3.069.806.126 1.356.157 2.172-.278.187-.052.381.152.566.184zm1.968 20.486c.89-.015 1.489.572 2.116 1.037.775 1.233-1.42.796-.8 1.57.363 1.5-.796 2.689-1.673 3.701-1.019.975-2.892.99-3.611-.317-1.18-1.337.057-2.955.97-3.999.854-.53 1.204-1.64 2.311-1.85.23-.037.452-.163.687-.142zm13.538 20.092c11.09.237 22.178.312 33.267.345 1.457.147 5.316-.533 4.184 2.019-3.991.882-8.29.39-12.402.512-11.684-.065-23.37.42-35.057.201-11.622.128-23.235-.318-34.858-.292-8.488.172-16.976-.087-25.458-.26-11.856.147-23.712.351-35.566.069-3.36-.004-6.898.512-10.152-.263-1.07-2.603 2.924-1.686 4.377-1.875 10.123.29 20.253-.303 30.378.082 8.366.14 16.721.074 25.083-.206 13.078.13 26.16-.076 39.233-.27 5.657.002 11.315.121 16.971-.062z" fill="#ffc114" stroke="#ffc114" stroke-linecap="butt" stroke-linejoin="miter" stroke-width="2.66666"/><path d="m637.654 790.45c.95 2.268-2.565 3.222-3.733 4.732-5.865 5.698-11.383 11.863-18.043 16.625-2.826.016-.258-3 .938-3.765 5.82-6.482 13.303-11.157 19.175-17.581.626-.396 1.028-.393 1.663-.011z" fill="#ffc114" stroke="#ffc114" stroke-linecap="butt" stroke-linejoin="miter" stroke-width="2.66666"/><path d="m678.224 809.126c12.664.131 25.328.052 37.99.293 13.573-.128 27.144.061 40.717.039 3.45.238 6.982-.085 10.386.205 2.348 1.675-1.363 2.807-2.894 2.174-13.926.193-27.86.078-41.786.201-12.907-.185-25.813.309-38.72.15-9.844.03-19.689-.084-29.534-.105-6.726.037-13.432-.386-20.154-.16-6.234-.236-12.466-.2-18.704-.238-2.605-1.353 1.076-2.639 2.548-2.012 8.221.13 16.437-.402 24.655-.128 11.82-.557 23.67-.05 35.496-.419z" fill="#ffc114" stroke="#ffc114" stroke-linecap="butt" stroke-linejoin="miter" stroke-width="2.66666"/><path d="m787.42 790.962c.991 2.277-2.51 3.278-3.676 4.803-5.94 5.41-11.062 11.842-17.716 16.372-2.974.136-.64-3.154.702-4.008 5.934-6.135 13.142-10.917 18.982-17.166 1.122.293 1.117-.364 1.708-.001zm-85.327 44.769c-6.71-.082-13.42.13-20.117.369-6.67.116-13.32.784-19.941 1.552-7.346.499-14.625 1.73-21.727 3.673-2.11.653-4.33 1.164-6.044 2.633 2.627 2.994 7.028 3.165 10.648 4.22 7.143 1.935 14.601 2.108 21.924 2.902 8.517.887 17.093.767 25.64.904 10.376-.236 20.797.209 31.12-1.12 8.561-.692 17.083-1.79 25.54-3.29 3.328-.861 6.75-1.82 9.702-3.58.415-1.096-1.763-1.45-2.485-2.095-5.305-1.822-10.804-3.17-16.398-3.772-5.836-1.026-11.75-1.311-17.64-1.862-6.745-.154-13.47-.758-20.222-.534zm-10.97-2.413c9.088-.018 18.175.333 27.247.755 5.544.515 11.114.623 16.634 1.355 5.482.408 10.9 1.393 16.3 2.343 3.463.875 7.217 1.652 9.928 4.115 1.927 1.939.347 4.836-1.742 5.873-4.107 2.577-9.203 2.692-13.802 3.943-8.396 1.435-16.934 2.098-25.451 2.348-9.987.128-19.979 1.005-29.968.427-8.255-.017-16.485-.825-24.725-1.233-7.583-.468-15.067-1.82-22.57-2.908-3.503-.885-7.174-1.704-10.285-3.582-2.659-1.411-1.798-5.347.658-6.443 3.811-2.244 8.278-3.086 12.59-3.874 6.376-.875 12.764-1.817 19.184-2.253 6.994-.186 13.98-.732 20.97-.797 1.678.071 3.355-.039 5.033-.07zm-16.444 39.447c.476 1.821.831 3.068 1.632 4.824 1.023 3.105-3.029 6.502-5.355 3.584-.749-1.708-2.156-3.179-1.489-4.993 1.361-1.315 2.641-2.948 4.31-3.788l.56.232zm40.547 3.778c4.266.61 2.768 6.895-.427 8.087-3.194 2.144-5.228-3.381-3.28-5.476.52-1.575 2.027-2.677 3.707-2.611zm-39.18 23.614c1.36 3.57-3.356 2.168-5.408 2.857-8.093.64-16.355 1.563-24.437 1.032-2.882-.893-.18-3.475 1.83-2.498 8.718-.286 17.48-.75 26.09-1.792.712-.103 1.29.064 1.925.401zm66.473-1.697c2.504 1.664-.365 4.286-2.359 3.012-9-.104-18.095 1.486-27.029.443-2.446-1.35.389-3.27 2.228-2.847 8.998.573 18.155-.877 27.16-.608zm-73.859 21.464c3.71.517 3.208 6.594-.415 7.11-3.92.897-4.598-4.954-1.358-6.313.552-.342 1.101-.735 1.773-.797zm-.243 24.337c1.97.223 1.85 2.727 2.173 3.972-.127 2.943-5.004 4.363-5.818 1.101-.393-2.102 1.194-5.322 3.645-5.073zm50.626-20.931c.176.82 1.01-.662 0 0zm-.685-3.252c3.403-.52 5.948 4.007 2.576 5.879-2.292 1.352-4.537-.827-6.088-2.03-1.536-2.313 1.45-4.2 3.512-3.849zm-1.579 23.626c2.788-.708 4.948 2.905 2.44 4.692-.521 3.783-6.674 1.905-5.49-1.655.202-1.562 1.569-2.708 3.05-3.037zm-18.342 29.251c-19.516.491-39.25 1.162-58.293 5.696-2.052.561-4.425 1.405-5.923 2.73 3.892 3.683 9.857 3.792 14.82 5.155 14.903 2.295 30.041 2.989 45.116 2.991 17.262-.416 34.674-.701 51.613-4.376 4.36-.925 9.087-1.669 12.846-4.11-4.36-3.71-10.705-4.213-16.188-5.274-14.534-2.12-29.3-2.668-43.991-2.812zm-7.29-2.205c21.91.4 44.154.426 65.478 5.895 2.88.846 7.482 2.963 5.343 6.674-4.606 5.081-12.29 5.197-18.643 6.453-17.747 1.738-35.6 2.591-53.437 1.939-16.75-.36-33.59-1.338-50.003-4.766-3.107-1.354-8.895-1.67-8.773-6.133 1.694-5.005 8.154-5.047 12.41-6.501 15.626-3.112 31.73-3.33 47.626-3.561zm10.935 46.15c-20.511.47-41.294.8-61.324 5.5-2.256.78-4.836 1.13-6.56 2.94 5.826 4.44 13.64 4.6 20.6 6.03 15.868 1.78 31.87 2.31 47.824 1.91 17.72-.97 35.815-1.15 52.916-6.33 1.936-.58 5.043-1.94 1.652-3.28-11.093-4.56-23.446-5-35.29-6.17-6.608-.13-13.198-.77-19.818-.6zm-10.907-2.34c20.542.64 41.292.62 61.47 4.84 3.435 1.21 9.188 1.63 9.505 6.18-1.546 4.82-7.748 5.45-11.964 6.57-14.834 2.88-30.033 3.53-45.12 3.71-12.728-.18-25.452-.17-38.144-1.32-11.042-1.19-22.459-1.67-32.887-5.66-3.754-1.03-3.79-6.57.016-7.56 8.746-4.06 18.68-4.62 28.172-5.57 9.631-.78 19.289-1.17 28.952-1.19zm3.639-19.524c-18.116.53-36.425 1.157-54.104 5.444-1.84.87-5.972 1.3-6.19 3.19 4.831 3.4 11.152 4.11 16.879 5.14 23.898 3.47 48.22 3.37 72.271 1.5 11.254-1.17 22.812-1.95 33.488-5.87 3.647-.96-.148-3.21-2.001-3.73-16.159-4.797-33.283-5.272-50.053-5.725-3.434.133-6.858-.213-10.29.051zm-3.664-2.39c19.42.366 38.993.768 58.153 4.116 4.158 1.177 9.181 1.558 12.334 4.768 2.052 3.9-3.023 6.35-6.07 7.13-10.388 3.32-21.483 3.83-32.313 4.54-24.033 1.03-48.2.65-72.082-2.25-6.484-1.39-14.06-1.31-19.323-5.72-2.802-3.64 2.33-6.489 5.341-7.394 14.82-4.049 30.308-4.537 45.578-5.022 2.797.058 5.59.004 8.382-.167zm-24.057 56.674c1.334.66 3.306 1.36 2.716 3.38 1.078 3.15-5.18 4.96-5.457 1.32-.41-1.78.434-5.08 2.741-4.7zm59.689.93c3.005 1.4 1.05 6-2.025 4.92-4.567-.08-1.43-7.03 2.025-4.92zm-45.483 17.33c1.402 3.36-3.052 2.42-5.003 2.7-13.65-.54-27.36 2.37-41.013.74-2.826-.39-1.583-4.41 1.008-3.68 1.112 1.13 2.699 1.46 5.177 1.24 11.885.4 23.674-1.5 35.53-1.27 1.381-.13 3.026-.46 4.301.27zm88.326-4.3c2.222 1.21.138 3.43-1.724 3.17-1.773.56-3.462 1.27-5.313.47-9.592.8-19.285.41-28.842 1.81-5.574.52-11.595-.82-16.864.23-1.9-2.6 2.423-3.32 4.326-3.26 6.873.47 13.728.33 20.545-.71 7.164-.3 14.324-.59 21.465-.93 2.206.86 4.255-1.1 6.407-.78zm-119.369 28.22c3.965-.38 5.042 5.19 2.108 7.2-3.329 2.42-7.146-2.62-4.523-5.52.709-.69 1.367-1.62 2.415-1.68zm83.474 181.09c8.913.09 17.825.39 26.736.11 7.812.37 15.716-.3 23.47.49 2.195 1.87-1.747 2.49-3.192 2.18-7.98.17-15.968.13-23.947.18-10.546-.27-21.09.34-31.642.11-17.325-.21-34.647-.53-51.972-.54-18.501-.35-37.007.52-55.507.12-1.51-.06-5.38.89-4.478-1.76 1.943-1.23 4.72-.03 6.987-.42 19.578-.4 39.161.56 58.737.06 18.27.03 36.537-.49 54.808-.53zm11.785-183.71c3.226-.58 5.35 5.66 1.463 5.72-2.244.74-5.002-.35-4.98-3.07.306-1.65 2.06-2.33 3.517-2.65z" fill="#ffc114" stroke="#ffc114" stroke-linecap="butt" stroke-linejoin="miter" stroke-width="2.66666"/><path d="m615.135 1272.58c.913 4.39-.015 9.05.657 13.52-.003 6.25.443 12.61-.556 18.78-2.439 1.66-1.746-3.13-2.077-4.61-.46-8.6.287-17.18.276-25.78-.182-1.06.303-2.85 1.7-1.91z" fill="#ffc114" stroke="#ffc114" stroke-linecap="butt" stroke-linejoin="miter" stroke-width="2.66666"/><path d="m695.948 1301.84c19.023.48 38.052.14 57.076.33 10.25.19 20.576-.18 30.777.41 2.172 1.86-1.787 2.39-3.196 2.05-12.384.21-24.767.18-37.152.26-16.46 0-32.923-.02-49.38.23-11.335.04-22.674.02-34.009-.2-9.855.27-19.687-.49-29.54-.26-5.869-.22-11.806.08-17.63-.16-2.283-1.65 1.365-2.71 2.85-2.11 9.352.07 18.71-.03 28.06-.1 9.851-.5 19.726 0 29.583-.4 7.521-.13 15.043.15 22.561-.05z" fill="#ffc114" stroke="#ffc114" stroke-linecap="butt" stroke-linejoin="miter" stroke-width="2.66666"/><path d="m783.929 1272.26c.809 2.93-.03 6.16.177 9.21-.162 6.74.826 13.46.175 20.19.739 1.71-1.202 4.9-2.353 2.22-.233-5.26-.48-10.51.012-15.78.327-5.09-.183-10.27.057-15.32.17-.91 1.286-1.01 1.932-.52z" fill="#ffc114" stroke="#ffc114" stroke-linecap="butt" stroke-linejoin="miter" stroke-width="2.66666"/><path d="m694.917 498.175c.464 2.771-.313 5.764.159 8.597-.121 5.482.498 10.877.276 16.33.304 7.513-.738 14.973-.976 22.474-.518 7.638-.83 15.282-1.383 22.88-.288 7.348-.72 14.701-1.035 22.052-.138 2.23-.04 4.633-.497 6.804-1.674.329-.484-2.302-.739-3.265.473-9.68.848-19.486 1.391-29.199.659-9.333.958-18.74 1.668-28.12.387-5.484.716-10.993.404-16.497.315-4.853-.472-9.708-.184-14.612-.396-2.356.057-4.779.13-7.15.063-.345.487-.57.786-.294z" fill="#ffc114"/><path d="m694.917 498.175c.464 2.771-.313 5.764.159 8.597-.121 5.482.498 10.877.276 16.33.304 7.513-.738 14.973-.976 22.474-.518 7.638-.83 15.282-1.383 22.88-.288 7.348-.72 14.701-1.035 22.052-.138 2.23-.04 4.633-.497 6.804-1.674.329-.484-2.302-.739-3.265.473-9.68.848-19.486 1.391-29.199.659-9.333.958-18.74 1.668-28.12.387-5.484.716-10.993.404-16.497.315-4.853-.472-9.708-.184-14.612-.396-2.356.057-4.779.13-7.15.063-.345.487-.57.786-.294z" fill="none" stroke="#ffc114" stroke-linecap="butt" stroke-linejoin="miter" stroke-width="2.66666"/><path d="m695.434 498.297c1.063 4.183 2.49 8.323 2.484 12.75 1.611 12.948 2.492 26.043 3.58 39.054.871 9.345.908 18.746 1.78 28.09.361 6.278 1.913 12.486 1.532 18.778-1.616.866-.814-2.049-1.001-2.904-.594-7.773-1.936-15.474-2.14-23.322-.572-8.057-.701-16.127-1.59-24.171-.9-12.292-1.986-24.648-3.333-36.875.05-3.59-1.51-6.872-1.633-10.396.223-.298-.409-1.483.321-1.004z" fill="#ffc114"/><path d="m695.434 498.297c3.082 9.639 3.046 19.843 4.258 29.81 1.552 16.376 2.528 32.792 3.507 49.208-.16 6.278 3.148 14.756.8 19.686-.806-10.983-2.466-21.993-2.734-33.058-1.069-19.435-2.813-38.854-4.981-58.184-.218-2.052-1.947-6.137-.85-7.462zm-4.5 99.261c.3 7.455-1.597 14.85-1.106 22.329-.554 13.57-.256 27.181-1.094 40.745 1.15 3.068-1.76 7.204-1.33 1.992.545-11.412.734-22.837 1-34.263.26-8.972.171-17.959 1.448-26.876.31-1.039-.416-4.137 1.082-3.927zm13.606-.415c.76 5.378-.437 10.775-.26 16.172-.21 7.797-.137 15.597-.336 23.394-.154 5.813.444 11.599.734 17.394.117 2.742.176 5.495-.09 8.23-2.486.275-.754-3.728-1.146-5.274-.106-6.838-1.054-13.648-.784-20.495.104-6.231.243-12.461.255-18.694.09-6.563.571-13.103.94-19.652.112-.55-.178-1.18.687-1.075z" fill="none" stroke="#ffc114" stroke-linecap="butt" stroke-linejoin="miter" stroke-width="2.66666"/><path d="m688.19 665.257c-.761 1.158.873 2.175 1.472 3.047 2.747 2.376 3.655 6.046 5.78 8.905 1.915 2.572 3.793 5.293 6.247 7.344.402.882 1.112 2.018.698 3.036-1.442.52-.902-1.92-1.8-2.472-2.422-2.097-4.221-4.806-6.153-7.363-1.984-2.872-2.938-6.428-5.53-8.84-.886-.966-2.053-2.496-1.14-3.777.142-.078.371-.188.426.12z" fill="none" stroke="#ffc114" stroke-linecap="butt" stroke-linejoin="miter" stroke-width="2.66666"/><path d="m704.308 664.808c.415 1.17-1.275 1.473-1.556 2.5-1.798 2.368-2.665 5.412-4.844 7.59-2.198 2.51-3.7 5.44-5.48 8.246-.805 1.483-1.745 2.96-2.968 4.053-1.218-.859.677-1.844.965-2.71 2.141-3.346 3.853-6.99 6.471-9.991 1.53-1.63 2.568-3.539 3.52-5.52 1.054-1.534 1.805-3.402 3.523-4.321l.262.109zm-2.266 24.035c-.314 1.213.295 2.653.005 3.955-.265 5.082-.613 10.184-.985 15.274-.625 8.168-2.091 16.287-2.019 24.522-.344 12.001-.33 24.023-.997 36.002-.156 8.313-.702 16.571-1.42 24.837-.478 8.498-1.429 16.958-1.958 25.444-.384 5.734-.996 11.464-1.54 17.154-.372 1.85-.2 3.835-.726 5.609-1.499.415-.58-1.8-.615-2.648.504-5.11 1.05-10.228 1.47-15.367.572-6.217.787-12.458 1.546-18.664.564-10.276 1.718-20.493 2.027-30.776.457-11.25.896-22.508.989-33.782.114-7.368.176-14.76 1.117-22.06.89-6.975 1.324-13.974 1.823-20.987.088-2.651.282-5.297.581-7.933.055-.31.288-1.223.702-.58z" fill="none" stroke="#ffc114" stroke-linecap="butt" stroke-linejoin="miter" stroke-width="2.66666"/><path d="m689.401 687.172c1.195 5.811 2.48 11.938 2.575 18.046.925 12.394.927 24.821 1.23 37.234 1.043 20.431 1.662 40.945 5.225 61.14 2.16 12.673 2.669 25.574 5.163 38.194-2.2 1.207-1.806-7.012-2.546-9.48-1.576-11.712-2.54-23.498-4.61-35.146-3.051-20.121-3.488-40.512-4.432-60.806-.066-14.036-.46-28.12-2.137-42.064.172-2.169-2.283-5.414-.468-7.118zm2.227 154.487c-.163 8.762.912 17.665 1.363 26.352.126 1.14-.576 4.396-1.28 1.903.573-4.98-.678-10.198-.678-15.31-.232-4.256-1.021-8.871.238-12.973.105-.084.281-.226.357.028z" fill="none" stroke="#ffc114" stroke-linecap="butt" stroke-linejoin="miter" stroke-width="2.66666"/><path d="m703.19 841.265c.551 9.914 1.372 19.89 2.564 29.687.364 1.127-.928 3.403-1.219 1.277.215-3.866-.9-7.704-.932-11.61-.525-6.28-1.566-12.683-.842-19.003.106-.173.104-.846.429-.351zm.963 32.429c.722 1.913-1.1 4.312-.75 6.499-1.74 9.885-3.301 19.825-5.09 29.665-.732 3.448-1.314 6.942-2.34 10.325-1.974-.197-.087-2.92.016-4.333 1.334-6.408 2.408-12.811 3.541-19.285 1.202-6.75 2.23-13.526 3.458-20.258.4-.82.368-2.149 1.165-2.613zm-11.35-2.226c-.221 3.936-1.947 7.686-2.41 11.65-2.5 10.73-4.943 21.432-7.663 32.042-.76 2.208-1.44 4.348-1.9 6.65-1.799-.013-.387-2.84-.108-4.08 2.738-8.396 4.297-17.211 6.53-25.774 1.776-6.835 2.837-13.888 5.03-20.577l.253-.179zm3.079 50.25c2.272 5.71 4.347 11.673 6.007 17.639.09 2.05 1.495 4.566.353 6.22-1.318-2.32-.956-5.796-2.125-8.43-1.31-5.101-3.623-9.898-4.832-14.968-.083-.338.19-.958.597-.461zm-16.639 2.93c2.55 3.99 4.042 8.63 5.944 13.01 1.006 3.22 2.885 6.341 2.824 9.694-1.826-.32-1.14-3.44-2.183-4.976-2.04-5.717-4.642-11.28-6.752-16.905.03-.254-.335-1 .167-.823zm8.183 22.784c.821 9.437-2.055 18.78-1.764 28.28.054 1.685-.291 3.352-.413 4.995-2.081.14-.25-3.31-.654-4.571-.144-9.286 1.916-18.298 2.252-27.533.113-.336.048-1.624.579-1.171z" fill="none" stroke="#ffc114" stroke-linecap="butt" stroke-linejoin="miter" stroke-width="2.66666"/><path d="m702.329 945.4c.37 7.153.674 14.46-.365 21.547-.295 3.548-.006 7.215-.472 10.709-1.862-.013-.414-3.307-.883-4.712.27-8.127 1.556-16.207.823-24.399.146-.954-.235-3.457.897-3.145zm-17.894 36.23c-.663 2.219-2.078 4.684-2.972 7.08-2.331 4.429-5.138 8.576-7.21 13.08-.47 1.67-2.053.27-.886-.85 2.05-4.224 4.73-8.179 6.885-12.414 1.53-2.207 1.73-5.416 3.856-7.032zm15.955-3.845c3.637 6.574 6.986 13.592 9.61 20.713.478.906 1.577 3.422-.243 2.372-2.722-7.082-5.677-14.148-9.284-20.86-.222-.611-.665-1.89-.083-2.225zm9.367 23.085c-3.58 4.94-6.181 9.65-10.143 14.29-3.186 3.9-6.721 7.55-9.914 11.31-2.316.12.368-1.94.974-2.88 5.457-5.93 10.551-12.09 15.784-18.23 1.292-1.49 1.219-4.5 3.299-4.49z" fill="none" stroke="#ffc114" stroke-linecap="butt" stroke-linejoin="miter" stroke-width="2.66666"/><path d="m674.649 1002.79c10.002 7.27 21.452 12.9 29.72 22.37 1.026 4.37-7.36-6.89-10.344-7.73-5.693-5.94-14.639-8.13-19.76-14.43zm30.827 38.36c-3.416 25.48-8.036 50.88-16.214 75.32-10.434 31.32-16.994 63.71-24.282 95.86-4.92 23.88-10.426 47.69-14.211 71.76-1.558-6.92 3.555-23.56 5.15-33.99 8.245-39.58 16.404-79.25 27.328-118.2 7.16-21.83 13.505-43.96 17.61-66.56 1.973-7.98 2.956-16.16 4.619-24.19z" fill="none" stroke="#ffc114" stroke-linecap="butt" stroke-linejoin="miter" stroke-width="2.66666"/><path d="m688.303 1040.82c5.816 16.38 8.527 33.57 10.084 50.83 4.359 26.8 9.783 53.42 14.362 80.19 5.307 29.35 13.666 58.02 23.117 86.27 2.085 9.71 8.542 20.44 7.94 29.49.3.18-14.947-44.99-20.997-67.91-10.896-36.94-15.506-75.3-23.083-112.97-3.858-18.46-3.632-37.62-9.437-55.7.037-2.94-3.899-8.68-1.986-10.2z" fill="none" stroke="#ffc114" stroke-linecap="butt" stroke-linejoin="miter" stroke-width="2.66666"/><path d="m362.44 948.652c-56.507.949-111.805 29.904-144.057 76.368-34.108 47.65-41.401 112.92-18.427 166.86 24.12 59.8 83.06 103.04 146.997 109.71 58.919 7.33 120.669-16.18 159.231-61.43 38.626-44.07 52.576-108.33 35.022-164.34-16.774-56.83-64.109-103.113-121.043-119.324-18.688-5.863-38.184-8.087-57.723-7.844zm12.591-2.888c43.133 1.76 85.527 18.683 117.235 48.091 44.706 39.695 66.502 103.185 55.651 162.015-10.477 62.58-57.085 117.26-116.906 138.12-63.946 24.53-141.171 8.96-190.453-38.69-44.647-41.26-65.218-106.49-52.03-165.9 12.103-58.78 55.832-109.257 111.772-130.631 23.711-9.372 49.257-13.594 74.731-13.005z" fill="#00d1b8" stroke="#00d1b8" stroke-linecap="butt" stroke-linejoin="miter" stroke-width="2.667"/><path d="m198.422 1194.09c2.261 8.81 7.115 17.53 10.245 26.38 12.574 24.6 22.447 50.58 35.536 74.83.438 2.69 4.927 6.64 1.623 8.55-3.661-3.32-4.193-9.57-7.365-13.66-11.79-22.95-21.106-47.14-32.719-70.21-2.545-8.51-8.507-16.88-8.24-25.77.073-.37.725-.38.92-.12z" fill="#00d1b8" stroke="#00d1b8" stroke-linecap="butt" stroke-linejoin="miter" stroke-width="2.667"/><path d="m271.296 1276.04c18.293 14.69 37.817 28.3 55.515 43.87 9.774 9.84 21.537 17.39 31.013 27.35-1.402 4.03-5.224-2.34-7.592-3.53-10.471-8.96-20.884-18.11-30.852-27.76-15.773-13.77-33.431-25.69-48.936-39.48-.028-.43.525-.7.852-.45z" fill="none" stroke="#00d1b8" stroke-linecap="butt" stroke-linejoin="miter" stroke-width="2.66666"/><path d="m348.43 1303.57c23.639 2.29 46.86 8.46 70.609 10.34 16.232 1.36 32.16 4.69 48.076 7.77 2.597 1.36 9.396-1.46 8.751 2.8-9.991 1.78-20.186-2.7-30.012-4.33-24.183-3.71-48.605-5.91-72.424-11.72-8.427-1.56-17.184-3.3-25.42-4.55l.323-.33z" fill="#00d1b8" stroke="#00d1b8" stroke-linecap="butt" stroke-linejoin="miter" stroke-width="2.66666"/><path d="m253.17 1293.6c-1.868 8.02-7.451 16.2-12.073 23.05-1.267-4.42 4.377-10.58 6.118-15.45 1.844-1.97 2.767-8.39 5.955-7.6z" fill="#00d1b8" stroke="#00d1b8" stroke-linecap="butt" stroke-linejoin="miter" stroke-width="2.667"/><path d="m241.7 1313.63c11.067 6.79 24.261 10.84 34.327 18.74-4.075 2.45-9.914-4.24-14.534-5.39-6.81-4.6-15.018-7.62-21.361-12.39-.053-.8.923-1.33 1.568-.96z" fill="#00d1b8" stroke="#00d1b8" stroke-linecap="butt" stroke-linejoin="miter" stroke-width="2.667"/><path d="m286.537 1310.01c-1.704 8.39-7.837 16.06-11.967 23.74-3.184-2.9 4.298-10.09 5.006-14.67 2.442-2.16 3.282-9.58 6.961-9.07z" fill="#00d1b8" stroke="#00d1b8" stroke-linecap="butt" stroke-linejoin="miter" stroke-width="2.667"/><path d="m252.414 1293.3c11.497 6.5 24.551 11.04 34.883 19.07-4.062 1.75-10.01-4.01-14.65-5.45-7.133-4.31-15.146-8.05-21.741-12.72-.048-.76.895-1.27 1.508-.9z" fill="#00d1b8" stroke="#00d1b8" stroke-linecap="butt" stroke-linejoin="miter" stroke-width="2.667"/><path d="m360.252 1335.56c1.223 9.37 1.136 19.23.1 28.6-4.125-1.21-1.515-10.04-2.488-14.4 1.301-3.78-1.668-13.17 2.388-14.2z" fill="#00d1b8" stroke="#00d1b8" stroke-linecap="butt" stroke-linejoin="miter" stroke-width="2.667"/><path d="m369.192 1360.97c10.632.16 21.423.19 31.944.6-1.78 4.42-11.551.27-16.307 2.01-8.942-.09-18.085.6-26.909-.35-1.257-4.29 9.019-1.06 11.272-2.26z" fill="#00d1b8" stroke="#00d1b8" stroke-linecap="butt" stroke-linejoin="miter" stroke-width="2.667"/><path d="m400.813 1334.82c1.543 9.66.08 19.82.039 29.48-4.399-1.49-.61-11.19-2.276-15.89.554-3.74-1.808-13.18 2.237-13.59z" fill="#00d1b8" stroke="#00d1b8" stroke-linecap="butt" stroke-linejoin="miter" stroke-width="2.667"/><path d="m379.667 1335.12c6.98.5 15.233-.62 21.408 1.56-8.389 2.18-18.697 1.39-27.867 1.43-3.138-.93-18.202.81-12.884-2.35 6.464.12 12.883-.77 19.343-.64z" fill="#00d1b8" stroke="#00d1b8" stroke-linecap="butt" stroke-linejoin="miter" stroke-width="2.667"/><path d="m512.203 1290.87c-1.66 4.42-9.213 6.11-12.967 9.63-9.266 5.07-18.484 11.95-28.114 15.35 1.466-4.12 8.288-5.88 11.982-8.9 9.214-5.86 18.772-11.23 28.375-16.38z" fill="#00d1b8" stroke="#00d1b8" stroke-linecap="butt" stroke-linejoin="miter" stroke-width="2.66666"/><path d="m472.385 1313.78c5.587 8.01 11.552 17.03 14.56 25.86-4.427-.85-5.984-8.56-9.375-12.03-1.622-4.37-7.84-10.03-5.737-13.97z" fill="#00d1b8" stroke="#00d1b8" stroke-linecap="butt" stroke-linejoin="miter" stroke-width="2.66666"/><path d="m525.224 1314.14c-.416 4.36-7.628 5.79-11.036 8.61-9.744 5.6-19.688 10.98-29.139 17-2.781-4.57 9.418-6.4 12.528-10.04 8.836-5.41 17.424-11.38 26.71-15.96z" fill="#00d1b8" stroke="#00d1b8" stroke-linecap="butt" stroke-linejoin="miter" stroke-width="2.66666"/><path d="m510.5 1290.44c5.616 8.22 11.432 17.3 14.784 26.33-4.048-1.62-6.044-8.58-9.245-12.24-1.116-3.65-9.694-12.36-5.539-14.09z" fill="#00d1b8" stroke="#00d1b8" stroke-linecap="butt" stroke-linejoin="miter" stroke-width="2.66666"/><path d="m592.185 1071.59c4.887-1.18 15.02 2.55 4.383 3.1-6.114.19-12.358-.61-18.355-.71-.044-4.11 10.641-.57 13.972-2.39z" fill="#00d1b8" stroke="#00d1b8" stroke-linecap="butt" stroke-linejoin="miter" stroke-width="2.66666"/><path d="m580.383 1071.61c-.113 18.63 2.075 37.79-.105 56.39-3.832-1.7-1.578-10-2.359-14.38-.088-13.99.616-28.14.783-42.01l.84-.34z" fill="#00d1b8" stroke="#00d1b8" stroke-linecap="butt" stroke-linejoin="miter" stroke-width="2.66666"/><path d="m587.535 1124.4c4.367.84 12.829-1.67 14.433 2.36-7.957 1.43-16.426.79-24.389.1-1.133-4.14 7.76-.93 9.956-2.46z" fill="#00d1b8" stroke="#00d1b8" stroke-linecap="butt" stroke-linejoin="miter" stroke-width="2.66666"/><path d="m601.2 1071.27c.775 18.43 1.289 37.27.147 55.69-4.044-1.8-.84-10.92-2.219-15.57.188-13.36-.013-26.87.823-40.12l.625-.26z" fill="#00d1b8" stroke="#00d1b8" stroke-linecap="butt" stroke-linejoin="miter" stroke-width="2.66666"/><path d="m563.823 1183.17c-3.681 13.21-7.215 26.87-13 39.37-2.548-3.18 2.061-10.67 2.787-15.46 2.673-8.2 5.909-16.34 8.972-24.32l.706-.05z" fill="#00d1b8" stroke="#00d1b8" stroke-linecap="butt" stroke-linejoin="miter" stroke-width="2.66666"/><path d="m565.24 1225.03c5.336.65 15.845 7.51 4.307 4.23-6.86-2.21-14.106-3.9-20.44-7.27 3.281-3.38 10.958 2.41 15.82 2.93.122-.01.206.08.313.11z" fill="#00d1b8" stroke="#00d1b8" stroke-linecap="butt" stroke-linejoin="miter" stroke-width="2.66666"/><path d="m587.049 1191.89c-4.021 13.01-7.525 26.74-12.933 39.27-3.827-2.96 2.298-10.82 2.786-15.59 3.091-7.96 5.235-16.44 8.599-24.19l.881-.07z" fill="#00d1b8" stroke="#00d1b8" stroke-linecap="butt" stroke-linejoin="miter" stroke-width="2.66666"/><path d="m567.366 1184.7c6.952 2.35 13.939 5.1 20.704 7.64-3.047 3.61-11.37-3.17-16.553-2.96-4.416-.19-16.743-7.22-5.854-5.12.558.18 1.139.28 1.703.44z" fill="#00d1b8" stroke="#00d1b8" stroke-linecap="butt" stroke-linejoin="miter" stroke-width="2.66666"/><path d="m562.584 1225.62c3.645 2.89-3.913 4.8-6.395 5.87-19.082 9.88-39.106 18.27-57.956 28.85-16.29 8.21-31.879 18.27-48.746 24.96.067-1.84 4.448-2.63 6.225-3.98 18.795-9.45 36.892-20.49 55.655-30.12 15.457-7.95 31.158-15.65 46.702-23.19 1.802-.31 2.899-1.9 4.515-2.39z" fill="#00d1b8" stroke="#00d1b8" stroke-linecap="butt" stroke-linejoin="miter" stroke-width="2.66666"/><path d="m593.414 1127.63c.92 3.73-3.961 6.08-5.624 9.08-13.037 16.14-26.535 31.95-38.329 49.04-6.904 9.38-14.319 18.37-20.811 27.93-2.074 1.09-3.554 4.77-5.468 4.83 2.648-5.32 7.191-9.59 9.812-15.09 11.576-14.75 21.811-30.5 33.525-45.08 8.355-10.33 16.863-20.85 25.17-30.98.609-.05 1.157-.65 1.725.27z" fill="#00d1b8" stroke="#00d1b8" stroke-linecap="butt" stroke-linejoin="miter" stroke-width="2.66666"/><g fill="none"><path d="m163.594 499.517c-3.208-16.042-8.924-6.309-11.624 3.719-3.251 12.076 5.349 26.035-.465 37.662" stroke="#000" stroke-linecap="round" stroke-linejoin="round" stroke-width="3"/><path d="m147.786 520.905c-.191-.382-1.414-2.658-.93-2.79 5.138-1.401 10.55-1.477 15.808-2.325.459-.074-.93 0-1.394 0" stroke="#000" stroke-linecap="round" stroke-linejoin="round" stroke-width="3"/><path d="m168.709 514.395c-.31 0-.949-.309-.93 0 .312 5.143-1.783 11.701 1.86 15.344 2.605 2.605 1.585-7.213 2.79-10.694 1.229-3.553 5.578-4.649 8.369-6.045" stroke="#000" stroke-linecap="round" stroke-linejoin="round" stroke-width="3"/><path d="m190.097 513.698c-3.177-4.377-3.796 11.831-2.325 12.321 5.039 1.68 10.743-4.087 8.37-8.834-.499-.998-5.092-6.532-6.51-5.114-1.045 1.045.788 2.071.465 1.627z" stroke="#000" stroke-linecap="round" stroke-linejoin="round" stroke-width="3"/><path d="m202.651 513c0 4.011-.191 8.619.465 12.554.161.967.661-1.847.93-2.789.176-.615.213-1.273.465-1.86.51-1.19 3.73-10.922 6.045-9.764 3.013 1.506.58 13.134 1.859 14.413.64.639.991-1.516 1.395-2.324.22-.439.283-.94.465-1.395.66-1.65 4.221-11.607 6.975-10.229 3.538 1.769 1.719 11.808 3.255 14.878" stroke="#000" stroke-linecap="round" stroke-linejoin="round" stroke-width="3"/><path d="m276.58 494.867c0-2.639-3.484-5.755-6.044-5.115-2.089.522-2.482 3.57-3.255 5.58-3.737 9.716-.312 20.287.93 30.222.244 1.954-1.674 18.506-3.72 14.414" stroke="#000" stroke-linecap="round" stroke-linejoin="round" stroke-width="3"/><path d="m260.772 518.115c-2.532-5.063 7.057-3.692 13.949-4.185" stroke="#000" stroke-linecap="round" stroke-linejoin="round" stroke-width="3"/><path d="m280.3 513c.465 2.79.948 5.577 1.395 8.37.376 2.351-.376 6.617.465 3.255.94-3.759 2.115-7.456 3.255-11.16.824-2.68 5.966-4.184 8.369-4.184" stroke="#000" stroke-linecap="round" stroke-linejoin="round" stroke-width="3"/><path d="m304.943 513.93c0-1.943-2.387-6.924-4.649-5.114-2.249 1.799-5.219 15.084-4.185 17.668 1.011 2.528 3.909-.358 4.65-1.394 2.39-3.346 3.523-7.657 4.184-11.625.098-.586.459-3.949-.93-3.254-1.438.719-1.366 14.879 4.65 14.879" stroke="#000" stroke-linecap="round" stroke-linejoin="round" stroke-width="3"/><path d="m318.427 513.465c2.353-.784 1.843-5.78 0-7.439-1.062-.956-2.482 1.588-3.255 2.79-4.139 6.44 5.785 10.48 7.44 16.274 1.472 5.151-5.415 3.884-7.44 1.859" stroke="#000" stroke-linecap="round" stroke-linejoin="round" stroke-width="3"/><path d="m331.446 520.44c1.243-3.107 5.153-8.508 3.72-12.089-1.196-2.989-6.161 6.393-6.51 8.834-1.659 11.613 9.981 11.407 16.274 5.115" stroke="#000" stroke-linecap="round" stroke-linejoin="round" stroke-width="3"/><path d="m348.65 513.465c.155.465.346.92.465 1.395.656 2.626-.478 9.269 1.86 7.905 3.683-2.149.509-9.927 4.184-12.089 2.39-1.406 4.825-2.797 7.44-3.72.602-.213-.013 1.408-.465 1.86" stroke="#000" stroke-linecap="round" stroke-linejoin="round" stroke-width="3"/><path d="m374.223 493.937c-.31-.31-.906-1.368-.93-.93-.326 6.036 0 12.089 0 18.134v13.949c0 1.084-1.007 2.851 0 3.254 1.424.57 2.17-2.17 3.255-3.254" stroke="#000" stroke-linecap="round" stroke-linejoin="round" stroke-width="3"/><path d="m389.102 512.535c0-.464.208-.979 0-1.394-.597-1.193-1.628-4.392-2.325-3.255-3.28 5.351-6.726 11.396-6.51 17.668.094 2.71 4.699-2.711 6.975-4.184 1.352-.875 4.409-9.54 2.79-11.159-1.136-1.136-.93 5.658-.93 6.509 0 5.516 2.356 6.975 7.439 6.975" stroke="#000" stroke-linecap="round" stroke-linejoin="round" stroke-width="3"/><path d="m400.726 498.122c0 7.284-.286 14.574 0 21.853.302 7.719 6.174-17.042 11.624-10.229 5.454 6.818-5.659 19.37-9.764 11.159" stroke="#000" stroke-linecap="round" stroke-linejoin="round" stroke-width="3"/><path d="m421.184 521.835h-.93l1.86-.465.93.465" stroke="#000" stroke-linecap="round" stroke-linejoin="round" stroke-width="3"/><path d="m434.923 507.112c-.748-.747-1.835-3.809-1.419-2.837 1.2 2.798 2.155 5.696 3.311 8.512 1.366 3.332 2.82 6.628 4.255 9.931.583 1.339 1.419 2.309 1.419 0" stroke="#000" stroke-linecap="round" stroke-linejoin="round" stroke-width="3"/><path d="m450.528 501.911c1.969-3.938-2.25 6.75-2.837 8.512-2.161 6.483-1.751 5.232-2.837 12.295" stroke="#000" stroke-linecap="round" stroke-linejoin="round" stroke-width="3"/><path d="m462.823 508.058c.539-1.617-3.014-4.006-4.256-2.837-2.324 2.187-2.47 5.905-3.31 8.985-.587 2.15-2.705 5.252-.946 6.62 1.623 1.262 3.558-2.077 5.202-3.31 2.04-1.53 2.937-7.219 3.31-9.458.058-.347.473-.946.473-.946s-1.164 3.423-1.419 5.202c-.312 2.188-.695 6.898 0 8.985 1.34 4.018 6.659 1.381 8.512-.473" stroke="#000" stroke-linecap="round" stroke-linejoin="round" stroke-width="3"/><path d="m477.01 495.29c-.315-.315-.937-1.391-.946-.945-.164 8.354-.21 16.735.473 25.062.115 1.406 1.261 2.523 1.891 3.784" stroke="#000" stroke-linecap="round" stroke-linejoin="round" stroke-width="3"/><path d="m488.359 506.167c-.291-.582-.539-2.538-.473-1.892.663 6.46-1.33 13.751 1.892 19.388 1.383 2.422 3.916-3.983 5.674-6.147 1.109-1.364 2.237-5.441 2.838-7.093.511-1.406.829-2.882 1.418-4.256.197-.458.121-1.771.473-1.419 1.548 1.548-3.706 21.714 2.837 18.443" stroke="#000" stroke-linecap="round" stroke-linejoin="round" stroke-width="3"/><path d="m510.585 518.935c3.552-4.619 6.147-6.229 6.147-12.295 0-1.115-1.576-3.153-2.364-2.365-1.828 1.828-3.295 3.997-4.729 6.148-4.795 7.191 4.223 15.637 10.876 8.984" stroke="#000" stroke-linecap="round" stroke-linejoin="round" stroke-width="3"/><path d="m534.229 504.275c0-.804.325-2.464-.473-2.364-1.191.149-3.356.219-3.31 1.418.147 3.836 2.237 7.363 3.783 10.877 1.118 2.542 5.209 4.199 4.729 8.039-.515 4.115-4.975 1.155-5.675-.946" stroke="#000" stroke-linecap="round" stroke-linejoin="round" stroke-width="3"/><path d="m551.253 487.724c4.728 11.348 10.154 21.648 16.551 32.156 1.6 2.63 4.899 6.11 3.783 9.458" stroke="#000" stroke-linecap="round" stroke-linejoin="round" stroke-width="3"/><path d="m156.862 581.281c-.553-1.107-.46 2.446-.46 3.683 0 4.605-.824 9.284 0 13.814.122.675.614-1.228.921-1.842" stroke="#000" stroke-linecap="round" stroke-linejoin="round" stroke-width="3"/><path d="m154.099 572.072c0-3.709-1.019-2.884 1.382-3.684" stroke="#000" stroke-linecap="round" stroke-linejoin="round" stroke-width="3"/><path d="m166.532 583.583c.46 2.916 1.122 5.808 1.381 8.749.202 2.293-1.129 8.913 0 6.907 2.429-4.319 2.696-9.536 4.144-14.275.201-.657 1.358-3.829 2.302-4.144 2.338-.779 3.224 11.102 3.224 12.433v2.302c0 .46-.412 1.587 0 1.381 2.026-1.013 5.766-15.195 8.288-15.195.409 0 .878 4.308.921 4.605.444 3.107-.882 10.84 2.302 12.432" stroke="#000" stroke-linecap="round" stroke-linejoin="round" stroke-width="3"/><path d="m199.685 584.504c.46 11.051.423 22.134 1.381 33.153.085.979 1.402-1.423 1.842-2.302" stroke="#000" stroke-linecap="round" stroke-linejoin="round" stroke-width="3"/><path d="m195.08 586.806c2.149-1.995 3.755-4.822 6.446-5.986 3.268-1.413 9.893-4.872 10.591-1.381 1.002 5.01-5.303 8.747-8.288 12.893-.269.373 0-.921 0-1.382" stroke="#000" stroke-linecap="round" stroke-linejoin="round" stroke-width="3"/><path d="m222.247 583.123c-1.433 2.661-1.121 4.821-.461 8.288.257 1.348.548 4.14 1.842 3.683 2.765-.975 4.247-4.085 5.986-6.446 3.17-4.301-2.919-13.79-7.367-5.525z" stroke="#000" stroke-linecap="round" stroke-linejoin="round" stroke-width="3"/><path d="m236.061 579.899c.767 3.991.897 8.159 2.302 11.972.386 1.049.534-2.174.921-3.223.69-1.872 1.025-3.993 2.302-5.525 3.589-4.307 6.792-5.238 11.051-7.368" stroke="#000" stroke-linecap="round" stroke-linejoin="round" stroke-width="3"/><path d="m254.939 569.309c0 7.987-1.922 16.48.921 23.944 1.456 3.821 10.746-.927 11.972-4.605" stroke="#000" stroke-linecap="round" stroke-linejoin="round" stroke-width="3"/><path d="m255.86 586.346c4.142-2.154 8.257-4.359 12.432-6.447" stroke="#000" stroke-linecap="round" stroke-linejoin="round" stroke-width="3"/><path d="m317.873 579.229c0-.457.144-.938 0-1.372-.324-.97-.627-3.444-1.373-2.745-2.747 2.576-5.009 5.959-5.946 9.607-.553 2.15-.345 5.954 1.829 6.404 3.92.811 7.683-2.27 11.436-3.66 1.055-.39 3.151-2.642 3.66-3.659" stroke="#000" stroke-linecap="round" stroke-linejoin="round" stroke-width="3"/><path d="m331.824 580.602c-.293.896-.186-1.945-.686-2.745-.491-.787-.457 1.817-.457 2.745 0 2.134-.25 4.284 0 6.404.506 4.305 5.984 4.549 8.691 2.744 8.239-5.492-5.368-15.795-7.548-9.148z" stroke="#000" stroke-linecap="round" stroke-linejoin="round" stroke-width="3"/><path d="m351.265 565.049c.153 5.794.118 11.596.458 17.382.118 2.002.521 3.98.915 5.947.067.334.239 1.177.457.915.873-1.048 1.22-2.44 1.83-3.66" stroke="#000" stroke-linecap="round" stroke-linejoin="round" stroke-width="3"/><path d="m360.414 565.049c1.064 8.508.567 19.546 5.032 26.989" stroke="#000" stroke-linecap="round" stroke-linejoin="round" stroke-width="3"/><path d="m384.201 578.772c-.293-.88-.129-3.612-.457-2.745-1.83 4.824-5.817 9.539-5.032 14.638.533 3.47 4.029-5.751 5.946-8.691 1.081-1.657.915-2.731.915-4.574 0-.778-.109-2.983-.457-2.288-2.903 5.805 3.742 19.775 9.606 10.979" stroke="#000" stroke-linecap="round" stroke-linejoin="round" stroke-width="3"/><path d="m397.009 569.166c.458 5.794.834 11.595 1.373 17.382.072.774-.297 2.476.457 2.287.8-.2 4.651-10.381 8.234-10.978 4.612-.769 6.322 5.571 3.202 8.691-2.987 2.987-7.557 3.202-11.436 3.202" stroke="#000" stroke-linecap="round" stroke-linejoin="round" stroke-width="3"/><path d="m421.253 580.602c-.773.438-1.957-.547-2.287-1.373-.204-.51 1.253-1.451 1.372-.915.663 2.981-2.708 7.086-.457 9.149 1.367 1.254 3.649 1.145 5.489.915.856-.107 1.22-1.22 1.83-1.83 4.226-4.226-1.316-8.105-5.489-9.148-.61-.153-1.83-1.087-1.83-.458 0 2.707 3.901 2.226 1.372 3.66z" stroke="#000" stroke-linecap="round" stroke-linejoin="round" stroke-width="3"/><path d="m435.891 577.4c1.138 3.983 1.423 4.709 2.288 9.606.079.45-.082 1.822 0 1.372 1.372-7.548 2.561-14.181 11.435-14.181" stroke="#000" stroke-linecap="round" stroke-linejoin="round" stroke-width="3"/><path d="m460.593 579.229c-.519-1.038-1.059-4.32-1.372-3.202-1.178 4.205-7.111 12.808-2.745 12.808 4.645 0 3.812-8.476 5.489-12.808.275-.711.682-2.628 0-2.287-4.404 2.202 1.315 22.073 7.319 10.064" stroke="#000" stroke-linecap="round" stroke-linejoin="round" stroke-width="3"/><path d="m473.401 563.676c-2.539 3.809-.142 9.186.458 13.724.525 3.976 1.219 7.928 1.829 11.893" stroke="#000" stroke-linecap="round" stroke-linejoin="round" stroke-width="3"/><path d="m473.859 574.197c2.744-1.372 5.22-3.537 8.233-4.116 1.34-.258 3.05.609 3.66 1.829.818 1.637 0 3.66 0 5.49 0 2.933.061 11.314 1.372 8.691" stroke="#000" stroke-linecap="round" stroke-linejoin="round" stroke-width="3"/><path d="m483.465 560.932c-.305-.458-1.454-1.48-.915-1.372 1.205.241 2.135 1.219 3.202 1.829" stroke="#000" stroke-linecap="round" stroke-linejoin="round" stroke-width="3"/><path d="m500.39 575.112c-1.381-1.38-3.436 2.635-3.66 4.575-.25 2.169.192 4.567 1.373 6.404.495.769 2.246.767 2.744 0 1.761-2.709 2.419-6.014 3.202-9.149.153-.61-.124-1.297-.457-1.83-1.387-2.219-5.603-6.29-8.234-3.659-1.45 1.45-.307 4.473 1.83 4.117 3.525-.588 15.307-9.685 18.297-5.947 3.116 3.894-.457 10.097-.457 14.181 0 .305-.113-.632 0-.915.457-1.142 1.33-2.079 1.83-3.202.344-.775 4.184-9.488 5.032-9.149 1.937.775 1.194 12.453 2.744 15.553" stroke="#000" stroke-linecap="round" stroke-linejoin="round" stroke-width="3"/><path d="m534.24 581.974c4.028 5.035 2.425 8.926-1.372 13.266" stroke="#000" stroke-linecap="round" stroke-linejoin="round" stroke-width="3"/><path d="m553.453 556.357c-1.252-2.503-1.83-3.659-1.83-3.659 5.006 5.84 9.803 11.857 14.638 17.84 4.161 5.149 8.448 10.205 12.351 15.553.269.369 0 .915 0 1.372" stroke="#000" stroke-linecap="round" stroke-linejoin="round" stroke-width="3"/><path d="m160.972 637.324c0-.778.37-3.06.457-2.287 1.1 9.739 1.83 19.517 2.745 29.276" stroke="#000" stroke-linecap="round" stroke-linejoin="round" stroke-width="3"/><path d="m154.11 650.589c5.645-3.039 11.514-5.651 17.383-8.233" stroke="#000" stroke-linecap="round" stroke-linejoin="round" stroke-width="3"/><path d="m176.982 646.015c.457 4.879.885 9.762 1.372 14.638.031.304-.033-.612 0-.915.272-2.443.065-5.012.915-7.319 1.321-3.585 3.503-6.799 5.489-10.063.666-1.095 3.945-1.373 5.032-1.373" stroke="#000" stroke-linecap="round" stroke-linejoin="round" stroke-width="3"/><path d="m199.854 645.1c-.305-.305-.548-.689-.915-.915-1.627-1.001-3.996-4.35-5.032-2.744-3.148 4.879-6.155 11.488-4.117 16.925 1.189 3.17 5.84-3.553 8.234-5.947.68-.679 2.639-8.286.915-9.149-.788-.393-.915 5.309-.915 5.49 0 3.477.555 7.825 4.117 9.606 3.917 1.959 6.338-4.508 8.234-6.404" stroke="#000" stroke-linecap="round" stroke-linejoin="round" stroke-width="3"/><path d="m208.545 644.643c.915 3.812 1.95 7.597 2.745 11.436.123.597-.193 2.408 0 1.829 1.941-5.824 2.461-12.076 4.574-17.84.166-.452.89-.457 1.372-.457 4.142 0 3.14 16.343 4.575 19.212" stroke="#000" stroke-linecap="round" stroke-linejoin="round" stroke-width="3"/><path d="m238.736 645.1c.305-.305 1.167-.565.915-.915-1.958-2.711-3.589-6.63-6.862-7.319-1.887-.397-1.628 3.571-1.829 5.49-.117 1.104.291 2.283.914 3.202 2.314 3.409 5.328 6.293 7.777 9.606 2.489 3.368-6.797 6.14-8.691.457" stroke="#000" stroke-linecap="round" stroke-linejoin="round" stroke-width="3"/><path d="m251.087 646.473c.546 7.642.429 15.438 2.287 22.871" stroke="#000" stroke-linecap="round" stroke-linejoin="round" stroke-width="3"/><path d="m248.342 646.93c3.66-1.83 6.898-5.791 10.979-5.489 2.177.161 1.992 4.311 1.372 6.404-.933 3.149-7.035 7.549-9.606 9.606" stroke="#000" stroke-linecap="round" stroke-linejoin="round" stroke-width="3"/><path d="m280.82 646.473c0-.61.562-1.594 0-1.83-2.728-1.149-6.39-3.693-8.691-1.83-2.5 2.024-1.27 6.409-.915 9.606.132 1.184 1.287 3.392 2.287 2.745 3.162-2.046 4.756-6.034 5.947-9.606.112-.338.83-5.49.457-5.49-1.417 0-.999 5.275-.915 5.947.676 5.409 3.523 8.154 8.692 6.862" stroke="#000" stroke-linecap="round" stroke-linejoin="round" stroke-width="3"/><path d="m291.341 640.068c.61 3.507 1.204 7.017 1.83 10.521.137.766.169 3.01.457 2.288.57-1.423-.161-3.173.458-4.575 1.71-3.876 4.12-7.41 6.404-10.978.775-1.212 4.674-1.372 5.947-1.372" stroke="#000" stroke-linecap="round" stroke-linejoin="round" stroke-width="3"/><path d="m310.096 646.93c1.22-3.355 3.66-6.494 3.66-10.064 0-1.229-2.94-.539-3.66.458-1.582 2.19-3.581 5.404-2.287 7.776 2.046 3.751 6.7 5.409 10.521 7.319 0 0 2.241-2.241 4.117-4.117" stroke="#000" stroke-linecap="round" stroke-linejoin="round" stroke-width="3"/><path d="m327.021 639.611c-.246-.738-.788-2.991-.457-2.287 1.338 2.844.688 9.716 3.659 8.691 5.162-1.78 6.066-9.11 9.607-13.266.78-.916 1.372 5.382 1.372 5.49 0 2.542-.368 10.521 2.744 10.521" stroke="#000" stroke-linecap="round" stroke-linejoin="round" stroke-width="3"/><path d="m361.329 639.154c-.152-.305-.241-.651-.457-.915-1.163-1.421-3.022-5.839-3.66-4.117-1.909 5.155-4.42 12.232-.915 16.467 2.618 3.163 7.929-2.134 11.894-3.202" stroke="#000" stroke-linecap="round" stroke-linejoin="round" stroke-width="3"/><path d="m375.51 638.696c0-.457.323-1.049 0-1.372-.241-.241-.677.654-.458.915 2.362 2.804 4.29 8.907 7.777 7.776 5.109-1.657 6.236-8.752 9.148-13.266.166-.256 0-.914 0-.914v2.287 8.234c0 7.602.203 14.934-1.372 22.414-.582 2.766-1.128 5.81-2.745 8.234-.239.359-.529 1.108-.914.915-.581-.291.235-3.216.457-3.66" stroke="#000" stroke-linecap="round" stroke-linejoin="round" stroke-width="3"/><path d="m408.903 646.015c.305 3.05 1.38 6.12.914 9.149-.196 1.279-1.829 1.83-2.744 2.744" stroke="#000" stroke-linecap="round" stroke-linejoin="round" stroke-width="3"/><path d="m431.774 621.314c5.896 10.316 13.446 18.533 20.585 27.903 2.385 3.13 3.342 7.847 6.862 9.606" stroke="#000" stroke-linecap="round" stroke-linejoin="round" stroke-width="3"/><path d="m168.291 709.599c-.557-1.67-2.106-6.475-2.745-6.404-2.786.309-6.373 3.176-5.947 5.946.497 3.226 5.216 3.925 7.777 5.947 1.585 1.251 2.331 3.025 1.83 5.032-.84 3.357-6.859 2.747-8.692.915-1.881-1.882-1.372-4.962-1.372-7.319" stroke="#000" stroke-linecap="round" stroke-linejoin="round" stroke-width="3"/><path d="m182.014 706.397c-1.9-.95-5.249.281-5.947 2.287-.865 2.486-.189 5.657 1.372 7.776 1.012 1.373 3.634 1.89 5.032.915 4.166-2.903 6.771-7.57 10.064-11.436.221-.259.457-1.255.457-.915 0 4.857-.939 10.473 1.373 15.096" stroke="#000" stroke-linecap="round" stroke-linejoin="round" stroke-width="3"/><path d="m186.588 694.961c.915.152 1.83.305 2.745.457" stroke="#000" stroke-linecap="round" stroke-linejoin="round" stroke-width="3"/><path d="m207.173 715.546c.457-1.678 1.074-3.319 1.372-5.032.315-1.809 1.075-3.76.458-5.49-.325-.908-2.329-1.784-2.745-.914-2.572 5.376-4.098 20.67 6.861 17.382 4.533-1.359 8.209-8.575 9.149-12.808.093-.419 1.231-7.248-1.372-5.947-1.016.508 1.215 12.194 2.287 13.266.539.539 0-1.525 0-2.287 0-1.22-.151-2.449 0-3.66.339-2.708 1.777-8.234 5.489-8.234 4.792 0 3.236 12.825 6.862 14.638" stroke="#000" stroke-linecap="round" stroke-linejoin="round" stroke-width="3"/><path d="m242.395 694.046c.956 7.839 1.185 15.998 4.117 23.329" stroke="#000" stroke-linecap="round" stroke-linejoin="round" stroke-width="3"/><path d="m242.853 708.684c3.507-1.83 6.669-4.59 10.521-5.489 1.277-.298 2.493 1.184 3.202 2.287 1.578 2.455-.453 10.521 2.745 10.521" stroke="#000" stroke-linecap="round" stroke-linejoin="round" stroke-width="3"/><path d="m251.544 694.503h1.373" stroke="#000" stroke-linecap="round" stroke-linejoin="round" stroke-width="3"/><path d="m278.533 693.131c.152-.61.839-1.33.457-1.83-1.769-2.314-5.832-8.803-6.404-5.946-2.332 11.663-.518 23.826.458 35.68.115 1.401 1.829 2.135 2.744 3.202" stroke="#000" stroke-linecap="round" stroke-linejoin="round" stroke-width="3"/><path d="m267.555 707.769c4.879-1.525 9.722-3.17 14.637-4.574 5.015-1.433 3.111 14.638 6.405 14.638" stroke="#000" stroke-linecap="round" stroke-linejoin="round" stroke-width="3"/><path d="m286.309 698.62-.914-.914-.915-.915v-1.373l2.744.458" stroke="#000" stroke-linecap="round" stroke-linejoin="round" stroke-width="3"/><path d="m304.607 703.652c0-1.161-3.242-2.533-3.202-1.372.163 4.731-.479 11.424 3.659 13.723 3.227 1.793 5.795-4.574 8.692-6.862" stroke="#000" stroke-linecap="round" stroke-linejoin="round" stroke-width="3"/><path d="m339.372 705.024c-.305-.304-.861-1.342-.915-.914-.19 1.52-.513 3.388.458 4.574.778.951 2.685 1.207 3.659.457 3.793-2.917 5.253-11.783 10.521-9.148" stroke="#000" stroke-linecap="round" stroke-linejoin="round" stroke-width="3"/><path d="m360.872 700.908c-.211 4.005-.502 8.629 1.829 11.893" stroke="#000" stroke-linecap="round" stroke-linejoin="round" stroke-width="3"/><path d="m358.127 690.844c-.305-.305-1.311-1.085-.915-.915 1.443.618 2.745 1.525 4.117 2.287" stroke="#000" stroke-linecap="round" stroke-linejoin="round" stroke-width="3"/><path d="m380.999 705.939c-2.135-.762-4.395-3.335-6.404-2.287-2.601 1.357-6.825 6.649-4.117 7.777 3.404 1.418 6.193-4.093 9.606-5.49.358-.146.876 4.185.915 4.575.348 3.482.467 2.841.915 7.319.71 7.1 1.876 16.784-.458 23.786-1.8 5.4-7.834 3.221-9.606-.914-.631-1.473-.223-2.735-.915-4.117" stroke="#000" stroke-linecap="round" stroke-linejoin="round" stroke-width="3"/><path d="m392.435 704.338c-.29 2.39-1.803 4.722-1.372 7.091.393 2.163 1.534 4.922 3.659 5.489 1.566.418 3.023-2.049 3.202-3.66.474-4.267-.53-8.597-1.372-12.808-.158-.791-1.637-1.077-2.287-.915-1.73.433-1.66 3.399-1.83 4.803z" stroke="#000" stroke-linecap="round" stroke-linejoin="round" stroke-width="3"/><path d="m407.53 702.28c2.867 1.434.994 7.97 4.117 8.691 2.4.554.917-5.21 2.745-6.861 3.188-2.88 7.426-4.405 11.436-5.947.587-.226.105 1.549-.458 1.83" stroke="#000" stroke-linecap="round" stroke-linejoin="round" stroke-width="3"/><path d="m426.285 713.716c1.866 2.488 2.363 6.085 1.83 9.149-.225 1.292-2.287 1.89-2.287 3.202 0 .777 1.525-.305 2.287-.458" stroke="#000" stroke-linecap="round" stroke-linejoin="round" stroke-width="3"/><path d="m459.221 686.27c-1.725-.863.547 4.049 1.829 5.489 7.315 8.212 16.088 15.053 23.33 23.329.54.618-.61 1.525-.915 2.287" stroke="#000" stroke-linecap="round" stroke-linejoin="round" stroke-width="3"/><path d="m162.344 761.747c-2.451 0 .488 11.544 1.372 14.638.214.747.259-1.536.458-2.288 1.174-4.434 2.291-8.887 3.659-13.265.098-.312 1.355-2.098 1.83-2.287 3.874-1.55 6.111 8.009 6.404 10.063.129.906 0 1.83 0 2.745 0 .457 0 1.83 0 1.372 0-3.299 2.37-15.001 6.404-16.01 3.956-.989 2.371 16.79 9.149 15.095" stroke="#000" stroke-linecap="round" stroke-linejoin="round" stroke-width="3"/><path d="m202.141 769.981c1.067-2.44 3.11-4.658 3.202-7.319.075-2.182-.859-4.847-2.745-5.947-1.117-.652-2.026 1.668-2.744 2.745-.254.38-.145.938 0 1.372 1.236 3.708 2.369 7.483 4.117 10.978.301.602 5.194-.339 5.489-.457 5.02-2.008 4.905-7.066 6.862-10.979" stroke="#000" stroke-linecap="round" stroke-linejoin="round" stroke-width="3"/><path d="m215.407 763.576c.305.458.691.87.915 1.373.391.881.429 3.577.914 2.744 2.483-4.255 1.048-11.591 5.49-13.723 3.052-1.465 4.097 5.398 5.946 8.234 1.717 2.632.753 3.733 4.117 4.575" stroke="#000" stroke-linecap="round" stroke-linejoin="round" stroke-width="3"/><path d="m235.534 749.396c-.305.152-.915.116-.915.457 0 3.217.164 6.479.915 9.607 1.091 4.548 3.049 8.843 4.574 13.265" stroke="#000" stroke-linecap="round" stroke-linejoin="round" stroke-width="3"/><path d="m237.364 758.545c4.477-1.28 9.643-2.077 13.723-4.117" stroke="#000" stroke-linecap="round" stroke-linejoin="round" stroke-width="3"/><path d="m255.204 760.603c.88 2.194-.34 4.752 0 7.09.277 1.909.017 4.83 1.829 5.49 1.524.554 2.904-2.067 3.203-3.66.674-3.6.079-7.355-.458-10.978-.404-2.727-6.965-3.9-4.574 2.058z" stroke="#000" stroke-linecap="round" stroke-linejoin="round" stroke-width="3"/><path d="m269.384 759.46c1.373 3.507 2.965 6.935 4.117 10.521.233.725.341 2.969 0 2.287-.482-.965-.772-2.171-.457-3.202 1.398-4.577 3.294-9.013 5.489-13.266 1.023-1.983 5.676-1.372 7.319-1.372" stroke="#000" stroke-linecap="round" stroke-linejoin="round" stroke-width="3"/><path d="m298.66 755.8c-.643-1.287-2.678-3.339-3.659-2.287-2.01 2.153-4.519 5.6-3.202 8.234 1.358 2.717 5.784 1.86 8.691 2.744 1.64.499 3.23 1.102 1.83 3.202-3.652 5.478-11.436 6.781-11.436-1.372" stroke="#000" stroke-linecap="round" stroke-linejoin="round" stroke-width="3"/><path d="m308.724 745.736c.915 7.319 1.097 14.768 2.744 21.957.171.744 1.724.513 2.288 0 1.315-1.196 1.881-3.02 2.744-4.574 1.425-2.564 2.524-5.314 4.117-7.776.187-.289 2.402 9.321 3.202 10.521 2.958 4.436 7.57-.044 9.149-3.202" stroke="#000" stroke-linecap="round" stroke-linejoin="round" stroke-width="3"/><path d="m334.798 756.715c-2.059 0-.829 7.49 0 9.149" stroke="#000" stroke-linecap="round" stroke-linejoin="round" stroke-width="3"/><path d="m329.766 747.109-.457-.915.914-.458 2.745 1.373" stroke="#000" stroke-linecap="round" stroke-linejoin="round" stroke-width="3"/><path d="m348.521 759.46c-.305-.305-.891-1.346-.915-.915-.321 5.785-.227 11.592 0 17.382.068 1.737.595 6.587 1.372 5.032" stroke="#000" stroke-linecap="round" stroke-linejoin="round" stroke-width="3"/><path d="m344.861 755.8c2.288-.915 4.408-2.961 6.862-2.745 3.193.282 9.556 1.03 8.691 4.117-1.255 4.483-7.786 5.129-11.893 7.319-1.83.976 3.354-2.439 5.032-3.659" stroke="#000" stroke-linecap="round" stroke-linejoin="round" stroke-width="3"/><path d="m370.02 762.662c3.706 4.168 5.793 7.472.915 12.35" stroke="#000" stroke-linecap="round" stroke-linejoin="round" stroke-width="3"/><path d="m395.637 744.822c5.868 9.78 13.928 17.203 21.499 25.616 1.638 1.82 3.677 8.234 6.405 8.234" stroke="#000" stroke-linecap="round" stroke-linejoin="round" stroke-width="3"/><path d="m165.546 825.33c2.223-.444 4.349-2.776 4.574-5.031.159-1.584.196-4.851-1.372-4.575-2.869.507-4.412 3.822-6.404 5.947-.843.899-.459 5.016-.457 5.032 1.05 10.505 16.407 4.266 19.212-2.745" stroke="#000" stroke-linecap="round" stroke-linejoin="round" stroke-width="3"/><path d="m194.365 827.16c0-.457.19-.956 0-1.372-1.507-3.286-2.255-11.92-5.032-9.606-3.633 3.027-3.692 10.73-.458 14.18 2.288 2.44 5.089-4.369 7.319-6.861.606-.677.458-2.894.458-3.66 0-.915.647-3.391 0-2.744-1.562 1.561-.351 7.053 0 8.691 1.438 6.711 1.8 13.305 2.287 20.127.033.459.079 7.855 0 7.777-.605-.605 1.226-4.446 1.372-5.032" stroke="#000" stroke-linecap="round" stroke-linejoin="round" stroke-width="3"/><path d="m205.801 814.352c1.56 3.901 2.858 14.562 8.691 13.266.421-.094.738-.522.915-.915 1.208-2.686 2.576-5.356 3.202-8.234.464-2.135-1.365-2.745-2.745-2.745" stroke="#000" stroke-linecap="round" stroke-linejoin="round" stroke-width="3"/><path d="m223.641 815.724c1.067 2.592 2.134 5.185 3.202 7.777" stroke="#000" stroke-linecap="round" stroke-linejoin="round" stroke-width="3"/><path d="m221.125 804.288c-.602.961-3.569-2.708-2.516-2.287 1.052.421 3.117 1.327 2.516 2.287z" stroke="#000" stroke-linecap="round" stroke-linejoin="round" stroke-width="3"/><path d="m235.991 805.661c0-.458-.071-1.825 0-1.373 1.29 8.224 2.44 16.468 3.66 24.702" stroke="#000" stroke-linecap="round" stroke-linejoin="round" stroke-width="3"/><path d="m233.704 817.097c4.16-1.891 8.433-3.596 12.351-5.947" stroke="#000" stroke-linecap="round" stroke-linejoin="round" stroke-width="3"/><path d="m252.002 809.778c.305 3.964-.864 8.337.915 11.893.829 1.659 3.846 1.776 5.489.915 3.387-1.775 4.033-6.736 4.574-10.521.13-.906 0 1.83 0 2.744v5.947c0 6.624 1.812 13.477 2.287 20.127.057.795-.192 7.247.915 5.032" stroke="#000" stroke-linecap="round" stroke-linejoin="round" stroke-width="3"/><path d="m279.905 823.958c1.678 3.356 1.639 6.903.915 10.521" stroke="#000" stroke-linecap="round" stroke-linejoin="round" stroke-width="3"/><path d="m316.5 813.895c-2.134-2.135-.372 7.747 0 9.606" stroke="#000" stroke-linecap="round" stroke-linejoin="round" stroke-width="3"/><path d="m314.442 803.602c.575.652-.987-1.444-1.601-2.058-.615-.615 1.026 1.407 1.601 2.058z" stroke="#000" stroke-linecap="round" stroke-linejoin="round" stroke-width="3"/><path d="m327.936 812.065c-2.642-1.321-.486 9.386 0 10.521.217.505.718-.859.915-1.372 1.333-3.466 2.327-7.056 3.66-10.522.367-.954 2.559-4.447 4.116-3.202 2.676 2.141 2.654 20.264 7.319 13.266" stroke="#000" stroke-linecap="round" stroke-linejoin="round" stroke-width="3"/><path d="m348.063 802.001c1.138 8.344 3.05 16.773 2.288 25.159" stroke="#000" stroke-linecap="round" stroke-linejoin="round" stroke-width="3"/><path d="m349.436 812.98c-1.953-.977 3.844-2.156 5.946-2.745 1.498-.419 3.05-.61 4.575-.915" stroke="#000" stroke-linecap="round" stroke-linejoin="round" stroke-width="3"/><path d="m365.903 822.586c1.83-4.27 4.889-8.202 5.49-12.808.203-1.557-3.299.947-4.117 2.287-1.046 1.711-1.639 4.076-.915 5.946 1.255 3.243 3.88 5.843 6.404 8.234 2.473 2.343 9.311-3.462 10.979-4.574" stroke="#000" stroke-linecap="round" stroke-linejoin="round" stroke-width="3"/><path d="m393.35 814.809c.305-.457 1.27-.952.915-1.372-1.616-1.909-3.597-5.429-5.947-4.574-2.884 1.048-3.397 5.251-4.117 8.234-.4 1.657-.788 4.957.915 5.031 3.543.154 6.543-2.787 9.606-4.574 1.529-.892 1.369-2.278 1.83-3.659.243-.729 1.691-2.884.915-3.66-.257-.257-.042 6.175 0 6.404.817 4.493 2.019 9.173 2.287 13.723.231 3.922.624 8.758-1.372 12.351-3.052 5.492-7.319 2.166-7.319-2.745" stroke="#000" stroke-linecap="round" stroke-linejoin="round" stroke-width="3"/><path d="m406.615 813.895c-2.249-1.125 1.068 4.922 1.83 7.319.236.74-.092 1.737.458 2.287.341.341.224-.95.457-1.373 2.211-4.007 4.486-7.981 6.862-11.893 1.33-2.192 5.175-2.902 7.319-1.83" stroke="#000" stroke-linecap="round" stroke-linejoin="round" stroke-width="3"/><path d="m431.774 811.607c.458 3.507.711 7.047 1.373 10.521.064.335.305-.61.457-.914" stroke="#000" stroke-linecap="round" stroke-linejoin="round" stroke-width="3"/><path d="m430.173 800.858c-.686-.687-2.744-2.745-2.058-2.059s2.745 2.745 2.058 2.059z" stroke="#000" stroke-linecap="round" stroke-linejoin="round" stroke-width="3"/><path d="m448.7 801.544c.673 7.913 2.929 15.999 1.372 23.786" stroke="#000" stroke-linecap="round" stroke-linejoin="round" stroke-width="3"/><path d="m445.498 814.809c-.735-.367.146-1.998.914-2.287 4.158-1.559 8.539-2.439 12.809-3.659" stroke="#000" stroke-linecap="round" stroke-linejoin="round" stroke-width="3"/><path d="m464.252 807.948c-.305 1.982-.989 3.942-.914 5.947.08 2.181-.598 7.346 1.372 6.404 4.404-2.107 5.415-8.292 9.149-11.436 1.056-.89-.377 2.738-.458 4.117-.071 1.217 0 2.439 0 3.659 0 3.412-.028 6.666.458 10.064 1.38 9.664 4.918 21.613-2.745 29.276" stroke="#000" stroke-linecap="round" stroke-linejoin="round" stroke-width="3"/></g></svg>