<?xml version="1.0" encoding="utf-8"?>
<!-- Generator: Adobe Illustrator 24.0.0, SVG Export Plug-In . SVG Version: 6.00 Build 0)  -->
<svg version="1.1" id="Layer_1" xmlns="http://www.w3.org/2000/svg" xmlns:xlink="http://www.w3.org/1999/xlink" x="0px" y="0px"
	 viewBox="0 0 16 16" style="enable-background:new 0 0 16 16;" xml:space="preserve">
<style type="text/css">
	.st0{fill:#A6CE39;}
	.st1{fill:#FFFFFF;}
</style>
<g>
	<path class="st0" d="M16,8c0,4.4-3.6,8-8,8s-8-3.6-8-8s3.6-8,8-8S16,3.6,16,8z"/>
	<g>
		<path class="st1" d="M5.4,11.6h-1V4.9h1v3V11.6z"/>
		<path class="st1" d="M6.8,4.9h2.6c2.5,0,3.6,1.8,3.6,3.3c0,1.7-1.3,3.3-3.6,3.3H6.8C6.8,11.6,6.8,4.9,6.8,4.9z M7.8,10.8h1.5
			c2.2,0,2.7-1.7,2.7-2.5c0-1.3-0.9-2.5-2.7-2.5H7.8L7.8,10.8L7.8,10.8z"/>
		<path class="st1" d="M5.5,3.5c0,0.3-0.3,0.6-0.6,0.6S4.3,3.9,4.3,3.6c0-0.3,0.3-0.6,0.6-0.6C5.3,2.9,5.5,3.2,5.5,3.5z"/>
	</g>
</g>
</svg>
