<svg enable-background="new 0 0 16 16" viewBox="0 0 16 16" xmlns="http://www.w3.org/2000/svg"><path d="m-192-192h400v400h-400z" fill="none"/><path d="m5.1 14.5c5.9 0 9.2-4.9 9.2-9.2 0-.1 0-.3 0-.4.6-.5 1.2-1 1.6-1.7-.6.3-1.2.4-1.9.5.7-.4 1.2-1 1.4-1.8-.6.4-1.3.6-2 .8-1.2-1.3-3.3-1.4-4.6-.1-.8.8-1.2 2-.9 3.1-2.6-.1-5-1.4-6.6-3.4-.9 1.5-.4 3.4 1 4.3-.5 0-1-.2-1.5-.4 0 1.5 1.1 2.9 2.6 3.2-.5.1-1 .1-1.5.1.4 1.3 1.6 2.2 3 2.2-1.1.9-2.6 1.4-4 1.4-.3 0-.5 0-.8 0 1.5.9 3.2 1.4 5 1.4" fill="#1da1f2"/></svg>