<svg enable-background="new 0 0 362.5 173.3" viewBox="0 0 362.5 173.3" xmlns="http://www.w3.org/2000/svg"><path d="m360 75.9v-21.7h-82.5v79.9c-.4-9.4-3.9-16.6-10.3-21.7-4.5-3.5-11.2-6.4-20.2-8.5l-20.5-4.8c-7.9-1.8-13.1-3.5-15.5-4.8-2.2-1.2-3.8-2.8-4.7-4.7-.6-1.3-1-2.9-1-4.6 0-3.6 1.2-6.6 3.8-9l.2-.2c.6-.5 1.2-1 1.8-1.4 3.8-2.5 9-3.8 15.4-3.8 5.8 0 10.6 1 14.5 2.9 5.8 3 9 7.9 9.4 14.9h23.4c-.4-12.4-5-21.8-13.8-28.4-8.8-6.5-19.4-9.8-31.8-9.8-14.9 0-26.2 3.5-33.9 10.4-4.7 4.2-8 9.2-9.8 14.7-.4 1.2-.7 2.5-1 3.7-2.8 13.4-11.5 22.6-26 22.6-23.2 0-31.9-19.7-31.9-39.3 0-20.5 8.7-40.2 31.9-40.2 12.8 0 24 8.9 25.6 20.5h25c-3.1-27.1-24.8-42.2-50.6-42.2-34.6 0-55.6 24.7-57.5 57.2v-54.3h-25.7v73c0 17.4-5.9 25.5-24.3 25.5-20.9 0-24.2-12.7-24.2-25.5v-73h-25.8v73c0 31.9 18.4 47.2 50 47.2 31.4 0 50.1-15.4 50.1-47.2v-9.1c1.9 31.6 22.9 56.3 57.5 56.3 14.2 0 26.4-4.6 35.3-12.8.6.4 1.1.9 1.7 1.3 4.6 3.2 13.2 6.2 25.6 8.9l12.6 2.8c7.4 1.6 12.8 3.4 16.2 5.5s5.1 5.1 5.1 8.9c0 6.6-3.5 11.1-10.4 13.5-3.7 1.3-8.4 1.9-14.3 1.9-9.8 0-16.7-2.4-20.8-7.2-2.2-2.6-3.7-6.6-4.4-11.9h-23.3c0 12.1 4.4 21.7 13.2 28.6s20.9 10.4 36.2 10.4c15 0 26.7-3.5 34.9-10.6 7.6-6.5 11.7-14.5 12.3-24v32.8h25.8v-48.6h49.1v-20h-49.1v-27.1z"/></svg>