<svg enable-background="new 0 0 62.5 30" viewBox="0 0 62.5 30" xmlns="http://www.w3.org/2000/svg"><path d="m57.1 13.4v-3.2h-12v11.7c-.1-1.4-.6-2.4-1.5-3.2-.7-.5-1.6-.9-2.9-1.2l-3-.7c-1.2-.3-1.9-.5-2.3-.7-.3-.1-.5-.4-.7-.7-.1-.2-.1-.4-.1-.7 0-.5.2-1 .6-1.3.1-.1.2-.1.3-.2.6-.4 1.3-.6 2.2-.6.8 0 1.6.1 2.1.4.9.4 1.3 1.2 1.4 2.2h3.4c-.1-1.8-.7-3.2-2-4.1-1.3-1-2.8-1.4-4.6-1.4-2.2 0-3.8.5-4.9 1.5-.7.6-1.2 1.3-1.4 2.2-.1.2-.1.4-.1.5-.4 2-1.7 3.3-3.8 3.3-3.4 0-4.7-2.9-4.7-5.7 0-3 1.3-5.9 4.7-5.9 1.9 0 3.5 1.3 3.7 3h3.6c-.5-4-3.6-6.2-7.4-6.2-5.1 0-8.1 3.6-8.4 8.3v-7.9h-3.8v10.7c0 2.5-.9 3.7-3.6 3.7-3 0-3.5-1.8-3.5-3.7v-10.7h-3.9v10.7c0 4.7 2.7 6.9 7.3 6.9s7.3-2.3 7.3-6.9v-1.3c.3 4.6 3.3 8.2 8.4 8.2 2.1 0 3.8-.7 5.2-1.9.1.1.2.1.3.2.7.5 1.9.9 3.7 1.3l1.8.4c1.1.2 1.9.5 2.4.8s.8.8.7 1.3c0 1-.5 1.6-1.5 2-.5.2-1.2.3-2.1.3-1.4 0-2.4-.4-3-1.1-.3-.4-.5-1-.6-1.7h-3.4c0 1.8.6 3.2 1.9 4.2s3 1.5 5.3 1.5c2.2 0 3.9-.5 5.1-1.5 1.1-.9 1.7-2.1 1.8-3.5v4.8h3.8v-7.1h7.1v-2.9h-7.2v-4h8.3z" fill="#fff"/></svg>